<!-- Generated by IcoMoon.io -->
<svg version="1.1" xmlns="http://www.w3.org/2000/svg" width="32" height="32" viewBox="0 0 32 32">
<path d="M1.817 13.002h28.366c0.528 0 0.924-0.264 1.187-0.792s0.132-1.055-0.132-1.451l-8.576-10.291c-0.528-0.528-1.319-0.66-1.847-0.132s-0.66 1.319-0.132 1.847l6.729 8.18h-25.595c-0.792 0-1.319 0.528-1.319 1.319s0.528 1.319 1.319 1.319z"></path>
<path d="M30.183 18.939h-28.366c-0.528 0-0.924 0.264-1.187 0.792s-0.132 1.055 0.132 1.451l8.576 10.291c0.264 0.264 0.66 0.528 1.055 0.528 0.264 0 0.66-0.132 0.792-0.264 0.528-0.528 0.66-1.319 0.132-1.847l-6.729-8.18h25.595c0.792 0 1.319-0.528 1.319-1.319s-0.528-1.451-1.319-1.451z"></path>
</svg>
