<?xml version="1.0" encoding="utf-8"?>
<!-- Generator: Adobe Illustrator 21.0.0, SVG Export Plug-In . SVG Version: 6.00 Build 0)  -->
<svg version="1.1" id="Layer_1" xmlns="http://www.w3.org/2000/svg" xmlns:xlink="http://www.w3.org/1999/xlink" x="0px" y="0px"
	 viewBox="0 0 23.5 25" style="enable-background:new 0 0 23.5 25;" xml:space="preserve">
<style type="text/css">
	.st0{fill:#684A80;}
</style>
<g>
	<path class="st0" d="M1,10.2h21.5c0.4,0,0.7-0.2,0.9-0.6s0.1-0.8-0.1-1.1l-6.5-7.8c-0.4-0.4-1-0.5-1.4-0.1c-0.4,0.4-0.5,1-0.1,1.4
		l5.1,6.2H1c-0.6,0-1,0.4-1,1S0.4,10.2,1,10.2z"/>
	<path class="st0" d="M22.5,14.7H1c-0.4,0-0.7,0.2-0.9,0.6c-0.2,0.4-0.1,0.8,0.1,1.1l6.5,7.8c0.2,0.2,0.5,0.4,0.8,0.4
		c0.2,0,0.5-0.1,0.6-0.2c0.4-0.4,0.5-1,0.1-1.4l-5.1-6.2h19.4c0.6,0,1-0.4,1-1S23.1,14.7,22.5,14.7z"/>
</g>
</svg>
