<!-- Generated by IcoMoon.io -->
<svg version="1.1" xmlns="http://www.w3.org/2000/svg" width="32" height="32" viewBox="0 0 32 32">
<path d="M29.479 9.146h-27.415c-0.914 0-1.523-0.609-1.523-1.523s0.609-1.523 1.523-1.523h27.415c0.914 0 1.523 0.609 1.523 1.523s-0.609 1.523-1.523 1.523z"></path>
<path d="M22.625 17.523h-20.562c-0.914 0-1.523-0.609-1.523-1.523s0.609-1.523 1.523-1.523h20.562c0.914 0 1.523 0.609 1.523 1.523s-0.762 1.523-1.523 1.523z"></path>
<path d="M29.479 25.9h-27.415c-0.914 0-1.523-0.609-1.523-1.523s0.609-1.523 1.523-1.523h27.415c0.914 0 1.523 0.609 1.523 1.523s-0.609 1.523-1.523 1.523z"></path>
<path d="M31.459 16c0 1.262-1.023 2.285-2.285 2.285s-2.285-1.023-2.285-2.285c0-1.262 1.023-2.285 2.285-2.285s2.285 1.023 2.285 2.285z"></path>
</svg>
