<?xml version="1.0" encoding="utf-8"?>
<!-- Generator: Adobe Illustrator 21.0.0, SVG Export Plug-In . SVG Version: 6.00 Build 0)  -->
<svg version="1.1" id="Component_93_1" xmlns="http://www.w3.org/2000/svg" xmlns:xlink="http://www.w3.org/1999/xlink" x="0px"
	 y="0px" viewBox="0 0 34 18" style="enable-background:new 0 0 34 18;" xml:space="preserve">
<style type="text/css">
	.st0{fill:#FF8888;}
	.st1{fill:#FFFFFF;}
</style>
<g id="Group_1706" transform="translate(33.714 18) rotate(180)">
	<g id="Rectangle_699">
		<path class="st0" d="M8.7,0h16c5,0,9,4,9,9l0,0c0,5-4,9-9,9h-16c-5,0-9-4-9-9l0,0C-0.3,4,3.7,0,8.7,0z"/>
	</g>
	<g id="Ellipse_322" transform="translate(18.714 3)">
		<g>
			<path class="st1" d="M6,0c3.3,0,6,2.7,6,6c0,3.3-2.7,6-6,6S0,9.3,0,6C0,2.7,2.7,0,6,0z M6,10.5c2.5,0,4.5-2,4.5-4.5
				c0-2.5-2-4.5-4.5-4.5S1.5,3.5,1.5,6C1.5,8.5,3.5,10.5,6,10.5z"/>
		</g>
	</g>
</g>
</svg>
