<?xml version="1.0" encoding="utf-8"?>
<!-- Generator: Adobe Illustrator 21.0.0, SVG Export Plug-In . SVG Version: 6.00 Build 0)  -->
<svg version="1.1" id="Layer_1" xmlns="http://www.w3.org/2000/svg" xmlns:xlink="http://www.w3.org/1999/xlink" x="0px" y="0px"
	 viewBox="0 0 20.3 13" style="enable-background:new 0 0 20.3 13;" xml:space="preserve">
<style type="text/css">
	.st0{fill:#684A80;}
</style>
<g id="Component_121_3" transform="translate(1 1)">
	<g id="Component_85">
		<g id="Path_1299">
			<path class="st0" d="M18,1H0c-0.6,0-1-0.4-1-1s0.4-1,1-1h18c0.6,0,1,0.4,1,1S18.6,1,18,1z"/>
		</g>
		<g id="Path_1300">
			<path class="st0" d="M13.5,6.5H0c-0.6,0-1-0.4-1-1s0.4-1,1-1h13.5c0.6,0,1,0.4,1,1S14,6.5,13.5,6.5z"/>
		</g>
		<g id="Path_1301">
			<path class="st0" d="M18,12H0c-0.6,0-1-0.4-1-1s0.4-1,1-1h18c0.6,0,1,0.4,1,1S18.6,12,18,12z"/>
		</g>
		<g id="Ellipse_540">
			<circle class="st0" cx="17.8" cy="5.5" r="1.5"/>
		</g>
	</g>
</g>
</svg>
