<?xml version="1.0" encoding="utf-8"?>
<!-- Generator: Adobe Illustrator 21.0.0, SVG Export Plug-In . SVG Version: 6.00 Build 0)  -->
<svg version="1.1" id="Layer_1" xmlns="http://www.w3.org/2000/svg" xmlns:xlink="http://www.w3.org/1999/xlink" x="0px" y="0px"
	 viewBox="0 0 18 18" style="enable-background:new 0 0 18 18;" xml:space="preserve">
<style type="text/css">
	.st0{fill:#684A80;}
</style>
<path class="st0" d="M17.3,8.3H9.8V0.7C9.8,0.3,9.4,0,9,0C8.6,0,8.3,0.3,8.3,0.7v7.5H0.8C0.3,8.3,0,8.6,0,9c0,0.4,0.3,0.8,0.8,0.8
	h7.5v7.5C8.3,17.7,8.6,18,9,18c0.4,0,0.8-0.3,0.8-0.8V9.8h7.5C17.7,9.8,18,9.4,18,9C18,8.6,17.7,8.3,17.3,8.3z"/>
</svg>
