<?xml version="1.0" encoding="utf-8"?>
<!-- Generator: Adobe Illustrator 21.0.0, SVG Export Plug-In . SVG Version: 6.00 Build 0)  -->
<svg version="1.1" id="Layer_1" xmlns="http://www.w3.org/2000/svg" xmlns:xlink="http://www.w3.org/1999/xlink" x="0px" y="0px"
	 viewBox="0 0 11.4 6.5" style="enable-background:new 0 0 11.4 6.5;" xml:space="preserve">
<style type="text/css">
	.st0{fill:#FFFFFF;}
</style>
<path class="st0" d="M11.2,0.2C11.2,0.2,11.2,0.2,11.2,0.2c-0.3-0.3-0.8-0.3-1.1,0L5.7,4.6L1.3,0.2c0,0,0,0,0,0
	C1-0.1,0.5-0.1,0.2,0.2c0,0,0,0,0,0c-0.3,0.3-0.3,0.8,0,1.1l5,5c0.1,0.1,0.3,0.2,0.5,0.2c0.2,0,0.4-0.1,0.5-0.2l5-5c0,0,0,0,0,0
	C11.5,1,11.5,0.5,11.2,0.2z"/>
</svg>
