<?xml version="1.0" encoding="utf-8"?>
<!-- Generator: Adobe Illustrator 27.0.0, SVG Export Plug-In . SVG Version: 6.00 Build 0)  -->
<svg version="1.1" id="Layer_1" xmlns="http://www.w3.org/2000/svg" xmlns:xlink="http://www.w3.org/1999/xlink" x="0px" y="0px"
	 viewBox="0 0 23.3 26.4" style="enable-background:new 0 0 23.3 26.4;" xml:space="preserve">
<style type="text/css">
	.st0{fill:#ABB6D6;}
</style>
<g transform="translate(.5 .5)">
	<g>
		<path class="st0" d="M11.2,14.7c-4.2,0-7.6-3.4-7.6-7.6c0-4.2,3.4-7.6,7.6-7.6s7.6,3.4,7.6,7.6C18.8,11.3,15.4,14.7,11.2,14.7z
			 M11.2,0.5c-3.6,0-6.6,3-6.6,6.6c0,3.6,3,6.6,6.6,6.6c3.6,0,6.6-3,6.6-6.6C17.8,3.5,14.8,0.5,11.2,0.5z"/>
	</g>
	<g>
		<path class="st0" d="M22.3,25.9c-0.3,0-0.5-0.2-0.5-0.5c0-5.9-4.8-10.7-10.7-10.7c-5.9,0-10.7,4.8-10.7,10.7
			c0,0.3-0.2,0.5-0.5,0.5s-0.5-0.2-0.5-0.5c0-6.4,5.2-11.7,11.7-11.7S22.8,19,22.8,25.4C22.8,25.7,22.6,25.9,22.3,25.9z"/>
	</g>
</g>
</svg>
