<!-- Generated by IcoMoon.io -->
<svg version="1.1" xmlns="http://www.w3.org/2000/svg" width="32" height="32" viewBox="0 0 32 32">
<path d="M16.121 18.424c-5.091 0-9.212-4.121-9.212-9.212s4.121-9.212 9.212-9.212 9.212 4.121 9.212 9.212c0 5.091-4.121 9.212-9.212 9.212zM16.121 1.212c-4.364 0-8 3.636-8 8s3.636 8 8 8c4.364 0 8-3.636 8-8s-3.636-8-8-8z"></path>
<path d="M29.576 32c-0.364 0-0.606-0.242-0.606-0.606 0-7.151-5.818-12.97-12.97-12.97s-12.97 5.818-12.97 12.97c0 0.364-0.242 0.606-0.606 0.606s-0.606-0.242-0.606-0.606c0-7.758 6.303-14.182 14.182-14.182s14.182 6.424 14.182 14.182c0 0.364-0.242 0.606-0.606 0.606z"></path>
</svg>
