<!-- Generated by IcoMoon.io -->
<svg version="1.1" xmlns="http://www.w3.org/2000/svg" width="32" height="32" viewBox="0 0 32 32">
<path d="M16 0c-8.791 0-16 7.209-16 16s7.209 16 16 16c8.791 0 16-7.209 16-16s-7.209-16-16-16zM16 28.308c-6.857 0-12.483-5.451-12.483-12.308s5.626-12.483 12.483-12.483c6.857 0 12.483 5.626 12.483 12.483s-5.626 12.308-12.483 12.308z"></path>
<path d="M16 21.099c-1.055 0-1.758 0.879-1.758 1.758 0 1.055 0.879 1.758 1.758 1.758 0 0 0 0 0 0 1.055 0 1.758-0.879 1.758-1.758s-0.879-1.758-1.758-1.758z"></path>
<path d="M16 19.692c1.055 0 1.758-0.703 1.758-1.758v-9.846c0-1.055-0.703-1.758-1.758-1.758s-1.758 0.703-1.758 1.758v9.846c0 0.879 0.703 1.758 1.758 1.758z"></path>
</svg>
