<!-- Generated by IcoMoon.io -->
<svg version="1.1" xmlns="http://www.w3.org/2000/svg" width="32" height="32" viewBox="0 0 32 32">
<path d="M30.968 13.935h-2.065c-0.568 0-1.032 0.465-1.032 1.032v0.516h-23.742v-0.516c0-0.568-0.465-1.032-1.032-1.032h-2.065c-0.568 0-1.032 0.465-1.032 1.032v2.065c0 0.568 0.465 1.032 1.032 1.032h2.065c0.568 0 1.032-0.465 1.032-1.032v-0.516h23.742v0.516c0 0.568 0.465 1.032 1.032 1.032h2.065c0.568 0 1.032-0.465 1.032-1.032v-2.065c0-0.568-0.465-1.032-1.032-1.032z"></path>
</svg>
