<?xml version="1.0" encoding="utf-8"?>
<!-- Generator: Adobe Illustrator 21.0.0, SVG Export Plug-In . SVG Version: 6.00 Build 0)  -->
<svg version="1.1" id="Layer_1" xmlns="http://www.w3.org/2000/svg" xmlns:xlink="http://www.w3.org/1999/xlink" x="0px" y="0px"
	 viewBox="0 0 18.1 18.1" style="enable-background:new 0 0 18.1 18.1;" xml:space="preserve">
<style type="text/css">
	.st0{fill:#49D1E1;}
</style>
<g>
	<path class="st0" d="M9.1,0C4.1,0,0,4.1,0,9.1s4.1,9.1,9.1,9.1c5,0,9.1-4.1,9.1-9.1S14.1,0,9.1,0z M9.1,16.1C5.2,16.1,2,13,2,9.1
		S5.2,2,9.1,2c3.9,0,7.1,3.2,7.1,7.1S13,16.1,9.1,16.1z"/>
	<path class="st0" d="M9.1,12c-0.6,0-1,0.5-1,1c0,0.6,0.5,1,1,1c0,0,0,0,0,0c0.6,0,1-0.5,1-1S9.6,12,9.1,12z"/>
	<path class="st0" d="M9.1,11.2c0.6,0,1-0.4,1-1V4.6c0-0.6-0.4-1-1-1s-1,0.4-1,1v5.6C8.1,10.7,8.5,11.2,9.1,11.2z"/>
</g>
</svg>
