<?xml version="1.0" encoding="utf-8"?>
<!-- Generator: Adobe Illustrator 21.0.0, SVG Export Plug-In . SVG Version: 6.00 Build 0)  -->
<svg version="1.1" id="Layer_1" xmlns="http://www.w3.org/2000/svg" xmlns:xlink="http://www.w3.org/1999/xlink" x="0px" y="0px"
	 viewBox="0 0 40 40" style="enable-background:new 0 0 40 40;" xml:space="preserve">
<style type="text/css">
	.st0{fill:#684A80;}
</style>
<g>
	<path class="st0" d="M38.9,19.1c-0.6,0-1,0.4-1,1v12.3c0,3.1-2.5,5.7-5.7,5.7H7.7C4.5,38,2,35.5,2,32.3V7.8c0-3.1,2.5-5.7,5.7-5.7
		h12.3c0.5,0,1-0.4,1-1c0-0.6-0.4-1-1-1H7.7C3.4,0.1,0,3.6,0,7.8v24.5C0,36.6,3.4,40,7.7,40h24.5c4.2,0,7.7-3.4,7.7-7.7V20.1
		C39.9,19.5,39.4,19.1,38.9,19.1z"/>
	<path class="st0" d="M28.3,0c-0.6,0-1,0.4-1,1c0,0.6,0.4,1,1,1h8.3L19.2,19.4c-0.4,0.4-0.4,1,0,1.4c0.4,0.4,1,0.4,1.4,0L38,3.4v8.3
		c0,0.6,0.4,1,1,1c0.6,0,1-0.4,1-1V0H28.3z"/>
	<path class="st0" d="M14.7,25.3c-0.4-0.4-1-0.4-1.4,0l-2.8,2.8l-2.8-2.8c-0.4-0.4-1-0.4-1.4,0c-0.4,0.4-0.4,1,0,1.4l2.8,2.8
		l-2.8,2.8c-0.4,0.4-0.4,1,0,1.4C6.5,33.9,6.7,34,7,34c0.3,0,0.5-0.1,0.7-0.3l2.8-2.8l2.8,2.8c0.2,0.2,0.4,0.3,0.7,0.3
		c0.3,0,0.5-0.1,0.7-0.3c0.4-0.4,0.4-1,0-1.4l-2.8-2.8l2.8-2.8C15.1,26.3,15.1,25.7,14.7,25.3z"/>
	<path class="st0" d="M17.3,25c-0.6,0-1,0.4-1,1v8H21c0.6,0,1-0.4,1-1c0-0.6-0.4-1-1-1h-2.8v-6C18.3,25.4,17.8,25,17.3,25z"/>
	<path class="st0" d="M27,31.9h-2.6c-0.6,0-1,0.4-1,1c0,0.6,0.4,1,1,1H27c1.5,0,2.7-1.2,2.7-2.7c0-1.5-1.2-2.7-2.7-2.7H26
		c-0.4,0-0.7-0.3-0.7-0.7v-0.1c0-0.4,0.3-0.7,0.7-0.7h2.6c0.6,0,1-0.4,1-1c0-0.6-0.4-1-1-1H26c-1.5,0-2.7,1.2-2.7,2.7v0.1
		c0,1.5,1.2,2.7,2.7,2.7H27c0.4,0,0.7,0.3,0.7,0.7C27.7,31.6,27.4,31.9,27,31.9z"/>
</g>
</svg>
