<!-- Generated by IcoMoon.io -->
<svg version="1.1" xmlns="http://www.w3.org/2000/svg" width="32" height="32" viewBox="0 0 32 32">
<path d="M1.032 14.71c-0.143 0-0.258 0.116-0.258 0.258v0 2.065c0 0.143 0.116 0.258 0.258 0.258v0h2.065c0.143 0 0.258-0.116 0.258-0.258v0-2.065c0-0.143-0.116-0.258-0.258-0.258v0h-2.065zM1.032 13.935h2.065c0.57 0 1.032 0.462 1.032 1.032v0 2.065c0 0.57-0.462 1.032-1.032 1.032v0h-2.065c-0.57 0-1.032-0.462-1.032-1.032v0-2.065c0-0.57 0.462-1.032 1.032-1.032v0z"></path>
<path d="M28.903 14.71c-0.143 0-0.258 0.116-0.258 0.258v0 2.065c0 0.143 0.116 0.258 0.258 0.258v0h2.065c0.143 0 0.258-0.116 0.258-0.258v0-2.065c0-0.143-0.116-0.258-0.258-0.258v0h-2.065zM28.903 13.935h2.065c0.57 0 1.032 0.462 1.032 1.032v0 2.065c0 0.57-0.462 1.032-1.032 1.032v0h-2.065c-0.57 0-1.032-0.462-1.032-1.032v0-2.065c0-0.57 0.462-1.032 1.032-1.032v0z"></path>
<path d="M28.29 16.387h-24.559v-0.774h24.559z"></path>
</svg>
