<?xml version="1.0" encoding="utf-8"?>
<!-- Generator: Adobe Illustrator 21.0.0, SVG Export Plug-In . SVG Version: 6.00 Build 0)  -->
<svg version="1.1" id="Layer_1" xmlns="http://www.w3.org/2000/svg" xmlns:xlink="http://www.w3.org/1999/xlink" x="0px" y="0px"
	 viewBox="0 0 62 8" style="enable-background:new 0 0 62 8;" xml:space="preserve">
<style type="text/css">
	.st0{fill:#49D1E1;}
</style>
<path class="st0" d="M60,0h-4c-1.1,0-2,0.9-2,2v1H8V2c0-1.1-0.9-2-2-2H2C0.9,0,0,0.9,0,2v4c0,1.1,0.9,2,2,2h4c1.1,0,2-0.9,2-2V5h46
	v1c0,1.1,0.9,2,2,2h4c1.1,0,2-0.9,2-2V2C62,0.9,61.1,0,60,0z"/>
</svg>
