<!-- Generated by IcoMoon.io -->
<svg version="1.1" xmlns="http://www.w3.org/2000/svg" width="32" height="32" viewBox="0 0 32 32">
<path fill="#45de82" d="M16 0c-8.758 0-16 7.242-16 16s7.242 16 16 16 16-7.242 16-16-7.242-16-16-16zM16 30.316c-7.916 0-14.316-6.4-14.316-14.316s6.4-14.316 14.316-14.316c7.916 0 14.316 6.4 14.316 14.316s-6.4 14.316-14.316 14.316z"></path>
<path fill="#45de82" d="M24.421 9.768c-0.168 0-0.505 0.168-0.674 0.337l-9.6 11.453-4.884-4.716c-0.337-0.337-0.842-0.337-1.179 0s-0.337 0.842 0 1.179l5.389 5.221c0.168 0.337 0.505 0.337 0.674 0.337 0.337 0 0.674 0 0.842-0.337l9.937-11.958c0.337-0.505 0.337-1.011 0-1.347-0.168 0-0.337-0.168-0.505-0.168z"></path>
</svg>
