<?xml version="1.0" encoding="utf-8"?>
<!-- Generator: Adobe Illustrator 21.0.0, SVG Export Plug-In . SVG Version: 6.00 Build 0)  -->
<svg version="1.1" id="Layer_1" xmlns="http://www.w3.org/2000/svg" xmlns:xlink="http://www.w3.org/1999/xlink" x="0px" y="0px"
	 viewBox="0 0 18.1 11.1" style="enable-background:new 0 0 18.1 11.1;" xml:space="preserve">
<style type="text/css">
	.st0{fill:#FFFFFF;}
</style>
<path class="st0" d="M5.7,11C5.7,11,5.7,11,5.7,11c0.2,0.2,0.4,0.2,0.5,0c0.1-0.2,0.1-0.4,0-0.5L1.4,5.7h16.4c0.2,0,0.4-0.2,0.4-0.4
	S18,4.9,17.7,4.9H1.5l4.3-4.3c0.1-0.1,0.1-0.2,0.1-0.3C5.9,0.2,5.7,0,5.5,0C5.4,0,5.3,0,5.2,0.1L0,5.3L5.7,11z"/>
</svg>
