<?xml version="1.0" encoding="utf-8"?>
<!-- Generator: Adobe Illustrator 21.0.0, SVG Export Plug-In . SVG Version: 6.00 Build 0)  -->
<svg version="1.1" id="Group_8344" xmlns="http://www.w3.org/2000/svg" xmlns:xlink="http://www.w3.org/1999/xlink" x="0px" y="0px"
	 viewBox="0 0 19 19" style="enable-background:new 0 0 19 19;" xml:space="preserve">
<style type="text/css">
	.st0{fill:#FFFFFF;}
</style>
<g>
	<path class="st0" d="M9.5,0C4.3,0,0,4.3,0,9.5S4.3,19,9.5,19S19,14.7,19,9.5S14.7,0,9.5,0z M9.5,18C4.8,18,1,14.2,1,9.5
		S4.8,1,9.5,1C14.2,1,18,4.8,18,9.5C18,14.2,14.2,18,9.5,18z"/>
	<path class="st0" d="M10,9.5l2.8-2.8C13,6.5,13,6.2,12.8,6c-0.1-0.1-0.2-0.1-0.4-0.1c-0.1,0-0.3,0.1-0.4,0.1L9.3,8.8L6.5,6
		C6.3,5.8,6,5.8,5.8,6c-0.2,0.2-0.2,0.5,0,0.7l2.8,2.8l-2.8,2.8c-0.2,0.2-0.2,0.5,0,0.7c0.2,0.2,0.5,0.2,0.7,0l2.8-2.8l2.8,2.8
		c0.2,0.2,0.5,0.2,0.7,0c0.1-0.1,0.1-0.2,0.1-0.4c0-0.1-0.1-0.3-0.1-0.4L10,9.5z"/>
</g>
</svg>
