<?xml version="1.0" encoding="utf-8"?>
<!-- Generator: Adobe Illustrator 21.0.0, SVG Export Plug-In . SVG Version: 6.00 Build 0)  -->
<svg version="1.1" id="Layer_1" xmlns="http://www.w3.org/2000/svg" xmlns:xlink="http://www.w3.org/1999/xlink" x="0px" y="0px"
	 viewBox="0 0 18.1 11.1" style="enable-background:new 0 0 18.1 11.1;" xml:space="preserve">
<style type="text/css">
	.st0{fill:#FFFFFF;}
</style>
<path class="st0" d="M12.5,0.1C12.5,0.1,12.5,0.1,12.5,0.1c-0.2-0.2-0.4-0.2-0.5,0c-0.1,0.2-0.1,0.4,0,0.5l4.8,4.8H0.4
	C0.2,5.4,0,5.6,0,5.8s0.2,0.4,0.4,0.4h16.3l-4.3,4.3c-0.1,0.1-0.1,0.2-0.1,0.3c0,0.2,0.2,0.4,0.4,0.4c0.1,0,0.2,0,0.3-0.1l5.2-5.2
	L12.5,0.1z"/>
</svg>
