<?xml version="1.0" encoding="utf-8"?>
<!-- Generator: Adobe Illustrator 21.0.0, SVG Export Plug-In . SVG Version: 6.00 Build 0)  -->
<svg version="1.1" id="Group_8345" xmlns="http://www.w3.org/2000/svg" xmlns:xlink="http://www.w3.org/1999/xlink" x="0px" y="0px"
	 viewBox="0 0 19 19" style="enable-background:new 0 0 19 19;" xml:space="preserve">
<style type="text/css">
	.st0{fill:#45DE82;}
</style>
<g>
	<path class="st0" d="M9.5,0C4.3,0,0,4.3,0,9.5S4.3,19,9.5,19S19,14.7,19,9.5S14.7,0,9.5,0z M9.5,18C4.8,18,1,14.2,1,9.5
		S4.8,1,9.5,1C14.2,1,18,4.8,18,9.5C18,14.2,14.2,18,9.5,18z"/>
	<path class="st0" d="M14.5,5.8c-0.1,0-0.3,0.1-0.4,0.2l-5.7,6.8L5.5,10C5.3,9.8,5,9.8,4.8,10c-0.2,0.2-0.2,0.5,0,0.7L8,13.8
		C8.1,14,8.3,14,8.4,14c0.2,0,0.4,0,0.5-0.2l5.9-7.1C15,6.4,15,6.1,14.8,5.9C14.7,5.9,14.6,5.8,14.5,5.8z"/>
</g>
</svg>
