<!-- Generated by IcoMoon.io -->
<svg version="1.1" xmlns="http://www.w3.org/2000/svg" width="32" height="32" viewBox="0 0 32 32">
<path d="M16 0c-8.758 0-16 7.242-16 16s7.242 16 16 16 16-7.242 16-16-7.242-16-16-16zM16 30.316c-7.916 0-14.316-6.4-14.316-14.316s6.4-14.316 14.316-14.316c7.916 0 14.316 6.4 14.316 14.316s-6.4 14.316-14.316 14.316z"></path>
<path d="M16.842 16l4.716-4.716c0.337-0.337 0.337-0.842 0-1.179-0.168-0.168-0.337-0.168-0.674-0.168-0.168 0-0.505 0.168-0.674 0.168l-4.547 4.716-4.716-4.716c-0.337-0.337-0.842-0.337-1.179 0s-0.337 0.842 0 1.179l4.716 4.716-4.716 4.716c-0.337 0.337-0.337 0.842 0 1.179s0.842 0.337 1.179 0l4.716-4.716 4.716 4.716c0.337 0.337 0.842 0.337 1.179 0 0.168-0.168 0.168-0.337 0.168-0.674 0-0.168-0.168-0.505-0.168-0.674l-4.716-4.547z"></path>
</svg>
