<?xml version="1.0" encoding="utf-8"?>
<!-- Generator: Adobe Illustrator 21.0.0, SVG Export Plug-In . SVG Version: 6.00 Build 0)  -->
<svg version="1.1" id="Layer_1" xmlns="http://www.w3.org/2000/svg" xmlns:xlink="http://www.w3.org/1999/xlink" x="0px" y="0px"
	 viewBox="0 0 20.1 22.3" style="enable-background:new 0 0 20.1 22.3;" xml:space="preserve">
<style type="text/css">
	.st0{fill:#DBDBDB;}
</style>
<g>
	<path class="st0" d="M19.6,2.3h-3.8V0.5c0-0.3-0.2-0.5-0.5-0.5c-0.3,0-0.5,0.2-0.5,0.5v1.8H5.3V0.5C5.3,0.2,5,0,4.8,0
		C4.5,0,4.3,0.2,4.3,0.5v1.8H0.5C0.2,2.3,0,2.5,0,2.8V7v14.8c0,0.3,0.2,0.5,0.5,0.5h19.1c0.3,0,0.5-0.2,0.5-0.5V7V2.8
		C20.1,2.5,19.8,2.3,19.6,2.3z M1,3.3h3.3V5c0,0.3,0.2,0.5,0.5,0.5C5,5.5,5.3,5.3,5.3,5V3.3h9.5v1.6c0,0.3,0.2,0.5,0.5,0.5
		c0.3,0,0.5-0.2,0.5-0.5V3.3h3.3v3.3H1V3.3z M1,21.3V7.5h18.1v13.8H1z"/>
	<path class="st0" d="M4.8,9.7c-0.3,0-0.5,0.2-0.5,0.5v2.1c0,0.3,0.2,0.5,0.5,0.5c0.3,0,0.5-0.2,0.5-0.5v-2.1C5.3,10,5,9.7,4.8,9.7z
		"/>
	<path class="st0" d="M15.3,9.7c-0.3,0-0.5,0.2-0.5,0.5v2.1c0,0.3,0.2,0.5,0.5,0.5c0.3,0,0.5-0.2,0.5-0.5v-2.1
		C15.8,10,15.6,9.7,15.3,9.7z"/>
	<path class="st0" d="M10,9.7c-0.3,0-0.5,0.2-0.5,0.5v2.1c0,0.3,0.2,0.5,0.5,0.5c0.3,0,0.5-0.2,0.5-0.5v-2.1
		C10.5,10,10.3,9.7,10,9.7z"/>
	<path class="st0" d="M4.8,16.1c-0.3,0-0.5,0.2-0.5,0.5v2.1c0,0.3,0.2,0.5,0.5,0.5c0.3,0,0.5-0.2,0.5-0.5v-2.1
		C5.3,16.3,5,16.1,4.8,16.1z"/>
	<path class="st0" d="M15.3,16.1c-0.3,0-0.5,0.2-0.5,0.5v2.1c0,0.3,0.2,0.5,0.5,0.5c0.3,0,0.5-0.2,0.5-0.5v-2.1
		C15.8,16.3,15.6,16.1,15.3,16.1z"/>
	<path class="st0" d="M10,16.1c-0.3,0-0.5,0.2-0.5,0.5v2.1c0,0.3,0.2,0.5,0.5,0.5c0.3,0,0.5-0.2,0.5-0.5v-2.1
		C10.5,16.3,10.3,16.1,10,16.1z"/>
</g>
</svg>
