<?xml version="1.0" encoding="utf-8"?>
<!-- Generator: Adobe Illustrator 21.0.0, SVG Export Plug-In . SVG Version: 6.00 Build 0)  -->
<svg version="1.1" id="Layer_1" xmlns="http://www.w3.org/2000/svg" xmlns:xlink="http://www.w3.org/1999/xlink" x="0px" y="0px"
	 viewBox="0 0 16.3 16.3" style="enable-background:new 0 0 16.3 16.3;" xml:space="preserve">
<style type="text/css">
	.st0{fill:#684A80;}
</style>
<g>
	<path class="st0" d="M15.5,9.8c-0.4,0-0.8,0.3-0.8,0.8v3.3c0,0.5-0.4,0.9-0.9,0.9H2.4c-0.5,0-0.9-0.4-0.9-0.9v-3.3
		c0-0.4-0.3-0.8-0.8-0.8S0,10.2,0,10.6v3.3c0,1.3,1.1,2.4,2.4,2.4h11.5c1.3,0,2.4-1.1,2.4-2.4v-3.3C16.3,10.2,15.9,9.8,15.5,9.8z"/>
	<path class="st0" d="M7.6,11.1c0.1,0.1,0.3,0.2,0.5,0.2s0.4-0.1,0.5-0.2L12.8,7C13,6.7,13,6.2,12.8,6S12,5.7,11.7,6L8.9,8.8v-8
		C8.9,0.3,8.5,0,8.1,0S7.4,0.3,7.4,0.8v8L4.6,6C4.3,5.7,3.8,5.7,3.5,6S3.2,6.7,3.5,7L7.6,11.1z"/>
</g>
</svg>
