<!-- Generated by IcoMoon.io -->
<svg version="1.1" xmlns="http://www.w3.org/2000/svg" width="32" height="32" viewBox="0 0 32 32">
<path d="M30.43 19.239c-0.785 0-1.571 0.589-1.571 1.571v6.479c0 0.982-0.785 1.767-1.767 1.767h-22.38c-0.982 0-1.767-0.785-1.767-1.767v-6.479c0-0.785-0.589-1.571-1.571-1.571s-1.374 0.785-1.374 1.571v6.479c0 2.552 2.159 4.712 4.712 4.712h22.577c2.552 0 4.712-2.159 4.712-4.712v-6.479c0-0.785-0.785-1.571-1.571-1.571z"></path>
<path d="M14.92 21.791c0.196 0.196 0.589 0.393 0.982 0.393s0.785-0.196 0.982-0.393l8.245-8.049c0.393-0.589 0.393-1.571 0-1.963s-1.571-0.589-2.159 0l-5.497 5.497v-15.706c0-0.982-0.785-1.571-1.571-1.571s-1.374 0.589-1.374 1.571v15.706l-5.497-5.497c-0.589-0.589-1.571-0.589-2.159 0s-0.589 1.374 0 1.963l8.049 8.049z"></path>
</svg>
