<?xml version="1.0" encoding="utf-8"?>
<!-- Generator: Adobe Illustrator 21.0.0, SVG Export Plug-In . SVG Version: 6.00 Build 0)  -->
<svg version="1.1" id="Component_95_1" xmlns="http://www.w3.org/2000/svg" xmlns:xlink="http://www.w3.org/1999/xlink" x="0px"
	 y="0px" viewBox="0 0 14 14" style="enable-background:new 0 0 14 14;" xml:space="preserve">
<style type="text/css">
	.st0{fill:#374775;}
</style>
<g>
	<path class="st0" d="M7.6,6.2C7.6,6.2,7.5,6.2,7.6,6.2L5.3,2.8C5.2,2.6,5,2.6,4.8,2.7C4.6,2.8,4.6,3,4.7,3.2l2.1,3.2L4.7,10
		c-0.1,0.2,0,0.4,0.1,0.5c0.1,0,0.1,0.1,0.2,0.1c0.1,0,0.3-0.1,0.3-0.2l2-3.3l2.2,3.3c0.1,0.1,0.2,0.2,0.3,0.2c0.1,0,0.1,0,0.2-0.1
		c0.2-0.1,0.2-0.4,0.1-0.5L7.6,6.2z"/>
	<path class="st0" d="M10,0H4C1.8,0,0,1.8,0,4v6c0,2.2,1.8,4,4,4h6c2.2,0,4-1.8,4-4V4C14,1.8,12.2,0,10,0z M13.3,10
		c0,1.8-1.5,3.3-3.3,3.3H4c-1.8,0-3.3-1.5-3.3-3.3V4c0-1.8,1.5-3.3,3.3-3.3h6c1.8,0,3.3,1.5,3.3,3.3V10z"/>
</g>
</svg>
