<?xml version="1.0" encoding="utf-8"?>
<!-- Generator: Adobe Illustrator 21.0.0, SVG Export Plug-In . SVG Version: 6.00 Build 0)  -->
<svg version="1.1" id="Layer_1" xmlns="http://www.w3.org/2000/svg" xmlns:xlink="http://www.w3.org/1999/xlink" x="0px" y="0px"
	 viewBox="0 0 12.4 12.4" style="enable-background:new 0 0 12.4 12.4;" xml:space="preserve">
<style type="text/css">
	.st0{fill:#374775;}
</style>
<path class="st0" d="M12.3,2.6l-1.2-1.2L9.8,0.1C9.7,0,9.4,0,9.2,0.1L0.9,8.4C0.8,8.5,0.8,8.5,0.8,8.6L0,11.9c0,0.1,0,0.3,0.1,0.4
	c0.1,0.1,0.2,0.1,0.4,0.1l3.3-0.8c0.1,0,0.1,0,0.2-0.1l8.3-8.3C12.4,3,12.4,2.7,12.3,2.6z M0.9,11.5l0.5-2.1l0.8,0.8L3,11L0.9,11.5z
	 M3.7,10.6L2.8,9.6L1.8,8.7l6.1-6.1l0.9,0.9l0.9,0.9L3.7,10.6z M10.3,4L9.4,3L8.4,2.1L9.5,1l0.9,0.9l0.9,0.9L10.3,4z"/>
</svg>
