<?xml version="1.0" encoding="utf-8"?>
<!-- Generator: Adobe Illustrator 21.0.0, SVG Export Plug-In . SVG Version: 6.00 Build 0)  -->
<svg version="1.1" id="Component_96_1" xmlns="http://www.w3.org/2000/svg" xmlns:xlink="http://www.w3.org/1999/xlink" x="0px"
	 y="0px" viewBox="0 0 11.4 12.7" style="enable-background:new 0 0 11.4 12.7;" xml:space="preserve">
<style type="text/css">
	.st0{fill:#374775;}
	.st1{fill:none;}
	.st2{fill:none;stroke:#374775;stroke-width:0.75;}
</style>
<path class="st0" d="M9.2,4.4C8.7,4.4,8.1,4.6,7.7,5c0,0-0.1,0.1-0.1,0.1c0,0,0,0,0,0L4.3,2.9c0,0,0,0,0,0v0c0-0.1,0.1-0.2,0.1-0.3
	c0,0,0,0,0-0.1c0-0.1,0-0.3,0-0.4c0-0.6-0.3-1.2-0.7-1.5c0,0-0.1-0.1-0.2-0.1c0,0,0,0,0,0c-0.1,0-0.1-0.1-0.2-0.2
	C3.2,0.2,3,0.2,2.8,0.1C2.7,0.1,2.6,0,2.4,0C2.3,0,2.3,0,2.2,0S2,0,2,0C1.8,0,1.7,0.1,1.5,0.1h0c-0.1,0-0.2,0.1-0.3,0.1
	c-0.1,0-0.2,0.1-0.2,0.1C1,0.4,0.9,0.4,0.8,0.5c0,0,0,0,0,0C0.7,0.6,0.6,0.7,0.5,0.8c0,0,0,0,0,0c0,0.1-0.1,0.1-0.1,0.2
	c0,0.1-0.1,0.1-0.1,0.2c0,0.1-0.1,0.2-0.1,0.3v0C0.1,1.7,0,1.8,0,2C0,2,0,2.1,0,2.2c0,0.1,0,0.2,0,0.2c0,0.1,0,0.3,0.1,0.4
	C0.2,3,0.2,3.2,0.3,3.3c0,0.1,0.1,0.2,0.1,0.2c0,0,0,0,0,0l0.2,0.2C1,4.1,1.6,4.4,2.2,4.4c0.1,0,0.1,0,0.2,0c0.2,0,0.3,0,0.4-0.1
	c0.1,0,0.1,0,0.2-0.1c0.1,0,0.1,0,0.2-0.1C3.4,4.1,3.5,4,3.6,3.9c0,0,0.1-0.1,0.1-0.1c0.1-0.1,0.1-0.1,0.2-0.2c0,0,0,0,0,0l3.3,2.2
	c0,0,0,0,0,0c0,0.1-0.1,0.2-0.1,0.4c0,0,0,0.1,0,0.2c0,0.1,0,0.2,0,0.3c0,0.1,0,0.2,0,0.3c0,0.1,0,0.1,0,0.2c0,0.1,0,0.1,0,0.2
	L3.8,9.1c-0.4-0.5-1-0.7-1.6-0.7C1.6,8.4,1,8.6,0.7,9C0.4,9.3,0.2,9.6,0.1,9.9C0.1,10,0,10.2,0,10.3c0,0.1,0,0.2,0,0.2
	c0,0.1,0,0.1,0,0.2c0,0.1,0,0.3,0.1,0.4c0.1,0.4,0.3,0.7,0.6,0.9c0.4,0.4,0.9,0.6,1.5,0.6c1.2,0,2.2-1,2.2-2.2
	c0-0.3-0.1-0.6-0.2-0.8c0,0,0,0,0,0l3.2-1.9c0,0,0,0,0,0C7.6,8,7.7,8.2,7.8,8.3C8,8.4,8.2,8.5,8.4,8.6c0.1,0,0.1,0,0.2,0.1
	c0.1,0,0.1,0,0.2,0.1c0.1,0,0.1,0,0.2,0c0.1,0,0.2,0,0.3,0c1.2,0,2.2-1,2.2-2.2C11.4,5.4,10.4,4.4,9.2,4.4z M2.2,3.6
	C1.4,3.6,0.8,3,0.8,2.2c0-0.8,0.7-1.4,1.5-1.4s1.5,0.6,1.5,1.4C3.7,3,3,3.6,2.2,3.6z M2.2,12c-0.8,0-1.5-0.7-1.5-1.5
	s0.7-1.5,1.5-1.5s1.5,0.7,1.5,1.5S3,12,2.2,12z M9.2,8C8.4,8,7.8,7.4,7.8,6.6c0-0.8,0.6-1.4,1.4-1.4c0.8,0,1.5,0.7,1.5,1.4
	C10.7,7.4,10,8,9.2,8z"/>
<g id="Ellipse_99" transform="translate(1.758 10.109)">
	<circle class="st1" cx="0.4" cy="0.4" r="0.4"/>
	<circle class="st2" cx="0.4" cy="0.4" r="0.1"/>
</g>
<g id="Ellipse_100" transform="translate(8.79 6.153)">
	<circle class="st1" cx="0.4" cy="0.4" r="0.4"/>
	<circle class="st2" cx="0.4" cy="0.4" r="0.1"/>
</g>
<g id="Ellipse_101" transform="translate(1.758 1.758)">
	<circle class="st1" cx="0.4" cy="0.4" r="0.4"/>
	<circle class="st2" cx="0.4" cy="0.4" r="0.1"/>
</g>
</svg>
