<!-- Generated by IcoMoon.io -->
<svg version="1.1" xmlns="http://www.w3.org/2000/svg" width="32" height="32" viewBox="0 0 32 32">
<path fill="#374775" d="M27.747 7.851c-1.962-4.693-6.484-7.764-11.604-7.85-6.996-0.085-12.798 5.546-12.884 12.542-0.085 5.205 3.072 9.983 7.935 11.945l3.754 6.911c0.341 0.597 1.024 0.768 1.621 0.427 0.171-0.085 0.341-0.256 0.427-0.427l3.839-6.911c6.57-2.73 9.641-10.153 6.911-16.638zM26.040 12.799c-0.085 5.461-4.437 9.812-9.812 9.812-5.546 0.085-9.983-4.351-10.068-9.812s4.351-9.983 9.812-9.983c5.461-0.085 9.983 4.351 10.068 9.812v0.171z"></path>
<path fill="#e3e6f1" d="M26.040 12.629v0.171c-0.085 5.461-4.437 9.812-9.812 9.812-5.546 0.085-9.983-4.351-10.068-9.812s4.351-9.983 9.812-9.983c5.546-0.085 9.983 4.351 10.068 9.812z"></path>
</svg>
