<?xml version="1.0" encoding="utf-8"?>
<!-- Generator: Adobe Illustrator 21.0.0, SVG Export Plug-In . SVG Version: 6.00 Build 0)  -->
<svg version="1.1" id="Node_Active" xmlns="http://www.w3.org/2000/svg" xmlns:xlink="http://www.w3.org/1999/xlink" x="0px"
	 y="0px" viewBox="0 0 29.8 37.6" style="enable-background:new 0 0 29.8 37.6;" xml:space="preserve">
<style type="text/css">
	.st0{fill:#374775;}
	.st1{fill:#E3E6F1;}
</style>
<path id="Path_147" class="st0" d="M28.7,9.2C26.4,3.7,21.1,0.1,15.1,0C6.9-0.1,0.1,6.5,0,14.7c-0.1,6.1,3.6,11.7,9.3,14l4.4,8.1
	c0.4,0.7,1.2,0.9,1.9,0.5c0.2-0.1,0.4-0.3,0.5-0.5l4.5-8.1C28.3,25.5,31.9,16.8,28.7,9.2z M26.7,15c-0.1,6.4-5.2,11.5-11.5,11.5
	C8.7,26.6,3.5,21.4,3.4,15S8.5,3.3,14.9,3.3c6.4-0.1,11.7,5.1,11.8,11.5V15z"/>
<path class="st1" d="M26.7,14.8V15c-0.1,6.4-5.2,11.5-11.5,11.5C8.7,26.6,3.5,21.4,3.4,15S8.5,3.3,14.9,3.3
	C21.4,3.2,26.6,8.4,26.7,14.8z"/>
</svg>
