<!-- Generated by IcoMoon.io -->
<svg version="1.1" xmlns="http://www.w3.org/2000/svg" width="32" height="32" viewBox="0 0 32 32">
<path fill="#374775" d="M17.371 14.171c0 0-0.229 0 0 0l-5.257-7.771c-0.229-0.457-0.686-0.457-1.143-0.229s-0.457 0.686-0.229 1.143l4.8 7.314-4.8 8.229c-0.229 0.457 0 0.914 0.229 1.143 0.229 0 0.229 0.229 0.457 0.229s0.686-0.229 0.686-0.457l4.571-7.543 5.029 7.543c0.229 0.229 0.457 0.457 0.686 0.457s0.229 0 0.457-0.229c0.457-0.229 0.457-0.914 0.229-1.143l-5.714-8.686z"></path>
<path fill="#374775" d="M22.857 0h-13.714c-5.029 0-9.143 4.114-9.143 9.143v13.714c0 5.029 4.114 9.143 9.143 9.143h13.714c5.029 0 9.143-4.114 9.143-9.143v-13.714c0-5.029-4.114-9.143-9.143-9.143zM30.4 22.857c0 4.114-3.429 7.543-7.543 7.543h-13.714c-4.114 0-7.543-3.429-7.543-7.543v-13.714c0-4.114 3.429-7.543 7.543-7.543h13.714c4.114 0 7.543 3.429 7.543 7.543v13.714z"></path>
</svg>
