<!-- Generated by IcoMoon.io -->
<svg version="1.1" xmlns="http://www.w3.org/2000/svg" width="32" height="32" viewBox="0 0 32 32">
<path fill="#c65161" d="M28.121 12.121c-0.485 0-0.97 0.485-0.97 0.97v14.061c0 1.697-1.455 3.151-3.151 3.151h-16c-1.697 0-3.152-1.455-3.152-3.151v-14.061c0-0.485-0.485-0.97-0.97-0.97s-0.727 0.485-0.727 0.97v14.061c0 2.667 2.182 4.848 4.848 4.848h16c2.667 0 4.848-2.182 4.848-4.848v-14.061c0.242-0.485-0.242-0.97-0.727-0.97z"></path>
<path fill="#c65161" d="M30.061 6.061h-8.97v-5.091c0 0 0 0 0 0 0-0.485-0.485-0.97-0.97-0.97h-8c-0.727 0-0.97 0.485-0.97 0.97v5.091h-9.212c-0.485 0-0.97 0.485-0.97 0.97s0.485 0.97 0.97 0.97h28.121c0.485 0 0.97-0.485 0.97-0.97s-0.485-0.97-0.97-0.97zM12.849 1.939h6.303v4.121h-6.303v-4.121z"></path>
<path fill="#c65161" d="M16.97 25.212v-10.182c0-0.485-0.485-0.97-0.97-0.97s-0.97 0.485-0.97 0.97v10.182c0 0.485 0.485 0.97 0.97 0.97 0.485-0.242 0.97-0.485 0.97-0.97z"></path>
<path fill="#c65161" d="M10.909 25.212v-10.182c0-0.485-0.485-0.97-0.97-0.97s-0.97 0.485-0.97 0.97v0 10.182c0 0.485 0.485 0.97 0.97 0.97 0.485-0.242 0.97-0.485 0.97-0.97z"></path>
<path fill="#c65161" d="M23.030 25.212v-10.182c0-0.485-0.485-0.97-0.97-0.97s-0.97 0.485-0.97 0.97v10.182c0 0.485 0.485 0.97 0.97 0.97s0.97-0.485 0.97-0.97z"></path>
</svg>
