<?xml version="1.0" encoding="utf-8"?>
<!-- Generator: Adobe Illustrator 21.0.0, SVG Export Plug-In . SVG Version: 6.00 Build 0)  -->
<svg version="1.1" id="Layer_1" xmlns="http://www.w3.org/2000/svg" xmlns:xlink="http://www.w3.org/1999/xlink" x="0px" y="0px"
	 viewBox="0 0 17.8 17.8" style="enable-background:new 0 0 17.8 17.8;" xml:space="preserve">
<style type="text/css">
	.st0{fill:#684A80;}
</style>
<path class="st0" d="M17.5,3.7l-3.5-3.5C13.9,0.1,13.7,0,13.5,0c-0.2,0-0.4,0.1-0.5,0.2L1.4,11.8c-0.1,0.1-0.2,0.2-0.2,0.3L0,16.8
	c0,0.1,0,0.2,0,0.4c0.1,0.4,0.5,0.6,0.9,0.5l4.6-1.2c0,0,0,0,0,0c0.1,0,0.2-0.1,0.3-0.2c0,0,0,0,0,0L17.5,4.8c0,0,0,0,0,0
	C17.8,4.5,17.8,4,17.5,3.7z M5.4,14.8L3,12.4l8.2-8.2l2.4,2.4L5.4,14.8z M2.3,13.8l1.6,1.6L1.8,16L2.3,13.8z M14.7,5.5l-2.4-2.4
	l1.3-1.3L16,4.2L14.7,5.5z"/>
</svg>
