<?xml version="1.0" encoding="utf-8"?>
<!-- Generator: Adobe Illustrator 21.0.0, SVG Export Plug-In . SVG Version: 6.00 Build 0)  -->
<svg version="1.1" id="Layer_1" xmlns="http://www.w3.org/2000/svg" xmlns:xlink="http://www.w3.org/1999/xlink" x="0px" y="0px"
	 viewBox="0 0 16.2 16.2" style="enable-background:new 0 0 16.2 16.2;" xml:space="preserve">
<style type="text/css">
	.st0{fill:#374775;}
</style>
<g>
	<path class="st0" d="M8.1,0C3.6,0,0,3.6,0,8.1c0,4.5,3.6,8.1,8.1,8.1s8.1-3.6,8.1-8.1S12.5,0,8.1,0z M8.1,15.2C4.2,15.2,1,12,1,8.1
		C1,4.2,4.2,1,8.1,1c3.9,0,7.1,3.2,7.1,7.1C15.2,12,12,15.2,8.1,15.2z"/>
	<circle class="st0" cx="8.1" cy="4" r="0.9"/>
	<path class="st0" d="M8.1,6.8C7.8,6.8,7.6,7,7.6,7.3V13c0,0.3,0.2,0.5,0.5,0.5c0.3,0,0.5-0.2,0.5-0.5V7.3C8.6,7,8.4,6.8,8.1,6.8z"
		/>
</g>
</svg>
