<?xml version="1.0" encoding="utf-8"?>
<!-- Generator: Adobe Illustrator 21.0.0, SVG Export Plug-In . SVG Version: 6.00 Build 0)  -->
<svg version="1.1" id="Layer_1" xmlns="http://www.w3.org/2000/svg" xmlns:xlink="http://www.w3.org/1999/xlink" x="0px" y="0px"
	 viewBox="0 0 12 12" style="enable-background:new 0 0 12 12;" xml:space="preserve">
<style type="text/css">
	.st0{fill:#ABB6D6;}
</style>
<path class="st0" d="M12,0.7C12,0.3,11.6,0,11.2,0H6C5.6,0,5.3,0.3,5.3,0.7S5.6,1.5,6,1.5h3.4L1.5,9.4l0-3.4c0-0.4-0.3-0.7-0.7-0.7
	c-0.2,0-0.4,0.1-0.5,0.2S0,5.8,0,6l0,5.3C0,11.7,0.3,12,0.8,12H6c0.4,0,0.7-0.3,0.7-0.7c0-0.4-0.3-0.7-0.7-0.7H2.5l7.9-7.9l0,3.4
	c0,0.4,0.3,0.7,0.7,0.7c0.2,0,0.4-0.1,0.5-0.2S12,6.2,12,6L12,0.7z"/>
</svg>
