<?xml version="1.0" encoding="utf-8"?>
<!-- Generator: Adobe Illustrator 27.0.0, SVG Export Plug-In . SVG Version: 6.00 Build 0)  -->
<svg version="1.1" id="Component_77_1" xmlns="http://www.w3.org/2000/svg" xmlns:xlink="http://www.w3.org/1999/xlink" x="0px"
	 y="0px" viewBox="0 0 16 16" style="enable-background:new 0 0 16 16;" xml:space="preserve">
<style type="text/css">
	.st0{fill:none;}
	.st1{fill:#FFFFFF;}
	.st2{fill:#959DB8;}
</style>
<g id="Rectangle_1146">
	<g>
		<path class="st0" d="M3,0h10c1.7,0,3,1.3,3,3v10c0,1.7-1.3,3-3,3H3c-1.7,0-3-1.3-3-3V3C0,1.3,1.3,0,3,0z"/>
	</g>
	<g>
		<path class="st1" d="M13,16H3c-1.7,0-3-1.3-3-3V3c0-1.7,1.3-3,3-3h10c1.7,0,3,1.3,3,3v10C16,14.7,14.7,16,13,16z M3,1
			C1.9,1,1,1.9,1,3v10c0,1.1,0.9,2,2,2h10c1.1,0,2-0.9,2-2V3c0-1.1-0.9-2-2-2H3z"/>
	</g>
</g>
<g id="Rectangle_1147">
	<path class="st2" d="M4,3h8c0.6,0,1,0.4,1,1v8c0,0.6-0.4,1-1,1H4c-0.6,0-1-0.4-1-1V4C3,3.4,3.4,3,4,3z"/>
</g>
</svg>
