<!-- Generated by IcoMoon.io -->
<svg version="1.1" xmlns="http://www.w3.org/2000/svg" width="32" height="32" viewBox="0 0 32 32">
<path d="M31.71 15.421c-0.145-0.145-0.434-0.29-0.724-0.29h-27.511l9.846-9.991c0.434-0.434 0.434-1.158 0-1.593s-1.014-0.434-1.448 0l-11.729 11.873c-0.145 0.145-0.145 0.145-0.145 0.29 0 0 0 0 0 0.145s0 0.145 0 0.29c0 0 0 0.145 0 0.145 0 0.145 0 0.29 0 0.29s0 0 0 0 0 0 0 0c0 0.145 0.145 0.29 0.145 0.29s0 0 0 0l11.584 11.584c0.434 0.434 1.158 0.434 1.593 0s0.434-1.158 0-1.593l-9.701-9.701h27.366c0.579 0 1.014-0.434 1.014-1.014 0-0.29-0.145-0.579-0.29-0.724z"></path>
</svg>
