<?xml version="1.0" encoding="utf-8"?>
<!-- Generator: Adobe Illustrator 21.0.0, SVG Export Plug-In . SVG Version: 6.00 Build 0)  -->
<svg version="1.1" id="Layer_1" xmlns="http://www.w3.org/2000/svg" xmlns:xlink="http://www.w3.org/1999/xlink" x="0px" y="0px"
	 viewBox="0 0 10.1 5.8" style="enable-background:new 0 0 10.1 5.8;" xml:space="preserve">
<style type="text/css">
	.st0{fill:#374775;}
</style>
<path id="Path_1297" class="st0" d="M5,5.8c-0.2,0-0.4-0.1-0.5-0.2L0.2,1.3c-0.3-0.3-0.3-0.8,0-1.1c0,0,0,0,0,0
	c0.3-0.3,0.8-0.3,1.1,0c0,0,0,0,0,0L5,4l3.8-3.8c0.3-0.3,0.8-0.3,1.1,0c0,0,0,0,0,0c0.3,0.3,0.3,0.8,0,1.1c0,0,0,0,0,0L5.6,5.6
	C5.4,5.7,5.2,5.8,5,5.8z"/>
</svg>
