<?xml version="1.0" encoding="utf-8"?>
<!-- Generator: Adobe Illustrator 21.0.0, SVG Export Plug-In . SVG Version: 6.00 Build 0)  -->
<svg version="1.1" id="Group_4001" xmlns="http://www.w3.org/2000/svg" xmlns:xlink="http://www.w3.org/1999/xlink" x="0px" y="0px"
	 viewBox="0 0 26 14" style="enable-background:new 0 0 26 14;" xml:space="preserve">
<style type="text/css">
	.st0{fill:#58CC87;}
	.st1{fill:#FFFFFF;}
</style>
<path id="Rectangle_699" class="st0" d="M7,0h12c3.9,0,7,3.1,7,7l0,0c0,3.9-3.1,7-7,7H7c-3.9,0-7-3.1-7-7l0,0C0,3.1,3.1,0,7,0z"/>
<path id="Ellipse_322_-_Outline" class="st1" d="M19,3.5c-1.9,0-3.5,1.6-3.5,3.5s1.6,3.5,3.5,3.5s3.5-1.6,3.5-3.5S20.9,3.5,19,3.5
	 M19,2c2.8,0,5,2.2,5,5s-2.2,5-5,5s-5-2.2-5-5S16.2,2,19,2z"/>
</svg>
