<!-- Generated by IcoMoon.io -->
<svg version="1.1" xmlns="http://www.w3.org/2000/svg" width="32" height="32" viewBox="0 0 32 32">
<path d="M32 1.867c0-1.067-1.067-1.867-2.133-1.867h-13.867c-1.067 0-1.867 0.8-1.867 1.867s0.8 2.133 1.867 2.133h9.067l-21.067 21.067v-9.067c0-1.067-0.8-1.867-1.867-1.867-0.533 0-1.067 0.267-1.333 0.533s-0.8 0.8-0.8 1.333v14.133c0 1.067 0.8 1.867 2.133 1.867h13.867c1.067 0 1.867-0.8 1.867-1.867s-0.8-1.867-1.867-1.867h-9.333l21.067-21.067v9.067c0 1.067 0.8 1.867 1.867 1.867 0.533 0 1.067-0.267 1.333-0.533s1.067-1.067 1.067-1.6v-14.133z"></path>
</svg>
