<?xml version="1.0" encoding="utf-8"?>
<!-- Generator: Adobe Illustrator 21.0.0, SVG Export Plug-In . SVG Version: 6.00 Build 0)  -->
<svg version="1.1" id="Layer_1" xmlns="http://www.w3.org/2000/svg" xmlns:xlink="http://www.w3.org/1999/xlink" x="0px" y="0px"
	 viewBox="0 0 26 14" style="enable-background:new 0 0 26 14;" xml:space="preserve">
<style type="text/css">
	.st0{fill:#FF8946;}
	.st1{fill:#FFFFFF;}
</style>
<path id="Rectangle_699" class="st0" d="M19,14H7c-3.9,0-7-3.1-7-7l0,0c0-3.9,3.1-7,7-7h12c3.9,0,7,3.1,7,7l0,0
	C26,10.9,22.9,14,19,14z"/>
<path id="Ellipse_322_-_Outline" class="st1" d="M7,10.5c1.9,0,3.5-1.6,3.5-3.5S8.9,3.5,7,3.5S3.5,5.1,3.5,7S5.1,10.5,7,10.5 M7,12
	c-2.8,0-5-2.2-5-5s2.2-5,5-5s5,2.2,5,5S9.8,12,7,12z"/>
</svg>
