<!-- Generated by IcoMoon.io -->
<svg version="1.1" xmlns="http://www.w3.org/2000/svg" width="32" height="32" viewBox="0 0 32 32">
<path fill="#374775" d="M16 0c-8.889 0-16 7.111-16 16s7.111 16 16 16 16-7.111 16-16-7.309-16-16-16zM16 30.025c-7.704 0-14.025-6.321-14.025-14.025s6.321-14.025 14.025-14.025c7.704 0 14.025 6.321 14.025 14.025s-6.321 14.025-14.025 14.025z"></path>
<path fill="#374775" d="M17.778 7.901c0 0.982-0.796 1.778-1.778 1.778s-1.778-0.796-1.778-1.778c0-0.982 0.796-1.778 1.778-1.778s1.778 0.796 1.778 1.778z"></path>
<path fill="#374775" d="M16 13.432c-0.593 0-0.988 0.395-0.988 0.988v11.259c0 0.593 0.395 0.988 0.988 0.988s0.988-0.395 0.988-0.988v-11.259c0-0.593-0.395-0.988-0.988-0.988z"></path>
</svg>
