<?xml version="1.0" encoding="utf-8"?>
<!-- Generator: Adobe Illustrator 21.0.0, SVG Export Plug-In . SVG Version: 6.00 Build 0)  -->
<svg version="1.1" id="Layer_1" xmlns="http://www.w3.org/2000/svg" xmlns:xlink="http://www.w3.org/1999/xlink" x="0px" y="0px"
	 viewBox="0 0 22.9 22.9" style="enable-background:new 0 0 22.9 22.9;" xml:space="preserve">
<style type="text/css">
	.st0{fill:#ABB6D6;}
</style>
<path class="st0" d="M22.4,11c-0.1-0.1-0.3-0.2-0.5-0.2l-19,0l6.8-6.9c0.3-0.3,0.3-0.8,0-1.1C9.4,2.5,9,2.5,8.7,2.8L0.6,11
	c-0.1,0.1-0.1,0.1-0.1,0.2c0,0,0,0,0,0.1c0,0.1,0,0.1,0,0.2c0,0,0,0.1,0,0.1c0,0.1,0,0.2,0,0.2c0,0,0,0,0,0c0,0,0,0,0,0
	c0,0.1,0.1,0.2,0.1,0.2c0,0,0,0,0,0l8,8c0.3,0.3,0.8,0.3,1.1,0s0.3-0.8,0-1.1l-6.7-6.7h18.9c0.4,0,0.7-0.3,0.7-0.7
	C22.6,11.3,22.5,11.1,22.4,11z"/>
</svg>
