<!-- Generated by IcoMoon.io -->
<svg version="1.1" xmlns="http://www.w3.org/2000/svg" width="32" height="32" viewBox="0 0 32 32">
<path fill="#fff" stroke="#374775" stroke-linejoin="miter" stroke-linecap="butt" stroke-miterlimit="4" stroke-width="2.4615" d="M16 1.5c8.008 0 14.5 6.492 14.5 14.5s-6.492 14.5-14.5 14.5c-8.008 0-14.5-6.492-14.5-14.5s6.492-14.5 14.5-14.5z"></path>
<path fill="none" stroke="#374775" stroke-linejoin="miter" stroke-linecap="butt" stroke-miterlimit="4" stroke-width="2.4615" d="M16 2.616c7.392 0 13.384 5.993 13.384 13.384s-5.993 13.384-13.384 13.384c-7.392 0-13.384-5.993-13.384-13.384s5.993-13.384 13.384-13.384z"></path>
<path fill="#e3e6f1" d="M16 5.961c5.544 0 10.039 4.494 10.039 10.039s-4.494 10.039-10.039 10.039c-5.544 0-10.039-4.494-10.039-10.039s4.494-10.039 10.039-10.039z"></path>
</svg>
