<!-- Generated by IcoMoon.io -->
<svg version="1.1" xmlns="http://www.w3.org/2000/svg" width="33" height="32" viewBox="0 0 33 32">
<path fill="#575757" d="M25.332 22.933c-0.4 0-0.667-0.133-0.933-0.4-0.533-0.533-0.533-1.333 0-1.867l4.667-4.667-4.667-4.667c-0.533-0.533-0.533-1.333 0-1.867s1.333-0.533 1.867 0l5.6 5.6c0.267 0.267 0.4 0.533 0.4 0.933s-0.133 0.667-0.4 0.933l-5.6 5.6c-0.267 0.267-0.667 0.4-0.933 0.4z"></path>
<path fill="#575757" d="M10.666 22.933c-0.4 0-0.667-0.133-0.933-0.4l-5.6-5.6c-0.267-0.267-0.4-0.533-0.4-0.933s0.133-0.667 0.4-0.933l5.6-5.733c0.533-0.533 1.333-0.533 1.867 0s0.533 1.333 0 1.867l-4.8 4.8 4.667 4.667c0.533 0.533 0.533 1.333 0 1.867-0.133 0.267-0.533 0.4-0.8 0.4z"></path>
<path fill="#575757" d="M30.932 32h-29.333c-0.8 0-1.333-0.533-1.333-1.333v-29.333c0-0.8 0.533-1.333 1.333-1.333h29.333c0.8 0 1.333 0.533 1.333 1.333v6.933c0 0.8-0.533 1.333-1.333 1.333s-1.333-0.533-1.333-1.333v-5.6h-26.667v26.667h26.667v-6.133c0-0.8 0.533-1.333 1.333-1.333s1.333 0.533 1.333 1.333v7.467c0 0.667-0.533 1.333-1.333 1.333z"></path>
</svg>
