<?xml version="1.0" encoding="utf-8"?>
<!-- Generator: Adobe Illustrator 27.0.0, SVG Export Plug-In . SVG Version: 6.00 Build 0)  -->
<svg version="1.1" id="Layer_1" xmlns="http://www.w3.org/2000/svg" xmlns:xlink="http://www.w3.org/1999/xlink" x="0px" y="0px"
	 viewBox="0 0 24.4 24" style="enable-background:new 0 0 24.4 24;" xml:space="preserve">
<style type="text/css">
	.st0{fill:#575757;}
</style>
<g>
	<g>
		<path class="st0" d="M18.8,17.2c-0.3,0-0.5-0.1-0.7-0.3c-0.4-0.4-0.4-1,0-1.4l3.5-3.5l-3.5-3.5c-0.4-0.4-0.4-1,0-1.4s1-0.4,1.4,0
			l4.2,4.2c0.2,0.2,0.3,0.4,0.3,0.7s-0.1,0.5-0.3,0.7l-4.2,4.2C19.3,17.1,19,17.2,18.8,17.2z"/>
	</g>
	<g>
		<path class="st0" d="M7.8,17.2c-0.3,0-0.5-0.1-0.7-0.3l-4.2-4.2c-0.2-0.2-0.3-0.4-0.3-0.7s0.1-0.5,0.3-0.7L7.1,7
			c0.4-0.4,1-0.4,1.4,0s0.4,1,0,1.4L4.9,12l3.5,3.5c0.4,0.4,0.4,1,0,1.4C8.3,17.1,8,17.2,7.8,17.2z"/>
	</g>
	<g>
		<path class="st0" d="M23,24H1c-0.6,0-1-0.4-1-1V1c0-0.6,0.4-1,1-1h22c0.6,0,1,0.4,1,1v5.2c0,0.6-0.4,1-1,1s-1-0.4-1-1V2H2v20h20
			v-4.6c0-0.6,0.4-1,1-1s1,0.4,1,1V23C24,23.5,23.6,24,23,24z"/>
	</g>
</g>
</svg>
