<?xml version="1.0" encoding="utf-8"?>
<!-- Generator: Adobe Illustrator 21.0.0, SVG Export Plug-In . SVG Version: 6.00 Build 0)  -->
<svg version="1.1" id="Component_66_1" xmlns="http://www.w3.org/2000/svg" xmlns:xlink="http://www.w3.org/1999/xlink" x="0px"
	 y="0px" viewBox="0 0 27.2 27.2" style="enable-background:new 0 0 27.2 27.2;" xml:space="preserve">
<style type="text/css">
	.st0{fill:#58CC87;}
</style>
<path class="st0" d="M13.6,0C6.1,0,0,6.1,0,13.6c0,7.5,6.1,13.6,13.6,13.6c7.5,0,13.6-6.1,13.6-13.6C27.2,6.1,21.1,0,13.6,0z
	 M21.6,13.6c0,0.1-0.1,0.2-0.2,0.3L7.7,18.8c-0.1,0-0.3,0-0.4-0.1c-0.1-0.1-0.1-0.3-0.1-0.4l1.5-4.4h4.7c0.2,0,0.4-0.2,0.4-0.4
	c0-0.1,0-0.2-0.1-0.3c-0.1-0.1-0.2-0.1-0.3-0.1H8.6L7.2,8.8c0-0.2,0-0.3,0.1-0.4c0.1-0.1,0.3-0.2,0.4-0.1l13.6,4.9
	c0.1,0,0.1,0,0.1,0.1C21.6,13.3,21.6,13.5,21.6,13.6z"/>
</svg>
