<!-- Generated by IcoMoon.io -->
<svg version="1.1" xmlns="http://www.w3.org/2000/svg" width="32" height="32" viewBox="0 0 32 32">
<path fill="#58cc87" d="M16 0c-8.824 0-16 7.176-16 16s7.176 16 16 16c8.824 0 16-7.176 16-16s-7.176-16-16-16zM25.412 16c0 0.118-0.118 0.235-0.235 0.353l-16.118 5.765c-0.118 0-0.353 0-0.471-0.118s-0.118-0.353-0.118-0.471l1.765-5.176h5.529c0.235 0 0.471-0.235 0.471-0.471 0-0.118 0-0.235-0.118-0.353s-0.235-0.118-0.353-0.118h-5.647l-1.647-5.059c0-0.235 0-0.353 0.118-0.471s0.353-0.235 0.471-0.118l16 5.765c0.118 0 0.118 0 0.118 0.118 0.235 0 0.235 0.235 0.235 0.353z"></path>
</svg>
