<?xml version="1.0" encoding="utf-8"?>
<!-- Generator: Adobe Illustrator 21.0.0, SVG Export Plug-In . SVG Version: 6.00 Build 0)  -->
<svg version="1.1" id="Layer_1" xmlns="http://www.w3.org/2000/svg" xmlns:xlink="http://www.w3.org/1999/xlink" x="0px" y="0px"
	 viewBox="0 0 13 13" style="enable-background:new 0 0 13 13;" xml:space="preserve">
<style type="text/css">
	.st0{fill:#959DB8;}
</style>
<g id="Dashboard___Logs___Message" transform="translate(0.5 0.5)">
	<g id="Path_138">
		<path class="st0" d="M2.7,12.5c-0.1,0-0.2,0-0.2-0.1c-0.2-0.1-0.3-0.3-0.3-0.4V9.2H0c-0.3,0-0.5-0.2-0.5-0.5V0
			c0-0.3,0.2-0.5,0.5-0.5h12c0.3,0,0.5,0.2,0.5,0.5v8.7c0,0.3-0.2,0.5-0.5,0.5H7.5L3,12.4C2.9,12.5,2.8,12.5,2.7,12.5z M0.5,8.2h2.2
			c0.3,0,0.5,0.2,0.5,0.5V11L7,8.3c0.1-0.1,0.2-0.1,0.3-0.1h4.2V0.5h-11V8.2z"/>
	</g>
</g>
</svg>
