<?xml version="1.0" encoding="utf-8"?>
<!-- Generator: Adobe Illustrator 21.0.0, SVG Export Plug-In . SVG Version: 6.00 Build 0)  -->
<svg version="1.1" id="Layer_1" xmlns="http://www.w3.org/2000/svg" xmlns:xlink="http://www.w3.org/1999/xlink" x="0px" y="0px"
	 viewBox="0 0 11.2 15.2" style="enable-background:new 0 0 11.2 15.2;" xml:space="preserve">
<style type="text/css">
	.st0{fill:#959DB8;}
</style>
<path class="st0" d="M11.1,4.5c0-0.1-0.1-0.2-0.2-0.2L7.2,0.5c-0.3-0.3-0.8-0.3-1.1,0s-0.3,0.8,0,1.1l2.5,2.5H4.7
	C2.1,4.1,0,6.2,0,8.8v5.7c0,0.4,0.3,0.8,0.8,0.8s0.8-0.3,0.8-0.8V8.8c0-1.8,1.4-3.2,3.2-3.2h3.9L6.2,8c-0.3,0.3-0.3,0.8,0,1.1
	c0.1,0.1,0.3,0.2,0.5,0.2s0.4-0.1,0.5-0.2L11,5.3c0.1-0.1,0.1-0.2,0.2-0.2C11.2,4.9,11.2,4.7,11.1,4.5z"/>
</svg>
