<!-- Generated by IcoMoon.io -->
<svg version="1.1" xmlns="http://www.w3.org/2000/svg" width="32" height="32" viewBox="0 0 32 32">
<path fill="#959db8" d="M31.872 15.403c-0.341-0.341-7.339-9.216-15.872-9.216-8.704 0-15.531 8.875-15.872 9.216-0.171 0.341-0.171 0.853 0 1.195 0.341 0.341 7.339 9.216 15.872 9.216s15.531-8.875 15.872-9.216c0.171-0.341 0.171-0.853 0-1.195zM21.973 13.867c0 3.243-2.731 5.973-5.973 5.973s-5.973-2.731-5.973-5.973 2.731-5.973 5.973-5.973 5.973 2.731 5.973 5.973zM16 24.107c-6.656 0-12.459-6.315-14.165-8.192 1.195-1.195 3.925-4.267 7.851-6.315-0.853 1.195-1.365 2.731-1.365 4.267 0 4.267 3.413 7.68 7.68 7.68s7.68-3.413 7.68-7.68c0-1.536-0.512-2.901-1.195-4.096 3.755 2.048 6.656 5.12 7.68 6.315-1.707 1.707-7.509 8.021-14.165 8.021z"></path>
<path fill="#959db8" d="M16.512 17.621c0 0 0 0 0 0 0.512 0 0.853-0.341 0.853-0.853s-0.341-0.853-0.853-0.853c-1.195 0-2.219-1.024-2.219-2.219 0-0.512-0.341-0.853-0.853-0.853 0 0 0 0 0 0-0.512 0-0.853 0.341-0.853 0.853 0 2.048 1.707 3.925 3.925 3.925z"></path>
</svg>
