<!-- Generated by IcoMoon.io -->
<svg version="1.1" xmlns="http://www.w3.org/2000/svg" width="32" height="32" viewBox="0 0 32 32">
<path fill="#959db8" d="M7.877 32c-0.246 0-0.492 0-0.492-0.246-0.492-0.246-0.738-0.738-0.738-0.985v-6.892h-5.415c-0.738 0-1.231-0.492-1.231-1.231v-21.415c0-0.738 0.492-1.231 1.231-1.231h29.538c0.738 0 1.231 0.492 1.231 1.231v21.415c0 0.738-0.492 1.231-1.231 1.231h-11.077l-11.077 7.877c-0.246 0.246-0.492 0.246-0.738 0.246zM2.462 21.415h5.415c0.738 0 1.231 0.492 1.231 1.231v5.662l9.354-6.646c0.246-0.246 0.492-0.246 0.738-0.246h10.338v-18.954h-27.077v18.954z"></path>
</svg>
