<!-- Generated by IcoMoon.io -->
<svg version="1.1" xmlns="http://www.w3.org/2000/svg" width="32" height="32" viewBox="0 0 32 32">
<path fill="#959db8" d="M27.714 8.998c0-0.213-0.213-0.426-0.426-0.426l-7.88-8.093c-0.639-0.639-1.704-0.639-2.343 0s-0.639 1.704 0 2.343l5.324 5.324h-8.306c-5.537 0-10.010 4.473-10.010 10.010v12.14c0 0.852 0.639 1.704 1.704 1.704s1.704-0.639 1.704-1.704v-12.14c0-3.834 2.982-6.815 6.815-6.815h8.306l-5.324 5.111c-0.639 0.639-0.639 1.704 0 2.343 0.213 0.213 0.639 0.426 1.065 0.426s0.852-0.213 1.065-0.426l8.093-8.093c0.213-0.213 0.213-0.426 0.426-0.426 0-0.426 0-0.852-0.213-1.278z"></path>
</svg>
