<?xml version="1.0" encoding="utf-8"?>
<!-- Generator: Adobe Illustrator 21.0.0, SVG Export Plug-In . SVG Version: 6.00 Build 0)  -->
<svg version="1.1" id="Layer_1" xmlns="http://www.w3.org/2000/svg" xmlns:xlink="http://www.w3.org/1999/xlink" x="0px" y="0px"
	 viewBox="0 0 15.6 15.6" style="enable-background:new 0 0 15.6 15.6;" xml:space="preserve">
<style type="text/css">
	.st0{fill:#374775;}
	.st1{fill:none;}
</style>
<g>
	<path class="st0" d="M6.2,4.3L5.5,3.5L5.1,3.2L4.8,2.8L0.2,7.4C0,7.6,0,7.9,0.2,8.1l1.1,1.1l0.3-0.4L2,8.5L6.2,4.3z"/>
	<polygon class="st0" points="7.7,5.7 6.9,5 2.7,9.2 2.3,9.6 2,10 2.7,10.7 3.4,10 	"/>
	<polygon class="st0" points="9.1,7.2 8.4,6.4 4.1,10.7 3.8,11 3.4,11.4 4.2,12.1 4.5,11.8 4.9,11.4 	"/>
	<path class="st0" d="M15.4,7.4l-2.3-2.3l1.3-1.3c0.7-0.7,0.7-1.9,0-2.6c-0.7-0.7-1.9-0.7-2.6,0l-1.3,1.3L8.1,0.1C8,0,7.9,0,7.8,0
		C7.7,0,7.5,0,7.4,0.1l-2,2l0.4,0.4l0.3,0.4l0.8,0.7l5.8,5.8l0.3,0.3l0.4,0.4l2-1.9C15.6,7.9,15.6,7.6,15.4,7.4z"/>
	<polygon class="st0" points="6.3,12.9 10.6,8.6 9.8,7.9 5.6,12.1 5.2,12.5 4.9,12.9 5.6,13.6 6,13.3 	"/>
	<path class="st0" d="M12,10.1l-0.8-0.8L7,13.6L6.7,14l-0.3,0.4v0l1.1,1.1c0.1,0.1,0.2,0.1,0.4,0.1c0.1,0,0.3,0,0.3-0.1l4.6-4.6
		l-0.4-0.3L12,10.1z"/>
</g>
<polyline class="st1" points="25.3,13.6 26,12.9 26.2,12.7 "/>
<polyline class="st1" points="27.3,13.1 26.7,13.6 26.4,14 26,14.3 26,14.3 "/>
</svg>
