<!-- Generated by IcoMoon.io -->
<svg version="1.1" xmlns="http://www.w3.org/2000/svg" width="32" height="32" viewBox="0 0 32 32">
<path fill="#374775" d="M12.718 8.82l-1.436-1.641-0.82-0.615-0.615-0.821-9.436 9.436c-0.41 0.41-0.41 1.026 0 1.436l2.256 2.256 0.615-0.82 0.821-0.615 8.615-8.615z"></path>
<path fill="#374775" d="M15.795 11.692l-1.641-1.436-9.436 9.436-0.615 0.82 1.436 1.436 1.436-1.436z"></path>
<path fill="#374775" d="M18.667 14.769l-1.436-1.641-10.256 10.256 1.641 1.436 1.436-1.436z"></path>
<path fill="#374775" d="M31.59 15.18l-4.718-4.718 2.667-2.667c1.436-1.436 1.436-3.897 0-5.333s-3.897-1.436-5.333 0l-2.667 2.667-4.923-4.923c-0.205-0.205-0.41-0.205-0.615-0.205s-0.615 0-0.82 0.205l-4.103 4.103 0.82 0.821 0.615 0.821 1.641 1.436 13.333 13.333 4.103-3.897c0.41-0.615 0.41-1.231 0-1.641z"></path>
<path fill="#374775" d="M12.923 26.462l8.821-8.821-1.641-1.436-9.436 9.436-0.615 0.82 1.436 1.436 0.82-0.615z"></path>
<path fill="#374775" d="M24.615 20.718l-1.641-1.641-8.615 8.821-1.231 1.641 2.256 2.256c0.205 0.205 0.41 0.205 0.821 0.205 0.205 0 0.615 0 0.615-0.205l9.436-9.436-0.82-0.615-0.82-1.026z"></path>
</svg>
