<?xml version="1.0" encoding="utf-8"?>
<!-- Generator: Adobe Illustrator 21.0.0, SVG Export Plug-In . SVG Version: 6.00 Build 0)  -->
<svg version="1.1" id="Layer_1" xmlns="http://www.w3.org/2000/svg" xmlns:xlink="http://www.w3.org/1999/xlink" x="0px" y="0px"
	 viewBox="0 0 18.8 11.5" style="enable-background:new 0 0 18.8 11.5;" xml:space="preserve">
<style type="text/css">
	.st0{fill:#959DB8;}
</style>
<g>
	<path class="st0" d="M18.7,5.4C18.5,5.2,14.4,0,9.4,0C4.3,0,0.3,5.2,0.1,5.4C0,5.6,0,5.9,0.1,6.1c0.2,0.2,4.3,5.4,9.3,5.4
		s9.1-5.2,9.3-5.4C18.8,5.9,18.8,5.6,18.7,5.4z M12.9,4.5c0,1.9-1.6,3.5-3.5,3.5S5.9,6.4,5.9,4.5S7.5,1,9.4,1S12.9,2.6,12.9,4.5z
		 M9.4,10.5c-3.9,0-7.3-3.7-8.3-4.8C1.8,5,3.4,3.2,5.7,2C5.2,2.7,4.9,3.6,4.9,4.5C4.9,7,6.9,9,9.4,9s4.5-2,4.5-4.5
		c0-0.9-0.3-1.7-0.7-2.4c2.2,1.2,3.9,3,4.5,3.7C16.7,6.8,13.3,10.5,9.4,10.5z"/>
	<path class="st0" d="M9.7,6.7C9.7,6.7,9.7,6.7,9.7,6.7c0.3,0,0.5-0.2,0.5-0.5c0-0.3-0.2-0.5-0.5-0.5c-0.7,0-1.3-0.6-1.3-1.3
		c0-0.3-0.2-0.5-0.5-0.5c0,0,0,0,0,0c-0.3,0-0.5,0.2-0.5,0.5C7.4,5.6,8.4,6.7,9.7,6.7z"/>
</g>
</svg>
