<?xml version="1.0" encoding="utf-8"?>
<!-- Generator: Adobe Illustrator 21.0.0, SVG Export Plug-In . SVG Version: 6.00 Build 0)  -->
<svg version="1.1" id="Layer_1" xmlns="http://www.w3.org/2000/svg" xmlns:xlink="http://www.w3.org/1999/xlink" x="0px" y="0px"
	 viewBox="0 0 18.8 11.5" style="enable-background:new 0 0 18.8 11.5;" xml:space="preserve">
<style type="text/css">
	.st0{fill:#374775;}
</style>
<path class="st0" d="M18.7,5.4C18.5,5.2,14.4,0,9.4,0C4.3,0,0.3,5.2,0.1,5.5C0,5.6,0,5.9,0.1,6.1c0.2,0.2,4.3,5.4,9.3,5.4
	c5,0,9.1-5.2,9.3-5.4C18.8,5.9,18.8,5.6,18.7,5.4z M10.2,6.2c0,0.3-0.2,0.5-0.5,0.5c-1.3,0-2.3-1-2.3-2.3c0-0.3,0.2-0.5,0.5-0.5
	c0.3,0,0.5,0.2,0.5,0.5c0,0.3,0.1,0.5,0.2,0.7c0,0,0,0,0,0c0.1,0.1,0.2,0.3,0.4,0.4c0,0,0,0,0,0c0.2,0.1,0.4,0.2,0.7,0.2
	S10.2,5.9,10.2,6.2z M9.4,10.5c-3.9,0-7.3-3.7-8.3-4.8C1.8,5,3.5,3.2,5.7,2C5.2,2.7,4.9,3.6,4.9,4.5C4.9,7,6.9,9,9.4,9
	c2.5,0,4.5-2,4.5-4.5c0-0.9-0.3-1.8-0.7-2.5c2.2,1.2,3.9,3,4.5,3.7C16.7,6.8,13.3,10.5,9.4,10.5z"/>
</svg>
