<!-- Generated by IcoMoon.io -->
<svg version="1.1" xmlns="http://www.w3.org/2000/svg" width="32" height="32" viewBox="0 0 32 32">
<path fill="#58cc87" d="M16.001 0.001c-0.062-0.001-0.134-0.001-0.207-0.001-8.722 0-15.793 7.071-15.793 15.793 0 0.073 0.001 0.146 0.001 0.218v-0.011c0 8.836 7.163 15.999 15.999 15.999s15.999-7.163 15.999-15.999c0-8.836-7.163-15.999-15.999-15.999v0zM16.001 28.999c-0.1 0.003-0.218 0.004-0.337 0.004-7.181 0-13.002-5.821-13.002-13.002s5.821-13.002 13.002-13.002c7.18 0 13.001 5.82 13.002 13v0c0.011 0.199 0.018 0.431 0.018 0.665 0 6.815-5.525 12.34-12.34 12.34-0.121 0-0.241-0.002-0.361-0.005h0.018z"></path>
<path fill="#58cc87" d="M15.996 10.667c-0.712 0.052-1.277 0.617-1.329 1.324v13.007c0 0.999 0.332 1.666 1.329 1.666 0.034 0.003 0.074 0.005 0.114 0.005 0.674 0 1.22-0.546 1.22-1.22 0-0.040-0.002-0.080-0.006-0.119v0.005-13.339c-0.052-0.712-0.617-1.277-1.324-1.329h-0.005z"></path>
<path fill="#58cc87" d="M17.664 6.666c0 0.92-0.746 1.666-1.666 1.666s-1.666-0.746-1.666-1.666c0-0.92 0.746-1.666 1.666-1.666s1.666 0.746 1.666 1.666z"></path>
</svg>
