<?xml version="1.0" encoding="utf-8"?>
<!-- Generator: Adobe Illustrator 21.0.0, SVG Export Plug-In . SVG Version: 6.00 Build 0)  -->
<svg version="1.1" id="Layer_1" xmlns="http://www.w3.org/2000/svg" xmlns:xlink="http://www.w3.org/1999/xlink" x="0px" y="0px"
	 viewBox="0 0 15.6 15.6" style="enable-background:new 0 0 15.6 15.6;" xml:space="preserve">
<style type="text/css">
	.st0{fill:#959DB8;}
</style>
<path class="st0" d="M15.4,7.4l-2.3-2.3l1.3-1.3c0.7-0.7,0.7-1.9,0-2.6c-0.7-0.7-1.9-0.7-2.6,0l-1.3,1.3L8.1,0.1C8,0.1,7.9,0,7.8,0
	S7.5,0.1,7.4,0.1L0.1,7.4C0,7.6,0,7.9,0.1,8.1l7.3,7.3c0.1,0.1,0.2,0.1,0.4,0.1s0.3,0,0.4-0.1l4.6-4.6l0.7-0.7l2-2
	C15.6,7.9,15.6,7.6,15.4,7.4z M5.5,3.5l0.8,0.8L2,8.5L1.2,7.8L5.5,3.5z M4.9,11.4l-0.8-0.8l4.3-4.3l0.7,0.7L4.9,11.4z M9.8,7.9
	l0.7,0.7l-4.3,4.3l-0.7-0.7L9.8,7.9z M3.4,10L2.7,9.2L6.9,5l0.7,0.7L3.4,10z M7.8,14.4L7,13.6l4.3-4.3l0.7,0.7L7.8,14.4z M12.8,9.4
	L12,8.6l0,0l-0.7-0.7l0,0l-0.7-0.7l0,0L9.8,6.5l0,0L9.1,5.7l0,0L8.4,5l0,0L7.6,4.3l0,0L6.9,3.6l0,0L6.2,2.8l1.6-1.6l2.3,2.3
	c0.1,0.1,0.2,0.1,0.4,0.1s0.3-0.1,0.4-0.1l1.7-1.7c0.3-0.3,0.9-0.3,1.2,0c0.3,0.3,0.3,0.9,0,1.2L12,4.7c-0.2,0.2-0.2,0.5,0,0.7
	l2.3,2.3L12.8,9.4z"/>
</svg>
