<!-- Generated by IcoMoon.io -->
<svg version="1.1" xmlns="http://www.w3.org/2000/svg" width="32" height="32" viewBox="0 0 32 32">
<path fill="#959db8" d="M31.659 15.279l-4.736-4.736 2.677-2.677c1.441-1.441 1.441-3.912 0-5.354s-3.912-1.441-5.354 0l-2.677 2.677-4.942-4.942c-0.206 0-0.412-0.206-0.618-0.206s-0.618 0.206-0.824 0.206l-15.032 15.032c-0.206 0.412-0.206 1.030 0 1.441l15.032 15.032c0.206 0.206 0.412 0.206 0.824 0.206s0.618 0 0.824-0.206l15.032-15.032c0.206-0.412 0.206-1.030-0.206-1.441zM11.274 7.249l1.647 1.647-8.854 8.648-1.647-1.441 8.854-8.854zM10.038 23.516l-1.647-1.647 8.854-8.854 1.441 1.441-8.648 9.060zM20.128 16.309l1.441 1.441-8.854 8.854-1.441-1.441 8.854-8.854zM6.949 20.633l-1.441-1.647 8.648-8.648 1.441 1.441-8.648 8.854zM16.010 29.693l-1.647-1.647 8.854-8.854 1.441 1.441-8.648 9.060zM26.305 19.398l-4.53-4.53-1.647-1.441-1.441-1.647-1.441-1.441-1.647-1.441-1.441-1.441-1.441-1.647 3.295-3.295 4.736 4.736c0.206 0.206 0.412 0.206 0.824 0.206s0.618-0.206 0.824-0.206l3.5-3.501c0.618-0.618 1.853-0.618 2.471 0s0.618 1.853 0 2.471l-3.706 3.501c-0.412 0.412-0.412 1.030 0 1.441l4.736 4.736-3.089 3.5z"></path>
</svg>
