<!-- Generated by IcoMoon.io -->
<svg version="1.1" xmlns="http://www.w3.org/2000/svg" width="46" height="32" viewBox="0 0 46 32">
<path d="M12 32c-3.033 0-5.625-1.050-7.774-3.15s-3.225-4.667-3.226-7.7c0-2.6 0.783-4.917 2.35-6.95s3.617-3.333 6.15-3.9c0.833-3.067 2.5-5.55 5-7.45s5.333-2.85 8.5-2.85c3.9 0 7.209 1.359 9.926 4.076s4.075 6.025 4.074 9.924c2.3 0.267 4.209 1.259 5.726 2.976s2.275 3.725 2.274 6.024c0 2.5-0.875 4.625-2.624 6.376s-3.875 2.625-6.376 2.624h-11c-1.1 0-2.041-0.391-2.824-1.174s-1.175-1.725-1.176-2.826v-10.3l-3.2 3.1-2.8-2.8 8-8 8 8-2.8 2.8-3.2-3.1v10.3h11c1.4 0 2.583-0.483 3.55-1.45s1.45-2.15 1.45-3.55-0.483-2.583-1.45-3.55c-0.967-0.967-2.15-1.45-3.55-1.45h-3v-4c0-2.767-0.975-5.125-2.926-7.076s-4.309-2.925-7.074-2.924c-2.765 0.001-5.123 0.977-7.074 2.926s-2.926 4.307-2.926 7.074h-1c-1.933 0-3.583 0.683-4.95 2.050s-2.050 3.017-2.050 4.95c0 1.933 0.683 3.583 2.050 4.95s3.017 2.050 4.95 2.050h5v4h-5z"></path>
</svg>
