<!-- Generated by IcoMoon.io -->
<svg version="1.1" xmlns="http://www.w3.org/2000/svg" width="26" height="32" viewBox="0 0 26 32">
<path d="M12.431 3.791c-0.070 0.025-0.204 0.099-0.298 0.163s-2.823 2.773-6.065 6.018c-4.612 4.616-5.914 5.942-5.981 6.092-0.112 0.25-0.116 0.678-0.008 0.915 0.098 0.216 0.416 0.499 0.634 0.565 0.419 0.125 0.777 0.036 1.118-0.28l0.246-0.227 0.016 4.242c0.018 4.781-0.004 4.459 0.355 5.188 0.397 0.803 1.111 1.396 2.018 1.677l0.314 0.097 7.799 0.012c5.375 0.008 7.891-0.002 8.094-0.033 0.687-0.106 1.233-0.371 1.731-0.841 0.483-0.456 0.744-0.874 0.935-1.501l0.096-0.314 0.028-8.536 0.2 0.196c0.468 0.46 1.093 0.502 1.525 0.104 0.276-0.255 0.311-0.346 0.311-0.816 0-0.358-0.012-0.426-0.102-0.565-0.056-0.087-2.787-2.839-6.067-6.114-5.487-5.479-5.982-5.961-6.174-6.025-0.236-0.078-0.535-0.085-0.726-0.017zM17.032 10.592l4.218 4.218v5.24c0 5.778 0.020 5.372-0.275 5.697-0.289 0.32-0.328 0.326-2.233 0.326h-1.679l-0.021-3.868c-0.016-2.916-0.034-3.896-0.073-3.984-0.092-0.206-0.391-0.492-0.6-0.572-0.185-0.072-0.425-0.077-3.62-0.077-3.787 0-3.548-0.017-3.884 0.278-0.087 0.077-0.201 0.218-0.252 0.313l-0.093 0.174-0.042 7.736-1.573 0.011c-1.015 0.007-1.652-0.005-1.797-0.035-0.302-0.063-0.555-0.26-0.7-0.547l-0.117-0.23-0.004-10.462 4.241-4.217c2.333-2.319 4.251-4.217 4.262-4.218s1.919 1.896 4.24 4.217zM14.875 22.928v3.166h-4.208v-6.333h4.208v3.166z"></path>
</svg>
