<!-- Generated by IcoMoon.io -->
<svg version="1.1" xmlns="http://www.w3.org/2000/svg" width="32" height="32" viewBox="0 0 32 32">
<path d="M30.4 19.2c-0.424 0-0.831 0.169-1.131 0.469s-0.469 0.707-0.469 1.131v6.4c0 0.424-0.168 0.831-0.469 1.131s-0.707 0.469-1.131 0.469h-22.4c-0.424 0-0.831-0.169-1.131-0.469s-0.469-0.707-0.469-1.131v-6.4c0-0.424-0.169-0.831-0.469-1.131s-0.707-0.469-1.131-0.469c-0.424 0-0.831 0.169-1.131 0.469s-0.469 0.707-0.469 1.131v6.4c0 1.273 0.506 2.494 1.406 3.394s2.121 1.406 3.394 1.406h22.4c1.273 0 2.494-0.506 3.394-1.406s1.406-2.121 1.406-3.394v-6.4c0-0.424-0.168-0.831-0.469-1.131s-0.707-0.469-1.131-0.469zM14.864 21.936c0.152 0.146 0.332 0.26 0.528 0.336 0.191 0.085 0.399 0.128 0.608 0.128s0.416-0.044 0.608-0.128c0.196-0.076 0.376-0.19 0.528-0.336l6.4-6.4c0.301-0.301 0.471-0.71 0.471-1.136s-0.169-0.835-0.471-1.136c-0.301-0.301-0.71-0.471-1.136-0.471s-0.835 0.169-1.136 0.471l-3.664 3.68v-15.344c0-0.424-0.169-0.831-0.469-1.131s-0.707-0.469-1.131-0.469c-0.424 0-0.831 0.169-1.131 0.469s-0.469 0.707-0.469 1.131v15.344l-3.664-3.68c-0.149-0.149-0.326-0.268-0.521-0.348s-0.404-0.122-0.615-0.122c-0.211 0-0.42 0.042-0.615 0.122s-0.372 0.199-0.521 0.348c-0.149 0.149-0.268 0.326-0.348 0.521s-0.122 0.404-0.122 0.615c0 0.211 0.042 0.42 0.122 0.615s0.199 0.372 0.348 0.521l6.4 6.4z"></path>
</svg>
