<!-- Generated by IcoMoon.io -->
<svg version="1.1" xmlns="http://www.w3.org/2000/svg" width="30" height="32" viewBox="0 0 30 32">
<path d="M2.376 1.552c0.181-0.405 0.515-0.722 0.929-0.881s0.875-0.147 1.28 0.033l19.171 8.542 0.806-1.774c0.137-0.302 0.361-0.556 0.643-0.73s0.609-0.261 0.941-0.249c0.331 0.012 0.652 0.122 0.92 0.316s0.474 0.464 0.589 0.775l1.785 4.82c0.154 0.415 0.138 0.873-0.045 1.276s-0.518 0.716-0.932 0.873l-4.798 1.808c-0.31 0.118-0.648 0.14-0.972 0.065s-0.617-0.244-0.844-0.487-0.376-0.546-0.43-0.874c-0.053-0.327-0.008-0.663 0.129-0.965l0.821-1.808-19.146-8.529c-0.405-0.181-0.722-0.515-0.881-0.929s-0.147-0.877 0.033-1.282zM2.231 12.473c-0.592 0-1.159 0.235-1.578 0.654s-0.654 0.986-0.654 1.578v15.621c0 0.296 0.118 0.58 0.327 0.789s0.493 0.327 0.789 0.327h5.579c0.296 0 0.58-0.118 0.789-0.327s0.327-0.493 0.327-0.789v-15.621c0-0.592-0.235-1.159-0.654-1.578s-0.986-0.654-1.578-0.654h-3.347zM11.811 16.474c0.418-0.419 0.986-0.654 1.578-0.654h3.347c0.592 0 1.159 0.235 1.578 0.654s0.654 0.986 0.654 1.578v12.273c0 0.296-0.118 0.58-0.327 0.789s-0.493 0.327-0.789 0.327h-5.579c-0.296 0-0.58-0.118-0.789-0.327s-0.327-0.493-0.327-0.789v-12.273c0-0.592 0.235-1.159 0.654-1.578zM24.546 19.167c-0.592 0-1.159 0.235-1.578 0.654s-0.654 0.986-0.654 1.578v8.926c0 0.296 0.118 0.58 0.327 0.789s0.493 0.327 0.789 0.327h5.579c0.296 0 0.58-0.118 0.789-0.327s0.327-0.493 0.327-0.789v-8.926c0-0.592-0.235-1.159-0.654-1.578s-0.986-0.654-1.578-0.654h-3.347z"></path>
</svg>
