<?xml version="1.0" encoding="utf-8"?>
<!-- Generator: Adobe Illustrator 21.0.0, SVG Export Plug-In . SVG Version: 6.00 Build 0)  -->
<svg version="1.1" id="Layer_1" xmlns="http://www.w3.org/2000/svg" xmlns:xlink="http://www.w3.org/1999/xlink" x="0px" y="0px"
	 viewBox="0 0 14 14" style="enable-background:new 0 0 14 14;" xml:space="preserve">
<style type="text/css">
	.st0{fill:#374775;}
</style>
<path class="st0" d="M12,0H5C3.9,0,3,0.9,3,2v1H2C1.4,3,0.9,3.2,0.6,3.6C0.2,3.9,0,4.4,0,5v7c0,1.1,0.9,2,2,2h7
	c0.6,0,1.1-0.2,1.4-0.6c0.4-0.4,0.6-0.9,0.6-1.4v-1h1c1.1,0,2-0.9,2-2V2C14,0.9,13.1,0,12,0z M10.3,10.3V12c0,0.1,0,0.2-0.1,0.3
	c0,0.1,0,0.2,0,0.2c0,0.1-0.1,0.1-0.1,0.2c0,0.1-0.1,0.1-0.1,0.2C9.8,12.9,9.7,13,9.7,13c-0.1,0-0.1,0.1-0.2,0.1
	c-0.1,0-0.2,0-0.3,0.1c-0.1,0-0.1,0-0.2,0H2c-0.1,0-0.2,0-0.3-0.1c-0.1,0-0.1,0-0.2,0C1.2,13,1,12.8,0.8,12.5c0,0,0-0.1,0-0.2
	c0-0.1-0.1-0.2-0.1-0.3V5c0-0.7,0.6-1.2,1.2-1.3h1.8v0H9c0.7,0,1.2,0.6,1.3,1.3V10.3z M13.3,9c0,0.7-0.6,1.2-1.3,1.3h-1V5
	c0-1.1-0.9-2-2-2H3.8V2c0-0.7,0.6-1.3,1.2-1.3h7c0.7,0,1.3,0.6,1.3,1.3V9z"/>
</svg>
