<!-- Generated by IcoMoon.io -->
<svg version="1.1" xmlns="http://www.w3.org/2000/svg" width="32" height="32" viewBox="0 0 32 32">
<path fill="#1ed84b" d="M17.874 3.316c0 0 0 0 0 0-0.023 0-0.042-0.012-0.054-0.030v0c-0.006-0.009-0.009-0.021-0.009-0.033 0-0.023 0.012-0.043 0.030-0.054v0l0.028-0.017c0.009-0.006 0.021-0.009 0.033-0.009 0.023 0 0.043 0.012 0.054 0.030v0c0.006 0.009 0.009 0.021 0.009 0.033 0 0.023-0.012 0.043-0.030 0.054v0l-0.028 0.017c-0.009 0.006-0.021 0.009-0.033 0.009v0z"></path>
<path fill="#bac4c6" d="M18.897 2.626v28.766l-0.993 0.607v-28.764h-0.002z"></path>
<path fill="#e3e5e5" d="M18.897 2.626l-0.995 0.609-4.548-2.627 0.994-0.608z"></path>
<path fill="#1ed84b" d="M16.466 16.443c-0.012 0-0.023-0.003-0.032-0.009v0l-0.053-0.030c-0.019-0.011-0.032-0.031-0.032-0.055 0-0.012 0.003-0.023 0.009-0.032v0c0.011-0.019 0.031-0.032 0.055-0.032 0.012 0 0.023 0.003 0.032 0.009v0l0.053 0.031c0.019 0.011 0.032 0.031 0.032 0.055 0 0.035-0.028 0.063-0.063 0.063 0 0 0 0 0 0v0z"></path>
<path fill="#1ed84b" d="M15.248 15.247c-0.035 0-0.063-0.028-0.063-0.063v0-0.351c0-0.035 0.028-0.063 0.063-0.063s0.063 0.028 0.063 0.063v0 0.351c0 0.035-0.028 0.063-0.063 0.063v0z"></path>
<path fill="#d7dbdd" d="M17.904 3.236v28.764l-4.55-2.627v-28.765l4.548 2.627z"></path>
<path fill="#bac4c6" d="M15.248 14.983l-0.508-0.294v1.246l1.779 1.028v-1.246zM16.413 16.35l-1.165-0.673v-0.493l0.584 0.337v-0.042l0.267 0.155v0.226l0.288 0.166c0.014 0.009 0.024 0.023 0.025 0.040v0z"></path>
<path fill="#7287a0" d="M16.413 16.066v0.284l-1.165-0.673v-0.493l0.584 0.337v-0.042l0.267 0.155v0.226l0.288 0.166c0.014 0.009 0.024 0.023 0.026 0.040v0z"></path>
<path fill="#849aaf" d="M16.413 16.349v0.142c0 0.014-0.012 0.019-0.025 0.011l-0.288-0.166v0.226l-0.267-0.155v-0.042l-0.835-0.482v0.108l-0.151-0.087v-1.061l0.151 0.087v0.108l0.251 0.145v0.493z"></path>
<path fill="#bac4c6" d="M15.248 16.437l-0.508-0.294v1.246l1.779 1.028v-1.246zM16.413 17.804l-1.165-0.673v-0.493l0.584 0.338v-0.042l0.267 0.155v0.226l0.288 0.166c0.014 0.009 0.024 0.023 0.025 0.040v0z"></path>
<path fill="#7287a0" d="M16.413 17.52v0.284l-1.165-0.673v-0.493l0.584 0.338v-0.042l0.267 0.155v0.226l0.288 0.166c0.014 0.008 0.024 0.023 0.026 0.040v0z"></path>
<path fill="#849aaf" d="M16.413 17.804v0.142c0 0.014-0.012 0.019-0.025 0.011l-0.288-0.166v0.226l-0.267-0.155v-0.042l-0.835-0.482v0.108l-0.151-0.087v-1.061l0.151 0.087v0.108l0.251 0.145v0.492z"></path>
<path fill="#bac4c6" d="M15.248 19.792l-0.508-0.294v1.246l1.779 1.028v-1.246zM16.413 21.159l-1.165-0.673v-0.493l0.584 0.337v-0.042l0.267 0.154v0.226l0.288 0.166c0.014 0.009 0.023 0.023 0.025 0.040v0z"></path>
<path fill="#7287a0" d="M16.413 20.875v0.284l-1.165-0.673v-0.493l0.584 0.337v-0.042l0.267 0.154v0.226l0.288 0.166c0.014 0.009 0.024 0.023 0.026 0.040v0z"></path>
<path fill="#849aaf" d="M16.413 21.158v0.142c0 0.014-0.012 0.019-0.025 0.011l-0.288-0.166v0.226l-0.267-0.155v-0.042l-0.835-0.482v0.108l-0.151-0.087v-1.061l0.151 0.087v0.108l0.251 0.145v0.493z"></path>
<path fill="#bac4c6" d="M15.248 21.246l-0.508-0.294v1.246l1.779 1.028v-1.246zM16.413 22.613l-1.165-0.673v-0.493l0.584 0.337v-0.042l0.267 0.155v0.226l0.288 0.166c0.014 0.009 0.024 0.023 0.025 0.040v0z"></path>
<path fill="#7287a0" d="M16.413 22.329v0.284l-1.165-0.673v-0.493l0.584 0.338v-0.042l0.267 0.155v0.226l0.288 0.166c0.014 0.008 0.024 0.023 0.026 0.040v0z"></path>
<path fill="#849aaf" d="M16.413 22.613v0.142c0 0.014-0.012 0.019-0.025 0.011l-0.288-0.166v0.226l-0.267-0.155v-0.042l-0.835-0.482v0.108l-0.151-0.087v-1.061l0.151 0.087v0.108l0.251 0.145v0.493z"></path>
<path fill="#bac4c6" d="M15.248 24.715l-0.508-0.294v1.246l1.779 1.028v-1.246zM16.413 26.082l-1.165-0.673v-0.493l0.584 0.338v-0.042l0.267 0.155v0.226l0.288 0.166c0.014 0.009 0.024 0.023 0.025 0.040v0z"></path>
<path fill="#7287a0" d="M16.413 25.798v0.284l-1.165-0.673v-0.493l0.584 0.338v-0.042l0.267 0.155v0.226l0.288 0.166c0.014 0.008 0.024 0.023 0.026 0.040v0z"></path>
<path fill="#849aaf" d="M16.413 26.082v0.142c0 0.014-0.012 0.019-0.025 0.011l-0.288-0.166v0.226l-0.267-0.155v-0.042l-0.835-0.482v0.108l-0.151-0.087v-1.061l0.151 0.087v0.108l0.251 0.145v0.493z"></path>
<path fill="#bac4c6" d="M15.248 26.17l-0.508-0.294v1.246l1.779 1.028v-1.246zM16.413 27.536l-1.165-0.673v-0.493l0.584 0.337v-0.042l0.267 0.155v0.226l0.288 0.166c0.014 0.009 0.024 0.023 0.025 0.040v0z"></path>
<path fill="#7287a0" d="M16.413 27.252v0.284l-1.165-0.673v-0.493l0.584 0.337v-0.042l0.267 0.155v0.226l0.288 0.166c0.014 0.009 0.024 0.023 0.026 0.040v0z"></path>
<path fill="#849aaf" d="M16.413 27.536v0.142c0 0.014-0.012 0.019-0.025 0.011l-0.288-0.166v0.226l-0.267-0.155v-0.042l-0.835-0.482v0.108l-0.151-0.087v-1.061l0.151 0.087v0.108l0.251 0.145v0.493z"></path>
<path fill="#7287a0" d="M15.318 14.215c0.021 0.020 0.040 0.042 0.056 0.066l0.001 0.001-0.037 0.021c-0.013-0.018-0.027-0.035-0.042-0.050v0c-0.013-0.013-0.028-0.024-0.044-0.033l-0.001-0.001c-0.011-0.008-0.025-0.013-0.040-0.013-0.001 0-0.003 0-0.004 0v0c-0.011 0.002-0.017 0.011-0.017 0.025 0 0 0 0 0 0 0 0.010 0.002 0.020 0.007 0.029v0c0.007 0.012 0.014 0.023 0.024 0.032v0c0.011 0.013 0.028 0.028 0.051 0.048 0.033 0.028 0.061 0.059 0.085 0.093l0.001 0.002c0.018 0.027 0.029 0.059 0.029 0.095 0 0 0 0 0 0.001v0c0 0.002 0 0.004 0 0.006 0 0.018-0.007 0.034-0.018 0.047v0c-0.010 0.009-0.024 0.014-0.038 0.014-0.004 0-0.008 0-0.013-0.001v0c-0.030-0.005-0.056-0.016-0.080-0.031l0.001 0.001c-0.030-0.018-0.056-0.037-0.080-0.060v0c-0.022-0.021-0.042-0.045-0.060-0.071l-0.001-0.002 0.038-0.021c0.015 0.021 0.030 0.039 0.047 0.056v0c0.016 0.015 0.033 0.029 0.052 0.040l0.001 0.001c0.012 0.009 0.028 0.014 0.045 0.014 0.002 0 0.005 0 0.007 0v0q0.020-0.004 0.020-0.033c0 0 0 0 0 0 0-0.012-0.002-0.023-0.007-0.033v0.001c-0.006-0.013-0.014-0.024-0.023-0.034v0c-0.015-0.016-0.030-0.031-0.047-0.046l-0.001-0.001c-0.034-0.029-0.063-0.061-0.088-0.097l-0.001-0.002c-0.017-0.025-0.027-0.055-0.028-0.087v0c0-0.002 0-0.003 0-0.005 0-0.016 0.007-0.031 0.017-0.042v0c0.010-0.008 0.022-0.012 0.035-0.012 0.004 0 0.008 0 0.012 0.001v0c0.026 0.004 0.049 0.013 0.069 0.026h-0.001c0.027 0.016 0.050 0.034 0.071 0.055v0z"></path>
<path fill="#7287a0" d="M15.433 14.466l0.17 0.098v0.055l-0.17-0.098z"></path>
<path fill="#7287a0" d="M15.752 14.852l-0.074-0.043v-0.389l0.074 0.043z"></path>
<path fill="#7287a0" d="M16.13 15.070l-0.096-0.056-0.133-0.392c0.003 0.030 0.006 0.056 0.008 0.080s0.003 0.051 0.003 0.082v0.159l-0.067-0.039v-0.389l0.094 0.054 0.136 0.394c-0.002-0.016-0.004-0.038-0.007-0.063s-0.003-0.051-0.003-0.076v-0.182l0.068 0.039z"></path>
<path fill="#7287a0" d="M14.715 18.729c0.034 0.048 0.055 0.107 0.055 0.171 0 0.004 0 0.008 0 0.012v-0.001q0 0.108-0.053 0.121c-0.007 0.001-0.016 0.002-0.024 0.002-0.042 0-0.080-0.013-0.112-0.036h0.001l-0.106-0.061v-0.389l0.096 0.055c0.057 0.032 0.106 0.074 0.144 0.124l0.001 0.001zM14.549 18.646v0.28l0.037 0.021c0.014 0.011 0.032 0.018 0.052 0.018 0.009 0 0.018-0.002 0.027-0.004h-0.001q0.028-0.015 0.028-0.095c0-0.002 0-0.004 0-0.007 0-0.031-0.005-0.061-0.015-0.089l0.001 0.002c-0.009-0.025-0.022-0.046-0.038-0.063v0c-0.016-0.017-0.035-0.031-0.055-0.043l-0.001-0.001z"></path>
<path fill="#7287a0" d="M15.050 18.882c0.019 0.018 0.036 0.037 0.051 0.058l0.001 0.001-0.038 0.021c-0.019-0.028-0.043-0.051-0.071-0.069l-0.001-0.001q-0.043-0.025-0.070-0.004t-0.026 0.099c0 0.003 0 0.006 0 0.009 0 0.043 0.010 0.084 0.027 0.121l-0.001-0.002c0.015 0.032 0.039 0.059 0.069 0.077h0.001c0.012 0.008 0.026 0.013 0.040 0.015h0.001c0.004 0.001 0.010 0.001 0.015 0.001 0.008 0 0.016-0.001 0.024-0.002h-0.001l0.035 0.063c-0.009 0.003-0.019 0.004-0.029 0.004-0.007 0-0.015-0.001-0.021-0.002h0.001c-0.025-0.005-0.048-0.014-0.068-0.027h0.001c-0.035-0.020-0.065-0.046-0.089-0.075v-0.001c-0.025-0.030-0.046-0.065-0.060-0.102l-0.001-0.002c-0.014-0.036-0.021-0.078-0.021-0.122 0-0.001 0-0.001 0-0.002v0c0-0.003 0-0.007 0-0.011 0-0.032 0.008-0.061 0.023-0.087v0.001c0.013-0.020 0.035-0.034 0.061-0.035v0c0.032 0 0.062 0.010 0.088 0.027h-0.001c0.024 0.013 0.044 0.028 0.063 0.046v0z"></path>
<path fill="#7287a0" d="M15.525 19.544l-0.073-0.042-0.010-0.169q-0.005-0.090-0.005-0.141v-0.020l-0.071 0.238-0.070-0.041-0.076-0.323c0.001 0.025 0.001 0.044 0.001 0.057 0 0.034-0.001 0.069-0.004 0.103l-0.009 0.155-0.072-0.042 0.031-0.371 0.096 0.055 0.069 0.312 0.065-0.235 0.097 0.056z"></path>
<path fill="#7287a0" d="M15.58 19.374l0.17 0.098v0.055l-0.17-0.098z"></path>
<path fill="#7287a0" d="M16.064 19.481c0.025 0.029 0.045 0.064 0.058 0.102l0.001 0.002c0.013 0.036 0.021 0.077 0.021 0.121 0 0.001 0 0.001 0 0.002v0c0 0.003 0 0.007 0 0.011 0 0.032-0.008 0.062-0.022 0.088v-0.001c-0.012 0.021-0.034 0.035-0.059 0.036v0c-0.034 0-0.065-0.011-0.091-0.028h0.001c-0.035-0.020-0.065-0.046-0.090-0.075v0c-0.025-0.030-0.045-0.064-0.058-0.102l-0.001-0.002c-0.013-0.036-0.021-0.077-0.021-0.121 0-0.001 0-0.002 0-0.002v0c0-0.003 0-0.007 0-0.011 0-0.032 0.008-0.062 0.022-0.088l-0.001 0.001c0.012-0.021 0.034-0.035 0.059-0.036v0c0.034 0 0.065 0.011 0.091 0.028h-0.001c0.035 0.020 0.065 0.046 0.090 0.075v0.001zM15.905 19.456c-0.016 0.023-0.025 0.051-0.025 0.082 0 0.007 0 0.013 0.001 0.020v-0.001c-0.001 0.008-0.002 0.017-0.002 0.026 0 0.073 0.037 0.138 0.093 0.177h0.001c0.030 0.017 0.053 0.018 0.068 0.004 0.016-0.023 0.025-0.052 0.025-0.082 0-0.007 0-0.013-0.001-0.020v0.001c0-0.003 0-0.007 0-0.011 0-0.042-0.009-0.082-0.024-0.119l0.001 0.002c-0.015-0.032-0.038-0.058-0.068-0.076h-0.001q-0.045-0.026-0.069-0.003z"></path>
<path fill="#7287a0" d="M16.497 19.98c0 0.002 0 0.004 0 0.006 0 0.020-0.006 0.039-0.017 0.055v0c-0.010 0.012-0.026 0.020-0.043 0.020-0.002 0-0.005 0-0.007 0v0c-0.030-0.003-0.057-0.013-0.080-0.029h0.001c-0.044-0.024-0.080-0.058-0.106-0.098l-0.001-0.001c-0.023-0.034-0.037-0.076-0.037-0.121v-0.263l0.074 0.043v0.263c0 0.001 0 0.002 0 0.004 0 0.025 0.006 0.049 0.018 0.070v-0.001c0.013 0.021 0.031 0.039 0.052 0.050h0.001c0.024 0.014 0.042 0.017 0.053 0.010s0.017-0.025 0.017-0.053v-0.263l0.075 0.043z"></path>
<path fill="#7287a0" d="M16.825 19.96l-0.101-0.059v0.334l-0.075-0.043v-0.334l-0.105-0.060v-0.055l0.289 0.167z"></path>
<path fill="#7287a0" d="M14.78 17.656c0.025 0.029 0.045 0.064 0.058 0.101l0.001 0.002c0.013 0.036 0.021 0.078 0.021 0.121 0 0.001 0 0.001 0 0.002v0c0 0.003 0 0.007 0 0.011 0 0.032-0.008 0.062-0.022 0.088l0.001-0.001c-0.012 0.021-0.034 0.035-0.059 0.036v0c-0.034 0-0.065-0.011-0.091-0.028h0.001c-0.035-0.020-0.065-0.046-0.090-0.075v0c-0.025-0.030-0.045-0.064-0.058-0.102l-0.001-0.002c-0.013-0.036-0.021-0.077-0.021-0.12 0-0.001 0-0.002 0-0.003v0c0-0.003 0-0.007 0-0.011 0-0.032 0.008-0.062 0.022-0.088l-0.001 0.001c0.012-0.021 0.034-0.035 0.059-0.036v0c0.034 0 0.065 0.011 0.091 0.028h-0.001c0.035 0.020 0.065 0.046 0.090 0.075v0.001zM14.621 17.631c-0.016 0.023-0.025 0.051-0.025 0.082 0 0.007 0 0.014 0.001 0.020v-0.001c-0.001 0.008-0.002 0.017-0.002 0.026 0 0.073 0.037 0.138 0.093 0.177h0.001q0.045 0.026 0.068 0.004c0.016-0.023 0.025-0.052 0.025-0.082 0-0.007 0-0.013-0.001-0.020v0.001c0-0.003 0-0.007 0-0.011 0-0.042-0.009-0.082-0.024-0.119l0.001 0.002c-0.015-0.032-0.038-0.058-0.068-0.076h-0.001c-0.030-0.017-0.053-0.018-0.069-0.003z"></path>
<path fill="#7287a0" d="M15.113 17.835c0.021 0.020 0.040 0.042 0.056 0.066l0.001 0.001-0.036 0.021c-0.013-0.018-0.027-0.035-0.042-0.050v0c-0.013-0.013-0.028-0.024-0.044-0.034l-0.001-0.001c-0.011-0.008-0.025-0.013-0.040-0.013-0.001 0-0.002 0-0.004 0v0q-0.017 0.003-0.017 0.025c0 0 0 0 0 0 0 0.010 0.002 0.020 0.007 0.029v0c0.007 0.012 0.014 0.023 0.023 0.032v0c0.011 0.013 0.028 0.028 0.051 0.048 0.033 0.028 0.061 0.059 0.085 0.093l0.001 0.002c0.018 0.027 0.029 0.059 0.029 0.095 0 0 0 0 0 0.001v0c0 0.002 0 0.004 0 0.006 0 0.018-0.007 0.034-0.018 0.047v0c-0.010 0.009-0.024 0.014-0.038 0.014-0.004 0-0.009 0-0.013-0.001v0c-0.030-0.005-0.056-0.016-0.080-0.031l0.001 0.001c-0.030-0.018-0.056-0.037-0.080-0.060v0c-0.022-0.021-0.042-0.045-0.060-0.071l-0.001-0.002 0.038-0.020c0.014 0.021 0.030 0.039 0.047 0.056v0c0.016 0.015 0.033 0.029 0.052 0.040l0.001 0.001c0.012 0.009 0.028 0.014 0.044 0.014 0.003 0 0.005 0 0.008 0v0q0.020-0.004 0.020-0.033c0 0 0 0 0 0 0-0.012-0.002-0.023-0.007-0.033v0.001c-0.006-0.013-0.014-0.024-0.023-0.034v0c-0.015-0.016-0.030-0.031-0.047-0.046l-0.001-0.001c-0.034-0.029-0.063-0.061-0.088-0.097l-0.001-0.002c-0.017-0.025-0.027-0.055-0.028-0.087v0c0-0.002 0-0.004 0-0.005 0-0.016 0.007-0.031 0.017-0.042v0c0.010-0.008 0.022-0.012 0.035-0.012 0.004 0 0.008 0 0.012 0.001v0c0.026 0.004 0.049 0.013 0.069 0.026h-0.001c0.027 0.016 0.050 0.034 0.071 0.054v0z"></path>
<path fill="#7287a0" d="M15.455 18.031c0.019 0.018 0.036 0.037 0.051 0.058l0.001 0.001-0.038 0.021c-0.019-0.028-0.043-0.051-0.071-0.069l-0.001-0.001q-0.043-0.025-0.070-0.004t-0.026 0.099c0 0.003 0 0.006 0 0.010 0 0.043 0.009 0.083 0.026 0.12l-0.001-0.002c0.016 0.032 0.040 0.059 0.069 0.077h0.001c0.012 0.007 0.026 0.013 0.040 0.015h0.001c0.004 0.001 0.009 0.001 0.014 0.001 0.008 0 0.016-0.001 0.024-0.002h-0.001l0.035 0.063c-0.009 0.003-0.019 0.004-0.029 0.004-0.007 0-0.015-0.001-0.021-0.002h0.001c-0.025-0.005-0.048-0.014-0.068-0.027l0.001 0.001c-0.035-0.021-0.064-0.046-0.089-0.075v-0.001c-0.025-0.030-0.045-0.065-0.059-0.102l-0.001-0.002c-0.014-0.036-0.021-0.078-0.021-0.122 0-0.001 0-0.001 0-0.002v0c0-0.003 0-0.007 0-0.011 0-0.032 0.008-0.061 0.023-0.087v0.001c0.013-0.020 0.035-0.034 0.061-0.035v0c0.032 0 0.062 0.010 0.088 0.027h-0.001c0.024 0.013 0.045 0.029 0.063 0.046v0z"></path>
<path fill="#7287a0" d="M15.514 18.252l0.17 0.098v0.055l-0.17-0.098z"></path>
<path fill="#7287a0" d="M15.998 18.359c0.025 0.029 0.045 0.064 0.058 0.101l0.001 0.002c0.013 0.036 0.020 0.077 0.020 0.12 0 0.001 0 0.002 0 0.002v0c0 0.003 0 0.007 0 0.011 0 0.032-0.008 0.062-0.022 0.088v-0.001c-0.012 0.021-0.034 0.035-0.059 0.036v0c-0.034 0-0.065-0.011-0.091-0.028h0.001c-0.035-0.020-0.065-0.046-0.090-0.075v0c-0.025-0.030-0.045-0.064-0.058-0.102l-0.001-0.002c-0.013-0.036-0.021-0.078-0.021-0.121 0-0.001 0-0.001 0-0.002v0c0-0.003 0-0.007 0-0.011 0-0.032 0.008-0.062 0.022-0.088l-0.001 0.001c0.012-0.021 0.034-0.036 0.059-0.037v0c0.034 0 0.065 0.011 0.091 0.028h-0.001c0.035 0.020 0.065 0.046 0.090 0.075v0zM15.839 18.334c-0.016 0.023-0.025 0.051-0.025 0.082 0 0.007 0 0.014 0.001 0.020v-0.001c-0.001 0.008-0.002 0.017-0.002 0.026 0 0.073 0.037 0.138 0.093 0.177h0.001c0.030 0.017 0.053 0.018 0.068 0.004 0.016-0.023 0.025-0.051 0.025-0.082 0-0.007 0-0.013-0.001-0.020v0.001c0-0.003 0-0.007 0-0.011 0-0.042-0.009-0.082-0.024-0.118l0.001 0.002c-0.015-0.032-0.038-0.058-0.067-0.076h-0.001c-0.030-0.017-0.053-0.018-0.069-0.003z"></path>
<path fill="#7287a0" d="M16.431 18.858c0 0.002 0 0.004 0 0.006 0 0.020-0.006 0.039-0.017 0.055v0c-0.010 0.012-0.026 0.020-0.043 0.020-0.002 0-0.005 0-0.007 0v0c-0.030-0.003-0.057-0.013-0.080-0.029h0.001c-0.044-0.024-0.080-0.058-0.106-0.098l-0.001-0.001c-0.023-0.034-0.037-0.076-0.037-0.121v-0.264l0.074 0.043v0.263c0 0.001 0 0.002 0 0.004 0 0.025 0.006 0.049 0.018 0.070v-0.001c0.013 0.021 0.031 0.038 0.052 0.050h0.001c0.024 0.014 0.042 0.017 0.053 0.010s0.017-0.025 0.017-0.053v-0.263l0.075 0.043z"></path>
<path fill="#7287a0" d="M16.759 18.838l-0.101-0.058v0.334l-0.075-0.043v-0.334l-0.105-0.061v-0.055l0.289 0.167z"></path>
<path fill="#7287a0" d="M14.971 22.669c0.034 0.048 0.055 0.107 0.055 0.171 0 0.004 0 0.008 0 0.012v-0.001q0 0.108-0.054 0.121c-0.007 0.001-0.016 0.002-0.024 0.002-0.042 0-0.080-0.013-0.112-0.036h0.001l-0.106-0.061v-0.389l0.096 0.055c0.057 0.032 0.105 0.074 0.144 0.124l0.001 0.001zM14.805 22.586v0.28l0.037 0.021c0.014 0.011 0.032 0.018 0.052 0.018 0.009 0 0.018-0.002 0.026-0.004h-0.001c0.019-0.010 0.028-0.041 0.028-0.095 0-0.002 0-0.004 0-0.006 0-0.031-0.005-0.062-0.015-0.090l0.001 0.002c-0.009-0.025-0.022-0.046-0.038-0.063v0c-0.016-0.017-0.034-0.031-0.055-0.042l-0.001-0.001z"></path>
<path fill="#7287a0" d="M15.306 22.822c0.019 0.018 0.036 0.037 0.051 0.058l0.001 0.001-0.038 0.021c-0.019-0.028-0.043-0.051-0.071-0.069l-0.001-0.001c-0.029-0.017-0.052-0.018-0.070-0.004s-0.026 0.047-0.026 0.099c0 0.003 0 0.007 0 0.010 0 0.043 0.009 0.083 0.026 0.119l-0.001-0.002c0.015 0.032 0.039 0.059 0.069 0.077h0.001c0.012 0.007 0.026 0.013 0.040 0.016h0.001c0.004 0 0.009 0.001 0.015 0.001 0.008 0 0.016-0.001 0.024-0.002h-0.001l0.035 0.063c-0.009 0.003-0.019 0.004-0.029 0.004-0.007 0-0.014-0.001-0.021-0.002h0.001c-0.025-0.005-0.048-0.014-0.068-0.027h0.001c-0.035-0.021-0.065-0.046-0.089-0.075v-0.001c-0.025-0.030-0.046-0.065-0.059-0.102l-0.001-0.002c-0.014-0.036-0.021-0.078-0.021-0.122 0-0.001 0-0.002 0-0.002v0c0-0.003 0-0.007 0-0.011 0-0.032 0.008-0.061 0.023-0.087v0.001c0.013-0.021 0.035-0.034 0.061-0.035v0c0.032 0 0.062 0.010 0.088 0.027h-0.001c0.024 0.013 0.044 0.028 0.063 0.045v0z"></path>
<path fill="#7287a0" d="M15.781 23.485l-0.072-0.042-0.010-0.169q-0.005-0.090-0.005-0.141v-0.020l-0.071 0.238-0.070-0.041-0.076-0.323c0.001 0.025 0.001 0.044 0.001 0.057 0 0.034-0.001 0.069-0.003 0.103l-0.009 0.155-0.072-0.042 0.031-0.371 0.096 0.055 0.069 0.312 0.065-0.235 0.097 0.056z"></path>
<path fill="#7287a0" d="M15.836 23.314l0.17 0.098v0.055l-0.17-0.098z"></path>
<path fill="#7287a0" d="M16.155 23.701l-0.074-0.043v-0.389l0.074 0.043z"></path>
<path fill="#7287a0" d="M16.534 23.919l-0.096-0.056-0.133-0.392c0.003 0.030 0.006 0.056 0.008 0.080s0.003 0.051 0.003 0.082v0.159l-0.067-0.039v-0.388l0.094 0.054 0.136 0.394c-0.002-0.016-0.005-0.038-0.007-0.063s-0.003-0.051-0.003-0.076v-0.182l0.067 0.039z"></path>
<path fill="#7287a0" d="M14.404 21.421l-0.047-0.027v0.156l-0.074-0.043v-0.389l0.116 0.067q0.154 0.089 0.154 0.203c0 0.002 0 0.005 0 0.007 0 0.018-0.008 0.034-0.020 0.046v0c-0.011 0.006-0.024 0.010-0.037 0.010-0.008 0-0.016-0.001-0.023-0.003h0.001l0.102 0.228-0.086-0.049zM14.357 21.34l0.046 0.027c0.013 0.010 0.030 0.016 0.047 0.016 0.002 0 0.004 0 0.007 0v0c0.013-0.003 0.018-0.016 0.018-0.039 0 0 0-0.001 0-0.001 0-0.021-0.007-0.040-0.019-0.056v0c-0.016-0.020-0.036-0.036-0.058-0.048h-0.001l-0.040-0.023z"></path>
<path fill="#7287a0" d="M14.547 19.861l-0.101-0.058v0.334l-0.075-0.043v-0.334l-0.105-0.061v-0.055l0.289 0.167z"></path>
<path fill="#7287a0" d="M15.049 27.582c0.021 0.020 0.040 0.042 0.056 0.066l0.001 0.001-0.037 0.021c-0.013-0.018-0.027-0.035-0.042-0.049v0c-0.013-0.013-0.028-0.024-0.044-0.034l-0.001-0.001c-0.011-0.008-0.025-0.013-0.040-0.013-0.001 0-0.002 0-0.004 0v0c-0.011 0.002-0.017 0.011-0.017 0.025 0 0 0 0 0 0 0 0.010 0.002 0.020 0.007 0.029v0c0.006 0.012 0.014 0.023 0.023 0.032v0c0.011 0.013 0.028 0.028 0.051 0.048 0.033 0.028 0.061 0.059 0.085 0.094l0.001 0.002c0.018 0.027 0.029 0.059 0.029 0.095 0 0 0 0 0 0.001v0c0 0.002 0 0.004 0 0.006 0 0.018-0.007 0.034-0.018 0.047v0c-0.010 0.009-0.024 0.014-0.038 0.014-0.004 0-0.008 0-0.013-0.001v0c-0.030-0.005-0.056-0.016-0.080-0.031h0.001c-0.030-0.017-0.056-0.037-0.080-0.060v0c-0.022-0.021-0.042-0.045-0.060-0.071l-0.001-0.002 0.038-0.020c0.014 0.021 0.030 0.039 0.047 0.056v0c0.016 0.015 0.033 0.029 0.052 0.040l0.001 0.001c0.012 0.009 0.028 0.014 0.045 0.014 0.002 0 0.005 0 0.007 0v0q0.020-0.004 0.020-0.033c0 0 0 0 0-0.001 0-0.012-0.003-0.023-0.007-0.033v0c-0.006-0.013-0.014-0.024-0.023-0.034v0c-0.015-0.016-0.030-0.031-0.047-0.046l-0.001-0.001c-0.034-0.029-0.063-0.061-0.088-0.097l-0.001-0.002c-0.017-0.025-0.027-0.055-0.028-0.087v0c0-0.002 0-0.003 0-0.005 0-0.016 0.007-0.031 0.017-0.042v0c0.010-0.008 0.022-0.012 0.035-0.012 0.004 0 0.008 0 0.012 0.001v0c0.026 0.004 0.049 0.013 0.069 0.026h-0.001c0.027 0.016 0.050 0.034 0.071 0.054v0z"></path>
<path fill="#7287a0" d="M15.164 27.833l0.17 0.098v0.055l-0.17-0.098z"></path>
<path fill="#7287a0" d="M15.648 27.941c0.025 0.029 0.045 0.064 0.058 0.101l0.001 0.002c0.013 0.036 0.021 0.078 0.021 0.121 0 0.001 0 0.001 0 0.002v0c0 0.003 0 0.007 0 0.011 0 0.032-0.008 0.062-0.022 0.088l0.001-0.001c-0.012 0.021-0.034 0.035-0.059 0.036v0c-0.034 0-0.065-0.011-0.091-0.028h0.001c-0.069-0.040-0.122-0.103-0.149-0.178l-0.001-0.002c-0.013-0.036-0.021-0.077-0.021-0.121 0-0.001 0-0.002 0-0.002v0c0-0.003 0-0.007 0-0.011 0-0.032 0.008-0.062 0.022-0.088l-0.001 0.001c0.012-0.021 0.034-0.036 0.059-0.037v0c0.034 0 0.065 0.011 0.091 0.028h-0.001c0.035 0.020 0.065 0.046 0.090 0.076v0.001zM15.489 27.916c-0.016 0.023-0.025 0.051-0.025 0.082 0 0.007 0 0.014 0.001 0.020v-0.001c-0.001 0.008-0.002 0.017-0.002 0.026 0 0.073 0.037 0.138 0.093 0.177h0.001q0.045 0.026 0.068 0.004c0.016-0.023 0.025-0.051 0.025-0.082 0-0.007 0-0.013-0.001-0.020v0.001c0-0.003 0-0.007 0-0.011 0-0.042-0.009-0.082-0.024-0.119l0.001 0.002c-0.015-0.032-0.038-0.058-0.068-0.076h-0.001c-0.030-0.017-0.053-0.018-0.069-0.003z"></path>
<path fill="#7287a0" d="M16.081 28.44c0 0.002 0 0.004 0 0.006 0 0.020-0.006 0.039-0.017 0.055v0c-0.010 0.012-0.026 0.020-0.043 0.020-0.002 0-0.005 0-0.007 0v0c-0.030-0.003-0.057-0.013-0.080-0.029h0.001c-0.044-0.024-0.080-0.058-0.106-0.098l-0.001-0.001c-0.023-0.034-0.037-0.076-0.037-0.121v-0.264l0.074 0.043v0.263c0 0.001 0 0.002 0 0.004 0 0.025 0.006 0.049 0.018 0.070v-0.001c0.013 0.021 0.031 0.039 0.052 0.050h0.001q0.036 0.021 0.053 0.010c0.011-0.007 0.017-0.025 0.017-0.053v-0.263l0.075 0.043z"></path>
<path fill="#7287a0" d="M16.409 28.419l-0.101-0.058v0.334l-0.075-0.043v-0.334l-0.105-0.061v-0.055l0.289 0.167z"></path>
<path fill="#7287a0" d="M15.433 24.4l-0.072-0.042-0.010-0.169c-0.003-0.060-0.005-0.107-0.005-0.141v-0.020l-0.071 0.238-0.070-0.041-0.076-0.323c0.001 0.025 0.001 0.044 0.001 0.057 0 0.034-0.001 0.069-0.003 0.103l-0.010 0.155-0.072-0.041 0.031-0.371 0.096 0.055 0.069 0.312 0.065-0.235 0.097 0.056z"></path>
<path fill="#7287a0" d="M15.739 24.202c0.025 0.029 0.045 0.064 0.058 0.102l0.001 0.002c0.013 0.036 0.021 0.077 0.021 0.121 0 0.001 0 0.001 0 0.002v0c0 0.003 0 0.007 0 0.011 0 0.032-0.008 0.062-0.022 0.088l0.001-0.001c-0.012 0.021-0.034 0.035-0.059 0.036v0c-0.034 0-0.065-0.011-0.091-0.028h0.001c-0.035-0.020-0.065-0.046-0.090-0.075v0c-0.025-0.030-0.045-0.064-0.058-0.102l-0.001-0.002c-0.013-0.036-0.021-0.078-0.021-0.121 0-0.001 0-0.001 0-0.002v0c0-0.003 0-0.007 0-0.011 0-0.032 0.008-0.062 0.022-0.088l-0.001 0.001c0.012-0.021 0.034-0.036 0.059-0.037v0c0.034 0 0.065 0.011 0.091 0.028h-0.001c0.035 0.021 0.065 0.046 0.090 0.076v0zM15.579 24.177c-0.016 0.023-0.025 0.051-0.025 0.082 0 0.007 0 0.014 0.001 0.020v-0.001c-0.001 0.008-0.002 0.017-0.002 0.026 0 0.073 0.037 0.138 0.093 0.177h0.001c0.030 0.017 0.053 0.018 0.068 0.004 0.015-0.023 0.025-0.051 0.025-0.082 0-0.007 0-0.014-0.001-0.020v0.001c0-0.003 0-0.007 0-0.011 0-0.042-0.009-0.082-0.024-0.118l0.001 0.002c-0.015-0.032-0.038-0.058-0.068-0.076h-0.001q-0.045-0.025-0.069-0.003z"></path>
<path fill="#7287a0" d="M16.175 24.828l-0.096-0.056-0.133-0.392c0.003 0.030 0.006 0.056 0.008 0.080s0.003 0.051 0.003 0.082v0.159l-0.067-0.039v-0.389l0.094 0.054 0.136 0.394c-0.002-0.016-0.004-0.038-0.007-0.063s-0.003-0.051-0.003-0.076v-0.182l0.068 0.039z"></path>
<path fill="#7287a0" d="M14.782 5.96c0.033 0.032 0.064 0.067 0.091 0.105l0.002 0.002-0.037 0.025c-0.024-0.034-0.050-0.064-0.078-0.092v0c-0.025-0.024-0.053-0.045-0.083-0.062l-0.002-0.001c-0.029-0.024-0.067-0.038-0.108-0.038-0.027 0-0.053 0.006-0.076 0.018h0.001q-0.071 0.045-0.070 0.222c0 0.002 0 0.004 0 0.007 0 0.074 0.012 0.145 0.034 0.211l-0.001-0.005c0.021 0.064 0.051 0.12 0.090 0.168l-0.001-0.001c0.036 0.045 0.078 0.082 0.127 0.111l0.002 0.001c0.028 0.018 0.060 0.031 0.095 0.039h0.002c0.010 0.001 0.021 0.002 0.032 0.002 0.017 0 0.034-0.002 0.050-0.006h-0.002l0.036 0.066c-0.018 0.005-0.039 0.007-0.061 0.007-0.058 0-0.111-0.019-0.155-0.051h0.001c-0.065-0.038-0.12-0.086-0.165-0.142l-0.001-0.001c-0.047-0.058-0.086-0.126-0.112-0.2l-0.002-0.005c-0.026-0.072-0.041-0.155-0.041-0.241 0-0.002 0-0.003 0-0.005v0c0-0.007-0.001-0.015-0.001-0.023 0-0.064 0.016-0.123 0.045-0.175l-0.001 0.002c0.024-0.041 0.066-0.068 0.116-0.071v0c0.001 0 0.001 0 0.002 0 0.060 0 0.116 0.018 0.163 0.049l-0.001-0.001c0.042 0.024 0.079 0.052 0.112 0.083v0z"></path>
<path fill="#7287a0" d="M15.407 6.899l-0.336-0.194-0.070 0.177-0.071-0.041 0.267-0.644 0.087 0.051 0.266 0.952-0.073-0.042zM15.388 6.831l-0.148-0.552-0.149 0.38z"></path>
<path fill="#7287a0" d="M15.928 7.060l-0.16-0.092v0.358l-0.070-0.040v-0.798l0.193 0.112q0.285 0.165 0.284 0.381 0 0.086-0.046 0.111c-0.018 0.007-0.040 0.012-0.062 0.012-0.025 0-0.050-0.006-0.071-0.016h0.001l0.219 0.497-0.083-0.048zM15.901 6.987q0.201 0.116 0.201-0.051c0 0 0 0 0 0 0-0.056-0.019-0.109-0.051-0.15v0.001c-0.044-0.054-0.098-0.098-0.159-0.131l-0.003-0.001-0.121-0.070v0.326z"></path>
<path fill="#7287a0" d="M16.814 7.215c0.065 0.096 0.104 0.214 0.104 0.342 0 0.009 0 0.019-0.001 0.028v-0.001q0 0.225-0.104 0.255c-0.018 0.003-0.039 0.005-0.060 0.005-0.073 0-0.14-0.023-0.195-0.063l0.001 0.001-0.171-0.099v-0.798l0.158 0.092c0.107 0.061 0.197 0.141 0.267 0.237l0.002 0.002zM16.456 6.981v0.684l0.106 0.061q0.281 0.162 0.281-0.186c0-0.005 0-0.011 0-0.016 0-0.079-0.015-0.154-0.042-0.223l0.001 0.004c-0.025-0.062-0.060-0.114-0.103-0.158v0c-0.042-0.041-0.090-0.077-0.142-0.107l-0.003-0.002z"></path>
<path fill="#7287a0" d="M15.369 9.104l-0.129-0.074-0.024 0.076-0.077-0.045 0.121-0.319 0.092 0.053 0.12 0.459-0.079-0.045zM15.354 9.040l-0.050-0.216-0.050 0.159z"></path>
<path fill="#7287a0" d="M15.72 9.008c0.019 0.018 0.036 0.037 0.051 0.058l0.001 0.001-0.038 0.021c-0.019-0.028-0.043-0.051-0.071-0.069l-0.001-0.001q-0.043-0.025-0.069-0.004c-0.018 0.014-0.026 0.047-0.026 0.099 0 0.003 0 0.006 0 0.009 0 0.043 0.010 0.084 0.027 0.121l-0.001-0.002c0.015 0.033 0.039 0.059 0.069 0.077h0.001c0.012 0.007 0.026 0.013 0.040 0.016h0.001c0.004 0.001 0.009 0.001 0.015 0.001 0.008 0 0.016-0.001 0.024-0.002h-0.001l0.035 0.063c-0.009 0.003-0.019 0.004-0.029 0.004-0.007 0-0.014-0.001-0.021-0.002h0.001c-0.025-0.005-0.048-0.014-0.068-0.027l0.001 0.001c-0.035-0.021-0.064-0.046-0.089-0.075v-0.001c-0.025-0.030-0.046-0.065-0.060-0.102l-0.001-0.002c-0.014-0.036-0.021-0.078-0.021-0.122 0-0.001 0-0.001 0-0.002v0c0-0.003 0-0.007 0-0.011 0-0.032 0.008-0.061 0.023-0.087v0.001c0.013-0.021 0.035-0.034 0.061-0.035v0c0.032 0.001 0.062 0.010 0.088 0.027h-0.001c0.024 0.013 0.044 0.028 0.063 0.045v0z"></path>
<path fill="#7287a0" d="M16.066 9.262l-0.101-0.058v0.334l-0.075-0.043v-0.334l-0.105-0.060v-0.055l0.289 0.167z"></path>
<path fill="#000" d="M16.191 8.594c0 0.31-0.251 0.416-0.561 0.237s-0.561-0.576-0.561-0.886 0.251-0.417 0.562-0.238 0.561 0.576 0.561 0.886z"></path>
<path fill="#000" d="M15.858 8.097c0.168 0.224 0.202 0.482 0.076 0.578s-0.366-0.009-0.534-0.233c-0.168-0.224-0.202-0.482-0.076-0.577s0.366 0.009 0.534 0.233z"></path>
<path fill="#7287a0" d="M15.165 10.681l0.22 0.127-0.008 0.051-0.138-0.080v0.118l0.12 0.069v0.055l-0.12-0.069v0.162l-0.074-0.043z"></path>
<path fill="#7287a0" d="M15.594 11.227l-0.129-0.074-0.024 0.076-0.077-0.045 0.121-0.319 0.092 0.053 0.12 0.459-0.079-0.046zM15.579 11.164l-0.050-0.216-0.050 0.159z"></path>
<path fill="#7287a0" d="M15.815 11.445l-0.074-0.043v-0.389l0.074 0.043z"></path>
<path fill="#7287a0" d="M15.98 11.486l0.156 0.090-0.008 0.050-0.222-0.128v-0.389l0.074 0.043z"></path>
<path fill="#000" d="M16.19 10.587c0 0.31-0.251 0.416-0.561 0.237s-0.561-0.576-0.561-0.886 0.251-0.417 0.562-0.238 0.561 0.576 0.561 0.886z"></path>
<path fill="#000" d="M15.858 10.091c0.168 0.224 0.202 0.482 0.076 0.578s-0.366-0.009-0.534-0.233c-0.168-0.224-0.202-0.482-0.076-0.578s0.366 0.009 0.534 0.233z"></path>
<path fill="#7287a0" d="M15.543 12.895c0.021 0.020 0.039 0.042 0.056 0.066l0.001 0.001-0.037 0.021c-0.013-0.019-0.027-0.035-0.042-0.050v0c-0.013-0.013-0.028-0.024-0.044-0.033l-0.001-0.001c-0.011-0.008-0.025-0.013-0.040-0.013-0.001 0-0.003 0-0.004 0v0c-0.011 0.002-0.017 0.011-0.017 0.025 0 0 0 0 0 0 0 0.010 0.002 0.020 0.007 0.029v0c0.007 0.012 0.014 0.023 0.023 0.032v0c0.011 0.013 0.028 0.028 0.051 0.048 0.032 0.028 0.061 0.059 0.085 0.094l0.001 0.002c0.018 0.027 0.029 0.059 0.029 0.095 0 0 0 0.001 0 0.001v0c0 0.002 0 0.004 0 0.006 0 0.018-0.007 0.034-0.018 0.047v0c-0.010 0.009-0.024 0.014-0.039 0.014-0.004 0-0.008 0-0.012-0.001v0c-0.030-0.005-0.056-0.016-0.080-0.031l0.001 0.001c-0.030-0.017-0.056-0.037-0.080-0.060v0c-0.022-0.021-0.042-0.045-0.060-0.071l-0.001-0.002 0.038-0.021c0.014 0.021 0.030 0.039 0.047 0.056v0c0.016 0.015 0.033 0.029 0.052 0.040l0.001 0.001c0.012 0.009 0.028 0.014 0.045 0.014 0.002 0 0.005 0 0.007 0v0c0.013-0.003 0.020-0.014 0.020-0.033 0 0 0 0 0-0.001 0-0.012-0.002-0.023-0.007-0.033v0.001c-0.006-0.013-0.014-0.024-0.023-0.034v0c-0.015-0.016-0.030-0.031-0.047-0.046l-0.001-0.001c-0.034-0.029-0.063-0.061-0.088-0.097l-0.001-0.002c-0.017-0.025-0.027-0.055-0.028-0.087v0c0-0.002 0-0.004 0-0.005 0-0.016 0.007-0.031 0.017-0.042v0c0.010-0.008 0.022-0.012 0.035-0.012 0.004 0 0.008 0 0.012 0.001v0c0.026 0.004 0.049 0.013 0.069 0.026h-0.001c0.027 0.016 0.050 0.034 0.071 0.054v0z"></path>
<path fill="#7287a0" d="M15.674 12.968l0.22 0.127-0.008 0.051-0.138-0.080v0.118l0.12 0.069v0.055l-0.12-0.069v0.162l-0.074-0.043z"></path>
<path fill="#000" d="M16.19 12.581c0 0.31-0.251 0.416-0.561 0.237s-0.561-0.576-0.561-0.886 0.251-0.417 0.561-0.238 0.561 0.576 0.561 0.886z"></path>
<path fill="#000" d="M15.858 12.084c0.168 0.224 0.202 0.482 0.076 0.578s-0.366-0.009-0.534-0.233c-0.168-0.224-0.202-0.482-0.076-0.578s0.366 0.009 0.534 0.233z"></path>
<path fill="#849aaf" d="M15.568 28.922c0 1.845-1.077 2.215-1.077 2.215l-1.245-0.79c1.216-0.729 0.936-2.268 0.936-2.268z"></path>
<path fill="#7287a0" d="M15.87 28.713v2.082l-1.379 0.897v-0.555s1.077-0.37 1.077-2.215z"></path>
<path fill="#8ca3b5" d="M14.491 31.137v0.555l-1.245-0.776v-0.569z"></path>
<path fill="#7287a0" d="M15.87 28.714l-0.302 0.209-1.386-0.843 0.277-0.077z"></path>
<path fill="#7287a0" d="M13.119 2.635c0.115 0.051 0.215 0.115 0.303 0.19l-0.002-0.001-0.304-0.187z"></path>
<path fill="#7287a0" d="M15.87 2.060l-1.362 0.886-1.403-0.853 1.363-0.886z"></path>
<path fill="#8ca3b5" d="M13.542 2.359l-0.439-0.267v0.552l0.369 0.225c-0.015-0.015-0.032-0.030-0.049-0.043l-0.001-0.001 1.065 0.657c0.008 0.003 0.015 0.005 0.021 0.008l-0.001-0.001v-0.544zM13.116 2.636l-0.012-0.007c0.006 0.002 0.010 0.004 0.015 0.006h-0.001c0.115 0.051 0.215 0.115 0.303 0.19l-0.002-0.001z"></path>
<path fill="#7287a0" d="M13.118 2.635c0.115 0.051 0.215 0.115 0.303 0.19l-0.002-0.001-0.315-0.195c0.005 0.002 0.010 0.004 0.015 0.006h-0.001z"></path>
<path fill="#7287a0" d="M14.507 2.946v0.552l-1.033-0.627s-0.001-0.001-0.002-0.001c-0.016-0.015-0.032-0.029-0.049-0.043l-0.001-0.001 1.065 0.657c0.008 0.003 0.015 0.005 0.021 0.008l-0.001-0.001v-0.544z"></path>
<path fill="#7287a0" d="M14.514 3.493l-0.007 0.004v-0.007c0.002 0 0.005 0.002 0.007 0.003z"></path>
<path fill="#7287a0" d="M13.42 2.824l-0.315-0.195c0.006 0.002 0.010 0.004 0.015 0.006h-0.001c0.115 0.051 0.214 0.115 0.303 0.19l-0.002-0.001z"></path>
<path fill="#849aaf" d="M15.563 5.697l-1.383-0.852c0-1.117-0.394-1.693-0.706-1.974l1.033 0.628 0.007-0.004c0.169 0.073 1.049 0.535 1.049 2.203z"></path>
<path fill="#7287a0" d="M14.514 3.493l-0.007 0.004-1.033-0.628s-0.001-0.001-0.002-0.001c-0.016-0.015-0.032-0.029-0.049-0.043l-0.001-0.001 1.065 0.657c0.008 0.003 0.015 0.005 0.021 0.008l-0.001-0.001c0.002 0.002 0.004 0.003 0.007 0.004z"></path>
<path fill="#7287a0" d="M15.87 2.060v3.437l-0.307 0.2c0-1.668-0.88-2.13-1.049-2.204-0.003-0.001-0.005-0.002-0.007-0.003v-0.544l0.924-0.601z"></path>
</svg>
