<!-- Generated by IcoMoon.io -->
<svg version="1.1" xmlns="http://www.w3.org/2000/svg" width="32" height="32" viewBox="0 0 32 32">
<path fill="#374775" d="M31.806 6.659l-6.465-6.465c-0.259-0.259-1.034-0.259-1.552 0l-21.463 21.463c-0.259 0.259-0.259 0.259-0.259 0.517l-2.069 8.533c0 0.259 0 0.776 0.259 1.034s0.517 0.259 1.034 0.259l8.533-2.069c0.259 0 0.259 0 0.517-0.259l21.463-21.463c0.259-0.517 0.259-1.293 0-1.551zM2.327 29.673l1.293-5.43 4.137 4.137-5.43 1.293zM9.568 27.345l-2.327-2.586-2.586-2.327 15.774-15.774 4.655 4.655-15.515 16.032zM26.634 10.279l-2.327-2.586-2.586-2.327 2.844-2.844 4.655 4.655-2.586 3.103z"></path>
</svg>
