<svg xmlns="http://www.w3.org/2000/svg" xmlns:xlink="http://www.w3.org/1999/xlink" width="45.794" height="252.907" viewBox="0 0 45.794 252.907">
  <defs>
    <style>
      .cls-1 {
        fill: #1ed84b;
      }

      .cls-2 {
        fill: #bac4c6;
      }

      .cls-3 {
        fill: #e3e5e5;
      }

      .cls-4 {
        fill: #d7dbdd;
      }

      .cls-5 {
        fill: #7287a0;
      }

      .cls-6 {
        fill: #849aaf;
      }

      .cls-7 {
        fill: url(#radial-gradient);
      }

      .cls-8 {
        fill: url(#radial-gradient-2);
      }

      .cls-9 {
        fill: url(#radial-gradient-3);
      }

      .cls-10 {
        fill: url(#radial-gradient-4);
      }

      .cls-11 {
        fill: url(#radial-gradient-5);
      }

      .cls-12 {
        fill: url(#radial-gradient-6);
      }

      .cls-13 {
        fill: #8ca3b5;
      }
    </style>
    <radialGradient id="radial-gradient" cx="1.027" cy="1.215" r="1.523" gradientTransform="matrix(1, 0, 0, 0.819, 0, 0.22)" gradientUnits="objectBoundingBox">
      <stop offset="0" stop-color="#fff"/>
      <stop offset="0.208" stop-color="#fafbfb"/>
      <stop offset="0.423" stop-color="#eef0ef"/>
      <stop offset="0.641" stop-color="#d9dddd"/>
      <stop offset="0.859" stop-color="#bdc3c3"/>
      <stop offset="0.997" stop-color="#a7b0af"/>
      <stop offset="1" stop-color="#a7b0af"/>
    </radialGradient>
    <radialGradient id="radial-gradient-2" cx="0.332" cy="1.686" r="2.909" gradientTransform="matrix(0.996, 0.092, -0.054, 0.583, 0.092, 0.672)" gradientUnits="objectBoundingBox">
      <stop offset="0" stop-color="#57a76e"/>
      <stop offset="0.181" stop-color="#5aae6f"/>
      <stop offset="0.452" stop-color="#63c274"/>
      <stop offset="0.779" stop-color="#72e47d"/>
      <stop offset="1" stop-color="#7fff84"/>
    </radialGradient>
    <radialGradient id="radial-gradient-3" cx="1.027" cy="1.215" r="1.523" gradientTransform="matrix(1, 0, 0, 0.764, 0, 0.286)" xlink:href="#radial-gradient"/>
    <radialGradient id="radial-gradient-4" cx="0.332" cy="1.686" r="2.901" gradientTransform="matrix(0.999, 0.04, -0.023, 0.576, 0.039, 0.702)" gradientUnits="objectBoundingBox">
      <stop offset="0" stop-color="#ff3100"/>
      <stop offset="0.126" stop-color="#ff3607"/>
      <stop offset="0.316" stop-color="#ff461c"/>
      <stop offset="0.546" stop-color="#ff5f3d"/>
      <stop offset="0.804" stop-color="#ff816b"/>
      <stop offset="1" stop-color="#ffa094"/>
    </radialGradient>
    <radialGradient id="radial-gradient-5" cx="1.027" cy="1.215" r="1.538" gradientTransform="matrix(1, 0, 0, 0.719, 0, 0.341)" xlink:href="#radial-gradient"/>
    <radialGradient id="radial-gradient-6" cx="0.332" cy="1.686" r="2.731" gradientTransform="matrix(0.987, 0.16, -0.094, 0.584, 0.163, 0.649)" gradientUnits="objectBoundingBox">
      <stop offset="0" stop-color="#939598"/>
      <stop offset="0.188" stop-color="#9a9c9f"/>
      <stop offset="0.471" stop-color="#aeb0b2"/>
      <stop offset="0.812" stop-color="#d0d1d3"/>
      <stop offset="1" stop-color="#e6e7e8"/>
    </radialGradient>
  </defs>
  <g id="Group_8331" data-name="Group 8331" transform="translate(-8896.599 -7218.319)">
    <g id="Group_4879" data-name="Group 4879" transform="translate(8898.587 7218.319)">
      <path id="Line_76" data-name="Line 76" class="cls-1" d="M0,.636A.5.5,0,0,1-.427.4.5.5,0,0,1-.26-.291l.224-.136A.5.5,0,0,1,.651-.26.5.5,0,0,1,.484.427L.26.563A.5.5,0,0,1,0,.636Z" transform="translate(35.72 25.568)"/>
      <path id="Path_2311" data-name="Path 2311" class="cls-2" d="M8990.775,7265.549V7492.9l-7.85,4.8V7270.366l-.013,0Z" transform="translate(-8946.97 -7244.793)"/>
      <path id="Path_2312" data-name="Path 2312" class="cls-3" d="M8944.929,7239.075l-7.862,4.812-35.943-20.76,7.857-4.808Z" transform="translate(-8901.123 -7218.319)"/>
      <path id="Line_77" data-name="Line 77" class="cls-1" d="M.417.742A.5.5,0,0,1,.167.674L-.251.433A.5.5,0,0,1-.433-.251.5.5,0,0,1,.251-.433l.417.242A.5.5,0,0,1,.417.742Z" transform="translate(24.171 129.216)"/>
      <path id="Path_2313" data-name="Path 2313" class="cls-1" d="M8935.173,7488.353a.5.5,0,0,1-.5-.5v-2.773a.5.5,0,0,1,1,0v2.773A.5.5,0,0,1,8935.173,7488.353Z" transform="translate(-8920.209 -7367.848)"/>
      <g id="Group_4851" data-name="Group 4851" transform="translate(0 4.808)">
        <path id="Path_2314" data-name="Path 2314" class="cls-4" d="M8937.08,7250.024v227.335l-35.957-20.76V7229.259l35.943,20.76Z" transform="translate(-8901.123 -7229.259)"/>
      </g>
      <g id="Group_4852" data-name="Group 4852" transform="translate(10.947 116.098)">
        <path id="Path_2315" data-name="Path 2315" class="cls-2" d="M8930.05,7484.82l-4.017-2.32v9.844l14.063,8.121v-9.844Zm9.206,10.8-9.206-5.318v-3.894l4.614,2.667v-.334l2.114,1.222v1.784l2.276,1.314a.418.418,0,0,1,.2.317Z" transform="translate(-8926.033 -7482.5)"/>
        <path id="Path_2316" data-name="Path 2316" class="cls-5" d="M8944.379,7498.36v2.241l-9.206-5.318v-3.894l4.614,2.667v-.334l2.114,1.222v1.784l2.276,1.314A.418.418,0,0,1,8944.379,7498.36Z" transform="translate(-8931.156 -7487.483)"/>
        <path id="Path_2317" data-name="Path 2317" class="cls-6" d="M8940.327,7497.171v1.12c0,.11-.093.149-.2.084l-2.276-1.314v1.784l-2.114-1.222v-.329l-6.6-3.811v.857l-1.191-.686v-8.385l1.191.686v.857l1.985,1.147v3.894Z" transform="translate(-8927.104 -7484.053)"/>
      </g>
      <g id="Group_4853" data-name="Group 4853" transform="translate(10.947 127.59)">
        <path id="Path_2318" data-name="Path 2318" class="cls-2" d="M8930.05,7510.972l-4.017-2.321v9.844l14.063,8.121v-9.844Zm9.206,10.8-9.206-5.318v-3.894l4.614,2.668v-.334l2.114,1.222v1.784l2.276,1.314a.417.417,0,0,1,.2.316Z" transform="translate(-8926.033 -7508.651)"/>
        <path id="Path_2319" data-name="Path 2319" class="cls-5" d="M8944.379,7524.511v2.242l-9.206-5.318v-3.894l4.614,2.668v-.334l2.114,1.222v1.784l2.276,1.314A.417.417,0,0,1,8944.379,7524.511Z" transform="translate(-8931.156 -7513.634)"/>
        <path id="Path_2320" data-name="Path 2320" class="cls-6" d="M8940.327,7523.322v1.121c0,.11-.093.149-.2.083l-2.276-1.314V7525l-2.114-1.222v-.33l-6.6-3.81v.857l-1.191-.686v-8.385l1.191.686v.857l1.985,1.146V7518Z" transform="translate(-8927.104 -7510.204)"/>
      </g>
      <g id="Group_4854" data-name="Group 4854" transform="translate(10.947 154.106)">
        <path id="Path_2321" data-name="Path 2321" class="cls-2" d="M8930.05,7571.307l-4.017-2.32v9.844l14.063,8.121v-9.844Zm9.206,10.8-9.206-5.317v-3.894l4.614,2.667v-.333l2.114,1.221v1.785l2.276,1.313a.419.419,0,0,1,.2.316Z" transform="translate(-8926.033 -7568.987)"/>
        <path id="Path_2322" data-name="Path 2322" class="cls-5" d="M8944.379,7584.847v2.241l-9.206-5.317v-3.894l4.614,2.667v-.333l2.114,1.221v1.785l2.276,1.313A.419.419,0,0,1,8944.379,7584.847Z" transform="translate(-8931.156 -7573.97)"/>
        <path id="Path_2323" data-name="Path 2323" class="cls-6" d="M8940.327,7583.657v1.121c0,.11-.093.149-.2.083l-2.276-1.314v1.784l-2.114-1.222v-.33l-6.6-3.81v.856l-1.191-.686v-8.385l1.191.686v.857l1.985,1.147v3.894Z" transform="translate(-8927.104 -7570.54)"/>
      </g>
      <g id="Group_4855" data-name="Group 4855" transform="translate(10.947 165.598)">
        <path id="Path_2324" data-name="Path 2324" class="cls-2" d="M8930.05,7597.458l-4.017-2.32v9.844l14.063,8.122v-9.844Zm9.206,10.8-9.206-5.317v-3.894l4.614,2.667v-.334l2.114,1.222v1.784l2.276,1.314a.418.418,0,0,1,.2.316Z" transform="translate(-8926.033 -7595.138)"/>
        <path id="Path_2325" data-name="Path 2325" class="cls-5" d="M8944.379,7611v2.241l-9.206-5.317v-3.894l4.614,2.668v-.334l2.114,1.222v1.784l2.276,1.314A.418.418,0,0,1,8944.379,7611Z" transform="translate(-8931.156 -7600.121)"/>
        <path id="Path_2326" data-name="Path 2326" class="cls-6" d="M8940.327,7609.809v1.121c0,.109-.093.149-.2.083l-2.276-1.314v1.784l-2.114-1.222v-.33l-6.6-3.81v.857l-1.191-.686v-8.385l1.191.686v.856l1.985,1.147v3.894Z" transform="translate(-8927.104 -7596.691)"/>
      </g>
      <g id="Group_4856" data-name="Group 4856" transform="translate(10.947 193.015)">
        <path id="Path_2327" data-name="Path 2327" class="cls-2" d="M8930.05,7659.846l-4.017-2.321v9.844l14.063,8.121v-9.844Zm9.206,10.8-9.206-5.318v-3.894l4.614,2.668v-.334l2.114,1.222v1.784l2.276,1.314a.417.417,0,0,1,.2.316Z" transform="translate(-8926.033 -7657.525)"/>
        <path id="Path_2328" data-name="Path 2328" class="cls-5" d="M8944.379,7673.385v2.242l-9.206-5.318v-3.894l4.614,2.668v-.334l2.114,1.222v1.784l2.276,1.314A.417.417,0,0,1,8944.379,7673.385Z" transform="translate(-8931.156 -7662.508)"/>
        <path id="Path_2329" data-name="Path 2329" class="cls-6" d="M8940.327,7672.2v1.121c0,.109-.093.149-.2.083l-2.276-1.314v1.784l-2.114-1.222v-.33l-6.6-3.81v.856l-1.191-.686v-8.385l1.191.686v.857l1.985,1.146v3.894Z" transform="translate(-8927.104 -7659.078)"/>
      </g>
      <g id="Group_4857" data-name="Group 4857" transform="translate(10.947 204.507)">
        <path id="Path_2330" data-name="Path 2330" class="cls-2" d="M8930.05,7686l-4.017-2.321v9.845l14.063,8.121V7691.8Zm9.206,10.8-9.206-5.317v-3.894l4.614,2.667v-.334l2.114,1.222v1.784l2.276,1.314a.418.418,0,0,1,.2.316Z" transform="translate(-8926.033 -7683.676)"/>
        <path id="Path_2331" data-name="Path 2331" class="cls-5" d="M8944.379,7699.536v2.241l-9.206-5.317v-3.894l4.614,2.667v-.334l2.114,1.222v1.784l2.276,1.314A.419.419,0,0,1,8944.379,7699.536Z" transform="translate(-8931.156 -7688.659)"/>
        <path id="Path_2332" data-name="Path 2332" class="cls-6" d="M8940.327,7698.346v1.121c0,.11-.093.149-.2.084l-2.276-1.314v1.784l-2.114-1.222v-.329l-6.6-3.811v.857l-1.191-.686v-8.385l1.191.686v.857l1.985,1.147v3.894Z" transform="translate(-8927.104 -7685.228)"/>
      </g>
      <g id="Group_4858" data-name="Group 4858" transform="translate(13.781 111.716)">
        <path id="Path_2333" data-name="Path 2333" class="cls-5" d="M8934.217,7473.156a3.328,3.328,0,0,1,.449.533l-.289.164a2.639,2.639,0,0,0-.332-.392,1.87,1.87,0,0,0-.358-.269.542.542,0,0,0-.344-.1c-.088.016-.132.083-.132.2a.522.522,0,0,0,.051.228,1.119,1.119,0,0,0,.186.254c.089.1.22.224.4.38a4.146,4.146,0,0,1,.684.751,1.339,1.339,0,0,1,.229.754.552.552,0,0,1-.14.413.476.476,0,0,1-.4.1,1.7,1.7,0,0,1-.624-.238,3.273,3.273,0,0,1-.629-.471,3.468,3.468,0,0,1-.479-.571l.3-.162a3.231,3.231,0,0,0,.369.442,2.114,2.114,0,0,0,.422.321.612.612,0,0,0,.41.112q.155-.035.155-.261a.641.641,0,0,0-.053-.259,1.094,1.094,0,0,0-.183-.267,4.555,4.555,0,0,0-.374-.366,4.006,4.006,0,0,1-.708-.777,1.278,1.278,0,0,1-.218-.691.466.466,0,0,1,.135-.372.455.455,0,0,1,.371-.087,1.483,1.483,0,0,1,.54.2A2.974,2.974,0,0,1,8934.217,7473.156Z" transform="translate(-8932.481 -7472.529)"/>
        <path id="Path_2334" data-name="Path 2334" class="cls-5" d="M8938.5,7478.471l1.343.775v.431l-1.343-.775Z" transform="translate(-8935.857 -7475.86)"/>
        <path id="Path_2335" data-name="Path 2335" class="cls-5" d="M8943.486,7481.061l-.587-.339v-3.075l.587.339Z" transform="translate(-8938.321 -7475.398)"/>
        <path id="Path_2336" data-name="Path 2336" class="cls-5" d="M8948.144,7483.75l-.761-.439-1.055-3.1c.027.235.047.445.061.63s.02.4.02.648v1.254l-.533-.308v-3.074l.742.429,1.072,3.11c-.018-.129-.035-.3-.053-.5s-.027-.4-.027-.6v-1.441l.534.308Z" transform="translate(-8939.989 -7476.362)"/>
      </g>
      <g id="Group_4859" data-name="Group 4859" transform="translate(8.852 146.598)">
        <path id="Path_2337" data-name="Path 2337" class="cls-5" d="M8923.166,7553.326a2.332,2.332,0,0,1,.43,1.444q0,.854-.422.959a1.509,1.509,0,0,1-1.072-.27l-.837-.483V7551.9l.757.436A3.719,3.719,0,0,1,8923.166,7553.326Zm-1.314-.653v2.211l.29.167a.652.652,0,0,0,.613.11q.223-.116.223-.748a2.161,2.161,0,0,0-.113-.745,1.411,1.411,0,0,0-.3-.5,1.976,1.976,0,0,0-.443-.341Z" transform="translate(-8921.265 -7551.903)"/>
        <path id="Path_2338" data-name="Path 2338" class="cls-5" d="M8929.273,7557.163a3.482,3.482,0,0,1,.409.469l-.3.169a1.905,1.905,0,0,0-.569-.547q-.343-.2-.55-.03t-.207.784a2.247,2.247,0,0,0,.205,1.012,1.406,1.406,0,0,0,.552.609.868.868,0,0,0,.324.123,1.012,1.012,0,0,0,.3-.01l.275.5a.774.774,0,0,1-.394.017,1.617,1.617,0,0,1-.531-.209,2.617,2.617,0,0,1-.707-.6,2.738,2.738,0,0,1-.477-.829,2.849,2.849,0,0,1-.169-.98,1.385,1.385,0,0,1,.176-.77.581.581,0,0,1,.479-.275,1.3,1.3,0,0,1,.688.208A2.617,2.617,0,0,1,8929.273,7557.163Z" transform="translate(-8924.727 -7554.533)"/>
        <path id="Path_2339" data-name="Path 2339" class="cls-5" d="M8936.24,7563.8l-.574-.332-.08-1.332q-.04-.713-.04-1.118v-.16l-.561,1.883-.556-.321-.6-2.555c.007.2.01.349.01.45,0,.27-.01.542-.028.816l-.074,1.225-.569-.329.243-2.933.758.437.547,2.469.517-1.855.765.442Z" transform="translate(-8927.938 -7555.936)"/>
        <path id="Path_2340" data-name="Path 2340" class="cls-5" d="M8941.147,7566.742l1.344.775v.432l-1.344-.775Z" transform="translate(-8932.41 -7560.221)"/>
        <path id="Path_2341" data-name="Path 2341" class="cls-5" d="M8947.221,7567.627a2.652,2.652,0,0,1,.465.821,2.871,2.871,0,0,1,.163.969,1.494,1.494,0,0,1-.165.776.563.563,0,0,1-.467.288,1.316,1.316,0,0,1-.712-.218,2.654,2.654,0,0,1-.717-.6,2.7,2.7,0,0,1-.466-.822,2.841,2.841,0,0,1-.165-.971,1.5,1.5,0,0,1,.165-.774.559.559,0,0,1,.468-.288,1.326,1.326,0,0,1,.715.219A2.643,2.643,0,0,1,8947.221,7567.627Zm-1.259-.2a1.163,1.163,0,0,0-.187.8,1.7,1.7,0,0,0,.729,1.607c.237.137.418.146.54.028a1.172,1.172,0,0,0,.186-.8,2.369,2.369,0,0,0-.186-1.008,1.316,1.316,0,0,0-.54-.6Q8946.149,7567.251,8945.962,7567.429Z" transform="translate(-8934.657 -7560.256)"/>
        <path id="Path_2342" data-name="Path 2342" class="cls-5" d="M8954.722,7573.3a.775.775,0,0,1-.131.483.441.441,0,0,1-.392.158,1.435,1.435,0,0,1-.625-.222,2.4,2.4,0,0,1-.846-.782,1.77,1.77,0,0,1-.294-.957V7569.9l.588.339v2.078a1.15,1.15,0,0,0,.136.573,1.072,1.072,0,0,0,.416.4c.189.11.33.136.42.08s.136-.2.136-.417v-2.077l.592.341Z" transform="translate(-8938.736 -7561.99)"/>
        <path id="Path_2343" data-name="Path 2343" class="cls-5" d="M8960.7,7575.1l-.8-.463v2.643l-.593-.341V7574.3l-.827-.477v-.432l2.282,1.318Z" transform="translate(-8942.124 -7563.946)"/>
      </g>
      <g id="Group_4860" data-name="Group 4860" transform="translate(9.203 138.718)">
        <path id="Path_2344" data-name="Path 2344" class="cls-5" d="M8924.129,7534.795a2.666,2.666,0,0,1,.465.82,2.876,2.876,0,0,1,.163.97,1.5,1.5,0,0,1-.165.776.564.564,0,0,1-.467.288,1.314,1.314,0,0,1-.712-.218,2.654,2.654,0,0,1-.717-.6,2.719,2.719,0,0,1-.467-.822,2.843,2.843,0,0,1-.164-.971,1.493,1.493,0,0,1,.164-.774.56.56,0,0,1,.47-.288,1.321,1.321,0,0,1,.714.219A2.64,2.64,0,0,1,8924.129,7534.795Zm-1.259-.2a1.16,1.16,0,0,0-.187.8,1.694,1.694,0,0,0,.729,1.607q.356.205.54.028a1.172,1.172,0,0,0,.186-.8,2.365,2.365,0,0,0-.186-1.008,1.319,1.319,0,0,0-.54-.6C8923.176,7534.486,8922.994,7534.478,8922.87,7534.6Z" transform="translate(-8922.065 -7533.972)"/>
        <path id="Path_2345" data-name="Path 2345" class="cls-5" d="M8930.532,7538.273a3.3,3.3,0,0,1,.448.533l-.288.164a2.671,2.671,0,0,0-.331-.392,1.878,1.878,0,0,0-.359-.27.546.546,0,0,0-.344-.1q-.132.023-.132.2a.512.512,0,0,0,.052.228,1.1,1.1,0,0,0,.184.254c.089.1.222.225.4.381a4.077,4.077,0,0,1,.684.751,1.342,1.342,0,0,1,.229.754.546.546,0,0,1-.141.413.474.474,0,0,1-.4.1,1.7,1.7,0,0,1-.623-.238,3.247,3.247,0,0,1-.629-.472,3.359,3.359,0,0,1-.479-.57l.3-.162a3.15,3.15,0,0,0,.369.443,2.059,2.059,0,0,0,.423.322.6.6,0,0,0,.409.111q.155-.034.155-.26a.641.641,0,0,0-.053-.259,1.1,1.1,0,0,0-.183-.267,4.669,4.669,0,0,0-.375-.366,4,4,0,0,1-.706-.776,1.271,1.271,0,0,1-.218-.691.47.47,0,0,1,.133-.373.458.458,0,0,1,.371-.086,1.475,1.475,0,0,1,.541.2A2.962,2.962,0,0,1,8930.532,7538.273Z" transform="translate(-8925.839 -7536.032)"/>
        <path id="Path_2346" data-name="Path 2346" class="cls-5" d="M8936.562,7541.872a3.444,3.444,0,0,1,.409.469l-.3.168a1.9,1.9,0,0,0-.569-.547q-.343-.2-.55-.03t-.207.784a2.261,2.261,0,0,0,.2,1.012,1.41,1.41,0,0,0,.553.61.891.891,0,0,0,.324.123,1,1,0,0,0,.3-.011l.275.5a.785.785,0,0,1-.394.017,1.658,1.658,0,0,1-.532-.209,2.673,2.673,0,0,1-.707-.6,2.713,2.713,0,0,1-.475-.829,2.827,2.827,0,0,1-.17-.98,1.386,1.386,0,0,1,.176-.77.581.581,0,0,1,.479-.275,1.294,1.294,0,0,1,.688.208A2.617,2.617,0,0,1,8936.562,7541.872Z" transform="translate(-8929.163 -7538.082)"/>
        <path id="Path_2347" data-name="Path 2347" class="cls-5" d="M8939.963,7546.559l1.343.775v.432l-1.343-.775Z" transform="translate(-8932.098 -7541.027)"/>
        <path id="Path_2348" data-name="Path 2348" class="cls-5" d="M8946.036,7547.442a2.65,2.65,0,0,1,.464.82,2.879,2.879,0,0,1,.162.97,1.5,1.5,0,0,1-.164.777.559.559,0,0,1-.467.287,1.308,1.308,0,0,1-.711-.217,2.644,2.644,0,0,1-.717-.6,2.724,2.724,0,0,1-.468-.822,2.864,2.864,0,0,1-.164-.971,1.505,1.505,0,0,1,.164-.774.561.561,0,0,1,.47-.289,1.332,1.332,0,0,1,.715.219A2.649,2.649,0,0,1,8946.036,7547.442Zm-1.26-.2a1.161,1.161,0,0,0-.187.8,1.694,1.694,0,0,0,.73,1.607c.236.136.417.146.539.028a1.169,1.169,0,0,0,.186-.8,2.354,2.354,0,0,0-.186-1.008,1.317,1.317,0,0,0-.539-.6C8945.082,7547.134,8944.9,7547.125,8944.776,7547.244Z" transform="translate(-8934.345 -7541.062)"/>
        <path id="Path_2349" data-name="Path 2349" class="cls-5" d="M8953.537,7553.12a.775.775,0,0,1-.131.483.438.438,0,0,1-.392.158,1.448,1.448,0,0,1-.625-.222,2.385,2.385,0,0,1-.845-.782,1.752,1.752,0,0,1-.294-.957v-2.086l.587.339v2.078a1.151,1.151,0,0,0,.136.573,1.089,1.089,0,0,0,.416.4c.19.109.33.136.421.08s.135-.2.135-.417v-2.078l.592.342Z" transform="translate(-8938.425 -7542.796)"/>
        <path id="Path_2350" data-name="Path 2350" class="cls-5" d="M8959.514,7554.917l-.8-.462v2.643l-.592-.341v-2.643l-.827-.478v-.431l2.282,1.317Z" transform="translate(-8941.813 -7544.752)"/>
      </g>
      <g id="Group_4861" data-name="Group 4861" transform="translate(10.878 177.74)">
        <path id="Path_2351" data-name="Path 2351" class="cls-5" d="M8927.778,7624.19a2.34,2.34,0,0,1,.43,1.444q0,.854-.423.959a1.508,1.508,0,0,1-1.072-.27l-.836-.483v-3.074l.756.436A3.766,3.766,0,0,1,8927.778,7624.19Zm-1.314-.653v2.211l.29.167a.655.655,0,0,0,.613.11c.147-.078.223-.327.223-.749a2.187,2.187,0,0,0-.113-.745,1.427,1.427,0,0,0-.3-.5,2,2,0,0,0-.441-.341Z" transform="translate(-8925.877 -7622.768)"/>
        <path id="Path_2352" data-name="Path 2352" class="cls-5" d="M8933.883,7628.027a3.41,3.41,0,0,1,.41.469l-.3.169a1.9,1.9,0,0,0-.569-.547c-.228-.131-.411-.142-.55-.029s-.205.373-.205.783a2.246,2.246,0,0,0,.2,1.012,1.4,1.4,0,0,0,.551.61.91.91,0,0,0,.325.124,1.046,1.046,0,0,0,.3-.01l.275.5a.777.777,0,0,1-.393.017,1.622,1.622,0,0,1-.532-.209,2.652,2.652,0,0,1-.708-.6,2.73,2.73,0,0,1-.476-.829,2.823,2.823,0,0,1-.169-.98,1.386,1.386,0,0,1,.176-.77.581.581,0,0,1,.48-.275,1.3,1.3,0,0,1,.688.208A2.62,2.62,0,0,1,8933.883,7628.027Z" transform="translate(-8929.338 -7625.397)"/>
        <path id="Path_2353" data-name="Path 2353" class="cls-5" d="M8940.851,7634.666l-.573-.331-.08-1.332q-.041-.713-.041-1.118v-.16l-.561,1.882-.557-.321-.6-2.556c.006.2.01.35.01.45,0,.27-.01.542-.027.816l-.075,1.225-.569-.329.244-2.933.756.437.548,2.469.517-1.855.764.441Z" transform="translate(-8932.55 -7626.799)"/>
        <path id="Path_2354" data-name="Path 2354" class="cls-5" d="M8945.759,7637.605l1.343.776v.431l-1.343-.776Z" transform="translate(-8937.021 -7631.084)"/>
        <path id="Path_2355" data-name="Path 2355" class="cls-5" d="M8950.74,7640.2l-.587-.339v-3.074l.587.339Z" transform="translate(-8939.484 -7630.624)"/>
        <path id="Path_2356" data-name="Path 2356" class="cls-5" d="M8955.4,7642.885l-.761-.439-1.054-3.1c.026.235.046.445.06.631s.02.4.02.647v1.254l-.533-.308V7638.5l.743.429,1.072,3.11c-.019-.129-.036-.3-.054-.5s-.026-.4-.026-.6V7639.5l.533.308Z" transform="translate(-8941.152 -7631.586)"/>
      </g>
      <g id="Group_4862" data-name="Group 4862" transform="translate(7.334 166.904)">
        <path id="Path_2357" data-name="Path 2357" class="cls-5" d="M8918.771,7600.506l-.373-.215v1.232l-.588-.339v-3.074l.916.529q1.22.7,1.22,1.607a.5.5,0,0,1-.151.42.6.6,0,0,1-.472.052l.806,1.8-.677-.391Zm-.373-.638.364.211a.626.626,0,0,0,.425.123c.1-.026.145-.129.145-.311a.725.725,0,0,0-.149-.449,1.53,1.53,0,0,0-.469-.384l-.315-.183Z" transform="translate(-8917.811 -7598.11)"/>
      </g>
      <g id="Group_4863" data-name="Group 4863" transform="translate(7.207 155.259)">
        <path id="Path_2358" data-name="Path 2358" class="cls-5" d="M8919.742,7573.324l-.8-.462v2.643l-.592-.342v-2.642l-.827-.478v-.432l2.282,1.318Z" transform="translate(-8917.522 -7571.61)"/>
      </g>
      <g id="Group_4864" data-name="Group 4864" transform="translate(11.654 217.365)">
        <path id="Path_2359" data-name="Path 2359" class="cls-5" d="M8929.378,7713.559a3.372,3.372,0,0,1,.449.533l-.289.164a2.691,2.691,0,0,0-.331-.391,1.9,1.9,0,0,0-.359-.27.55.55,0,0,0-.345-.1c-.087.016-.131.083-.131.2a.509.509,0,0,0,.052.228,1.062,1.062,0,0,0,.184.254c.089.1.222.224.4.38a4.085,4.085,0,0,1,.683.752,1.34,1.34,0,0,1,.229.754.548.548,0,0,1-.141.413.475.475,0,0,1-.4.1,1.686,1.686,0,0,1-.623-.239,3.2,3.2,0,0,1-.629-.471,3.435,3.435,0,0,1-.479-.571l.3-.162a3.079,3.079,0,0,0,.369.442,2.076,2.076,0,0,0,.423.322.609.609,0,0,0,.409.112q.155-.035.155-.261a.626.626,0,0,0-.054-.259,1.07,1.07,0,0,0-.182-.267,4.906,4.906,0,0,0-.374-.365,3.9,3.9,0,0,1-.707-.777,1.272,1.272,0,0,1-.219-.691.469.469,0,0,1,.134-.373.456.456,0,0,1,.371-.086,1.48,1.48,0,0,1,.541.2A2.992,2.992,0,0,1,8929.378,7713.559Z" transform="translate(-8927.642 -7712.933)"/>
        <path id="Path_2360" data-name="Path 2360" class="cls-5" d="M8933.666,7718.874l1.344.776v.432l-1.344-.776Z" transform="translate(-8931.019 -7716.263)"/>
        <path id="Path_2361" data-name="Path 2361" class="cls-5" d="M8939.74,7719.759a2.686,2.686,0,0,1,.465.82,2.9,2.9,0,0,1,.162.97,1.5,1.5,0,0,1-.164.776.564.564,0,0,1-.467.288,1.317,1.317,0,0,1-.713-.217,2.663,2.663,0,0,1-1.183-1.425,2.843,2.843,0,0,1-.165-.972,1.494,1.494,0,0,1,.165-.773.56.56,0,0,1,.469-.289,1.332,1.332,0,0,1,.714.22A2.624,2.624,0,0,1,8939.74,7719.759Zm-1.26-.2a1.162,1.162,0,0,0-.186.8,1.694,1.694,0,0,0,.729,1.607q.357.206.54.029a1.169,1.169,0,0,0,.186-.8,2.356,2.356,0,0,0-.186-1.008,1.31,1.31,0,0,0-.54-.6C8938.787,7719.45,8938.605,7719.441,8938.48,7719.561Z" transform="translate(-8933.267 -7716.297)"/>
        <path id="Path_2362" data-name="Path 2362" class="cls-5" d="M8947.24,7725.438a.769.769,0,0,1-.131.482.437.437,0,0,1-.392.157,1.433,1.433,0,0,1-.625-.222,2.383,2.383,0,0,1-.845-.781,1.763,1.763,0,0,1-.294-.958v-2.086l.587.338v2.079a1.158,1.158,0,0,0,.135.573,1.085,1.085,0,0,0,.417.4q.284.165.421.08c.09-.056.135-.2.135-.417v-2.078l.592.342Z" transform="translate(-8937.346 -7718.032)"/>
        <path id="Path_2363" data-name="Path 2363" class="cls-5" d="M8953.218,7727.233l-.8-.462v2.642l-.591-.341v-2.643l-.827-.478v-.432l2.281,1.318Z" transform="translate(-8940.733 -7719.988)"/>
      </g>
      <g id="Group_4865" data-name="Group 4865" transform="translate(13.356 188.138)">
        <path id="Path_2364" data-name="Path 2364" class="cls-5" d="M8934.584,7651.133l-.573-.332-.081-1.332c-.025-.475-.039-.848-.039-1.117v-.161l-.561,1.883-.557-.321-.6-2.555c.006.2.009.349.009.45,0,.27-.009.542-.026.816l-.076,1.224-.569-.328.245-2.933.756.437.547,2.469.517-1.855.765.442Z" transform="translate(-8931.515 -7646.428)"/>
        <path id="Path_2365" data-name="Path 2365" class="cls-5" d="M8941.365,7652.531a2.669,2.669,0,0,1,.464.821,2.871,2.871,0,0,1,.163.969,1.507,1.507,0,0,1-.164.777.564.564,0,0,1-.468.287,1.319,1.319,0,0,1-.712-.218,2.638,2.638,0,0,1-.717-.6,2.7,2.7,0,0,1-.467-.822,2.86,2.86,0,0,1-.164-.971,1.5,1.5,0,0,1,.164-.774.561.561,0,0,1,.469-.289,1.328,1.328,0,0,1,.715.219A2.68,2.68,0,0,1,8941.365,7652.531Zm-1.26-.2a1.158,1.158,0,0,0-.187.8,1.694,1.694,0,0,0,.729,1.606c.237.137.418.146.54.028a1.168,1.168,0,0,0,.185-.8,2.357,2.357,0,0,0-.185-1.009,1.316,1.316,0,0,0-.54-.6Q8940.292,7652.155,8940.105,7652.333Z" transform="translate(-8935.879 -7649.388)"/>
        <path id="Path_2366" data-name="Path 2366" class="cls-5" d="M8948.949,7659.246l-.762-.439-1.055-3.1c.027.235.047.446.061.631s.02.4.02.648v1.254l-.533-.309v-3.074l.743.429,1.071,3.11c-.018-.129-.035-.3-.053-.5s-.026-.4-.026-.6v-1.44l.534.308Z" transform="translate(-8940.016 -7651.156)"/>
      </g>
      <g id="Group_4866" data-name="Group 4866" transform="translate(7.846 46.073)">
        <path id="Path_2367" data-name="Path 2367" class="cls-5" d="M8922.416,7324.191a6.369,6.369,0,0,1,.732.847l-.294.2a5.405,5.405,0,0,0-.617-.725,3.527,3.527,0,0,0-.673-.5,1.369,1.369,0,0,0-1.45-.163q-.558.353-.557,1.757a5.283,5.283,0,0,0,.257,1.681,4.229,4.229,0,0,0,.705,1.323,3.637,3.637,0,0,0,1.018.884,2.317,2.317,0,0,0,.765.308,1.748,1.748,0,0,0,.636-.024l.284.523a2.064,2.064,0,0,1-1.7-.339,4.751,4.751,0,0,1-1.312-1.13,5.413,5.413,0,0,1-.9-1.617,5.706,5.706,0,0,1-.327-1.939,2.887,2.887,0,0,1,.341-1.554,1.133,1.133,0,0,1,.917-.562,2.34,2.34,0,0,1,1.293.379A4.6,4.6,0,0,1,8922.416,7324.191Z" transform="translate(-8918.977 -7323.159)"/>
        <path id="Path_2368" data-name="Path 2368" class="cls-5" d="M8933.223,7335.313l-2.652-1.531-.553,1.4-.562-.324,2.109-5.092.691.4,2.1,7.521-.58-.335Zm-.146-.536-1.17-4.359-1.18,3Z" transform="translate(-8924.851 -7326.864)"/>
        <path id="Path_2369" data-name="Path 2369" class="cls-5" d="M8945.1,7339.513l-1.262-.729v2.827l-.553-.318v-6.309l1.528.883q2.249,1.3,2.248,3.01,0,.682-.36.88a1.35,1.35,0,0,1-1.049-.026l1.731,3.929-.654-.378Zm-.213-.574q1.585.915,1.585-.4a1.946,1.946,0,0,0-.4-1.182,4.136,4.136,0,0,0-1.28-1.047l-.957-.553v2.579Z" transform="translate(-8932.604 -7329.788)"/>
        <path id="Path_2370" data-name="Path 2370" class="cls-5" d="M8959.027,7344.735a4.871,4.871,0,0,1,.814,2.911q0,1.778-.824,2.016a2.643,2.643,0,0,1-2.012-.448l-1.354-.782v-6.309l1.252.724A6.69,6.69,0,0,1,8959.027,7344.735Zm-2.823-1.842v5.406l.839.484q2.218,1.282,2.219-1.472a4.785,4.785,0,0,0-.322-1.859,3.759,3.759,0,0,0-.814-1.251,5.724,5.724,0,0,0-1.146-.861Z" transform="translate(-8939.534 -7333.789)"/>
      </g>
      <g id="Group_4869" data-name="Group 4869" transform="translate(13.541 60.233)">
        <g id="Group_4867" data-name="Group 4867" transform="translate(0.558 8.856)">
          <path id="Path_2371" data-name="Path 2371" class="cls-5" d="M8935.025,7378.392l-1.019-.588-.191.6-.609-.352.957-2.522.726.419.951,3.624-.623-.359Zm-.119-.5-.393-1.708-.391,1.255Z" transform="translate(-8933.206 -7375.531)"/>
          <path id="Path_2372" data-name="Path 2372" class="cls-5" d="M8941.326,7379.6a3.411,3.411,0,0,1,.408.469l-.3.168a1.892,1.892,0,0,0-.57-.546q-.343-.2-.549-.03c-.139.112-.207.373-.207.784a2.247,2.247,0,0,0,.205,1.012,1.394,1.394,0,0,0,.551.61.9.9,0,0,0,.325.124,1.047,1.047,0,0,0,.3-.01l.275.5a.785.785,0,0,1-.394.018,1.639,1.639,0,0,1-.531-.209,2.634,2.634,0,0,1-.707-.6,2.75,2.75,0,0,1-.477-.829,2.831,2.831,0,0,1-.169-.98,1.389,1.389,0,0,1,.176-.771.582.582,0,0,1,.48-.275,1.307,1.307,0,0,1,.688.208A2.663,2.663,0,0,1,8941.326,7379.6Z" transform="translate(-8936.73 -7377.493)"/>
          <path id="Path_2373" data-name="Path 2373" class="cls-5" d="M8947.049,7382.7l-.8-.462v2.643l-.591-.342v-2.642l-.828-.478v-.432l2.281,1.318Z" transform="translate(-8939.721 -7378.587)"/>
        </g>
        <g id="Group_4868" data-name="Group 4868">
          <path id="Path_2374" data-name="Path 2374" class="cls-7" d="M8940.81,7363.066c0,2.449-1.986,3.29-4.437,1.875s-4.437-4.55-4.437-7,1.986-3.293,4.438-1.878S8940.81,7360.614,8940.81,7363.066Z" transform="translate(-8931.936 -7355.378)"/>
          <ellipse id="Ellipse_748" data-name="Ellipse 748" class="cls-8" cx="2.267" cy="4.007" rx="2.267" ry="4.007" transform="matrix(0.799, -0.601, 0.601, 0.799, 0.217, 3.287)"/>
        </g>
      </g>
      <g id="Group_4873" data-name="Group 4873" transform="translate(13.54 75.988)">
        <g id="Group_4870" data-name="Group 4870" transform="translate(0.769 8.426)">
          <path id="Path_2375" data-name="Path 2375" class="cls-5" d="M8933.682,7410.4l1.739,1-.062.4-1.09-.63v.93l.947.547v.431l-.947-.546v1.281l-.588-.339Z" transform="translate(-8933.682 -7410.402)"/>
          <path id="Path_2376" data-name="Path 2376" class="cls-5" d="M8939.076,7416.583l-1.02-.588-.191.6-.609-.352.957-2.521.725.418.952,3.624-.622-.36Zm-.12-.5-.392-1.708-.392,1.255Z" transform="translate(-8935.686 -7412.264)"/>
          <path id="Path_2377" data-name="Path 2377" class="cls-5" d="M8944.616,7419.789l-.587-.339v-3.074l.587.339Z" transform="translate(-8939.481 -7413.751)"/>
          <path id="Path_2378" data-name="Path 2378" class="cls-5" d="M8947.592,7421.076l1.231.711-.065.393-1.753-1.013v-3.074l.587.339Z" transform="translate(-8941.149 -7414.714)"/>
        </g>
        <g id="Group_4872" data-name="Group 4872">
          <g id="Group_4871" data-name="Group 4871">
            <path id="Path_2379" data-name="Path 2379" class="cls-9" d="M8940.807,7398.917c0,2.449-1.986,3.291-4.437,1.875s-4.437-4.549-4.437-7,1.987-3.292,4.438-1.878S8940.807,7396.466,8940.807,7398.917Z" transform="translate(-8931.933 -7391.229)"/>
            <ellipse id="Ellipse_749" data-name="Ellipse 749" class="cls-10" cx="2.267" cy="4.007" rx="2.267" ry="4.007" transform="matrix(0.799, -0.601, 0.601, 0.799, 0.217, 3.287)"/>
          </g>
        </g>
      </g>
      <g id="Group_4878" data-name="Group 4878" transform="translate(13.541 91.744)">
        <g id="Group_4874" data-name="Group 4874" transform="translate(2.017 9.541)">
          <path id="Path_2380" data-name="Path 2380" class="cls-5" d="M8938.26,7449.421a3.424,3.424,0,0,1,.449.533l-.289.164a2.585,2.585,0,0,0-.331-.392,1.932,1.932,0,0,0-.358-.269.545.545,0,0,0-.345-.1c-.088.015-.132.083-.132.2a.524.524,0,0,0,.051.228,1.152,1.152,0,0,0,.185.254c.09.1.222.224.4.38a4.075,4.075,0,0,1,.682.752,1.334,1.334,0,0,1,.229.754.551.551,0,0,1-.14.414.477.477,0,0,1-.4.1,1.682,1.682,0,0,1-.622-.239,3.165,3.165,0,0,1-.63-.471,3.405,3.405,0,0,1-.479-.57l.3-.162a3.079,3.079,0,0,0,.369.442,2.1,2.1,0,0,0,.423.322.605.605,0,0,0,.409.112c.1-.023.155-.11.155-.261a.637.637,0,0,0-.053-.259,1.1,1.1,0,0,0-.183-.268,4.908,4.908,0,0,0-.374-.365,3.977,3.977,0,0,1-.707-.776,1.275,1.275,0,0,1-.219-.692.467.467,0,0,1,.135-.373.454.454,0,0,1,.371-.086,1.475,1.475,0,0,1,.54.2A2.993,2.993,0,0,1,8938.26,7449.421Z" transform="translate(-8936.524 -7448.794)"/>
          <path id="Path_2381" data-name="Path 2381" class="cls-5" d="M8942.843,7451.545l1.739,1-.062.4-1.09-.629v.93l.947.547v.432l-.947-.547v1.281l-.587-.338Z" transform="translate(-8940.066 -7450.336)"/>
        </g>
        <g id="Group_4877" data-name="Group 4877">
          <path id="Path_2382" data-name="Path 2382" class="cls-11" d="M8940.808,7434.771c0,2.449-1.985,3.29-4.437,1.875s-4.437-4.549-4.437-7,1.986-3.293,4.437-1.878S8940.808,7432.32,8940.808,7434.771Z" transform="translate(-8931.935 -7427.083)"/>
          <g id="Group_4876" data-name="Group 4876" transform="translate(0.217 0.562)">
            <g id="Group_4875" data-name="Group 4875">
              <ellipse id="Ellipse_750" data-name="Ellipse 750" class="cls-12" cx="2.267" cy="4.007" rx="2.267" ry="4.007" transform="matrix(0.799, -0.601, 0.601, 0.799, 0, 2.725)"/>
            </g>
          </g>
        </g>
      </g>
    </g>
    <g id="Group_4888" data-name="Group 4888" transform="translate(8897.729 7439.627)">
      <g id="Group_4881" data-name="Group 4881" transform="translate(0 0.608)">
        <g id="Group_4880" data-name="Group 4880">
          <path id="Path_2383" data-name="Path 2383" class="cls-6" d="M8917.521,7729.953c0,14.58-8.51,17.505-8.51,17.505l-9.84-6.244c9.614-5.761,7.4-17.927,7.4-17.927Z" transform="translate(-8899.172 -7723.287)"/>
        </g>
      </g>
      <g id="Group_4883" data-name="Group 4883" transform="translate(9.839 5.625)">
        <g id="Group_4882" data-name="Group 4882">
          <path id="Path_2384" data-name="Path 2384" class="cls-5" d="M8932.459,7734.705v16.456l-10.9,7.086v-4.389s8.511-2.925,8.511-17.505Z" transform="translate(-8921.562 -7734.705)"/>
        </g>
      </g>
      <g id="Group_4885" data-name="Group 4885" transform="translate(0 18.535)">
        <g id="Group_4884" data-name="Group 4884">
          <path id="Path_2385" data-name="Path 2385" class="cls-13" d="M8909.012,7770.325v4.388l-9.84-6.133v-4.5Z" transform="translate(-8899.172 -7764.081)"/>
        </g>
      </g>
      <g id="Group_4887" data-name="Group 4887" transform="translate(7.396 0)">
        <g id="Group_4886" data-name="Group 4886">
          <path id="Path_2386" data-name="Path 2386" class="cls-5" d="M8929.343,7727.53l-2.388,1.648L8916,7722.512l2.187-.607Z" transform="translate(-8916.001 -7721.904)"/>
        </g>
      </g>
    </g>
    <g id="Group_4911" data-name="Group 4911" transform="translate(8896.599 7227.851)">
      <g id="Group_4890" data-name="Group 4890" transform="translate(0.101 11.29)">
        <g id="Group_4889" data-name="Group 4889">
          <path id="Path_2387" data-name="Path 2387" class="cls-5" d="M8896.852,7265.7a9.664,9.664,0,0,1,2.381,1.494l-2.4-1.481Z" transform="translate(-8896.829 -7265.698)"/>
        </g>
      </g>
      <g id="Group_4892" data-name="Group 4892" transform="translate(2.518 12.797)">
        <g id="Group_4891" data-name="Group 4891">
          <path id="Path_2388" data-name="Path 2388" class="cls-5" d="M8910.965,7274.406l-.058.035,0,0-8.161-4.961s-.009-.009-.013-.009a4.757,4.757,0,0,0-.4-.347l8.416,5.19a1.634,1.634,0,0,1,.158.062v-4.3h0v4.3C8910.925,7274.389,8910.942,7274.4,8910.965,7274.406Z" transform="translate(-8902.329 -7269.128)"/>
        </g>
      </g>
      <g id="Group_4894" data-name="Group 4894" transform="translate(0 0)">
        <g id="Group_4893" data-name="Group 4893">
          <path id="Path_2389" data-name="Path 2389" class="cls-5" d="M8918.467,7246.754l-3.467,2.255-7.3,4.75h0l-7.625-4.636-3.467-2.109,10.771-7Z" transform="translate(-8896.6 -7240.008)"/>
        </g>
      </g>
      <g id="Group_4896" data-name="Group 4896" transform="translate(0 7.005)">
        <g id="Group_4895" data-name="Group 4895">
          <path id="Path_2390" data-name="Path 2390" class="cls-13" d="M8900.066,7258.058l-3.468-2.109v4.364l2.918,1.775a4.6,4.6,0,0,0-.4-.347l8.415,5.19a1.634,1.634,0,0,1,.158.062v-4.3Zm-3.366,2.188-.093-.057a.7.7,0,0,1,.114.044,9.63,9.63,0,0,1,2.382,1.494Z" transform="translate(-8896.599 -7255.948)"/>
        </g>
      </g>
      <g id="Group_4898" data-name="Group 4898" transform="translate(0.009 11.246)">
        <g id="Group_4897" data-name="Group 4897">
          <path id="Path_2391" data-name="Path 2391" class="cls-5" d="M8896.733,7265.642a9.63,9.63,0,0,1,2.382,1.494l-2.4-1.481-.093-.057A.753.753,0,0,1,8896.733,7265.642Z" transform="translate(-8896.619 -7265.598)"/>
        </g>
      </g>
      <g id="Group_4900" data-name="Group 4900" transform="translate(2.518 12.797)">
        <g id="Group_4899" data-name="Group 4899">
          <path id="Path_2392" data-name="Path 2392" class="cls-5" d="M8910.907,7270.082v4.36l0,0v0l-8.161-4.957s-.009-.009-.013-.009a4.757,4.757,0,0,0-.4-.347l8.416,5.19a1.634,1.634,0,0,1,.158.062v-4.3Z" transform="translate(-8902.329 -7269.128)"/>
        </g>
      </g>
      <g id="Group_4902" data-name="Group 4902" transform="translate(11.092 13.751)">
        <g id="Group_4901" data-name="Group 4901">
          <path id="Path_2393" data-name="Path 2393" class="cls-5" d="M8921.9,7275.622l-.058.035,0,0V7271.3h0v4.3C8921.86,7275.6,8921.878,7275.613,8921.9,7275.622Z" transform="translate(-8921.839 -7271.298)"/>
        </g>
      </g>
      <g id="Group_4904" data-name="Group 4904" transform="translate(0.009 11.246)">
        <g id="Group_4903" data-name="Group 4903">
          <path id="Path_2394" data-name="Path 2394" class="cls-5" d="M8899.115,7267.136l-2.4-1.481-.093-.057a.753.753,0,0,1,.114.044A9.63,9.63,0,0,1,8899.115,7267.136Z" transform="translate(-8896.619 -7265.598)"/>
        </g>
      </g>
      <g id="Group_4906" data-name="Group 4906" transform="translate(2.931 13.153)">
        <g id="Group_4905" data-name="Group 4905">
          <path id="Path_2395" data-name="Path 2395" class="cls-6" d="M8919.779,7292.276l-10.934-6.737c0-8.825-3.116-13.382-5.577-15.6l8.161,4.961,0,0,.058-.035C8912.822,7275.44,8919.779,7279.092,8919.779,7292.276Z" transform="translate(-8903.269 -7269.938)"/>
        </g>
      </g>
      <g id="Group_4908" data-name="Group 4908" transform="translate(2.518 12.797)">
        <g id="Group_4907" data-name="Group 4907">
          <path id="Path_2396" data-name="Path 2396" class="cls-5" d="M8910.965,7274.406l-.058.035,0,0-8.161-4.961s-.009-.009-.013-.009a4.757,4.757,0,0,0-.4-.347l8.416,5.19a1.634,1.634,0,0,1,.158.062h0C8910.925,7274.389,8910.942,7274.4,8910.965,7274.406Z" transform="translate(-8902.329 -7269.128)"/>
        </g>
      </g>
      <g id="Group_4910" data-name="Group 4910" transform="translate(11.096 6.746)">
        <g id="Group_4909" data-name="Group 4909">
          <path id="Path_2397" data-name="Path 2397" class="cls-5" d="M8932.62,7255.358v27.167l-2.426,1.578c0-13.184-6.957-16.836-8.288-17.416-.022-.009-.04-.018-.058-.026v-4.3l7.3-4.75Z" transform="translate(-8921.849 -7255.358)"/>
        </g>
      </g>
    </g>
  </g>
</svg>
