<!-- Generated by IcoMoon.io -->
<svg version="1.1" xmlns="http://www.w3.org/2000/svg" width="32" height="32" viewBox="0 0 32 32">
<path fill="#d7dbdd" d="M17.111 14.781v17.219l-5.808-3.255v-17.219z"></path>
<path fill="#91a5a8" d="M20.356 10.015l-0.188 0.116c0.014-0.064 0.026-0.131 0.036-0.201z"></path>
<path fill="#bac4c6" d="M20.355 12.766v17.25l-3.244 1.984v-17.25z"></path>
<path fill="#bec8ce" d="M20.644 3.127v0.015l-3.238 1.98 0.006-0.013-0.492-0.155 2.116-1.293-4.814-2.697-2.008 1.228-0.486-0.153 3.335-2.040z"></path>
<path fill="#acb8bc" d="M20.644 3.142v0.491l-0.476 0.291v-0.491z"></path>
<path fill="#1ed84b" d="M14.654 4.78c-0.028 0-0.052-0.015-0.065-0.037v0c-0.007-0.011-0.010-0.024-0.010-0.038 0-0.028 0.015-0.052 0.037-0.065v0l0.010-0.006c0.011-0.007 0.024-0.010 0.038-0.010 0.028 0 0.052 0.015 0.065 0.037v0c0.007 0.011 0.010 0.024 0.010 0.038 0 0.028-0.015 0.052-0.037 0.065v0l-0.010 0.006c-0.011 0.007-0.024 0.010-0.038 0.010 0 0 0 0 0 0v0z"></path>
<path fill="#1ed84b" d="M12.424 2.609c-0.042 0-0.076-0.034-0.076-0.076v0-0.018c0-0.042 0.034-0.076 0.076-0.076v0c0.042 0 0.076 0.034 0.076 0.076v0 0.018c0 0.042-0.034 0.076-0.076 0.076v0z"></path>
<path fill="#1ed84b" d="M11.463 6.318c-0.028 0-0.053-0.016-0.066-0.039v0c-0.006-0.011-0.009-0.023-0.009-0.037 0-0.028 0.016-0.053 0.038-0.066v0l0.006-0.003c0.011-0.006 0.023-0.010 0.037-0.010 0.028 0 0.053 0.016 0.066 0.038v0c0.006 0.011 0.009 0.023 0.009 0.037 0 0.028-0.016 0.053-0.038 0.066v0l-0.006 0.003c-0.011 0.006-0.023 0.010-0.037 0.010 0 0 0 0 0 0v0z"></path>
<path fill="#1ed84b" d="M13.932 4.375c-0.028 0-0.052-0.015-0.065-0.037v0c-0.007-0.011-0.010-0.024-0.010-0.038 0-0.028 0.015-0.052 0.037-0.065v0l0.010-0.006c0.011-0.007 0.024-0.010 0.038-0.010 0.028 0 0.052 0.015 0.065 0.037v0c0.007 0.011 0.010 0.024 0.010 0.038 0 0.028-0.015 0.052-0.037 0.065v0l-0.010 0.006c-0.011 0.007-0.024 0.010-0.038 0.010 0 0 0 0 0 0v0z"></path>
<path fill="#1ed84b" d="M17.404 5.198c0 0 0 0 0 0-0.029 0-0.054-0.017-0.067-0.041v0c-0.005-0.010-0.008-0.021-0.008-0.034 0-0.029 0.017-0.055 0.041-0.067v0h0.001c0.010-0.005 0.021-0.008 0.034-0.008 0.029 0 0.055 0.017 0.067 0.041v0c0.005 0.010 0.008 0.021 0.008 0.033 0 0.029-0.017 0.055-0.041 0.067v0h-0.001c-0.010 0.005-0.022 0.008-0.034 0.008v0z"></path>
<path fill="#bec8ce" d="M12.219 2.194l-0.756 1.565-0.466-0.209 0.73-1.511 0.486 0.153z"></path>
<path fill="#91a5a8" d="M11.447 10.623v0.169l-0.144-0.080z"></path>
<path fill="#7287a0" d="M19.491 9.358c0.001 0.053 0.001 0.111 0.001 0.173 0 0.021 0 0.043 0 0.065 0 0.030 0 0.060 0 0.093q-0.001 0.060-0.004 0.126c0 0.022-0.001 0.043-0.003 0.065s-0.002 0.043-0.003 0.065c-0.002 0.048-0.006 0.097-0.009 0.146-0.002 0.037-0.006 0.075-0.009 0.112s-0.007 0.076-0.012 0.113c-0.004 0.030-0.008 0.060-0.012 0.091-0.003 0.022-0.007 0.044-0.011 0.065-0.007 0.043-0.015 0.085-0.024 0.125l-0.199 0.122c0.057-0.33 0.090-0.71 0.090-1.097 0-0.126-0.003-0.25-0.010-0.374l0.001 0.017-0.787 0.482c0.006 0.108 0.010 0.235 0.010 0.362 0 0.385-0.032 0.763-0.094 1.131l0.006-0.040-0.199 0.122c0.056-0.328 0.089-0.706 0.089-1.091 0-0.127-0.004-0.254-0.010-0.38l0.001 0.017-0.892 0.545c0.005 0.098 0.009 0.213 0.009 0.329 0 0.401-0.037 0.793-0.109 1.174l0.006-0.039-0.203 0.124-0.4-0.224-0.431-1.131-1.149-0.644 0.431 1.132-0.242-0.136-0.431-1.132-1.13-0.633 0.431 1.133-0.242-0.136-0.431-1.133-1.051-0.589 0.43 1.132-0.24-0.135-0.431-1.133-1.078-0.604-0.002-0.007 0.256-0.156 0.060 0.034 5.193 2.905 3.306-2.023 0.281 0.158-0.758 0.463c0.002 0.044 0.004 0.1 0.005 0.165 0 0.019 0 0.036 0 0.053z"></path>
<path fill="#acb8bc" d="M18.221 11.321l-0.907 0.555c0.066-0.341 0.103-0.734 0.103-1.135 0-0.115-0.003-0.23-0.009-0.344l0.001 0.016 0.892-0.545c0.006 0.108 0.010 0.234 0.010 0.36 0 0.386-0.032 0.764-0.095 1.133l0.006-0.040z"></path>
<path fill="#acb8bc" d="M19.206 10.719l-0.786 0.481c0.056-0.328 0.089-0.706 0.089-1.091 0-0.127-0.004-0.254-0.010-0.379l0.001 0.017 0.787-0.482c0.006 0.106 0.009 0.231 0.009 0.356 0 0.388-0.033 0.768-0.095 1.138l0.006-0.040z"></path>
<path fill="#bac4c6" d="M20.296 11.133c-0.038 0.099-0.061 0.214-0.061 0.334 0 0.109 0.018 0.213 0.052 0.311l-0.002-0.007 0.021 0.064c0.032 0.090 0.050 0.194 0.050 0.303 0 0 0 0.001 0 0.001v0l-0.001 0.627-3.244 1.984v-2.75l3.245-1.985v0.784c0 0.001 0 0.002 0 0.002 0 0.119-0.022 0.234-0.062 0.339l0.002-0.007z"></path>
<path fill="#d7dbdd" d="M17.111 13.965v0.816l-5.808-3.255v-0.816l0.144 0.080z"></path>
<path fill="#bec8ce" d="M17.111 13.079v0.886l-5.664-3.174v-0.886l0.612 0.343z"></path>
<path fill="#d7dbdd" d="M17.111 12.401v0.679l-5.808-3.254v-0.679z"></path>
<path fill="#d7dbdd" d="M13.95 10.229l-1.051-0.589-0.43-1.132 1.051 0.589z"></path>
<path fill="#d7dbdd" d="M15.321 10.997l-1.129-0.633-0.431-1.133 1.13 0.633z"></path>
<path fill="#d7dbdd" d="M16.711 11.777l-1.149-0.643-0.431-1.132 1.148 0.644z"></path>
<path fill="#bec8ce" d="M17.111 12v0.4l-5.808-3.254v-0.077l0.277-0.169 5.131 2.876z"></path>
<path fill="#d7dbdd" d="M12.657 9.505l-1.078-0.604-0.431-1.132 1.078 0.604z"></path>
<path fill="#acb8bc" d="M20.204 9.93c-0.011 0.070-0.022 0.137-0.036 0.201l-0.763 0.466c0.056-0.294 0.088-0.633 0.088-0.979 0-0.031 0-0.061-0.001-0.092v0.005c0-0.161-0.004-0.298-0.007-0.388l0.758-0.463 0.007 0.004c0.005 0.102 0.008 0.221 0.008 0.342 0 0.319-0.019 0.633-0.057 0.941l0.004-0.037z"></path>
<path fill="#d7dbdd" d="M11.463 3.759v3.88l-0.060-0.034-0.405-0.227v-3.828z"></path>
<path fill="#9eaeb2" d="M21.002 3.833v0.015l-0.834 0.51v-0.434l0.476-0.291z"></path>
<path fill="#7287a0" d="M20.621 7.618v0.198l-0.746 0.456-0.208 0.431-0.078 0.047-0.172 0.106 0.208-0.431 0.136-0.281 0.25-0.153z"></path>
<path fill="#acb8bc" d="M21.001 3.849v4.037l-1.335 0.817 0.208-0.431 0.746-0.456v-3.733z"></path>
<path fill="#acb8bc" d="M20.621 4.082v3.536l-0.86 0.526-0.136 0.281-0.208 0.431-2.761 1.689v-3.87l0.75-1.552 2.763-1.689v0.926z"></path>
<path fill="#bec8ce" d="M17.411 5.109l-0.006 0.013-0.75 1.552-0.466-0.209 0.73-1.511z"></path>
<path fill="#d7dbdd" d="M16.656 6.675v3.87l-0.004 0.002-0.462-0.259v-3.822z"></path>
<path fill="#d7dbdd" d="M14.656 5.373v0.724l-1.792-1.005v-0.723l1.22 0.683z"></path>
<path fill="#d7dbdd" d="M13.931 4.3h0.001v-0.001zM14.064 7.693l-2.601-1.457v1.404l4.726 2.648v-1.404zM14.653 4.705v0-0.001z"></path>
<path fill="#d7dbdd" d="M14.064 5.765v1.927l-0.681-0.381v-1.928z"></path>
<path fill="#9eaeb2" d="M16.189 8.497v0.387l-2.126-1.191v-0.386z"></path>
<path fill="#9eaeb2" d="M13.383 6.925v0.387l-1.914-1.073 0.329-0.202z"></path>
<path fill="#849aaf" d="M16.182 2.063l-1.961 1.199v-2.298l0.402 0.225z"></path>
<path fill="#849aaf" d="M14.221 0.964v0.471l-1.797 1.099v3.12l-0.956 0.585-0.006-0.003v-2.476l0.756-1.565-0.006-0.002z"></path>
<path fill="#7287a0" d="M16.904 2.467v2.519l-0.715 1.48v2.032l-2.126-1.191v-1.541l0.593 0.332v-0.724l-0.572-0.321 0.569-0.348v-0.861z"></path>
<path fill="#849aaf" d="M19.035 3.661l-2.116 1.293-0.015 0.030v-2.517z"></path>
<path fill="#bec8ce" d="M16.904 2.467l-2.25 1.376-0.722-0.404 2.25-1.376z"></path>
<path fill="#bec8ce" d="M14.653 4.705l-0.569 0.348-0.722-0.404 0.569-0.348h0.001z"></path>
<path fill="#d7dbdd" d="M14.654 3.843v0.861l-0.721-0.404v-0.861z"></path>
<path fill="#7287a0" d="M14.221 1.435v1.827l-0.289 0.177v0.861h-0.001l-0.569 0.348-0.499-0.279v0.724l0.518 0.29v1.541l-1.585-0.888 0.627-0.383v-3.12z"></path>
<path fill="#e3e5e5" d="M16.182 16.391v13.262c0 0 0 0 0 0 0 0.232-0.188 0.42-0.42 0.42-0.075 0-0.146-0.020-0.208-0.055l0.002 0.001-2.474-1.386c-0.527-0.299-0.876-0.856-0.877-1.495v0-13.263c0-0.232 0.188-0.42 0.421-0.42 0.075 0 0.146 0.020 0.207 0.055l-0.002-0.001 2.474 1.386c0.527 0.299 0.876 0.856 0.876 1.495v0z"></path>
</svg>
