<!-- Generated by IcoMoon.io -->
<svg version="1.1" xmlns="http://www.w3.org/2000/svg" width="32" height="32" viewBox="0 0 32 32">
<path fill="#374775" d="M5.635 9.157c2.013 0 3.421-1.61 3.421-3.421 0-2.013-1.61-3.421-3.421-3.421s-3.623 1.409-3.623 3.421 1.61 3.421 3.623 3.421zM5.635 3.723c1.208 0 2.013 0.805 2.013 2.013s-0.805 2.013-2.013 2.013c-1.208 0-2.013-0.805-2.013-2.013s0.805-2.013 2.013-2.013z"></path>
<path fill="#374775" d="M26.163 9.157c2.013 0 3.421-1.61 3.421-3.421 0.201-2.013-1.409-3.623-3.421-3.623s-3.421 1.61-3.421 3.421 1.61 3.623 3.421 3.623zM26.163 3.723c1.208 0 2.013 0.805 2.013 2.013s-0.805 2.013-2.013 2.013c-1.208 0-2.013-0.805-2.013-2.013s1.006-2.013 2.013-2.013z"></path>
<path fill="#374775" d="M28.377 11.17h-4.226c-1.006 0-1.811 0.403-2.616 1.006-0.403-0.201-1.006-0.403-1.61-0.403h-8.050c-0.604 0-1.208 0.201-1.61 0.403-0.805-0.604-1.61-1.006-2.616-1.006h-4.226c-1.811 0-3.421 1.61-3.421 3.421v6.239c0 0.403 0.201 0.604 0.604 0.805l1.61 0.604 0.604 7.044c0 0.403 0.403 0.604 0.805 0.604h4.226c0.403 0 0.805-0.403 0.805-0.805s-0.604-0.805-1.006-0.805h-3.421l-0.604-6.843c0-0.201-0.201-0.604-0.604-0.604l-1.61-0.604v-5.635c0-1.208 0.805-2.013 2.013-2.013h4.226c0.604 0 1.006 0.201 1.409 0.604-0.403 0.604-0.805 1.409-0.805 2.214v6.843c0 0.403 0.201 0.604 0.604 0.805l2.214 0.604 0.604 7.648c0 0.403 0.403 0.604 0.805 0.604h6.843c0.403 0 0.805-0.201 0.805-0.604l0.604-7.648 2.214-0.604c0.403 0 0.604-0.403 0.604-0.805v-6.843c0-0.805-0.201-1.61-0.805-2.214 0.403-0.403 0.805-0.604 1.409-0.604h4.226c1.208 0 2.013 0.805 2.013 2.013v5.635l-1.61 0.604c-0.201 0-0.403 0.403-0.604 0.604l-0.604 6.843h-3.421c-0.403 0-0.805 0.403-0.805 0.805s0.403 0.805 0.805 0.805h4.226c0.403 0 0.805-0.403 0.805-0.604l0.604-7.044 1.61-0.604c0.403-0.201 0.604-0.403 0.604-0.805v-6.239c-0.201-1.811-1.811-3.421-3.623-3.421zM22.138 21.635l-2.214 0.604c-0.403 0-0.604 0.403-0.604 0.604l-0.604 7.648h-5.635l-0.604-7.648c0-0.403-0.201-0.604-0.604-0.604l-2.214-0.604v-6.239c0-1.208 0.805-2.013 2.013-2.013h8.453c1.208 0 2.013 0.805 2.013 2.013v6.239z"></path>
<path fill="#374775" d="M15.899 9.962c2.616 0 4.83-2.214 4.83-4.83 0-2.818-2.013-5.031-4.83-5.031-2.616 0-4.83 2.214-4.83 4.83s2.214 5.031 4.83 5.031zM15.899 1.509c1.811 0 3.421 1.61 3.421 3.421s-1.61 3.421-3.421 3.421c-1.811 0-3.421-1.409-3.421-3.421 0-1.811 1.61-3.421 3.421-3.421z"></path>
</svg>
