<?xml version="1.0" encoding="utf-8"?>
<!-- Generator: Adobe Illustrator 27.0.0, SVG Export Plug-In . SVG Version: 6.00 Build 0)  -->
<svg version="1.1" id="Every_Tables___Table___Check_Box_in_Rows"
	 xmlns="http://www.w3.org/2000/svg" xmlns:xlink="http://www.w3.org/1999/xlink" x="0px" y="0px" viewBox="0 0 16 16"
	 style="enable-background:new 0 0 16 16;" xml:space="preserve">
<style type="text/css">
	.st0{fill:#FFFFFF;}
	.st1{fill:none;}
	.st2{fill:#374775;}
	.st3{fill:#E3E6F1;}
</style>
<path class="st0" d="M15,3v10c0,1.1-0.9,2-2,2H3c-1.1,0-2-0.9-2-2V3c0-1.1,0.9-2,2-2h10C14.1,1,15,1.9,15,3z"/>
<g id="Rectangle_1147" transform="translate(-2.289 -2.289)">
	<path class="st0" d="M16.1,3H4.3C3.5,3,2.9,3.7,3,4.5v11.8c0,0.8,0.7,1.3,1.5,1.3h11.8c0.8-0.1,1.3-0.7,1.3-1.5V4.3
		C17.5,3.5,16.9,3,16.1,3z M17.3,15.3c0,1.1-0.9,2-2,2h-10c-1.1,0-2-0.9-2-2v-10c0-1.1,0.9-2,2-2h10c1.1,0,2,0.9,2,2V15.3z"/>
</g>
<g id="Rectangle_1146">
	<g id="Group_8343">
		<path class="st1" d="M13,0H2.9C1.3,0,0,1.4,0,3v10.1C0,14.7,1.4,16,3,16h10.1c1.6,0,2.9-1.4,2.9-3V2.9C16,1.3,14.6,0,13,0z M15,13
			c0,1.1-0.9,2-2,2H3c-1.1,0-2-0.9-2-2V3c0-1.1,0.9-2,2-2h10c1.1,0,2,0.9,2,2V13z"/>
	</g>
	<g id="Group_8344">
		<path id="Path_6245" class="st2" d="M13,0H2.9C1.3,0,0,1.4,0,3v10.1C0,14.7,1.4,16,3,16h10.1c1.6,0,2.9-1.4,2.9-3V2.9
			C16,1.3,14.6,0,13,0z M15,13c0,1.1-0.9,2-2,2H3c-1.1,0-2-0.9-2-2V3c0-1.1,0.9-2,2-2h10c1.1,0,2,0.9,2,2V13z"/>
	</g>
</g>
<g id="Rectangle_1147-2">
	<path id="Path_6246-2" class="st3" d="M4,3h8c0.5,0,1,0.4,1,0.9c0,0,0,0.1,0,0.1v8c0,0.5-0.4,1-0.9,1c0,0-0.1,0-0.1,0H4
		c-0.5,0-1-0.4-1-0.9c0,0,0-0.1,0-0.1V4c0-0.5,0.4-1,0.9-1C3.9,3,4,3,4,3z"/>
</g>
</svg>
