<svg xmlns="http://www.w3.org/2000/svg" width="66.202" height="211.755" viewBox="0 0 66.202 211.755">
  <defs>
    <style>
      .cls-1 {
        fill: #d7dbdd;
      }

      .cls-2 {
        fill: #91a5a8;
      }

      .cls-3 {
        fill: #bac4c6;
      }

      .cls-4 {
        fill: #bec8ce;
      }

      .cls-5 {
        fill: #acb8bc;
      }

      .cls-6 {
        fill: #1ed84b;
      }

      .cls-7 {
        fill: #7287a0;
      }

      .cls-8 {
        fill: #9eaeb2;
      }

      .cls-9 {
        fill: #849aaf;
      }

      .cls-10 {
        fill: #e3e5e5;
      }
    </style>
  </defs>
  <g id="Group_8332" data-name="Group 8332" transform="translate(-2695.559 -416.79)">
    <path id="Path_1357" data-name="Path 1357" class="cls-1" d="M2738.944,624.875V738.818l-38.435-21.536V603.34Z" transform="translate(-2.926 -110.273)"/>
    <path id="Path_1358" data-name="Path 1358" class="cls-2" d="M2845.226,578.064l-1.247.765c.094-.421.172-.867.241-1.329Z" transform="translate(-87.734 -94.999)"/>
    <path id="Path_1359" data-name="Path 1359" class="cls-3" d="M2815.976,623.4V737.547l-21.466,13.129V636.529Z" transform="translate(-58.491 -122.131)"/>
    <path id="Path_1360" data-name="Path 1360" class="cls-4" d="M2766.375,437.487v.1l-3.148,1.926-18.281,11.179.041-.086-3.255-1.026,14-8.558-14.1-7.9-4.78-2.678-10.316-5.782-2.658-1.488-13.289,8.129-3.218-1.01v0l22.067-13.5Z" transform="translate(-6.981)"/>
    <path id="Path_1361" data-name="Path 1361" class="cls-5" d="M2847.127,467.65V470.9l-3.148,1.926v-3.251Z" transform="translate(-87.734 -30.064)"/>
    <path id="Line_66" data-name="Line 66" class="cls-6" d="M0,.541A.5.5,0,0,1-.431.294.5.5,0,0,1-.254-.39l.069-.041A.5.5,0,0,1,.5-.254.5.5,0,0,1,.323.431L.254.472A.5.5,0,0,1,0,.541Z" transform="translate(2719.757 447.881)"/>
    <path id="Line_67" data-name="Line 67" class="cls-6" d="M0,.619a.5.5,0,0,1-.5-.5V0A.5.5,0,0,1,0-.5.5.5,0,0,1,.5,0V.119A.5.5,0,0,1,0,.619Z" transform="translate(2705.004 433.439)"/>
    <path id="Line_68" data-name="Line 68" class="cls-6" d="M0,.521A.5.5,0,0,1-.437.263a.5.5,0,0,1,.194-.68l.037-.02a.5.5,0,0,1,.68.194A.5.5,0,0,1,.28.437L.243.458A.5.5,0,0,1,0,.521Z" transform="translate(2698.642 458.078)"/>
    <path id="Line_69" data-name="Line 69" class="cls-6" d="M0,.541A.5.5,0,0,1-.431.294.5.5,0,0,1-.254-.39l.069-.041A.5.5,0,0,1,.5-.254.5.5,0,0,1,.323.431L.254.472A.5.5,0,0,1,0,.541Z" transform="translate(2714.981 445.203)"/>
    <path id="Line_70" data-name="Line 70" class="cls-6" d="M0,.5A.5.5,0,0,1-.447.228.5.5,0,0,1-.224-.443l.008,0a.5.5,0,0,1,.671.224A.5.5,0,0,1,.232.447l-.008,0A.5.5,0,0,1,0,.5Z" transform="translate(2737.956 450.69)"/>
    <path id="Path_1362" data-name="Path 1362" class="cls-4" d="M2703.647,450.832l-5,10.357-3.083-1.382,4.829-10,3.218,1.01Z" transform="translate(0 -19.519)"/>
    <path id="Path_1363" data-name="Path 1363" class="cls-2" d="M2701.462,588.71v1.116l-.953-.531Z" transform="translate(-2.926 -101.625)"/>
    <path id="Path_1364" data-name="Path 1364" class="cls-7" d="M2753.192,551.48c.008.352.008.736.008,1.145,0,.139,0,.282,0,.429,0,.2,0,.4,0,.613q-.006.4-.024.834c0,.143-.008.286-.017.429s-.012.286-.02.433c-.016.319-.037.642-.061.965-.016.245-.037.495-.061.74s-.049.5-.082.748c-.024.2-.053.4-.078.6-.021.147-.045.29-.07.433-.045.286-.1.564-.156.83l-1.316.806a44.726,44.726,0,0,0,.531-9.625l-5.209,3.189a44.708,44.708,0,0,1-.523,9.617l-1.316.805a44.684,44.684,0,0,0,.523-9.617l-5.9,3.606a41.667,41.667,0,0,1-.625,9.682l-1.345.822-2.646-1.484-2.85-7.487-7.6-4.261,2.85,7.491-1.6-.9-2.85-7.491-7.478-4.191,2.854,7.495-1.6-.9-2.85-7.495-6.955-3.9,2.846,7.491-1.591-.891h0l-2.85-7.495h0l-7.131-3.995-.016-.049,1.693-1.034.4.225v0l9.474,5.307,21.8,12.217,3.059,1.713.028-.016,18.269-11.175,1.137-.7.515-.311,0,0,1.955-1.2,1.86,1.043-5.017,3.067c.012.294.025.662.033,1.092C2753.188,551.255,2753.188,551.365,2753.192,551.48Z" transform="translate(-1.424 -72.761)"/>
    <path id="Path_1365" data-name="Path 1365" class="cls-5" d="M2803.8,586.117l-6,3.672a41.67,41.67,0,0,0,.626-9.682l5.9-3.606A44.636,44.636,0,0,1,2803.8,586.117Z" transform="translate(-60.436 -94.408)"/>
    <path id="Path_1366" data-name="Path 1366" class="cls-5" d="M2820.9,576.355l-5.2,3.181a44.705,44.705,0,0,0,.523-9.617l5.209-3.189A44.728,44.728,0,0,1,2820.9,576.355Z" transform="translate(-71.017 -88.633)"/>
    <path id="Path_1367" data-name="Path 1367" class="cls-3" d="M2815.583,586.277a6.281,6.281,0,0,0-.07,4.22l.139.425a6.234,6.234,0,0,1,.331,2.012l-.008,4.15-21.466,13.129v-18.2l1.345-.822,6-3.672,1.317-.805,5.2-3.181,1.317-.805,5.046-3.087,1.247-.765v5.185A6.281,6.281,0,0,1,2815.583,586.277Z" transform="translate(-58.491 -95.815)"/>
    <path id="Path_1368" data-name="Path 1368" class="cls-1" d="M2738.944,611.675v5.4l-38.435-21.536v-5.4l.953.531Z" transform="translate(-2.926 -102.47)"/>
    <path id="Path_1369" data-name="Path 1369" class="cls-4" d="M2740.322,598.11v5.863l-37.482-21V577.11l4.048,2.269Z" transform="translate(-4.303 -94.768)"/>
    <path id="Path_1370" data-name="Path 1370" class="cls-1" d="M2738.944,586.361v4.49l-37.482-21-.953-.531v-4.49Z" transform="translate(-2.926 -87.509)"/>
    <path id="Path_1371" data-name="Path 1371" class="cls-1" d="M2729.174,565.881l-6.955-3.9h0l-2.846-7.491,6.955,3.9Z" transform="translate(-14.074 -81.397)"/>
    <path id="Path_1372" data-name="Path 1372" class="cls-1" d="M2750.607,577.891l-7.474-4.187-2.854-7.495,7.479,4.191Z" transform="translate(-26.435 -88.325)"/>
    <path id="Path_1373" data-name="Path 1373" class="cls-1" d="M2772.93,590.4l-7.6-4.256-2.85-7.491,7.6,4.261Z" transform="translate(-39.557 -95.678)"/>
    <path id="Path_1374" data-name="Path 1374" class="cls-4" d="M2738.944,581.359v2.65l-38.435-21.532v-.507l1.832-1.12,7.131,4h0l1.59.891h0l6.955,3.9,1.6.9,7.474,4.187,1.6.9,7.6,4.256Z" transform="translate(-2.926 -85.157)"/>
    <path id="Path_1375" data-name="Path 1375" class="cls-1" d="M2707.994,554.019l-7.131-4-2.854-7.491,7.131,3.995h0Z" transform="translate(-1.448 -74.327)"/>
    <path id="Path_1376" data-name="Path 1376" class="cls-5" d="M2836.926,565.542c-.07.462-.147.908-.241,1.329l-5.046,3.087a36.333,36.333,0,0,0,.577-7.053c0-1.063-.024-1.971-.049-2.568l5.017-3.067.045.029A50.833,50.833,0,0,1,2836.926,565.542Z" transform="translate(-80.439 -83.041)"/>
    <path id="Path_1377" data-name="Path 1377" class="cls-1" d="M2698.642,475.642v25.674l-.4-.225-2.678-1.5V474.26Z" transform="translate(0 -33.972)"/>
    <path id="Path_1378" data-name="Path 1378" class="cls-8" d="M2849.5,476.924v.1l-2.519,1.541-3,1.832v-2.874l3.148-1.926Z" transform="translate(-87.734 -34.764)"/>
    <path id="Path_1379" data-name="Path 1379" class="cls-7" d="M2839.788,540.08v1.308l-4.935,3.018v0l-1.378,2.854,0,0-.515.311-1.137.7,1.378-2.854.9-1.86,1.652-1.01h0Z" transform="translate(-80.546 -72.879)"/>
    <path id="Path_1380" data-name="Path 1380" class="cls-5" d="M2844.7,479.09v26.716l-6.877,4.207-1.954,1.2,1.378-2.854v0l4.935-3.018v-24.7Z" transform="translate(-82.94 -36.827)"/>
    <path id="Path_1381" data-name="Path 1381" class="cls-5" d="M2813.377,476.653v23.4l-4.036,2.47h0l-1.652,1.01-.9,1.86-1.378,2.854-18.269,11.175V493.81l4.96-10.271,18.281-11.179v6.125Z" transform="translate(-54.135 -32.848)"/>
    <path id="Path_1382" data-name="Path 1382" class="cls-4" d="M2787.677,498.006l-.041.086-4.96,10.271-3.087-1.382,4.829-10,0,0Z" transform="translate(-49.672 -47.402)"/>
    <path id="Path_1383" data-name="Path 1383" class="cls-1" d="M2782.676,522.822V548.43l-.029.016-3.058-1.713V521.44Z" transform="translate(-49.672 -61.861)"/>
    <path id="Path_1384" data-name="Path 1384" class="cls-1" d="M2737.637,494.154v4.788l-3.921-2.2-4.506-2.527-3.43-1.922V487.51l3.3,1.848,4.776,2.674Z" transform="translate(-17.864 -41.804)"/>
    <path id="Path_1385" data-name="Path 1385" class="cls-1" d="M2719.43,486.384l.008,0v-.008Zm.879,22.452-4.506-2.523-12.667-7.1-.037-.02v9.29l9.474,5.307,21.8,12.217v-9.29Zm3.9-19.773,0,0v-.008Z" transform="translate(-4.457 -41.136)"/>
    <path id="Path_1386" data-name="Path 1386" class="cls-1" d="M2738.675,506.446V519.2l-4.506-2.523V503.919Z" transform="translate(-22.823 -51.504)"/>
    <path id="Path_1387" data-name="Path 1387" class="cls-8" d="M2759.255,542.929v2.56l-14.066-7.883V535.05Z" transform="translate(-29.337 -69.906)"/>
    <path id="Path_1388" data-name="Path 1388" class="cls-8" d="M2715.856,520.375v2.56l-12.667-7.1,2.179-1.337Z" transform="translate(-4.51 -57.758)"/>
    <path id="Path_1389" data-name="Path 1389" class="cls-9" d="M2760.713,439.669l-12.974,7.936V432.4l2.658,1.488Z" transform="translate(-30.845 -9.227)"/>
    <path id="Path_1390" data-name="Path 1390" class="cls-9" d="M2721.352,432.4v3.116l-11.89,7.27v20.648l-4.146,2.535-2.179,1.337-.037-.02V450.9l5-10.357-.041-.012Z" transform="translate(-4.457 -9.227)"/>
    <path id="Path_1391" data-name="Path 1391" class="cls-7" d="M2763.985,456.73V473.4l-4.731,9.793v13.444l-14.065-7.879v-10.2l3.921,2.2v-4.788l-3.786-2.122,3.766-2.3,0,0v-5.7Z" transform="translate(-29.337 -23.609)"/>
    <path id="Path_1392" data-name="Path 1392" class="cls-9" d="M2805.257,464.629l-14,8.558h0v0l-.1.2V456.73Z" transform="translate(-56.511 -23.609)"/>
    <path id="Path_1393" data-name="Path 1393" class="cls-4" d="M2762.727,452.858l-14.892,9.106-4.776-2.674v0l1.914-1.169,12.974-7.936Z" transform="translate(-28.078 -19.737)"/>
    <path id="Path_1394" data-name="Path 1394" class="cls-4" d="M2742.381,489.068l-3.766,2.3-4.776-2.674,3.762-2.306.008,0Z" transform="translate(-22.628 -41.142)"/>
    <path id="Path_1395" data-name="Path 1395" class="cls-1" d="M2747.835,475.134v5.7l0,0-4.772-2.674v-5.7Z" transform="translate(-28.078 -32.908)"/>
    <path id="Path_1396" data-name="Path 1396" class="cls-7" d="M2724.556,440.02V452.11l-1.914,1.169v5.7l-.008,0-3.762,2.306-3.3-1.848v4.788l3.43,1.922v10.2l-10.488-5.876,4.146-2.535V447.29Z" transform="translate(-7.661 -13.732)"/>
    <path id="Path_1397" data-name="Path 1397" class="cls-10" d="M2741.43,653.982v87.759a2.782,2.782,0,0,1-4.142,2.428L2720.917,735a11.341,11.341,0,0,1-5.8-9.894V637.344a2.783,2.783,0,0,1,4.142-2.428l16.371,9.171A11.342,11.342,0,0,1,2741.43,653.982Z" transform="translate(-11.562 -128.726)"/>
  </g>
</svg>
