<?xml version="1.0" encoding="utf-8"?>
<!-- Generator: Adobe Illustrator 21.0.0, SVG Export Plug-In . SVG Version: 6.00 Build 0)  -->
<svg version="1.1" id="Layer_1" xmlns="http://www.w3.org/2000/svg" xmlns:xlink="http://www.w3.org/1999/xlink" x="0px" y="0px"
	 viewBox="0 0 15.8 15.8" style="enable-background:new 0 0 15.8 15.8;" xml:space="preserve">
<style type="text/css">
	.st0{fill:#374775;}
</style>
<g>
	<path class="st0" d="M2.8,4.5c1,0,1.7-0.8,1.7-1.7c0-1-0.8-1.7-1.7-1.7S1,1.8,1,2.8S1.8,4.5,2.8,4.5z M2.8,1.8c0.6,0,1,0.4,1,1
		s-0.4,1-1,1c-0.6,0-1-0.4-1-1S2.2,1.8,2.8,1.8z"/>
	<path class="st0" d="M13,4.5c1,0,1.7-0.8,1.7-1.7C14.8,1.8,14,1,13,1c-1,0-1.7,0.8-1.7,1.7S12.1,4.5,13,4.5z M13,1.8
		c0.6,0,1,0.4,1,1s-0.4,1-1,1c-0.6,0-1-0.4-1-1S12.5,1.8,13,1.8z"/>
	<path class="st0" d="M14.1,5.5H12c-0.5,0-0.9,0.2-1.3,0.5c-0.2-0.1-0.5-0.2-0.8-0.2H5.9C5.6,5.8,5.3,5.9,5.1,6
		C4.7,5.7,4.3,5.5,3.8,5.5H1.7C0.8,5.5,0,6.3,0,7.2v3.1c0,0.2,0.1,0.3,0.3,0.4l0.8,0.3l0.3,3.5c0,0.2,0.2,0.3,0.4,0.3h2.1v0
		c0.2,0,0.4-0.2,0.4-0.4S4,14,3.8,14H2.1l-0.3-3.4c0-0.1-0.1-0.3-0.3-0.3L0.7,10V7.2c0-0.6,0.4-1,1-1h2.1c0.3,0,0.5,0.1,0.7,0.3
		C4.3,6.8,4.1,7.2,4.1,7.6V11c0,0.2,0.1,0.3,0.3,0.4l1.1,0.3l0.3,3.8c0,0.2,0.2,0.3,0.4,0.3h3.4c0.2,0,0.4-0.1,0.4-0.3l0.3-3.8
		l1.1-0.3c0.2,0,0.3-0.2,0.3-0.4V7.6c0-0.4-0.1-0.8-0.4-1.1c0.2-0.2,0.4-0.3,0.7-0.3h2.1c0.6,0,1,0.4,1,1V10l-0.8,0.3
		c-0.1,0-0.2,0.2-0.3,0.3L13.7,14H12c-0.2,0-0.4,0.2-0.4,0.4c0,0.2,0.2,0.4,0.4,0.4h2.1c0.2,0,0.4-0.2,0.4-0.3l0.3-3.5l0.8-0.3
		c0.2-0.1,0.3-0.2,0.3-0.4V7.2C15.8,6.3,15,5.5,14.1,5.5z M11,10.7L9.9,11c-0.2,0-0.3,0.2-0.3,0.3l-0.3,3.8H6.5l-0.3-3.8
		c0-0.2-0.1-0.3-0.3-0.3l-1.1-0.3V7.6c0-0.6,0.4-1,1-1H10c0.6,0,1,0.4,1,1V10.7z"/>
	<path class="st0" d="M7.9,4.9c1.3,0,2.4-1.1,2.4-2.4C10.3,1.1,9.3,0,7.9,0C6.6,0,5.5,1.1,5.5,2.4S6.6,4.9,7.9,4.9z M7.9,0.7
		c0.9,0,1.7,0.8,1.7,1.7c0,0.9-0.8,1.7-1.7,1.7C7,4.1,6.2,3.4,6.2,2.4C6.2,1.5,7,0.7,7.9,0.7z"/>
</g>
</svg>
