<!-- Generated by IcoMoon.io -->
<svg version="1.1" xmlns="http://www.w3.org/2000/svg" width="32" height="32" viewBox="0 0 32 32">
<path fill="#abb6d6" d="M28.123 32h-24.245v-20.782h24.245v20.782zM5.032 30.846h21.936v-18.472h-21.936v18.472z"></path>
<path fill="#abb6d6" d="M16.115 22.764c-1.963 0-3.464-1.501-3.464-3.464s1.501-3.464 3.464-3.464 3.464 1.501 3.464 3.464-1.616 3.464-3.464 3.464zM16.115 16.991c-1.27 0-2.309 1.039-2.309 2.309s1.039 2.309 2.309 2.309c1.27 0 2.309-1.039 2.309-2.309s-1.039-2.309-2.309-2.309z"></path>
<path fill="#abb6d6" d="M15.538 21.609h1.154v4.618h-1.155v-4.618z"></path>
<path fill="#abb6d6" d="M23.966 12.353h-15.702v-4.734c0.115-4.272 3.579-7.62 7.851-7.62s7.735 3.348 7.851 7.62v4.734zM9.419 11.199h13.393v-3.579c-0.115-3.579-3.117-6.465-6.696-6.465v0c0 0-0.115 0-0.115 0-3.579 0-6.465 2.886-6.581 6.465v3.579z"></path>
</svg>
