<?xml version="1.0" encoding="utf-8"?>
<!-- Generator: Adobe Illustrator 27.0.0, SVG Export Plug-In . SVG Version: 6.00 Build 0)  -->
<svg version="1.1" id="Layer_1" xmlns="http://www.w3.org/2000/svg" xmlns:xlink="http://www.w3.org/1999/xlink" x="0px" y="0px"
	 viewBox="0 0 21 27.7" style="enable-background:new 0 0 21 27.7;" xml:space="preserve">
<style type="text/css">
	.st0{fill:#ABB6D6;}
</style>
<g>
	<g transform="translate(.5 10.217)">
		<g>
			<path class="st0" d="M20.5,17.5h-21v-18h21V17.5z M0.5,16.5h19v-16h-19V16.5z"/>
		</g>
		<g>
			<path class="st0" d="M10.1,9.5c-1.7,0-3-1.3-3-3s1.3-3,3-3s3,1.3,3,3S11.7,9.5,10.1,9.5z M10.1,4.5c-1.1,0-2,0.9-2,2s0.9,2,2,2
				c1.1,0,2-0.9,2-2S11.2,4.5,10.1,4.5z"/>
		</g>
		<g>
			<rect x="9.6" y="8.5" class="st0" width="1" height="4"/>
		</g>
	</g>
	<g>
		<path class="st0" d="M17.4,10.7H3.8V6.6C3.9,2.9,6.9,0,10.6,0c3.7,0,6.7,2.9,6.8,6.6V10.7z M4.8,9.7h11.6V6.6
			c-0.1-3.1-2.7-5.6-5.8-5.6h0c0,0-0.1,0-0.1,0C7.4,1,4.9,3.5,4.8,6.6V9.7z"/>
	</g>
</g>
</svg>
