<?xml version="1.0" encoding="utf-8"?>
<!-- Generator: Adobe Illustrator 21.0.0, SVG Export Plug-In . SVG Version: 6.00 Build 0)  -->
<svg version="1.1" id="Component_71_8" xmlns="http://www.w3.org/2000/svg" xmlns:xlink="http://www.w3.org/1999/xlink" x="0px"
	 y="0px" viewBox="0 0 36.6 45.4" style="enable-background:new 0 0 36.6 45.4;" xml:space="preserve">
<style type="text/css">
	.st0{fill:#374775;}
	.st1{fill:#E3E6F1;}
	.st2{fill:#58CC87;}
</style>
<g id="Group_2254">
	<path id="Path_1162" class="st0" d="M36.6,18.3C36.6,8.2,28.4,0,18.3,0C8.2,0,0,8.2,0,18.3c0,7.4,4.4,14,11.2,16.9l5.6,9.4
		c0.5,0.9,1.7,1.1,2.6,0.6c0.2-0.1,0.4-0.3,0.6-0.6l5.6-9.4C32.2,32.3,36.6,25.7,36.6,18.3z"/>
	<circle id="Ellipse_508" class="st1" cx="18.3" cy="18.3" r="14.7"/>
</g>
<g id="Group_2255" transform="translate(5.551 5.551)">
	<path id="Path_1163" class="st2" d="M12.7,25.5C5.7,25.5,0,19.8,0,12.7S5.7,0,12.7,0c7,0,12.7,5.7,12.7,12.7
		C25.5,19.8,19.8,25.5,12.7,25.5z M12.7,3C7.4,3,3,7.4,3,12.7c0,5.4,4.4,9.7,9.7,9.7c5.4,0,9.7-4.4,9.7-9.7l0,0
		C22.5,7.4,18.1,3,12.7,3z"/>
</g>
</svg>
