<?xml version="1.0" encoding="utf-8"?>
<!-- Generator: Adobe Illustrator 21.0.0, SVG Export Plug-In . SVG Version: 6.00 Build 0)  -->
<svg version="1.1" id="Layer_1" xmlns="http://www.w3.org/2000/svg" xmlns:xlink="http://www.w3.org/1999/xlink" x="0px" y="0px"
	 viewBox="0 0 24.7 24.7" style="enable-background:new 0 0 24.7 24.7;" xml:space="preserve">
<style type="text/css">
	.st0{fill:#C1C0C0;}
	.st1{fill:none;}
</style>
<g id="Links_icon" transform="translate(-1039.06 -799.754)">
	<g id="Ellipse_30" transform="translate(1056.174 799.754)">
		<g>
			<path class="st0" d="M7.6,3.4c0-0.1,0-0.2-0.1-0.4c0-0.1,0-0.3-0.1-0.4c0-0.1-0.1-0.2-0.1-0.4c0-0.1-0.1-0.2-0.2-0.3
				C7.1,1.9,7,1.8,7,1.7C6.8,1.5,6.7,1.4,6.6,1.3C6.5,1.1,6.4,1,6.2,0.9C6.1,0.8,6.1,0.7,6,0.7C5.9,0.6,5.8,0.6,5.7,0.5
				C5.5,0.4,5.4,0.3,5.2,0.3C5.1,0.2,5.1,0.2,5,0.2c0,0-0.1,0-0.1,0c-0.1,0-0.2,0-0.3-0.1c-0.1,0-0.2,0-0.2,0C4.3,0,4.2,0,4.1,0
				C4,0,3.9,0,3.8,0S3.6,0,3.5,0c-0.1,0-0.2,0-0.2,0c-0.1,0-0.2,0-0.2,0c-0.1,0-0.2,0-0.3,0.1c0,0,0,0-0.1,0c-0.1,0-0.2,0.1-0.3,0.1
				C2.2,0.3,2.1,0.4,1.9,0.5C1.8,0.6,1.7,0.6,1.6,0.7C1.6,0.7,1.5,0.8,1.4,0.9C1.3,0.9,1.2,1,1.1,1.1C0.4,1.8,0,2.8,0,3.8
				C0,4.2,0.1,4.6,0.2,5c0,0.1,0.1,0.2,0.1,0.3c0.1,0.2,0.2,0.4,0.3,0.6c0,0-0.1,0-0.1,0.1l-11.7,11.8l0,0c-0.6-0.4-1.4-0.7-2.2-0.7
				c-1,0-2,0.4-2.7,1.1c-0.2,0.2-0.3,0.4-0.5,0.6c-0.4,0.6-0.7,1.3-0.7,2.1c0,0.8,0.2,1.5,0.7,2.1c0.2,0.3,0.4,0.6,0.7,0.8
				c0.7,0.5,1.5,0.9,2.4,0.9s1.8-0.3,2.4-0.9c0.1-0.1,0.2-0.2,0.3-0.3c0.7-0.7,1.1-1.6,1.1-2.7c0-0.8-0.2-1.5-0.6-2.1c0,0,0,0,0,0
				L1.6,7c0,0,0,0,0,0C1.7,7,1.8,7,1.9,7.1c0.3,0.2,0.6,0.3,0.9,0.4c0.1,0,0.2,0.1,0.3,0.1c0.1,0,0.3,0,0.4,0.1c0.1,0,0.3,0,0.4,0
				c1,0,2-0.4,2.7-1.1C6.7,6.3,6.8,6.1,7,5.9C7,5.8,7.1,5.7,7.1,5.6c0.1-0.1,0.1-0.2,0.2-0.3s0.1-0.2,0.1-0.3c0-0.1,0.1-0.2,0.1-0.4
				c0-0.1,0-0.2,0.1-0.4c0-0.1,0-0.3,0-0.4C7.6,3.7,7.6,3.5,7.6,3.4z M-13.3,23.2c-1.3,0-2.3-1-2.3-2.3c0-1.3,1-2.3,2.3-2.3
				c1.3,0,2.3,1,2.3,2.3C-11,22.2-12,23.2-13.3,23.2z M3.8,6.1c-1.3,0-2.3-1-2.3-2.3c0-1.3,1-2.3,2.3-2.3c1.3,0,2.3,1,2.3,2.3
				C6.1,5.1,5.1,6.1,3.8,6.1z"/>
		</g>
	</g>
	<g id="Ellipse_31" transform="translate(1039.06 816.868)">
		<g>
			<path class="st1" d="M0.7,5.9c0.2,0.3,0.4,0.6,0.7,0.8C1.1,6.5,0.9,6.2,0.7,5.9z"/>
		</g>
	</g>
</g>
</svg>
