<?xml version="1.0" encoding="utf-8"?>
<!-- Generator: Adobe Illustrator 21.0.0, SVG Export Plug-In . SVG Version: 6.00 Build 0)  -->
<svg version="1.1" id="Layer_1" xmlns="http://www.w3.org/2000/svg" xmlns:xlink="http://www.w3.org/1999/xlink" x="0px" y="0px"
	 viewBox="0 0 44.9 55.7" style="enable-background:new 0 0 44.9 55.7;" xml:space="preserve">
<style type="text/css">
	.st0{fill:#684A80;}
	.st1{fill:#E3E6F1;}
	.st2{fill:#49D1E1;}
</style>
<g id="Group_2254" transform="translate(1 10.317)">
	<path id="Path_1162" class="st0" d="M43.9,12.1c0-12.4-10.1-22.5-22.5-22.5C9-10.3-1-0.3-1,12.2c0,9,5.4,17.2,13.7,20.7l6.8,11.5
		c0.7,1.1,2.1,1.4,3.1,0.7c0.3-0.2,0.5-0.4,0.7-0.7l6.8-11.5C38.5,29.3,43.9,21.2,43.9,12.1z"/>
	<circle id="Ellipse_508" class="st1" cx="21.5" cy="12.3" r="18.7"/>
</g>
<g id="Group_2255" transform="translate(15.709 15.865)">
	<path id="Path_1163" class="st2" d="M6.7,13.5C3,13.5,0,10.5,0,6.8S3,0,6.7,0s6.8,3,6.8,6.8C13.5,10.5,10.5,13.5,6.7,13.5z
		 M6.7,1.6c-2.8,0-5.2,2.3-5.2,5.2S3.8,12,6.7,12s5.2-2.3,5.2-5.2l0,0C11.9,3.9,9.6,1.6,6.7,1.6z"/>
</g>
</svg>
