<?xml version="1.0" encoding="utf-8"?>
<!-- Generator: Adobe Illustrator 21.0.0, SVG Export Plug-In . SVG Version: 6.00 Build 0)  -->
<svg version="1.1" id="Layer_1" xmlns="http://www.w3.org/2000/svg" xmlns:xlink="http://www.w3.org/1999/xlink" x="0px" y="0px"
	 viewBox="0 0 21.7 21.7" style="enable-background:new 0 0 21.7 21.7;" xml:space="preserve">
<style type="text/css">
	.st0{fill:#374775;}
</style>
<g>
	<path class="st0" d="M11.2,0.2C11.1,0.1,11,0,10.8,0c-0.1,0-0.3,0.1-0.4,0.2L7.7,3c-0.2,0.2-0.2,0.5,0,0.7s0.5,0.2,0.7,0l2-2v2.6
		c0,0.3,0.2,0.5,0.5,0.5s0.5-0.2,0.5-0.5V1.7l2,2c0.1,0.1,0.2,0.1,0.4,0.1s0.3,0,0.4-0.1c0.2-0.2,0.2-0.5,0-0.7L11.2,0.2z"/>
	<path class="st0" d="M13.3,18l-2,2v-2.6c0-0.3-0.2-0.5-0.5-0.5s-0.5,0.2-0.5,0.5V20l-2-2c-0.2-0.2-0.5-0.2-0.7,0s-0.2,0.5,0,0.7
		l2.8,2.8c0,0,0.1,0.1,0.1,0.1c0,0,0,0,0,0c0.1,0,0.1,0,0.2,0c0.1,0,0.1,0,0.2,0c0.1,0,0.1-0.1,0.1-0.1c0,0,0,0,0,0l0,0c0,0,0,0,0,0
		l2.8-2.8c0.2-0.2,0.2-0.5,0-0.7S13.5,17.8,13.3,18z"/>
	<path class="st0" d="M4.3,10.4C4.3,10.4,4.3,10.4,4.3,10.4l-1.5,0l-1.1,0l2-2c0.2-0.2,0.2-0.5,0-0.7S3.2,7.5,3,7.7l-2.8,2.8
		C0.1,10.6,0,10.7,0,10.8C0,10.9,0,11,0,11c0,0.1,0.1,0.1,0.1,0.2L3,14c0.1,0.1,0.2,0.1,0.4,0.1s0.3,0,0.4-0.1
		c0.2-0.2,0.2-0.5,0-0.7l-2-2l1,0l1.5,0c0.3,0,0.5-0.2,0.5-0.5C4.8,10.6,4.6,10.4,4.3,10.4z"/>
	<path class="st0" d="M21.7,10.8c0-0.1-0.1-0.3-0.2-0.4l-2.8-2.8c-0.2-0.2-0.5-0.2-0.7,0s-0.2,0.5,0,0.7l2,2l-1,0l-1.5,0
		c-0.3,0-0.5,0.2-0.5,0.5c0,0.3,0.2,0.5,0.5,0.5l1.5,0l1.1,0l-2,2c-0.2,0.2-0.2,0.5,0,0.7c0.1,0.1,0.2,0.1,0.4,0.1s0.3,0,0.4-0.1
		l2.8-2.8c0,0,0.1-0.1,0.1-0.2C21.7,11,21.7,10.9,21.7,10.8z"/>
</g>
</svg>
