<?xml version="1.0" encoding="utf-8"?>
<!-- Generator: Adobe Illustrator 21.0.0, SVG Export Plug-In . SVG Version: 6.00 Build 0)  -->
<svg version="1.1" id="Layer_1" xmlns="http://www.w3.org/2000/svg" xmlns:xlink="http://www.w3.org/1999/xlink" x="0px" y="0px"
	 viewBox="0 0 24.4 24.4" style="enable-background:new 0 0 24.4 24.4;" xml:space="preserve">
<style type="text/css">
	.st0{fill:#C1C0C0;}
</style>
<g>
	<path class="st0" d="M0.8,7.8c0.4,0,0.8-0.3,0.8-0.8V2.6l2.9,2.9c0.1,0.1,0.3,0.2,0.5,0.2s0.4-0.1,0.5-0.2c0.3-0.3,0.3-0.8,0-1.1
		L2.6,1.5H7c0.4,0,0.8-0.3,0.8-0.8S7.4,0,7,0H0.8C0.7,0,0.6,0,0.5,0.1C0.3,0.1,0.1,0.3,0.1,0.5C0,0.6,0,0.7,0,0.7V7
		C0,7.4,0.3,7.8,0.8,7.8z"/>
	<path class="st0" d="M7,22.9H2.6L5.5,20c0.3-0.3,0.3-0.8,0-1.1s-0.8-0.3-1.1,0l-2.9,2.9v-4.4c0-0.4-0.3-0.8-0.8-0.8S0,17,0,17.4
		v6.3c0,0.1,0,0.2,0.1,0.3c0.1,0.2,0.2,0.3,0.4,0.4c0.1,0,0.2,0.1,0.3,0.1H7c0.4,0,0.8-0.3,0.8-0.8S7.4,22.9,7,22.9z"/>
	<path class="st0" d="M23.6,16.6c-0.4,0-0.8,0.3-0.8,0.8v4.4L20,18.9c-0.3-0.3-0.8-0.3-1.1,0s-0.3,0.8,0,1.1l2.9,2.9h-4.4
		c-0.4,0-0.8,0.3-0.8,0.8s0.3,0.8,0.8,0.8h6.3c0.1,0,0.2,0,0.3-0.1c0.2-0.1,0.3-0.2,0.4-0.4c0-0.1,0.1-0.2,0.1-0.3v-6.3
		C24.4,17,24,16.6,23.6,16.6z"/>
	<path class="st0" d="M24.3,0.5c-0.1-0.2-0.2-0.3-0.4-0.4C23.8,0,23.7,0,23.6,0h-6.3c-0.4,0-0.8,0.3-0.8,0.8s0.3,0.8,0.8,0.8h4.4
		l-2.9,2.9c-0.3,0.3-0.3,0.8,0,1.1c0.1,0.1,0.3,0.2,0.5,0.2c0.2,0,0.4-0.1,0.5-0.2l2.9-2.9V7c0,0.4,0.3,0.8,0.8,0.8s0.8-0.3,0.8-0.8
		V0.7c0,0,0,0,0,0C24.4,0.7,24.3,0.6,24.3,0.5z"/>
	<path class="st0" d="M19.8,11c0-4.1-3.3-7.5-7.5-7.6h-0.1c-4.2,0-7.6,3.4-7.6,7.5c0,3.2,1.9,6,4.7,7.1l2.3,4.1c0.3,0.5,1,0.5,1.2,0
		l2.3-4.1C17.8,16.8,19.8,14.1,19.8,11z M14.5,16.6L14,16.8l-1.8,3.3l-1.8-3.3l-0.5-0.2c-1.1-0.4-2.1-1.2-2.8-2.2
		c-0.7-1-1.1-2.2-1.1-3.5c0-3.3,2.8-6,6.1-6h0.1c1.6,0,3.1,0.7,4.3,1.8c1.1,1.1,1.8,2.7,1.8,4.3C18.3,13.4,16.8,15.6,14.5,16.6z"/>
	<path class="st0" d="M12.3,7.5C10.5,7.5,9,9,9,10.8c0,1.8,1.5,3.3,3.3,3.3s3.3-1.5,3.3-3.3C15.6,9,14.1,7.5,12.3,7.5z M12.3,12.6
		c-1,0-1.8-0.8-1.8-1.8c0-1,0.8-1.8,1.8-1.8s1.8,0.8,1.8,1.8C14.1,11.8,13.3,12.6,12.3,12.6z"/>
</g>
</svg>
