<?xml version="1.0" encoding="utf-8"?>
<!-- Generator: Adobe Illustrator 21.0.0, SVG Export Plug-In . SVG Version: 6.00 Build 0)  -->
<svg version="1.1" id="Layer_1" xmlns="http://www.w3.org/2000/svg" xmlns:xlink="http://www.w3.org/1999/xlink" x="0px" y="0px"
	 viewBox="0 0 24.3 24.3" style="enable-background:new 0 0 24.3 24.3;" xml:space="preserve">
<style type="text/css">
	.st0{fill:#C1C0C0;}
</style>
<path class="st0" d="M12.4,0c-0.4,0-0.8,0.3-0.8,0.8s0.3,0.8,0.8,0.8h9.4l-6.1,6.1c0,0,0,0,0,0L1.5,21.7v-9.4c0-0.4-0.3-0.8-0.8-0.8
	S0,11.9,0,12.4v11.9h11.9c0.4,0,0.8-0.3,0.8-0.8s-0.3-0.8-0.8-0.8H2.6l6.1-6.1c0,0,0,0,0,0L22.8,2.6v9.4c0,0.4,0.3,0.8,0.8,0.8
	s0.8-0.3,0.8-0.8V0H12.4z"/>
</svg>
