<?xml version="1.0" encoding="utf-8"?>
<!-- Generator: Adobe Illustrator 21.0.0, SVG Export Plug-In . SVG Version: 6.00 Build 0)  -->
<svg version="1.1" id="Nodes_icon" xmlns="http://www.w3.org/2000/svg" xmlns:xlink="http://www.w3.org/1999/xlink" x="0px" y="0px"
	 viewBox="0 0 24.9 31.3" style="enable-background:new 0 0 24.9 31.3;" xml:space="preserve">
<style type="text/css">
	.st0{fill:#C1C0C0;}
</style>
<g>
	<path class="st0" d="M12.6,0c-0.1,0-0.1,0-0.2,0C5.7,0,0.1,5.5,0,12.3c0,5.3,3.2,9.8,7.8,11.6l3.7,6.7c0.4,0.8,1.6,0.8,2,0l3.7-6.8
		c4.5-1.9,7.6-6.3,7.6-11.5C24.9,5.6,19.4,0.1,12.6,0z M16.7,22.5l-0.5,0.2l-3.7,6.7l-3.7-6.7l-0.5-0.2c-2-0.8-3.7-2.2-4.9-4
		c-1.3-1.8-1.9-4-1.9-6.2c0-6,5-10.8,10.9-10.8h0c0,0,0.1,0,0.1,0c2.9,0,5.6,1.2,7.6,3.2c2,2.1,3.2,4.8,3.2,7.7
		c0,2.2-0.7,4.3-1.9,6.1C20.3,20.3,18.6,21.7,16.7,22.5z"/>
	<path class="st0" d="M12.4,9.1c-0.4,0-0.8,0.3-0.8,0.8v10.1c0,0.4,0.3,0.8,0.8,0.8s0.7-0.3,0.7-0.8V9.8C13.2,9.4,12.9,9.1,12.4,9.1
		z"/>
	<circle class="st0" cx="12.4" cy="6" r="1"/>
</g>
</svg>
