<?xml version="1.0" encoding="utf-8"?>
<!-- Generator: Adobe Illustrator 21.0.0, SVG Export Plug-In . SVG Version: 6.00 Build 0)  -->
<svg version="1.1" id="Layer_1" xmlns="http://www.w3.org/2000/svg" xmlns:xlink="http://www.w3.org/1999/xlink" x="0px" y="0px"
	 viewBox="0 0 24.9 24.9" style="enable-background:new 0 0 24.9 24.9;" xml:space="preserve">
<style type="text/css">
	.st0{fill:#C1C0C0;}
</style>
<g>
	<path class="st0" d="M7.3,0H1C0.4,0,0,0.4,0,1v6.3c0,0.6,0.4,1,1,1s1-0.4,1-1V2h5.3c0.6,0,1-0.4,1-1S7.8,0,7.3,0z"/>
	<path class="st0" d="M7.3,22.9H2v-5.3c0-0.6-0.4-1-1-1s-1,0.4-1,1v6.3c0,0.6,0.4,1,1,1h6.3c0.6,0,1-0.4,1-1S7.8,22.9,7.3,22.9z"/>
	<path class="st0" d="M23.9,0h-6.3c-0.6,0-1,0.4-1,1s0.4,1,1,1h5.3v5.3c0,0.6,0.4,1,1,1s1-0.4,1-1V1C24.9,0.4,24.4,0,23.9,0z"/>
	<path class="st0" d="M23.9,16.6c-0.6,0-1,0.4-1,1v5.3h-5.3c-0.6,0-1,0.4-1,1s0.4,1,1,1h6.3c0.6,0,1-0.4,1-1v-6.3
		C24.9,17.1,24.4,16.6,23.9,16.6z"/>
</g>
</svg>
