<!-- Generated by IcoMoon.io -->
<svg version="1.1" xmlns="http://www.w3.org/2000/svg" width="32" height="32" viewBox="0 0 32 32">
<path fill="#c1c0c0" d="M1.045 10.188c0.522 0 1.045-0.392 1.045-1.045v-5.747l3.788 3.788c0.131 0.131 0.392 0.261 0.653 0.261s0.522-0.131 0.653-0.261c0.392-0.392 0.392-1.045 0-1.437l-3.788-3.788h5.747c0.522 0 1.045-0.392 1.045-1.045s-0.522-0.914-1.045-0.914h-8.098c-0.131 0-0.261 0-0.392 0.131-0.261 0-0.522 0.261-0.522 0.522-0.131 0.131-0.131 0.261-0.131 0.261v8.229c0 0.522 0.392 1.045 1.045 1.045z"></path>
<path fill="#c1c0c0" d="M9.143 29.91h-5.747l3.788-3.788c0.392-0.392 0.392-1.045 0-1.437s-1.045-0.392-1.437 0l-3.788 3.788v-5.747c0-0.522-0.392-1.045-1.045-1.045s-0.914 0.522-0.914 1.045v8.229c0 0.131 0 0.261 0.131 0.392 0.131 0.261 0.261 0.392 0.522 0.522 0.131 0 0.261 0.131 0.392 0.131h8.098c0.522 0 1.045-0.392 1.045-1.045s-0.522-1.045-1.045-1.045z"></path>
<path fill="#c1c0c0" d="M30.824 21.682c-0.522 0-1.045 0.392-1.045 1.045v5.747l-3.657-3.788c-0.392-0.392-1.045-0.392-1.437 0s-0.392 1.045 0 1.437l3.788 3.788h-5.747c-0.522 0-1.045 0.392-1.045 1.045s0.392 1.045 1.045 1.045h8.229c0.131 0 0.261 0 0.392-0.131 0.261-0.131 0.392-0.261 0.522-0.522 0-0.131 0.131-0.261 0.131-0.392v-8.229c-0.131-0.522-0.653-1.045-1.175-1.045z"></path>
<path fill="#c1c0c0" d="M31.739 0.653c-0.131-0.261-0.261-0.392-0.522-0.522-0.131-0.131-0.261-0.131-0.392-0.131h-8.229c-0.522 0-1.045 0.392-1.045 1.045s0.392 1.045 1.045 1.045h5.747l-3.788 3.788c-0.392 0.392-0.392 1.045 0 1.437 0.131 0.131 0.392 0.261 0.653 0.261s0.522-0.131 0.653-0.261l3.788-3.788v5.616c0 0.522 0.392 1.045 1.045 1.045s1.045-0.392 1.045-1.045v-8.229c0 0 0 0 0 0 0.131 0 0-0.131 0-0.261z"></path>
<path fill="#c1c0c0" d="M25.861 14.367c0-5.355-4.31-9.796-9.796-9.927h-0.131c-5.486 0-9.927 4.441-9.927 9.796 0 4.18 2.482 7.837 6.139 9.273l3.004 5.355c0.392 0.653 1.306 0.653 1.567 0l3.004-5.355c3.526-1.567 6.139-5.094 6.139-9.143zM18.939 21.682l-0.653 0.261-2.351 4.31-2.351-4.31-0.653-0.261c-1.437-0.522-2.743-1.567-3.657-2.873s-1.437-2.873-1.437-4.571c0-4.31 3.657-7.837 7.967-7.837h0.131c2.090 0 4.049 0.914 5.616 2.351 1.437 1.437 2.351 3.527 2.351 5.616 0 3.135-1.959 6.008-4.963 7.314z"></path>
<path fill="#c1c0c0" d="M16.065 9.796c-2.351 0-4.31 1.959-4.31 4.31s1.959 4.31 4.31 4.31 4.31-1.959 4.31-4.31c0-2.351-1.959-4.31-4.31-4.31zM16.065 16.457c-1.306 0-2.351-1.045-2.351-2.351s1.045-2.351 2.351-2.351 2.351 1.045 2.351 2.351c0 1.306-1.045 2.351-2.351 2.351z"></path>
</svg>
