<!-- Generated by IcoMoon.io -->
<svg version="1.1" xmlns="http://www.w3.org/2000/svg" width="32" height="32" viewBox="0 0 32 32">
<path fill="#684a80" d="M28.909 12.908c0-7.129-5.78-12.908-12.909-12.908s-12.909 5.779-12.909 12.909c0 5.313 3.209 9.876 7.795 11.856l0.084 0.032 3.929 6.595c0.235 0.367 0.641 0.607 1.103 0.607s0.868-0.24 1.099-0.602l0.003-0.005 3.929-6.595c4.668-2.013 7.876-6.576 7.876-11.887 0-0.001 0-0.001 0-0.002v0z"></path>
<path fill="#e3e6f1" d="M26.359 12.906c0 5.72-4.637 10.357-10.357 10.357s-10.357-4.637-10.357-10.357c0-5.72 4.637-10.357 10.357-10.357s10.357 4.637 10.357 10.357z"></path>
<path fill="#49d1e1" d="M16.002 21.899c-4.966 0-8.992-4.026-8.992-8.992s4.026-8.992 8.992-8.992c4.966 0 8.992 4.026 8.992 8.992v0c-0.006 4.964-4.028 8.986-8.991 8.992h-0.001zM16.002 6.034c-3.796 0-6.873 3.077-6.873 6.873s3.077 6.873 6.873 6.873c3.796 0 6.873-3.077 6.873-6.873v0c-0.004-3.794-3.079-6.868-6.872-6.873v0z"></path>
</svg>
