<!-- Generated by IcoMoon.io -->
<svg version="1.1" xmlns="http://www.w3.org/2000/svg" width="32" height="32" viewBox="0 0 32 32">
<path d="M0.187 30.71v-26.923l9.987-3.412 9.987 3.495 9.987-3.87v16.479c-0.416-0.638-0.909-1.221-1.478-1.748s-1.186-0.985-1.851-1.373v-8.489l-4.994 1.914v5.243c-0.583 0-1.151 0.049-1.706 0.146s-1.096 0.243-1.623 0.436v-5.826l-6.658-2.33v21.763l-11.651 4.494zM3.516 25.841l4.994-1.914v-19.475l-4.994 1.665v19.724zM21.826 25.342c0.943 0 1.727-0.277 2.352-0.832s0.95-1.387 0.977-2.497c0.028-0.943-0.284-1.734-0.935-2.372s-1.449-0.957-2.394-0.957c-0.944 0-1.735 0.319-2.372 0.957s-0.956 1.429-0.957 2.372c-0.001 0.943 0.318 1.734 0.957 2.372s1.43 0.957 2.372 0.957zM21.826 28.671c-1.831 0-3.398-0.652-4.702-1.956s-1.956-2.871-1.956-4.702c0-1.831 0.652-3.398 1.956-4.702s2.871-1.956 4.702-1.956c1.831 0 3.398 0.652 4.702 1.956s1.956 2.871 1.956 4.702c0 0.638-0.076 1.242-0.228 1.811s-0.381 1.103-0.687 1.601l4.244 4.244-2.33 2.33-4.244-4.244c-0.499 0.305-1.033 0.534-1.601 0.687s-1.172 0.229-1.811 0.228z"></path>
</svg>
