<!-- Generated by IcoMoon.io -->
<svg version="1.1" xmlns="http://www.w3.org/2000/svg" width="35" height="32" viewBox="0 0 35 32">
<path fill="#f88" d="M1.316 1.323h10.925v6.976h-10.925v-6.976z"></path>
<path fill="#f88" d="M1.316 15.276h10.925v6.318h-10.925v-6.318z"></path>
<path fill="#fff" d="M1.316 8.3h10.925v6.976h-10.925v-6.976z"></path>
<path fill="#f88" d="M33.829 15.276v2.764c0 1.974-1.58 3.554-3.554 3.554h-6.845v-6.318h10.399z"></path>
<path fill="#fff" d="M12.241 15.276h10.925v6.318h-10.925v-6.318z"></path>
<path fill="#f88" d="M33.829 4.877v3.422h-10.53v-6.976h6.845c1.974 0 3.554 1.58 3.686 3.554z"></path>
<path fill="#fff" d="M12.241 1.323h10.925v6.976h-10.925v-6.976z"></path>
<path fill="#fff" d="M23.298 8.3h10.53v6.976h-10.53v-6.976z"></path>
<path fill="#f88" d="M12.241 8.3h10.925v6.976h-10.925v-6.976z"></path>
<path fill="#f88" d="M29.748 0.402h-27.642c-0.132-0.263-0.527-0.395-0.79-0.395s-0.658 0.132-0.79 0.395h-0.132v0.132c-0.263 0.132-0.395 0.527-0.395 0.79v29.353c0 0.79 0.527 1.316 1.316 1.316s1.316-0.527 1.316-1.316v-8.161h27.116c2.764 0 5.002-2.238 5.002-4.87v-12.373c0-2.764-2.238-4.87-5.002-4.87zM32.776 17.645c0 1.58-1.316 3.027-3.027 3.027h-27.116v-18.296h27.116c1.58 0 3.027 1.316 3.027 3.027v12.241z"></path>
</svg>
