<!-- Generated by IcoMoon.io -->
<svg version="1.1" xmlns="http://www.w3.org/2000/svg" width="32" height="32" viewBox="0 0 32 32">
<path fill="#c1c0c0" d="M32 4.498c0-0.129 0-0.257-0.129-0.514 0-0.129 0-0.386-0.129-0.514 0-0.129-0.129-0.257-0.129-0.514 0-0.129-0.129-0.257-0.257-0.386 0 0-0.129-0.129-0.129-0.257-0.257-0.257-0.386-0.386-0.514-0.514-0.129-0.257-0.257-0.386-0.514-0.514-0.129-0.129-0.129-0.257-0.257-0.257-0.129-0.129-0.257-0.129-0.386-0.257-0.257-0.129-0.386-0.257-0.643-0.257-0.129-0.129-0.129-0.129-0.257-0.129 0 0-0.129 0-0.129 0-0.129 0-0.257 0-0.386-0.129-0.129 0-0.257 0-0.257 0-0.129-0.129-0.257-0.129-0.386-0.129s-0.257 0-0.386 0-0.257 0-0.386 0-0.257 0-0.257 0-0.257 0-0.257 0-0.257 0-0.386 0.129c0 0 0 0-0.129 0s-0.257 0.129-0.386 0.129-0.386 0.257-0.643 0.386c-0.129 0.129-0.257 0.129-0.386 0.257 0 0-0.129 0.129-0.257 0.257-0.129 0-0.257 0.129-0.386 0.257-0.9 0.9-1.414 2.185-1.414 3.47 0 0.514 0.129 1.028 0.257 1.542 0 0.129 0.129 0.257 0.129 0.386 0.129 0.257 0.257 0.514 0.386 0.771 0 0-0.129 0-0.129 0.129l-15.036 15.165c-0.771-0.514-1.799-0.9-2.827-0.9-1.285 0-2.57 0.514-3.47 1.414-0.257 0.257-0.386 0.514-0.643 0.771-0.514 0.771-0.9 1.671-0.9 2.699s0.257 1.928 0.9 2.699c0.257 0.386 0.514 0.771 0.9 1.028 0.9 0.643 1.928 1.157 3.084 1.157s2.313-0.386 3.084-1.157c0.129-0.129 0.257-0.257 0.386-0.386 0.9-0.9 1.414-2.056 1.414-3.47 0-1.028-0.257-1.928-0.771-2.699 0 0 0 0 0 0l15.293-15.036c0 0 0 0 0 0 0.129 0 0.257 0 0.386 0.129 0.386 0.257 0.771 0.386 1.157 0.514 0.129 0 0.257 0.129 0.386 0.129s0.386 0 0.514 0.129c0.129 0 0.386 0 0.514 0 1.285 0 2.57-0.514 3.47-1.414 0.129-0.386 0.257-0.643 0.514-0.9 0-0.129 0.129-0.257 0.129-0.386 0.129-0.129 0.129-0.257 0.257-0.386s0.129-0.257 0.129-0.386c0-0.129 0.129-0.257 0.129-0.514 0-0.129 0-0.257 0.129-0.514 0-0.129 0-0.386 0-0.514s0-0.386 0-0.514zM5.14 29.944c-1.671 0-2.956-1.285-2.956-2.956s1.285-2.956 2.956-2.956c1.671 0 2.956 1.285 2.956 2.956s-1.285 2.956-2.956 2.956zM27.116 7.968c-1.671 0-2.956-1.285-2.956-2.956s1.285-2.956 2.956-2.956c1.671 0 2.956 1.285 2.956 2.956s-1.285 2.956-2.956 2.956z"></path>
</svg>
