<!-- Generated by IcoMoon.io -->
<svg version="1.1" xmlns="http://www.w3.org/2000/svg" width="32" height="32" viewBox="0 0 32 32">
<path fill="#c1c0c0" d="M16.262 0.066c-0.525 0-1.049 0.393-1.049 1.049s0.393 1.049 1.049 1.049h12.328l-8 8c0 0 0 0 0 0l-18.623 18.361v-12.328c0-0.525-0.393-1.049-1.049-1.049s-0.918 0.525-0.918 1.18v15.607h15.607c0.525 0 1.049-0.393 1.049-1.049s-0.393-1.049-1.049-1.049h-12.197l8-8c0 0 0 0 0 0l18.492-18.361v12.328c0 0.525 0.393 1.049 1.049 1.049s1.049-0.393 1.049-1.049v-15.738h-15.738z"></path>
</svg>
