<!-- Generated by IcoMoon.io -->
<svg version="1.1" xmlns="http://www.w3.org/2000/svg" width="32" height="32" viewBox="0 0 32 32">
<path fill="#374775" d="M28.879 12.879c0-7.108-5.771-12.879-12.879-12.879s-12.879 5.771-12.879 12.879c0 5.208 3.097 9.853 7.883 11.894l3.941 6.616c0.352 0.633 1.196 0.774 1.83 0.422 0.141-0.070 0.282-0.211 0.422-0.422l3.941-6.616c4.645-2.041 7.742-6.686 7.742-11.894z"></path>
<path fill="#e3e6f1" d="M26.346 12.879c0 5.714-4.632 10.346-10.346 10.346s-10.346-4.632-10.346-10.346c0-5.714 4.632-10.346 10.346-10.346s10.346 4.632 10.346 10.346z"></path>
<path fill="#58cc87" d="M15.966 21.854c-4.927 0-8.938-4.012-8.938-9.009s4.012-8.938 8.938-8.938c4.927 0 8.938 4.012 8.938 8.938 0.070 4.997-3.941 9.009-8.938 9.009zM15.966 6.018c-3.73 0-6.827 3.097-6.827 6.827 0 3.8 3.097 6.827 6.827 6.827 3.8 0 6.827-3.097 6.827-6.827v0c0.070-3.73-3.026-6.827-6.827-6.827z"></path>
</svg>
