<!-- Generated by IcoMoon.io -->
<svg version="1.1" xmlns="http://www.w3.org/2000/svg" width="32" height="32" viewBox="0 0 32 32">
<path fill="#c1c0c0" d="M16.204 0c-0.103 0-0.103 0-0.205 0-6.872 0-12.615 5.641-12.718 12.615 0 5.436 3.282 10.051 8 11.897l3.795 6.872c0.41 0.821 1.641 0.821 2.051 0l3.795-6.974c4.615-1.949 7.795-6.462 7.795-11.795 0.103-6.872-5.538-12.513-12.513-12.615zM20.41 23.077l-0.513 0.205-3.795 6.872-3.795-6.872-0.513-0.205c-2.051-0.821-3.795-2.256-5.026-4.103-1.333-1.846-1.949-4.103-1.949-6.359 0-6.154 5.128-11.077 11.18-11.077v0c0 0 0.103 0 0.103 0 2.974 0 5.744 1.231 7.795 3.282 2.051 2.154 3.282 4.923 3.282 7.897 0 2.256-0.718 4.41-1.949 6.256-1.128 1.846-2.872 3.282-4.821 4.103z"></path>
<path fill="#c1c0c0" d="M15.999 9.333c-0.41 0-0.821 0.308-0.821 0.821v10.359c0 0.41 0.308 0.821 0.821 0.821s0.718-0.308 0.718-0.821v-10.462c0.103-0.41-0.205-0.718-0.718-0.718z"></path>
<path fill="#c1c0c0" d="M17.025 6.154c0 0.566-0.459 1.026-1.026 1.026s-1.026-0.459-1.026-1.026c0-0.566 0.459-1.026 1.026-1.026s1.026 0.459 1.026 1.026z"></path>
</svg>
