<!-- Generated by IcoMoon.io -->
<svg version="1.1" xmlns="http://www.w3.org/2000/svg" width="32" height="32" viewBox="0 0 32 32">
<path fill="#374775" d="M16.44 0.44c-0.147-0.147-0.294-0.294-0.587-0.294-0.147 0-0.44 0.147-0.587 0.294l-3.963 4.11c-0.294 0.294-0.294 0.734 0 1.027s0.734 0.294 1.027 0l2.936-2.936v3.816c0 0.44 0.294 0.734 0.734 0.734s0.734-0.294 0.734-0.734v-3.817l2.936 2.936c0.147 0.147 0.294 0.147 0.587 0.147s0.44 0 0.587-0.147c0.294-0.294 0.294-0.734 0-1.027l-4.404-4.11z"></path>
<path fill="#374775" d="M19.523 26.569l-2.936 2.936v-3.817c0-0.44-0.294-0.734-0.734-0.734s-0.734 0.294-0.734 0.734v3.817l-2.936-2.936c-0.294-0.294-0.734-0.294-1.027 0s-0.294 0.734 0 1.027l4.11 4.11c0 0 0.147 0.147 0.147 0.147s0 0 0 0c0.147 0 0.147 0 0.294 0s0.147 0 0.294 0 0.147-0.147 0.147-0.147c0 0 0 0 0 0v0c0 0 0 0 0 0l4.11-4.11c0.294-0.294 0.294-0.734 0-1.027s-0.44-0.294-0.734 0z"></path>
<path fill="#374775" d="M6.312 15.413c0 0 0 0 0 0h-3.817l2.936-2.936c0.294-0.294 0.294-0.734 0-1.027s-0.734-0.294-1.027 0l-4.11 4.11c-0.147 0.147-0.294 0.294-0.294 0.44s0 0.294 0 0.294 0.147 0.147 0.147 0.294l4.257 4.11c0.147 0.147 0.294 0.147 0.587 0.147s0.44 0 0.587-0.147c0.294-0.294 0.294-0.734 0-1.027l-2.936-2.936h3.67c0.44 0 0.734-0.294 0.734-0.734 0-0.294-0.294-0.587-0.734-0.587z"></path>
<path fill="#374775" d="M31.853 16c0-0.147-0.147-0.44-0.294-0.587l-4.11-4.11c-0.294-0.294-0.734-0.294-1.027 0s-0.294 0.734 0 1.027l2.936 2.936h-3.67c-0.44 0-0.734 0.294-0.734 0.734s0.294 0.734 0.734 0.734h3.817l-2.936 2.936c-0.294 0.294-0.294 0.734 0 1.027 0.147 0.147 0.294 0.147 0.587 0.147s0.44 0 0.587-0.147l4.11-4.11c0 0 0.147-0.147 0.147-0.294-0.147 0-0.147-0.147-0.147-0.294z"></path>
</svg>
