<!-- Generated by IcoMoon.io -->
<svg version="1.1" xmlns="http://www.w3.org/2000/svg" width="32" height="32" viewBox="0 0 32 32">
<path d="M9.381 0h-8.096c-0.771 0-1.285 0.514-1.285 1.285v8.096c0 0.771 0.514 1.285 1.285 1.285s1.285-0.514 1.285-1.285v-6.811h6.811c0.771 0 1.285-0.514 1.285-1.285s-0.643-1.285-1.285-1.285z"></path>
<path d="M9.381 29.43h-6.811v-6.811c0-0.771-0.514-1.285-1.285-1.285s-1.285 0.514-1.285 1.285v8.096c0 0.771 0.514 1.285 1.285 1.285h8.096c0.771 0 1.285-0.514 1.285-1.285s-0.643-1.285-1.285-1.285z"></path>
<path d="M30.715 0h-8.096c-0.771 0-1.285 0.514-1.285 1.285s0.514 1.285 1.285 1.285h6.811v6.811c0 0.771 0.514 1.285 1.285 1.285s1.285-0.514 1.285-1.285v-8.096c0-0.771-0.643-1.285-1.285-1.285z"></path>
<path d="M30.715 21.333c-0.771 0-1.285 0.514-1.285 1.285v6.811h-6.811c-0.771 0-1.285 0.514-1.285 1.285s0.514 1.285 1.285 1.285h8.096c0.771 0 1.285-0.514 1.285-1.285v-8.096c0-0.643-0.643-1.285-1.285-1.285z"></path>
</svg>
