<!-- Generated by IcoMoon.io -->
<svg version="1.1" xmlns="http://www.w3.org/2000/svg" width="32" height="32" viewBox="0 0 32 32">
<path fill="#374775" d="M28.857 12.886c0-7.101-5.784-12.886-12.886-12.886-7.101 0.057-12.828 5.784-12.828 12.943 0 5.154 3.093 9.85 7.846 11.855l3.894 6.586c0.401 0.63 1.203 0.802 1.775 0.401 0.172-0.115 0.286-0.229 0.401-0.401l3.894-6.586c4.811-2.062 7.903-6.7 7.903-11.912z"></path>
<path fill="#e3e6f1" d="M26.738 13c0 5.915-4.795 10.709-10.709 10.709s-10.709-4.795-10.709-10.709c0-5.915 4.795-10.709 10.709-10.709s10.709 4.795 10.709 10.709z"></path>
<path fill="#58cc87" d="M15.976 16.865c-2.119 0-3.837-1.718-3.837-3.837s1.718-3.894 3.837-3.894 3.894 1.718 3.894 3.894c0 2.119-1.718 3.837-3.894 3.837zM15.976 10.050c-1.604 0-2.978 1.317-2.978 2.978s1.317 2.978 2.978 2.978 2.978-1.317 2.978-2.978v0c0-1.661-1.317-2.978-2.978-2.978z"></path>
</svg>
