<!-- Generated by IcoMoon.io -->
<svg version="1.1" xmlns="http://www.w3.org/2000/svg" width="32" height="32" viewBox="0 0 32 32">
<path d="M31.929 7.545l-1.891-6.453-6.453 0.556c-0.445 0-0.779 0.445-0.779 0.89s0.445 0.779 0.89 0.779l3.894-0.334-4.561 6.564-4.116-2.781c-0.334-0.223-0.779-0.223-1.113 0.223l-5.674 7.676-5.229-3.449c-0.223-0.223-0.779-0.223-1.001 0.111l-5.674 6.008c-0.111 0.111-0.223 0.334-0.223 0.556 0 0.445 0.334 0.89 0.779 0.89 0.223 0 0.445-0.111 0.556-0.223l5.34-5.563 5.229 3.56c0.334 0.223 0.89 0.111 1.113-0.223l5.674-7.676 4.116 2.781c0.334 0.223 0.89 0.111 1.113-0.223l5.118-7.231 1.335 4.228c0.111 0.445 0.556 0.668 1.001 0.556 0 0 0 0 0 0 0.445-0.223 0.779-0.779 0.556-1.224z"></path>
<path d="M1.446 21.34c-0.445 0-0.89 0.334-0.89 0.89v7.788c0 0.445 0.334 0.89 0.89 0.89s0.779-0.445 0.779-0.89v-7.788c0-0.556-0.334-0.89-0.779-0.89z"></path>
<path d="M7.009 16.89c-0.445 0-0.89 0.334-0.89 0.89v12.238c0 0.445 0.334 0.89 0.89 0.89s0.779-0.445 0.779-0.89v-12.238c0-0.556-0.334-0.89-0.779-0.89z"></path>
<path d="M12.571 20.228c-0.445 0-0.89 0.334-0.89 0.89v8.344c0 0.445 0.334 0.89 0.89 0.89s0.779-0.445 0.779-0.89v-8.344c0-0.556-0.334-0.89-0.779-0.89z"></path>
<path d="M18.134 13.552c-0.445 0-0.89 0.334-0.89 0.89v15.019c0 0.445 0.334 0.89 0.89 0.89s0.779-0.445 0.779-0.89v-15.019c0-0.556-0.334-0.89-0.779-0.89z"></path>
<path d="M23.697 14.665c-0.445 0-0.89 0.334-0.89 0.89v13.906c0 0.445 0.334 0.89 0.89 0.89s0.779-0.445 0.779-0.89v-13.906c0-0.556-0.334-0.89-0.779-0.89z"></path>
<path d="M29.037 19.894v0c0 0 0 0 0 0 0.445 0 0.89-0.334 0.89-0.89v-0.111c0 0 0 0 0 0 0-0.445-0.334-0.779-0.89-0.779 0 0 0 0 0 0-0.445 0-0.779 0.334-0.779 0.89v0.111c0 0.445 0.334 0.779 0.779 0.779z"></path>
<path d="M29.148 26.791v0c0 0 0 0 0 0 0.445 0 0.89-0.334 0.89-0.89v-0.111c0 0 0 0 0 0 0-0.445-0.334-0.779-0.89-0.779 0 0 0 0 0 0-0.445 0-0.779 0.334-0.779 0.89v0.111c0 0.445 0.334 0.779 0.779 0.779z"></path>
<path d="M29.148 28.46c0 0 0 0 0 0-0.445 0-0.779 0.334-0.779 0.89v0.111c0 0.445 0.334 0.779 0.89 0.779v0c0 0 0 0 0 0 0.445 0 0.779-0.334 0.779-0.89v-0.111c0 0 0 0 0 0 0-0.445-0.334-0.779-0.89-0.779z"></path>
<path d="M29.148 23.343v0c0 0 0 0 0 0 0.445 0 0.89-0.334 0.89-0.89v-0.111c0 0 0 0 0 0 0-0.445-0.334-0.779-0.89-0.779 0 0 0 0 0 0-0.445 0-0.779 0.334-0.779 0.89v0.111c-0.111 0.445 0.223 0.779 0.779 0.779z"></path>
<path d="M28.925 12.996v0c0 0 0 0 0 0 0.445 0 0.89-0.334 0.89-0.89v0c0 0 0 0 0 0 0-0.445-0.334-0.779-0.89-0.779-0.445 0-0.779 0.334-0.779 0.89v0.111c0 0.334 0.334 0.668 0.779 0.668z"></path>
<path d="M29.037 16.445v0c0 0 0 0 0 0 0.445 0 0.89-0.334 0.89-0.89v-0.111c0 0 0 0 0 0 0-0.445-0.334-0.779-0.89-0.779 0 0 0 0 0 0-0.445 0-0.779 0.334-0.779 0.89v0.111c-0.111 0.445 0.334 0.779 0.779 0.779z"></path>
</svg>
