<!-- Generated by IcoMoon.io -->
<svg version="1.1" xmlns="http://www.w3.org/2000/svg" width="32" height="32" viewBox="0 0 32 32">
<path d="M23.135 0.27h-18.378c-2.378 0-4.216 1.838-4.216 4.216v7.459c0 0.432 0.324 0.865 0.865 0.865s0.757-0.432 0.757-0.865v-7.459c0-1.405 1.189-2.595 2.595-2.595h17.73l7.892 7.892v17.73c0 1.405-1.189 2.595-2.595 2.595h-23.027c-1.405 0-2.595-1.189-2.595-2.595v-7.459c0-0.432-0.324-0.865-0.865-0.865s-0.865 0.324-0.865 0.865v7.459c0 2.27 1.838 4.216 4.216 4.216h23.135c2.27 0 4.216-1.838 4.216-4.216v-18.378l-8.865-8.865z"></path>
<path d="M14.27 6.54c-0.324-0.324-0.865-0.324-1.189 0l-8.649 8.865c0 0 0 0 0 0l-0.541 0.541 9.189 9.405c0.108 0.216 0.324 0.216 0.541 0.216s0.432-0.108 0.541-0.216c0.324-0.324 0.324-0.865 0-1.189l-7.351-7.459h16.757c0.432 0 0.865-0.324 0.865-0.865s-0.324-0.865-0.865-0.865h-16.649l7.351-7.459c0.324-0.108 0.324-0.649 0-0.973z"></path>
<path d="M2.811 16.054c0 0.776-0.629 1.405-1.405 1.405s-1.405-0.629-1.405-1.405c0-0.776 0.629-1.405 1.405-1.405s1.405 0.629 1.405 1.405z"></path>
</svg>
