<?xml version="1.0" encoding="utf-8"?>
<!-- Generator: Adobe Illustrator 21.0.0, SVG Export Plug-In . SVG Version: 6.00 Build 0)  -->
<svg version="1.1" id="Layer_1" xmlns="http://www.w3.org/2000/svg" xmlns:xlink="http://www.w3.org/1999/xlink" x="0px" y="0px"
	 viewBox="0 0 29.5 29.5" style="enable-background:new 0 0 29.5 29.5;" xml:space="preserve">
<style type="text/css">
	.st0{fill:#FFFFFF;}
</style>
<g>
	<path class="st0" d="M14.8,0C10.8,0,7.1,1.5,4.3,4.3c-5.8,5.8-5.8,15.1,0,20.9s15.1,5.8,20.9,0c2.8-2.8,4.3-6.5,4.3-10.4
		C29.5,6.6,22.9,0,14.8,0z M24.5,5.8c-0.6,0.2-1.2,0.4-1.8,0.5c-0.2,0-0.3,0.1-0.4,0.2c-0.6,0.6-1.4,1.3-1.7,1.2
		c-0.5-0.1-0.9-0.4-1.3-0.8c0-0.2,0-0.5,0-0.7c0-0.8-0.1-1.5-0.7-1.7c-0.3-0.1-0.6-0.1-0.9,0.1c-0.1,0-0.3,0.1-0.4,0.1
		c0-0.2,0-0.5,0-0.7c0.1-0.4-0.1-0.8-0.5-0.9c-0.2-0.1-0.5-0.2-0.7-0.3c0.1-0.2,0.2-0.4,0.2-0.5c0.1-0.2,0.2-0.3,0.2-0.5
		c0,0,0,0,0,0c0-0.1,0-0.1,0-0.2C19.7,2.1,22.5,3.6,24.5,5.8z M1.5,14.8c0-4,1.8-7.7,4.7-10.1c0,0,0,0,0,0c0.5,0.6,0.9,1.2,1.1,2
		c0,0.1,0.1,0.2,0.2,0.3C7.8,7.2,8,7.5,8.1,7.8c0.1,0.4,0.1,0.8,0,1.2c0,0.1,0,0.2,0,0.4c0.2,0.6,0.3,1.3,0.3,2
		c-0.3,0.2-0.6,0.4-0.9,0.5c-0.2,0.1-0.4,0.2-0.5,0.4c-0.2,0.4-0.5,0.7-0.9,0.8c-1.2,0.2-2,1.2-1.9,2.4c0.1,1.1,0.5,2.2,1,3.1
		c0.1,0.1,0.2,0.2,0.3,0.3c0.3,0.2,0.5,0.3,0.7,0.6c0.1,0.4,0.1,0.7,0.1,1.1c0,0.1,0,0.2,0.1,0.3C6.9,21.5,7,22.3,6.9,23
		c-0.1,0.1-0.3,0.2-0.5,0.2c-0.2,0.1-0.3,0.2-0.4,0.4l-0.4,0.7C3.1,22,1.5,18.5,1.5,14.8z M14.8,28c-3,0-5.7-1-7.9-2.6l0.4-0.8
		c0.4-0.2,0.8-0.5,1-0.9c0.6-1.2-0.1-2.9-0.3-3.4c0-0.5-0.1-0.9-0.2-1.4c-0.3-0.5-0.7-0.9-1.2-1.2c-0.4-0.7-0.6-1.5-0.7-2.3
		c0-0.8,0.4-0.9,0.6-0.9l0.1,0c0.8-0.2,1.4-0.7,1.8-1.3C8.9,13,9.5,12.6,9.8,12c0.2-0.6,0.2-1.3,0-1.9C9.8,9.7,9.7,9.3,9.6,9.1
		C9.7,8.6,9.7,8,9.6,7.4C9.4,6.8,9.1,6.4,8.6,6C8.4,5.2,7.9,4.4,7.4,3.8c2.1-1.4,4.7-2.3,7.4-2.3c0.1,0,0.2,0,0.3,0
		C15,1.6,15,1.6,15,1.7c-0.3,0.5-0.5,1.1-0.4,1.7c0.2,0.4,0.6,0.8,1.1,0.9c-0.1,0.6,0.1,1.2,0.6,1.6c0.4,0.3,1,0.4,1.5,0.2
		c0,0.3,0,0.8,0,1.2c0,0.2,0.1,0.4,0.2,0.5c0.6,0.7,1.4,1.2,2.4,1.4c0.1,0,0.1,0,0.2,0C21.3,9.3,22,9,22.5,8.5
		C22.7,8.2,23,8,23.2,7.8c0.8-0.2,1.5-0.4,2.3-0.7c1.6,2.2,2.5,4.8,2.5,7.7C28,22.1,22.1,28,14.8,28z"/>
	<path class="st0" d="M26,15.8c-0.4-0.7-1-1.2-1.7-1.4c-0.3-0.2-0.6-0.3-0.8-0.4l-0.2-0.1l-0.8-0.7c0,0-0.1-0.1-0.2-0.1
		c-0.8-0.3-1.6-0.5-2.5-0.6c-0.4-0.3-0.9-0.5-1.4-0.7c-0.1,0-0.2,0-0.4,0c-0.7,0.1-1.4,0.2-2,0.4c-0.1,0-0.3,0.1-0.3,0.2
		c0,0-0.5,0.6-1,1.3c-0.9,1.4-1.1,1.9-1.1,2.3c0,0.6,0.5,1.1,1.1,1.6c0.2,0.2,0.4,0.4,0.6,0.6c0,0.2,0.1,0.4,0.1,0.6
		c0.1,0.4,0.1,0.7,0.2,1.1c0,0.2,0,0.4-0.1,0.6c-0.7,1.2-0.8,2.7-0.4,4.1c0.2,0.6,0.6,1,1.2,1.2c0.1,0,0.3,0.1,0.5,0.1
		c1.1-0.2,2.2-0.7,3.1-1.4c0.3-0.2,0.7-0.5,1-0.7c1-0.4,1.4-1.6,1.7-2.4c0.1-0.2,0.1-0.4,0.2-0.5c0.4-0.5,1-1,1.6-1.2
		c0.6-0.4,1.1-1,1.4-1.7C26.1,17.4,26.2,16.6,26,15.8z M24.3,17.5c-0.1,0.4-0.4,0.7-0.7,0.9c-0.9,0.4-1.6,1-2.2,1.8
		c-0.1,0.2-0.2,0.5-0.3,0.7c-0.2,0.4-0.5,1.4-0.8,1.5c-0.5,0.2-0.9,0.5-1.4,0.8c-0.7,0.5-1.4,0.9-2.2,1.2c0,0,0,0-0.1,0
		c0,0-0.1-0.1-0.2-0.3c-0.3-0.9-0.2-1.9,0.3-2.7c0.4-0.9,0.4-1.9,0.1-2.8c0-0.2-0.1-0.4-0.1-0.5c0-0.6-0.5-1-1.1-1.5
		c-0.2-0.2-0.4-0.4-0.6-0.6c0.4-0.9,0.9-1.6,1.5-2.4c0.4-0.1,0.9-0.2,1.4-0.3h0c0.4,0.2,0.8,0.3,1.1,0.6c0.1,0.1,0.2,0.1,0.3,0.1
		c0.7,0.1,1.4,0.2,2,0.4l0.8,0.7c0.1,0.1,0.2,0.1,0.3,0.2c0.8,0.2,1.5,0.6,2.1,1.1C24.6,16.8,24.5,17.1,24.3,17.5z"/>
</g>
</svg>
