<!-- Generated by IcoMoon.io -->
<svg version="1.1" xmlns="http://www.w3.org/2000/svg" width="32" height="32" viewBox="0 0 32 32">
<path fill="#e3ab0e" d="M6.992 9.314c2.295-1.561 6.598 0.765 9.609 5.194q0.261 0.384 0.497 0.771c-0.417-0.829-0.832-1.526-1.29-2.191l0.040 0.062c-3.013-4.429-7.314-6.755-9.609-5.194-2.163 1.471-1.773 5.867 0.8 10.076-1.874-3.761-1.978-7.403-0.047-8.717z"></path>
<path fill="#b2aab8" d="M7.818 20.352h-3.783c-2.227-0.003-4.032-1.808-4.035-4.035v-9.533h2.576v9.53c0.001 0.806 0.654 1.459 1.46 1.46h4.212z"></path>
<path fill="#b2aab8" d="M15.851 20.349h-3.783c-2.228-0.002-4.033-1.807-4.035-4.035v-2.919h2.576v2.919c0.001 0.806 0.654 1.459 1.46 1.46h4.212z"></path>
<path fill="#0c1241" d="M14.453 22.835h-0.004z"></path>
<path fill="#b2aab8" d="M31.568 20.349h-11.474c-2.228-0.002-4.033-1.807-4.035-4.035v-2.919h2.576v2.919c0.001 0.806 0.654 1.459 1.46 1.46h11.905z"></path>
<path fill="#ffd500" d="M17.367 22.319c-2.295 1.561-6.598-0.765-9.609-5.194-1.767-2.599-2.697-5.346-2.7-7.487-0.702 2.227 0.185 5.827 2.466 9.182 3.013 4.429 7.313 6.755 9.609 5.194 0.949-0.645 1.406-1.854 1.403-3.361-0.197 0.69-0.61 1.264-1.16 1.66l-0.009 0.006z"></path>
<path fill="#b2aab8" d="M8.060 8.472c0 0.932-0.755 1.687-1.687 1.687s-1.687-0.755-1.687-1.687c0-0.932 0.755-1.687 1.687-1.687s1.687 0.755 1.687 1.687z"></path>
<path fill="#b2aab8" d="M17.492 23.528c0 0.932-0.755 1.687-1.687 1.687s-1.687-0.755-1.687-1.687c0-0.932 0.755-1.687 1.687-1.687s1.687 0.755 1.687 1.687z"></path>
<path fill="#b2aab8" d="M15.023 23.528c0 0.932-0.755 1.687-1.687 1.687s-1.687-0.755-1.687-1.687c0-0.932 0.755-1.687 1.687-1.687s1.687 0.755 1.687 1.687z"></path>
</svg>
