<!-- Generated by IcoMoon.io -->
<svg version="1.1" xmlns="http://www.w3.org/2000/svg" width="32" height="32" viewBox="0 0 32 32">
<path d="M28.745 8.607c0-0.11-0.11-0.221-0.221-0.221l-8.055-8.055c-0.11-0.11-0.221-0.11-0.221-0.221-0.11-0.11-0.221-0.11-0.331-0.11h-16c-0.552 0-0.883 0.331-0.883 0.883v30.235c0 0.441 0.331 0.883 0.883 0.883h24.166c0.441 0 0.883-0.331 0.883-0.883v-22.29c-0.11 0-0.11-0.11-0.221-0.221zM20.8 2.869l5.186 5.186h-5.186v-5.186zM4.69 30.234v-28.579h14.455v7.172c0 0.441 0.331 0.883 0.883 0.883h7.283v20.524h-22.621z"></path>
<path d="M21.572 23.614h-12.138c-0.441 0-0.883 0.331-0.883 0.883 0 0.441 0.331 0.883 0.883 0.883h12.138c0.441 0 0.883-0.331 0.883-0.883-0.11-0.552-0.441-0.883-0.883-0.883z"></path>
<path d="M21.572 18.097h-12.138c-0.441 0-0.883 0.331-0.883 0.883 0 0.441 0.331 0.883 0.883 0.883h12.138c0.441 0 0.883-0.331 0.883-0.883-0.11-0.552-0.441-0.883-0.883-0.883z"></path>
<path d="M21.572 12.579h-12.138c-0.441 0-0.883 0.331-0.883 0.883 0 0.441 0.331 0.883 0.883 0.883h12.138c0.441 0 0.883-0.331 0.883-0.883-0.11-0.552-0.441-0.883-0.883-0.883z"></path>
<path d="M9.434 9.821h4.414c0.441 0 0.883-0.331 0.883-0.883 0-0.441-0.331-0.883-0.883-0.883h-4.414c-0.552 0.11-0.883 0.441-0.883 0.883s0.331 0.883 0.883 0.883z"></path>
</svg>
