<!-- Generated by IcoMoon.io -->
<svg version="1.1" xmlns="http://www.w3.org/2000/svg" width="32" height="32" viewBox="0 0 32 32">
<path d="M29.812 26.285c0 0-3.882-4.96-3.882-9.92v-6.254c0-2.696-1.078-5.284-2.911-7.117-0.108-0.108-0.216-0.216-0.323-0.323-3.882-3.666-10.028-3.558-13.694 0.323-1.941 1.941-2.911 4.421-2.911 7.117v6.254c0 4.96-3.882 9.812-3.882 9.92-0.108 0.108-0.216 0.323-0.216 0.539 0 0.431 0.323 0.755 0.863 0.755h8.303c0.216 2.48 2.372 4.421 4.852 4.421 2.588 0 4.637-1.941 4.852-4.421h8.303c0.216 0 0.323-0.108 0.539-0.216 0.323-0.216 0.431-0.755 0.108-1.078zM16.765 30.383c-1.833 0.431-3.558-0.647-3.99-2.372h6.47c-0.323 1.078-1.294 2.049-2.48 2.372zM4.365 25.962c1.294-1.941 3.343-5.715 3.343-9.597v-6.254c0-4.637 3.666-8.411 8.303-8.518 4.637 0.108 8.303 3.882 8.303 8.518v6.254c0 3.882 2.049 7.656 3.343 9.597h-23.291z"></path>
</svg>
