<?xml version="1.0" encoding="utf-8"?>
<!-- Generator: Adobe Illustrator 21.0.0, SVG Export Plug-In . SVG Version: 6.00 Build 0)  -->
<svg version="1.1" id="Layer_1" xmlns="http://www.w3.org/2000/svg" xmlns:xlink="http://www.w3.org/1999/xlink" x="0px" y="0px"
	 viewBox="0 0 29.5 29.5" style="enable-background:new 0 0 29.5 29.5;" xml:space="preserve">
<style type="text/css">
	.st0{fill:#FFFFFF;}
</style>
<g>
	<path class="st0" d="M5.2,8.5C7,8.5,8.5,7,8.5,5.2c0-1.8-1.5-3.3-3.3-3.3c-1.8,0-3.3,1.5-3.3,3.3C1.9,7,3.4,8.5,5.2,8.5z M5.2,3.4
		c1,0,1.8,0.8,1.8,1.8C7,6.2,6.2,7,5.2,7c-1,0-1.8-0.8-1.8-1.8C3.4,4.2,4.2,3.4,5.2,3.4z"/>
	<path class="st0" d="M24.3,8.5c1.8,0,3.3-1.5,3.3-3.3c0-1.8-1.5-3.3-3.3-3.3c-1.8,0-3.3,1.5-3.3,3.3C21,7,22.5,8.5,24.3,8.5z
		 M24.3,3.4c1,0,1.8,0.8,1.8,1.8c0,1-0.8,1.8-1.8,1.8c-1,0-1.8-0.8-1.8-1.8C22.5,4.2,23.3,3.4,24.3,3.4z"/>
	<path class="st0" d="M26.2,10.2h-3.8c-0.9,0-1.7,0.4-2.3,1c-0.4-0.2-0.9-0.4-1.5-0.4h-7.6c-0.5,0-1,0.1-1.5,0.4
		c-0.6-0.6-1.4-1-2.3-1H3.3c-1.8,0-3.3,1.5-3.3,3.3v5.7c0,0.3,0.2,0.6,0.5,0.7L2,20.4l0.6,6.5c0,0.4,0.4,0.7,0.7,0.7h3.8v0
		c0.4,0,0.8-0.3,0.8-0.8c0-0.4-0.3-0.8-0.8-0.8H4l-0.6-6.3c0-0.3-0.2-0.5-0.5-0.6l-1.4-0.5v-5.2c0-1,0.8-1.8,1.8-1.8h3.8
		c0.4,0,0.9,0.2,1.2,0.5c-0.4,0.6-0.7,1.2-0.7,2v6.4c0,0.3,0.2,0.6,0.6,0.7l2,0.5l0.6,7.1c0,0.4,0.4,0.7,0.7,0.7h6.4
		c0.4,0,0.7-0.3,0.8-0.7l0.6-7.1l2-0.5c0.3-0.1,0.6-0.4,0.6-0.7v-6.4c0-0.7-0.3-1.4-0.7-2c0.3-0.3,0.7-0.5,1.2-0.5h3.8
		c1,0,1.8,0.8,1.8,1.8v5.2l-1.4,0.5c-0.3,0.1-0.5,0.3-0.5,0.6l-0.6,6.3h-3.1c-0.4,0-0.8,0.3-0.8,0.8c0,0.4,0.3,0.8,0.8,0.8h3.8
		c0.4,0,0.7-0.3,0.8-0.7l0.6-6.5l1.4-0.5c0.3-0.1,0.5-0.4,0.5-0.7v-5.7C29.5,11.6,28,10.2,26.2,10.2z M20.4,19.9l-2,0.5
		c-0.3,0.1-0.5,0.3-0.6,0.7L17.2,28h-5l-0.6-7c0-0.3-0.3-0.6-0.6-0.7l-2-0.5v-5.8c0-1,0.8-1.8,1.8-1.8h7.6c1,0,1.8,0.8,1.8,1.8V19.9
		z"/>
	<path class="st0" d="M14.8,9.1c2.5,0,4.6-2,4.6-4.6c0-2.5-2-4.6-4.6-4.6s-4.6,2-4.6,4.6S12.2,9.1,14.8,9.1z M14.8,1.5
		c1.7,0,3.1,1.4,3.1,3.1c0,1.7-1.4,3.1-3.1,3.1s-3.1-1.4-3.1-3.1S13.1,1.5,14.8,1.5z"/>
</g>
</svg>
