<?xml version="1.0" encoding="utf-8"?>
<!-- Generator: Adobe Illustrator 21.0.0, SVG Export Plug-In . SVG Version: 6.00 Build 0)  -->
<svg version="1.1" id="Layer_1" xmlns="http://www.w3.org/2000/svg" xmlns:xlink="http://www.w3.org/1999/xlink" x="0px" y="0px"
	 viewBox="0 0 29.1 29.1" style="enable-background:new 0 0 29.1 29.1;" xml:space="preserve">
<style type="text/css">
	.st0{fill:#FFFFFF;}
</style>
<g>
	<circle class="st0" cx="19.1" cy="7.9" r="1.3"/>
	<path class="st0" d="M20.9,0H7.6c0,0,0,0,0,0s0,0,0,0H3.9C1.7,0,0,1.7,0,3.9v21.4c0,2.1,1.7,3.9,3.9,3.9h21.4
		c2.1,0,3.9-1.7,3.9-3.9v-17L20.9,0z M8.3,25.4v-6.5c0-1.2,1-2.3,2.3-2.3h9.3c1.2,0,2.3,1,2.3,2.3v6.5c0,1.2-1,2.3-2.3,2.3h-9.3
		C9.3,27.6,8.3,26.6,8.3,25.4z M27.6,25.3c0,1.3-1.1,2.4-2.4,2.4h-2.5c0.5-0.6,0.8-1.4,0.8-2.3v-6.5c0-2.1-1.7-3.8-3.8-3.8h-9.3
		c-2.1,0-3.8,1.7-3.8,3.8v6.5c0,0.8,0.3,1.6,0.8,2.3H3.9c-1.3,0-2.4-1.1-2.4-2.4V3.9c0-0.6,0.2-1.2,0.7-1.7c0.4-0.4,1-0.7,1.7-0.7h3
		v7.1h8.4c0.4,0,0.8-0.3,0.8-0.8s-0.3-0.8-0.8-0.8H8.3V1.5h12l7.3,7.3V25.3z"/>
</g>
</svg>
