<!-- Generated by IcoMoon.io -->
<svg version="1.1" xmlns="http://www.w3.org/2000/svg" width="32" height="32" viewBox="0 0 32 32">
<path d="M31.25 15.25l-0.7-0.3c-0.4-7.3-6.3-13.1-13.6-13.6l-0.3-0.7c-0.1-0.2-0.4-0.4-0.7-0.4s-0.6 0.2-0.7 0.5l-0.3 0.6c-3.5 0.2-6.9 1.7-9.4 4.2-2.6 2.6-4 6-4.2 9.4l-0.6 0.3c-0.2 0.1-0.3 0.2-0.4 0.4-0.2 0.4 0 0.8 0.4 1l0.7 0.3c0.2 3.4 1.6 6.8 4.2 9.4s6 4 9.4 4.2l0.2 0.7c0.1 0.3 0.4 0.5 0.7 0.5v0c0.3 0 0.6-0.2 0.7-0.5l0.3-0.6c3.4-0.2 6.8-1.6 9.4-4.2 2.5-2.5 4-5.9 4.2-9.4l0.6-0.3c0.2-0.1 0.3-0.2 0.4-0.4 0.3-0.5 0.1-0.9-0.3-1.1zM15.95 29.15c-7.2 0-13.1-5.9-13.1-13.2s5.9-13.2 13.2-13.2c7.3 0 13.2 5.9 13.2 13.2s-6 13.2-13.3 13.2z"></path>
<path d="M22.65 8.55c-0.1 0-0.2 0-0.3 0.1l-9 4.2c-0.2 0.1-0.3 0.2-0.4 0.4l-4.4 9.2c-0.1 0.2-0.1 0.4 0 0.6 0.2 0.4 0.6 0.5 1 0.4l9.1-4.3c0.2-0.1 0.3-0.2 0.4-0.4l4.3-9.1c0-0.1 0.1-0.2 0.1-0.3 0-0.5-0.3-0.8-0.8-0.8zM14.25 14.050l3.5 3.8-6.9 3.2 3.4-7z"></path>
</svg>
