<svg xmlns="http://www.w3.org/2000/svg" width="55.219" height="31.805" viewBox="0 0 55.219 31.805">
  <defs>
    <style>
      .cls-1 {
        mix-blend-mode: hard-light;
        isolation: isolate;
      }

      .cls-2 {
        fill: #e3ab0e;
      }

      .cls-3 {
        fill: #b2aab8;
      }

      .cls-4 {
        fill: #0c1241;
      }

      .cls-5 {
        fill: #ffd500;
      }
    </style>
  </defs>
  <g id="Group_3868" data-name="Group 3868" class="cls-1" transform="translate(-724.742 -585.286)">
    <path id="Path_1290" data-name="Path 1290" class="cls-2" d="M1034.126,631.732c3.961-2.693,11.386,1.32,16.583,8.964q.45.662.858,1.33a31.654,31.654,0,0,0-2.157-3.675c-5.2-7.644-12.622-11.657-16.583-8.964-3.733,2.538-3.059,10.125,1.38,17.388C1030.973,640.285,1030.794,634,1034.126,631.732Z" transform="translate(-297.318 -42.081)"/>
    <path id="Path_1291" data-name="Path 1291" class="cls-3" d="M738.233,608.7h-6.528a6.971,6.971,0,0,1-6.963-6.963V585.286h4.445v16.446a2.522,2.522,0,0,0,2.519,2.519h7.269Z"/>
    <path id="Path_1292" data-name="Path 1292" class="cls-3" d="M1246.149,1015.223h-6.528a6.971,6.971,0,0,1-6.964-6.963v-5.037h4.445v5.037a2.522,2.522,0,0,0,2.519,2.519h7.269Z" transform="translate(-494.052 -406.528)"/>
    <path id="Path_1293" data-name="Path 1293" class="cls-4" d="M1638.189,1599.806l-.007,0Z" transform="translate(-888.506 -986.822)"/>
    <path id="Path_1294" data-name="Path 1294" class="cls-3" d="M1766.711,1015.223h-19.8a6.971,6.971,0,0,1-6.964-6.963v-5.037h4.445v5.037a2.522,2.522,0,0,0,2.519,2.519h20.545Z" transform="translate(-987.491 -406.528)"/>
    <path id="Path_1295" data-name="Path 1295" class="cls-5" d="M1051.328,787.4c-3.961,2.693-11.386-1.32-16.583-8.964-3.05-4.486-4.655-9.225-4.66-12.92-1.211,3.843.319,10.055,4.255,15.845,5.2,7.644,12.621,11.657,16.583,8.964,1.637-1.113,2.426-3.2,2.422-5.8A5.273,5.273,0,0,1,1051.328,787.4Z" transform="translate(-296.615 -175.307)"/>
    <circle id="Ellipse_536" data-name="Ellipse 536" class="cls-3" cx="2.911" cy="2.911" r="2.911" transform="translate(732.829 585.286)"/>
    <circle id="Ellipse_537" data-name="Ellipse 537" class="cls-3" cx="2.912" cy="2.912" r="2.912" transform="translate(749.105 611.268)"/>
    <circle id="Ellipse_538" data-name="Ellipse 538" class="cls-3" cx="2.912" cy="2.912" r="2.912" transform="translate(744.844 611.268)"/>
  </g>
</svg>
