<!-- Generated by IcoMoon.io -->
<svg version="1.1" xmlns="http://www.w3.org/2000/svg" width="32" height="32" viewBox="0 0 32 32">
<path d="M16.081 0c-4.332 0-8.338 1.624-11.371 4.657-6.281 6.281-6.281 16.352 0 22.633s16.352 6.281 22.633 0c3.032-3.032 4.657-7.039 4.657-11.262 0-8.88-7.147-16.027-15.919-16.027zM16.081 30.321c-8.014 0-14.403-6.389-14.403-14.294s6.389-14.403 14.403-14.403 14.294 6.389 14.294 14.403-6.389 14.294-14.294 14.294z"></path>
<path d="M16.298 3.898c-6.497 0-11.804 5.306-11.804 11.804 0 1.841 0.433 3.574 1.191 5.198l0.217 0.433h8.447c0.541 0.65 1.299 1.083 2.166 1.083s1.733-0.433 2.166-1.083h7.905l0.217-0.433c0.758-1.624 1.191-3.357 1.191-5.198 0.108-6.497-5.198-11.804-11.695-11.804zM16.623 20.9c-0.65 0-1.083-0.433-1.083-1.083s0.433-1.083 1.083-1.083 1.083 0.433 1.083 1.083-0.541 1.083-1.083 1.083zM25.611 19.709h-6.389c0-1.516-1.191-2.707-2.707-2.707-0.108 0-0.108 0-0.217 0 0 0 0 0 0 0l-2.924-6.822c0 0 0 0 0 0-0.217-0.433-0.65-0.65-1.083-0.433s-0.65 0.65-0.433 1.083l2.924 6.822c-0.541 0.541-0.975 1.191-0.975 2.058h-6.931c-0.541-1.299-0.866-2.599-0.866-4.007 0-5.631 4.548-10.179 10.179-10.179s10.179 4.548 10.179 10.179c0.108 1.408-0.217 2.816-0.758 4.007z"></path>
</svg>
