<?xml version="1.0" encoding="utf-8"?>
<!-- Generator: Adobe Illustrator 21.0.0, SVG Export Plug-In . SVG Version: 6.00 Build 0)  -->
<svg version="1.1" id="Layer_1" xmlns="http://www.w3.org/2000/svg" xmlns:xlink="http://www.w3.org/1999/xlink" x="0px" y="0px"
	 viewBox="0 0 29.5 29.5" style="enable-background:new 0 0 29.5 29.5;" xml:space="preserve">
<style type="text/css">
	.st0{fill:#FFFFFF;}
</style>
<g>
	<path class="st0" d="M14.8,0C10.8,0,7.1,1.5,4.3,4.3c-5.8,5.8-5.8,15.1,0,20.9s15.1,5.8,20.9,0c2.8-2.8,4.3-6.5,4.3-10.4
		C29.5,6.6,22.9,0,14.8,0z M14.8,28C7.4,28,1.5,22.1,1.5,14.8c0-7.3,5.9-13.3,13.3-13.3S28,7.4,28,14.8S22.1,28,14.8,28z"/>
	<path class="st0" d="M15,3.6C9,3.6,4.1,8.5,4.1,14.5c0,1.7,0.4,3.3,1.1,4.8l0.2,0.4h7.8c0.5,0.6,1.2,1,2,1s1.6-0.4,2-1h7.3l0.2-0.4
		c0.7-1.5,1.1-3.1,1.1-4.8C25.9,8.5,21,3.6,15,3.6z M15.3,19.3c-0.6,0-1-0.4-1-1s0.4-1,1-1s1,0.4,1,1S15.8,19.3,15.3,19.3z
		 M23.6,18.2h-5.9c0-1.4-1.1-2.5-2.5-2.5c-0.1,0-0.1,0-0.2,0c0,0,0,0,0,0l-2.7-6.3c0,0,0,0,0,0c-0.2-0.4-0.6-0.6-1-0.4
		c-0.4,0.2-0.6,0.6-0.4,1l2.7,6.3c-0.5,0.5-0.9,1.1-0.9,1.9H6.3c-0.5-1.2-0.8-2.4-0.8-3.7c0-5.2,4.2-9.4,9.4-9.4
		c5.2,0,9.4,4.2,9.4,9.4C24.4,15.8,24.1,17.1,23.6,18.2z"/>
</g>
</svg>
