<?xml version="1.0" encoding="utf-8"?>
<!-- Generator: Adobe Illustrator 21.0.0, SVG Export Plug-In . SVG Version: 6.00 Build 0)  -->
<svg version="1.1" id="Layer_1" xmlns="http://www.w3.org/2000/svg" xmlns:xlink="http://www.w3.org/1999/xlink" x="0px" y="0px"
	 viewBox="0 0 31.5 31.5" style="enable-background:new 0 0 31.5 31.5;" xml:space="preserve">
<style type="text/css">
	.st0{fill:#FFFFFF;}
</style>
<g>
	<path class="st0" d="M31,15l-0.7-0.3C29.9,7.4,24,1.6,16.7,1.1l-0.3-0.7C16.3,0.2,16,0,15.7,0c-0.3,0-0.6,0.2-0.7,0.5l-0.3,0.6
		c-3.5,0.2-6.9,1.7-9.4,4.2c-2.6,2.6-4,6-4.2,9.4L0.5,15c-0.2,0.1-0.3,0.2-0.4,0.4c-0.2,0.4,0,0.8,0.4,1l0.7,0.3
		c0.2,3.4,1.6,6.8,4.2,9.4c2.6,2.6,6,4,9.4,4.2L15,31c0.1,0.3,0.4,0.5,0.7,0.5l0,0c0.3,0,0.6-0.2,0.7-0.5l0.3-0.6
		c3.4-0.2,6.8-1.6,9.4-4.2c2.5-2.5,4-5.9,4.2-9.4l0.6-0.3c0.2-0.1,0.3-0.2,0.4-0.4C31.6,15.6,31.4,15.2,31,15z M15.7,28.9
		C8.5,28.9,2.6,23,2.6,15.7c0-7.3,5.9-13.2,13.2-13.2c7.3,0,13.2,5.9,13.2,13.2S23,28.9,15.7,28.9z"/>
	<path class="st0" d="M22.4,8.3c-0.1,0-0.2,0-0.3,0.1l-9,4.2c-0.2,0.1-0.3,0.2-0.4,0.4l-4.4,9.2c-0.1,0.2-0.1,0.4,0,0.6
		c0.2,0.4,0.6,0.5,1,0.4l9.1-4.3c0.2-0.1,0.3-0.2,0.4-0.4l4.3-9.1c0-0.1,0.1-0.2,0.1-0.3C23.2,8.6,22.9,8.3,22.4,8.3z M14,13.8
		l3.5,3.8l-6.9,3.2L14,13.8z"/>
</g>
</svg>
