<?xml version="1.0" encoding="utf-8"?>
<!-- Generator: Adobe Illustrator 21.0.0, SVG Export Plug-In . SVG Version: 6.00 Build 0)  -->
<svg version="1.1" id="Layer_1" xmlns="http://www.w3.org/2000/svg" xmlns:xlink="http://www.w3.org/1999/xlink" x="0px" y="0px"
	 viewBox="0 0 28.9 27.8" style="enable-background:new 0 0 28.9 27.8;" xml:space="preserve">
<style type="text/css">
	.st0{fill:#FFFFFF;}
</style>
<g>
	<path class="st0" d="M28.7,6.9L27,1.1l-5.8,0.5c-0.4,0-0.7,0.4-0.7,0.8c0,0.4,0.4,0.7,0.8,0.7l3.5-0.3l-4.1,5.9l-3.7-2.5
		C16.7,6,16.3,6,16,6.4l-5.1,6.9l-4.7-3.1C6,10,5.5,10,5.3,10.3l-5.1,5.4C0.1,15.8,0,16,0,16.2c0,0.4,0.3,0.8,0.7,0.8
		c0.2,0,0.4-0.1,0.5-0.2L6,11.8l4.7,3.2c0.3,0.2,0.8,0.1,1-0.2l5.1-6.9l3.7,2.5c0.3,0.2,0.8,0.1,1-0.2l4.6-6.5l1.2,3.8
		c0.1,0.4,0.5,0.6,0.9,0.5c0,0,0,0,0,0C28.6,7.8,28.9,7.3,28.7,6.9z"/>
	<path class="st0" d="M1.3,19.3c-0.4,0-0.8,0.3-0.8,0.8v7c0,0.4,0.3,0.8,0.8,0.8S2,27.5,2,27.1v-7C2,19.6,1.7,19.3,1.3,19.3z"/>
	<path class="st0" d="M6.3,15.3c-0.4,0-0.8,0.3-0.8,0.8v11c0,0.4,0.3,0.8,0.8,0.8S7,27.5,7,27.1v-11C7,15.6,6.7,15.3,6.3,15.3z"/>
	<path class="st0" d="M11.3,18.3c-0.4,0-0.8,0.3-0.8,0.8v7.5c0,0.4,0.3,0.8,0.8,0.8S12,27,12,26.6v-7.5C12,18.6,11.7,18.3,11.3,18.3
		z"/>
	<path class="st0" d="M16.3,12.3c-0.4,0-0.8,0.3-0.8,0.8v13.5c0,0.4,0.3,0.8,0.8,0.8S17,27,17,26.6V13.1
		C17,12.6,16.7,12.3,16.3,12.3z"/>
	<path class="st0" d="M21.3,13.3c-0.4,0-0.8,0.3-0.8,0.8v12.5c0,0.4,0.3,0.8,0.8,0.8S22,27,22,26.6V14.1
		C22,13.6,21.7,13.3,21.3,13.3z"/>
	<path class="st0" d="M26.1,18L26.1,18C26.1,18,26.1,18,26.1,18c0.4,0,0.8-0.3,0.8-0.8v-0.1c0,0,0,0,0,0c0-0.4-0.3-0.7-0.8-0.7
		c0,0,0,0,0,0c-0.4,0-0.7,0.3-0.7,0.8v0.1C25.4,17.7,25.7,18,26.1,18z"/>
	<path class="st0" d="M26.2,24.2L26.2,24.2C26.2,24.2,26.2,24.2,26.2,24.2c0.4,0,0.8-0.3,0.8-0.8v-0.1c0,0,0,0,0,0
		c0-0.4-0.3-0.7-0.8-0.7c0,0,0,0,0,0c-0.4,0-0.7,0.3-0.7,0.8v0.1C25.5,23.9,25.8,24.2,26.2,24.2z"/>
	<path class="st0" d="M26.2,25.7C26.2,25.7,26.2,25.7,26.2,25.7c-0.4,0-0.7,0.3-0.7,0.8v0.1c0,0.4,0.3,0.7,0.8,0.7h0c0,0,0,0,0,0
		c0.4,0,0.7-0.3,0.7-0.8v-0.1c0,0,0,0,0,0C27,26,26.7,25.7,26.2,25.7z"/>
	<path class="st0" d="M26.2,21.1L26.2,21.1C26.2,21.1,26.2,21.1,26.2,21.1c0.4,0,0.8-0.3,0.8-0.8v-0.1c0,0,0,0,0,0
		c0-0.4-0.3-0.7-0.8-0.7c0,0,0,0,0,0c-0.4,0-0.7,0.3-0.7,0.8v0.1C25.4,20.8,25.7,21.1,26.2,21.1z"/>
	<path class="st0" d="M26,11.8L26,11.8C26,11.8,26,11.8,26,11.8c0.4,0,0.8-0.3,0.8-0.8V11c0,0,0,0,0,0c0-0.4-0.3-0.7-0.8-0.7
		c-0.4,0-0.7,0.3-0.7,0.8v0.1C25.3,11.5,25.6,11.8,26,11.8z"/>
	<path class="st0" d="M26.1,14.9L26.1,14.9C26.1,14.9,26.1,14.9,26.1,14.9c0.4,0,0.8-0.3,0.8-0.8V14c0,0,0,0,0,0
		c0-0.4-0.3-0.7-0.8-0.7c0,0,0,0,0,0c-0.4,0-0.7,0.3-0.7,0.8v0.1C25.3,14.6,25.7,14.9,26.1,14.9z"/>
</g>
</svg>
