<?xml version="1.0" encoding="utf-8"?>
<!-- Generator: Adobe Illustrator 21.0.0, SVG Export Plug-In . SVG Version: 6.00 Build 0)  -->
<svg version="1.1" id="Layer_1" xmlns="http://www.w3.org/2000/svg" xmlns:xlink="http://www.w3.org/1999/xlink" x="0px" y="0px"
	 viewBox="0 0 26 29" style="enable-background:new 0 0 26 29;" xml:space="preserve">
<style type="text/css">
	.st0{fill:#FFFFFF;}
</style>
<g>
	<path class="st0" d="M21,10c-1.5,0-2.9,0.7-3.8,1.8l-7.5-5C9.9,6.2,10,5.6,10,5c0-2.8-2.2-5-5-5S0,2.2,0,5s2.2,5,5,5
		c1.6,0,3-0.8,3.9-1.9l7.5,5C16.1,13.7,16,14.3,16,15c0,0.5,0.1,1,0.3,1.5l-7.5,4.3C7.9,19.7,6.5,19,5,19c-2.8,0-5,2.2-5,5
		s2.2,5,5,5s5-2.2,5-5c0-0.7-0.1-1.3-0.4-1.9l7.3-4.2c0.9,1.3,2.4,2.1,4.1,2.1c2.8,0,5-2.2,5-5S23.8,10,21,10z M5,8.5
		C3.1,8.5,1.5,6.9,1.5,5S3.1,1.5,5,1.5S8.5,3.1,8.5,5S6.9,8.5,5,8.5z M5,27.5c-1.9,0-3.5-1.6-3.5-3.5s1.6-3.5,3.5-3.5
		s3.5,1.6,3.5,3.5S6.9,27.5,5,27.5z M21,18.5c-1.9,0-3.5-1.6-3.5-3.5s1.6-3.5,3.5-3.5s3.5,1.6,3.5,3.5S22.9,18.5,21,18.5z"/>
	<circle class="st0" cx="5" cy="24" r="1"/>
	<circle class="st0" cx="21" cy="15" r="1"/>
	<circle class="st0" cx="5" cy="5" r="1"/>
</g>
</svg>
