<?xml version="1.0" encoding="utf-8"?>
<!-- Generator: Adobe Illustrator 21.0.0, SVG Export Plug-In . SVG Version: 6.00 Build 0)  -->
<svg version="1.1" id="Layer_1" xmlns="http://www.w3.org/2000/svg" xmlns:xlink="http://www.w3.org/1999/xlink" x="0px" y="0px"
	 viewBox="0 0 31.3 25.3" style="enable-background:new 0 0 31.3 25.3;" xml:space="preserve">
<style type="text/css">
	.st0{fill:#FFFFFF;}
</style>
<g>
	<circle class="st0" cx="23.9" cy="4.3" r="1.3"/>
	<path class="st0" d="M27.5,3.4c-0.4,0-0.8,0.3-0.8,0.8s0.3,0.8,0.8,0.8c1.2,0,2.3,1,2.3,2.3v14.4c0,1.2-1,2.3-2.3,2.3H3.8
		c-1.2,0-2.3-1-2.3-2.3V3.8c0-1.2,1-2.3,2.3-2.3h8.3l3.4,3.4H20c0.4,0,0.8-0.3,0.8-0.8S20.4,3.4,20,3.4h-3.9L12.7,0h-9
		C1.7,0,0,1.7,0,3.8v17.8c0,2.1,1.7,3.8,3.8,3.8h23.8c2.1,0,3.8-1.7,3.8-3.8V7.2C31.3,5.1,29.6,3.4,27.5,3.4z"/>
	<path class="st0" d="M16.4,8.7c0-0.4-0.3-0.8-0.8-0.8s-0.8,0.3-0.8,0.8v5h-5c-0.4,0-0.8,0.3-0.8,0.8s0.3,0.8,0.8,0.8h5v5
		c0,0.4,0.3,0.8,0.8,0.8s0.8-0.3,0.8-0.8v-5h5c0.4,0,0.8-0.3,0.8-0.8s-0.3-0.8-0.8-0.8h-5V8.7z"/>
</g>
</svg>
