<?xml version="1.0" encoding="utf-8"?>
<!-- Generator: Adobe Illustrator 21.0.0, SVG Export Plug-In . SVG Version: 6.00 Build 0)  -->
<svg version="1.1" id="Layer_1" xmlns="http://www.w3.org/2000/svg" xmlns:xlink="http://www.w3.org/1999/xlink" x="0px" y="0px"
	 viewBox="0 0 23.4 28.9" style="enable-background:new 0 0 23.4 28.9;" xml:space="preserve">
<style type="text/css">
	.st0{fill:#FFFFFF;}
</style>
<g>
	<path class="st0" d="M23.3,7.8c0-0.1-0.1-0.2-0.2-0.2l-7.3-7.3c-0.1-0.1-0.2-0.1-0.2-0.2C15.5,0,15.4,0,15.3,0H0.8
		C0.3,0,0,0.3,0,0.8v27.4c0,0.4,0.3,0.8,0.8,0.8h21.9c0.4,0,0.8-0.3,0.8-0.8V8C23.4,8,23.4,7.9,23.3,7.8z M16.1,2.6l4.7,4.7h-4.7
		V2.6z M1.5,27.4V1.5h13.1V8c0,0.4,0.3,0.8,0.8,0.8h6.6v18.6H1.5z"/>
	<path class="st0" d="M16.8,21.4h-11c-0.4,0-0.8,0.3-0.8,0.8c0,0.4,0.3,0.8,0.8,0.8h11c0.4,0,0.8-0.3,0.8-0.8
		C17.5,21.7,17.2,21.4,16.8,21.4z"/>
	<path class="st0" d="M16.8,16.4h-11c-0.4,0-0.8,0.3-0.8,0.8c0,0.4,0.3,0.8,0.8,0.8h11c0.4,0,0.8-0.3,0.8-0.8
		C17.5,16.7,17.2,16.4,16.8,16.4z"/>
	<path class="st0" d="M16.8,11.4h-11c-0.4,0-0.8,0.3-0.8,0.8c0,0.4,0.3,0.8,0.8,0.8h11c0.4,0,0.8-0.3,0.8-0.8
		C17.5,11.7,17.2,11.4,16.8,11.4z"/>
	<path class="st0" d="M5.8,8.9h4c0.4,0,0.8-0.3,0.8-0.8c0-0.4-0.3-0.8-0.8-0.8h-4C5.3,7.4,5,7.7,5,8.1C5,8.5,5.3,8.9,5.8,8.9z"/>
</g>
</svg>
