<?xml version="1.0" encoding="utf-8"?>
<!-- Generator: Adobe Illustrator 21.0.0, SVG Export Plug-In . SVG Version: 6.00 Build 0)  -->
<svg version="1.1" id="Layer_1" xmlns="http://www.w3.org/2000/svg" xmlns:xlink="http://www.w3.org/1999/xlink" x="0px" y="0px"
	 viewBox="0 0 28.4 26.6" style="enable-background:new 0 0 28.4 26.6;" xml:space="preserve">
<style type="text/css">
	.st0{fill:#FFFFFF;}
</style>
<g>
	<path class="st0" d="M27.7,16.1c-0.4,0-0.8,0.3-0.8,0.8v6c0,1.2-1,2.3-2.3,2.3H3.8c-1.2,0-2.3-1-2.3-2.3v-6c0-0.4-0.3-0.8-0.8-0.8
		S0,16.5,0,16.9v6c0,2.1,1.7,3.8,3.8,3.8h20.9c2.1,0,3.8-1.7,3.8-3.8v-6C28.4,16.5,28.1,16.1,27.7,16.1z"/>
	<path class="st0" d="M6.5,9.6l6.9-6.8v12.9c0,0.4,0.3,0.8,0.8,0.8s0.8-0.3,0.8-0.8V2.8l6.9,6.8c0.1,0.1,0.3,0.2,0.5,0.2
		c0.2,0,0.4-0.1,0.5-0.2c0.3-0.3,0.3-0.8,0-1.1l-8.2-8c0,0,0,0,0,0L14.2,0L5.5,8.5c-0.3,0.3-0.3,0.8,0,1.1C5.8,9.9,6.2,9.9,6.5,9.6z
		"/>
	<circle class="st0" cx="14.2" cy="19.5" r="1.3"/>
</g>
</svg>
