<?xml version="1.0" encoding="utf-8"?>
<!-- Generator: Adobe Illustrator 21.0.0, SVG Export Plug-In . SVG Version: 6.00 Build 0)  -->
<svg version="1.1" id="Layer_1" xmlns="http://www.w3.org/2000/svg" xmlns:xlink="http://www.w3.org/1999/xlink" x="0px" y="0px"
	 viewBox="0 0 29.6 29.1" style="enable-background:new 0 0 29.6 29.1;" xml:space="preserve">
<style type="text/css">
	.st0{fill:#FFFFFF;}
</style>
<g>
	<path class="st0" d="M21.4,0H4.4C2.2,0,0.5,1.7,0.5,3.9v6.9c0,0.4,0.3,0.8,0.8,0.8S2,11.2,2,10.8V3.9c0-1.3,1.1-2.4,2.4-2.4h16.4
		l7.3,7.3v16.4c0,1.3-1.1,2.4-2.4,2.4H4.4c-1.3,0-2.4-1.1-2.4-2.4v-6.9c0-0.4-0.3-0.8-0.8-0.8s-0.8,0.3-0.8,0.8v6.9
		c0,2.1,1.7,3.9,3.9,3.9h21.4c2.1,0,3.9-1.7,3.9-3.9V8.2L21.4,0z"/>
	<path class="st0" d="M13.2,5.8c-0.3-0.3-0.8-0.3-1.1,0l-8,8.2c0,0,0,0,0,0l-0.5,0.5l8.5,8.7c0.1,0.2,0.3,0.2,0.5,0.2
		c0.2,0,0.4-0.1,0.5-0.2c0.3-0.3,0.3-0.8,0-1.1l-6.8-6.9h15.5c0.4,0,0.8-0.3,0.8-0.8s-0.3-0.8-0.8-0.8H6.4l6.8-6.9
		C13.5,6.6,13.5,6.1,13.2,5.8z"/>
	<circle class="st0" cx="1.3" cy="14.6" r="1.3"/>
</g>
</svg>
