<!-- Generated by IcoMoon.io -->
<svg version="1.1" xmlns="http://www.w3.org/2000/svg" width="32" height="32" viewBox="0 0 32 32">
<path d="M22.356 8.658c0 0.787-0.638 1.425-1.425 1.425s-1.425-0.638-1.425-1.425c0-0.787 0.638-1.425 1.425-1.425s1.425 0.638 1.425 1.425z"></path>
<path d="M22.904 0h-14.575c0 0 0 0 0 0s0 0 0 0h-4.055c-2.411 0-4.274 1.863-4.274 4.274v23.452c0 2.301 1.863 4.274 4.274 4.274h23.452c2.301 0 4.274-1.863 4.274-4.274v-18.63l-9.096-9.096zM9.096 27.836v-7.123c0-1.315 1.096-2.521 2.521-2.521h10.192c1.315 0 2.521 1.096 2.521 2.521v7.123c0 1.315-1.096 2.521-2.521 2.521h-10.192c-1.425-0.11-2.521-1.205-2.521-2.521zM30.246 27.726c0 1.425-1.205 2.63-2.63 2.63h-2.74c0.548-0.657 0.877-1.534 0.877-2.521v-7.123c0-2.301-1.863-4.164-4.164-4.164h-10.192c-2.301 0-4.164 1.863-4.164 4.164v7.123c0 0.877 0.329 1.753 0.877 2.521h-3.836c-1.425 0-2.63-1.205-2.63-2.63v-23.452c0-0.657 0.219-1.315 0.767-1.863 0.438-0.438 1.096-0.767 1.863-0.767h3.288v7.781h9.205c0.438 0 0.877-0.329 0.877-0.877s-0.329-0.877-0.877-0.877h-7.671v-6.027h13.151l8 8v18.082z"></path>
</svg>
