<!-- Generated by IcoMoon.io -->
<svg version="1.1" xmlns="http://www.w3.org/2000/svg" width="32" height="32" viewBox="0 0 32 32">
<path d="M31.102 19.088c-0.449 0-0.898 0.337-0.898 0.898v6.737c0 1.347-1.123 2.582-2.582 2.582h-23.354c-1.347 0-2.582-1.123-2.582-2.582v-6.737c0-0.449-0.337-0.898-0.898-0.898s-0.786 0.449-0.786 0.898v6.737c0 2.358 1.909 4.267 4.267 4.267h23.467c2.358 0 4.267-1.909 4.267-4.267v-6.737c-0.112-0.449-0.449-0.898-0.898-0.898z"></path>
<path d="M7.298 11.789l7.747-7.635v14.484c0 0.449 0.337 0.898 0.898 0.898s0.898-0.337 0.898-0.898v-14.484l7.747 7.635c0.112 0.112 0.337 0.225 0.561 0.225s0.449-0.112 0.561-0.225c0.337-0.337 0.337-0.898 0-1.235l-9.207-8.982c0 0 0 0 0 0l-0.561-0.561-9.768 9.544c-0.337 0.337-0.337 0.898 0 1.235s0.786 0.337 1.123 0z"></path>
<path d="M17.404 22.905c0 0.806-0.654 1.46-1.46 1.46s-1.46-0.654-1.46-1.46c0-0.806 0.653-1.46 1.46-1.46s1.46 0.654 1.46 1.46z"></path>
</svg>
