<!-- Generated by IcoMoon.io -->
<svg version="1.1" xmlns="http://www.w3.org/2000/svg" width="32" height="32" viewBox="0 0 32 32">
<path d="M25.681 7.439c0 0.732-0.593 1.325-1.325 1.325s-1.325-0.593-1.325-1.325c0-0.732 0.593-1.325 1.325-1.325s1.325 0.593 1.325 1.325z"></path>
<path d="M28.025 6.522c-0.408 0-0.815 0.306-0.815 0.815s0.306 0.815 0.815 0.815c1.223 0 2.344 1.019 2.344 2.344v14.675c0 1.223-1.019 2.344-2.344 2.344h-24.153c-1.223 0-2.344-1.019-2.344-2.344v-18.242c0-1.223 1.019-2.344 2.344-2.344h8.459l3.465 3.465h4.586c0.408 0 0.815-0.306 0.815-0.815s-0.408-0.713-0.815-0.713h-3.974l-3.465-3.465h-9.172c-2.038 0-3.771 1.732-3.771 3.873v18.14c0 2.14 1.732 3.873 3.873 3.873h24.255c2.14 0 3.873-1.732 3.873-3.873v-14.675c-0.102-2.14-1.834-3.873-3.974-3.873z"></path>
<path d="M16.713 11.924c0-0.408-0.306-0.815-0.815-0.815s-0.815 0.306-0.815 0.815v5.095h-5.096c-0.408 0-0.815 0.306-0.815 0.815s0.306 0.815 0.815 0.815h5.096v5.096c0 0.408 0.306 0.815 0.815 0.815s0.815-0.306 0.815-0.815v-5.096h5.096c0.408 0 0.815-0.306 0.815-0.815s-0.306-0.815-0.815-0.815h-5.096v-5.096z"></path>
</svg>
