<?xml version="1.0" encoding="utf-8"?>
<!-- Generator: Adobe Illustrator 21.0.0, SVG Export Plug-In . SVG Version: 6.00 Build 0)  -->
<svg version="1.1" id="Layer_1" xmlns="http://www.w3.org/2000/svg" xmlns:xlink="http://www.w3.org/1999/xlink" x="0px" y="0px"
	 viewBox="0 0 26 29.8" style="enable-background:new 0 0 26 29.8;" xml:space="preserve">
<style type="text/css">
	.st0{fill:#FFFFFF;}
</style>
<path class="st0" d="M25.8,24.4c0,0-3.6-4.6-3.6-9.2V9.4c0-2.5-1-4.9-2.7-6.6c-0.1-0.1-0.2-0.2-0.3-0.3C15.6-0.9,9.9-0.8,6.5,2.8
	C4.7,4.6,3.8,6.9,3.8,9.4v5.8c0,4.6-3.6,9.1-3.6,9.2C0.1,24.5,0,24.7,0,24.9c0,0.4,0.3,0.7,0.8,0.7h7.7c0.2,2.3,2.2,4.1,4.5,4.1
	c2.4,0,4.3-1.8,4.5-4.1h7.7c0.2,0,0.3-0.1,0.5-0.2C26,25.2,26.1,24.7,25.8,24.4z M13.7,28.2c-1.7,0.4-3.3-0.6-3.7-2.2h6
	C15.7,27,14.8,27.9,13.7,28.2z M2.2,24.1c1.2-1.8,3.1-5.3,3.1-8.9V9.4c0-4.3,3.4-7.8,7.7-7.9c4.3,0.1,7.7,3.6,7.7,7.9v5.8
	c0,3.6,1.9,7.1,3.1,8.9H2.2z"/>
</svg>
