<!-- Generated by IcoMoon.io -->
<svg version="1.1" xmlns="http://www.w3.org/2000/svg" width="32" height="32" viewBox="0 0 32 32">
<path d="M28.067 10.547h-2.145v-9.654c0-0.536-0.358-0.894-0.894-0.894h-18.056c-0.536 0-0.894 0.358-0.894 0.894v9.654h-2.145c-2.145 0-3.933 1.788-3.933 3.933v7.508c0 2.145 1.788 3.933 3.933 3.933h2.145v5.184c0 0.536 0.358 0.894 0.894 0.894h18.056c0.536 0 0.894-0.358 0.894-0.894v-5.184h2.145c2.145 0 3.933-1.788 3.933-3.933v-7.508c-0.179-2.145-1.788-3.933-3.933-3.933zM7.866 1.788h16.268v8.76h-16.268v-8.76zM7.866 30.034v-10.19h16.268v5.184c0 0 0 0 0 0s0 0 0 0v5.184h-16.268zM30.034 21.989c0 1.251-0.894 2.145-2.145 2.145h-2.145v-5.184c0-0.536-0.358-0.894-0.894-0.894h-17.877c-0.536 0-0.894 0.358-0.894 0.894v5.184h-2.145c-1.251 0-2.145-0.894-2.145-2.145v-7.508c0-1.251 0.894-2.145 2.145-2.145h3.039c0 0 0 0 0 0s0 0 0 0h18.056c0 0 0 0 0 0s0 0 0 0h3.039c1.251 0 2.145 0.894 2.145 2.145v7.508z"></path>
</svg>
