<?xml version="1.0" encoding="utf-8"?>
<!-- Generator: Adobe Illustrator 27.0.0, SVG Export Plug-In . SVG Version: 6.00 Build 0)  -->
<svg version="1.1" id="Layer_1" xmlns="http://www.w3.org/2000/svg" xmlns:xlink="http://www.w3.org/1999/xlink" x="0px" y="0px"
	 viewBox="0 0 31.1 34" style="enable-background:new 0 0 31.1 34;" xml:space="preserve">
<style type="text/css">
	.st0{fill:#575757;}
	.st1{fill:none;}
	.st2{fill:#ABABAB;}
</style>
<g>
	<g>
		<path class="st0" d="M1.3,26.4c-0.4,0-0.8-0.3-0.8-0.8V13.1c0-0.4,0.3-0.8,0.8-0.8s0.8,0.3,0.8,0.8v12.6
			C2.1,26.1,1.7,26.4,1.3,26.4z"/>
	</g>
	<g>
		<path class="st0" d="M1.3,34c-0.4,0-0.8-0.3-0.8-0.8v-3.1c0-0.4,0.3-0.8,0.8-0.8s0.8,0.3,0.8,0.8v3.1C2.1,33.6,1.7,34,1.3,34z"/>
	</g>
	<g>
		<path class="st0" d="M8.6,26.4c-0.4,0-0.8-0.3-0.8-0.8V13.1c0-0.4,0.3-0.8,0.8-0.8s0.8,0.3,0.8,0.8v12.6C9.3,26.1,9,26.4,8.6,26.4
			z"/>
	</g>
	<g>
		<path class="st0" d="M8.6,34c-0.4,0-0.8-0.3-0.8-0.8v-3.1c0-0.4,0.3-0.8,0.8-0.8s0.8,0.3,0.8,0.8v3.1C9.3,33.6,9,34,8.6,34z"/>
	</g>
	<g>
		<path class="st0" d="M15.8,26.4c-0.4,0-0.8-0.3-0.8-0.8V13.1c0-0.4,0.3-0.8,0.8-0.8s0.8,0.3,0.8,0.8v12.6
			C16.6,26.1,16.2,26.4,15.8,26.4z"/>
	</g>
	<g>
		<path class="st0" d="M15.8,34c-0.4,0-0.8-0.3-0.8-0.8v-3.1c0-0.4,0.3-0.8,0.8-0.8s0.8,0.3,0.8,0.8v3.1C16.6,33.6,16.2,34,15.8,34z
			"/>
	</g>
	<g>
		<path class="st0" d="M23.1,26.4c-0.4,0-0.8-0.3-0.8-0.8V13.1c0-0.4,0.3-0.8,0.8-0.8s0.8,0.3,0.8,0.8v12.6
			C23.8,26.1,23.5,26.4,23.1,26.4z"/>
	</g>
	<g>
		<path class="st0" d="M23.1,34c-0.4,0-0.8-0.3-0.8-0.8v-3.1c0-0.4,0.3-0.8,0.8-0.8s0.8,0.3,0.8,0.8v3.1C23.8,33.6,23.5,34,23.1,34z
			"/>
	</g>
	<g>
		<path class="st0" d="M30.3,26.4c-0.4,0-0.8-0.3-0.8-0.8V13.1c0-0.4,0.3-0.8,0.8-0.8s0.8,0.3,0.8,0.8v12.6
			C31.1,26.1,30.8,26.4,30.3,26.4z"/>
	</g>
	<g>
		<path class="st0" d="M30.3,34c-0.4,0-0.8-0.3-0.8-0.8v-3.1c0-0.4,0.3-0.8,0.8-0.8s0.8,0.3,0.8,0.8v3.1C31.1,33.6,30.8,34,30.3,34z
			"/>
	</g>
	<g>
		<g>
			<path class="st1" d="M2,0h27c1.1,0,2,0.9,2,2v5c0,1.1-0.9,2-2,2H2C0.9,9,0,8.1,0,7V2C0,0.9,0.9,0,2,0z"/>
		</g>
		<g>
			<path class="st2" d="M29,9H2C0.9,9,0,8.1,0,7V2c0-1.1,0.9-2,2-2h27c1.1,0,2,0.9,2,2v5C31,8.1,30.1,9,29,9z M2,1.5
				C1.7,1.5,1.5,1.7,1.5,2v5c0,0.3,0.2,0.5,0.5,0.5h27c0.3,0,0.5-0.2,0.5-0.5V2c0-0.3-0.2-0.5-0.5-0.5H2z"/>
		</g>
	</g>
</g>
</svg>
