<!-- Generated by IcoMoon.io -->
<svg version="1.1" xmlns="http://www.w3.org/2000/svg" width="32" height="32" viewBox="0 0 32 32">
<path fill="#58cc87" d="M26.52 23.579v-7.411c0-0.505-0.337-0.842-0.842-0.842h-8.758v-6.905c2.021-0.337 3.368-2.189 3.368-4.211 0-2.358-1.853-4.211-4.211-4.211s-4.211 1.853-4.211 4.211c0 2.021 1.516 3.705 3.368 4.211v6.905h-8.926c-0.505 0-0.842 0.337-0.842 0.842v7.411c-2.021 0.337-3.368 2.189-3.368 4.211 0 2.358 1.853 4.211 4.211 4.211s4.211-1.853 4.211-4.211c0-2.021-1.516-3.705-3.368-4.211v-6.568h17.684v6.568c-2.021 0.337-3.368 2.189-3.368 4.211 0 2.358 1.853 4.211 4.211 4.211s4.211-1.853 4.211-4.211c0.168-2.021-1.347-3.705-3.368-4.211zM13.552 4.211c0-1.347 1.011-2.526 2.526-2.526 1.347 0 2.526 1.179 2.526 2.526s-1.179 2.526-2.526 2.526c-1.516 0.168-2.526-1.011-2.526-2.526zM9.004 27.789c0 1.347-1.179 2.526-2.526 2.526-1.516 0-2.695-1.179-2.695-2.526s1.179-2.526 2.526-2.526c0 0 0 0 0 0s0 0 0 0c1.516 0 2.695 1.179 2.695 2.526zM25.678 30.316c-1.347 0-2.526-1.179-2.526-2.526s1.179-2.526 2.526-2.526c0 0 0 0 0 0s0 0 0 0c1.347 0 2.526 1.179 2.526 2.526 0.168 1.347-1.011 2.526-2.526 2.526z"></path>
</svg>
