<svg id="Component_59_18" data-name="Component 59 – 18" xmlns="http://www.w3.org/2000/svg" width="42.788" height="42.788" viewBox="0 0 42.788 42.788">
  <defs>
    <style>
      .cls-1 {
        fill: #e3e6f1;
      }

      .cls-2 {
        fill: #374775;
      }
    </style>
  </defs>
  <g id="Group_3405" data-name="Group 3405" transform="translate(0 0)">
    <g id="Group_3454" data-name="Group 3454" transform="translate(5.741 5.741)">
      <ellipse id="Ellipse_554" data-name="Ellipse 554" class="cls-1" cx="15.252" cy="15.252" rx="15.252" ry="15.252" transform="translate(0.4 0.401)"/>
      <path id="Path_1297" data-name="Path 1297" class="cls-2" d="M159.087,175.915a15.653,15.653,0,1,1,15.652-15.653A15.67,15.67,0,0,1,159.087,175.915Zm0-30.5a14.852,14.852,0,1,0,14.851,14.852A14.869,14.869,0,0,0,159.087,145.41Z" transform="translate(-143.434 -144.609)"/>
    </g>
    <path id="Path_1298" data-name="Path 1298" class="cls-2" d="M162.232,151.072l2.648-1.808-.452-.661-3.972,2.713,2.994,3.764.628-.5-2.186-2.746a9.321,9.321,0,1,1-5.073.614.4.4,0,1,0-.312-.738,10.151,10.151,0,1,0,5.725-.639Z" transform="translate(-139.062 -139.664)"/>
    <g id="Group_3515" data-name="Group 3515">
      <g id="Group_3459" data-name="Group 3459" transform="translate(20.994)">
        <g id="Group_3458" data-name="Group 3458">
          <g id="Group_3457" data-name="Group 3457">
            <g id="Group_3456" data-name="Group 3456">
              <g id="Group_3455" data-name="Group 3455">
                <path id="Path_1299" data-name="Path 1299" class="cls-2" d="M162.879,141.255a.4.4,0,0,1-.4-.4v-3.014a.4.4,0,0,1,.8,0v3.014A.4.4,0,0,1,162.879,141.255Z" transform="translate(-162.479 -137.441)"/>
              </g>
            </g>
          </g>
        </g>
      </g>
      <g id="Group_3464" data-name="Group 3464" transform="translate(10.497 2.812)">
        <g id="Group_3463" data-name="Group 3463">
          <g id="Group_3462" data-name="Group 3462">
            <g id="Group_3461" data-name="Group 3461">
              <g id="Group_3460" data-name="Group 3460">
                <path id="Path_1300" data-name="Path 1300" class="cls-2" d="M151.28,144.364a.4.4,0,0,1-.348-.2l-1.506-2.61a.4.4,0,0,1,.694-.4l1.507,2.61a.4.4,0,0,1-.347.6Z" transform="translate(-149.372 -140.953)"/>
              </g>
            </g>
          </g>
        </g>
      </g>
      <g id="Group_3469" data-name="Group 3469" transform="translate(2.813 10.497)">
        <g id="Group_3468" data-name="Group 3468">
          <g id="Group_3467" data-name="Group 3467">
            <g id="Group_3466" data-name="Group 3466">
              <g id="Group_3465" data-name="Group 3465">
                <path id="Path_1301" data-name="Path 1301" class="cls-2" d="M142.787,152.855a.391.391,0,0,1-.2-.054l-2.61-1.506a.4.4,0,0,1,.4-.694l2.61,1.506a.4.4,0,0,1-.2.747Z" transform="translate(-139.777 -150.548)"/>
              </g>
            </g>
          </g>
        </g>
      </g>
      <g id="Group_3474" data-name="Group 3474" transform="translate(0 20.993)">
        <g id="Group_3473" data-name="Group 3473">
          <g id="Group_3472" data-name="Group 3472">
            <g id="Group_3471" data-name="Group 3471">
              <g id="Group_3470" data-name="Group 3470">
                <path id="Path_1302" data-name="Path 1302" class="cls-2" d="M139.679,164.455h-3.014a.4.4,0,0,1,0-.8h3.014a.4.4,0,1,1,0,.8Z" transform="translate(-136.265 -163.654)"/>
              </g>
            </g>
          </g>
        </g>
      </g>
      <g id="Group_3479" data-name="Group 3479" transform="translate(2.813 29.983)">
        <g id="Group_3478" data-name="Group 3478">
          <g id="Group_3477" data-name="Group 3477">
            <g id="Group_3476" data-name="Group 3476">
              <g id="Group_3475" data-name="Group 3475">
                <path id="Path_1303" data-name="Path 1303" class="cls-2" d="M140.177,177.187a.4.4,0,0,1-.2-.747l2.61-1.506a.4.4,0,0,1,.4.694l-2.61,1.506A.4.4,0,0,1,140.177,177.187Z" transform="translate(-139.777 -174.879)"/>
              </g>
            </g>
          </g>
        </g>
      </g>
      <g id="Group_3484" data-name="Group 3484" transform="translate(10.497 36.564)">
        <g id="Group_3483" data-name="Group 3483">
          <g id="Group_3482" data-name="Group 3482">
            <g id="Group_3481" data-name="Group 3481">
              <g id="Group_3480" data-name="Group 3480">
                <path id="Path_1304" data-name="Path 1304" class="cls-2" d="M149.772,186.508a.4.4,0,0,1-.347-.6l1.506-2.61a.4.4,0,0,1,.694.4l-1.507,2.61A.4.4,0,0,1,149.772,186.508Z" transform="translate(-149.372 -183.097)"/>
              </g>
            </g>
          </g>
        </g>
      </g>
      <g id="Group_3489" data-name="Group 3489" transform="translate(20.994 38.973)">
        <g id="Group_3488" data-name="Group 3488">
          <g id="Group_3487" data-name="Group 3487">
            <g id="Group_3486" data-name="Group 3486">
              <g id="Group_3485" data-name="Group 3485">
                <path id="Path_1305" data-name="Path 1305" class="cls-2" d="M162.879,189.92a.4.4,0,0,1-.4-.4v-3.014a.4.4,0,0,1,.8,0v3.014A.4.4,0,0,1,162.879,189.92Z" transform="translate(-162.479 -186.105)"/>
              </g>
            </g>
          </g>
        </g>
      </g>
      <g id="Group_3494" data-name="Group 3494" transform="translate(29.983 36.564)">
        <g id="Group_3493" data-name="Group 3493">
          <g id="Group_3492" data-name="Group 3492">
            <g id="Group_3491" data-name="Group 3491">
              <g id="Group_3490" data-name="Group 3490">
                <path id="Path_1306" data-name="Path 1306" class="cls-2" d="M175.612,186.508a.4.4,0,0,1-.348-.2l-1.506-2.61a.4.4,0,0,1,.694-.4l1.507,2.61a.4.4,0,0,1-.347.6Z" transform="translate(-173.704 -183.097)"/>
              </g>
            </g>
          </g>
        </g>
      </g>
      <g id="Group_3499" data-name="Group 3499" transform="translate(36.564 29.983)">
        <g id="Group_3498" data-name="Group 3498">
          <g id="Group_3497" data-name="Group 3497">
            <g id="Group_3496" data-name="Group 3496">
              <g id="Group_3495" data-name="Group 3495">
                <path id="Path_1307" data-name="Path 1307" class="cls-2" d="M184.931,177.187a.4.4,0,0,1-.2-.054l-2.61-1.506a.4.4,0,0,1,.4-.694l2.61,1.506a.4.4,0,0,1-.2.747Z" transform="translate(-181.921 -174.88)"/>
              </g>
            </g>
          </g>
        </g>
      </g>
      <g id="Group_3504" data-name="Group 3504" transform="translate(38.973 20.993)">
        <g id="Group_3503" data-name="Group 3503">
          <g id="Group_3502" data-name="Group 3502">
            <g id="Group_3501" data-name="Group 3501">
              <g id="Group_3500" data-name="Group 3500">
                <path id="Path_1308" data-name="Path 1308" class="cls-2" d="M188.343,164.455h-3.014a.4.4,0,0,1,0-.8h3.014a.4.4,0,0,1,0,.8Z" transform="translate(-184.929 -163.654)"/>
              </g>
            </g>
          </g>
        </g>
      </g>
      <g id="Group_3509" data-name="Group 3509" transform="translate(36.564 10.496)">
        <g id="Group_3508" data-name="Group 3508">
          <g id="Group_3507" data-name="Group 3507">
            <g id="Group_3506" data-name="Group 3506">
              <g id="Group_3505" data-name="Group 3505">
                <path id="Path_1309" data-name="Path 1309" class="cls-2" d="M182.322,152.855a.4.4,0,0,1-.2-.747l2.61-1.506a.4.4,0,1,1,.4.694l-2.61,1.506A.391.391,0,0,1,182.322,152.855Z" transform="translate(-181.921 -150.547)"/>
              </g>
            </g>
          </g>
        </g>
      </g>
      <g id="Group_3514" data-name="Group 3514" transform="translate(29.983 2.813)">
        <g id="Group_3513" data-name="Group 3513">
          <g id="Group_3512" data-name="Group 3512">
            <g id="Group_3511" data-name="Group 3511">
              <g id="Group_3510" data-name="Group 3510">
                <path id="Path_1310" data-name="Path 1310" class="cls-2" d="M174.1,144.364a.4.4,0,0,1-.347-.6l1.506-2.61a.4.4,0,0,1,.694.4l-1.507,2.61A.4.4,0,0,1,174.1,144.364Z" transform="translate(-173.704 -140.953)"/>
              </g>
            </g>
          </g>
        </g>
      </g>
    </g>
    <g id="Group_3516" data-name="Group 3516" transform="translate(19.343 16.978)">
      <path id="Path_1311" data-name="Path 1311" class="cls-2" d="M162.469,167.183a.4.4,0,0,1-.4-.4v-7.341h-1.25a.4.4,0,1,1,0-.8h1.651a.4.4,0,0,1,.4.4v7.741A.4.4,0,0,1,162.469,167.183Z" transform="translate(-160.418 -158.641)"/>
    </g>
  </g>
</svg>
