<?xml version="1.0" encoding="utf-8"?>
<!-- Generator: Adobe Illustrator 21.0.0, SVG Export Plug-In . SVG Version: 6.00 Build 0)  -->
<svg version="1.1" id="Layer_1" xmlns="http://www.w3.org/2000/svg" xmlns:xlink="http://www.w3.org/1999/xlink" x="0px" y="0px"
	 viewBox="0 0 17.8 17.8" style="enable-background:new 0 0 17.8 17.8;" xml:space="preserve">
<style type="text/css">
	.st0{fill:#FFFFFF;}
</style>
<path class="st0" d="M15.7,5.9h-1.2V0.5C14.5,0.2,14.3,0,14,0H3.9C3.6,0,3.4,0.2,3.4,0.5v5.4H2.2C1,5.9,0,6.9,0,8.1v4.2
	c0,1.2,1,2.2,2.2,2.2h1.2v2.9c0,0.3,0.2,0.5,0.5,0.5H14c0.3,0,0.5-0.2,0.5-0.5v-2.9h1.2c1.2,0,2.2-1,2.2-2.2V8.1
	C17.8,6.9,16.9,5.9,15.7,5.9z M4.4,1h9.1v4.9H4.4V1z M4.4,16.8v-5.7h9.1V14c0,0,0,0,0,0s0,0,0,0v2.9H4.4z M16.8,12.3
	c0,0.7-0.5,1.2-1.2,1.2h-1.2v-2.9c0-0.3-0.2-0.5-0.5-0.5H3.9c-0.3,0-0.5,0.2-0.5,0.5v2.9H2.2C1.5,13.5,1,13,1,12.3V8.1
	c0-0.7,0.5-1.2,1.2-1.2h1.7c0,0,0,0,0,0s0,0,0,0H14c0,0,0,0,0,0s0,0,0,0h1.7c0.7,0,1.2,0.5,1.2,1.2V12.3z"/>
</svg>
