<svg id="Component_57_26" data-name="Component 57 – 26" xmlns="http://www.w3.org/2000/svg" width="31.311" height="38.127" viewBox="0 0 31.311 38.127">
  <defs>
    <style>
      .cls-1 {
        fill: #c2c9db;
      }

      .cls-2 {
        fill: #374775;
      }
    </style>
  </defs>
  <g id="Group_3398" data-name="Group 3398">
    <path id="Path_1280" data-name="Path 1280" class="cls-1" d="M50.448,147.161v.02L42.831,160.35v.02H42.81V145.115A15.207,15.207,0,0,1,50.448,147.161Z" transform="translate(-27.155 -137.899)"/>
    <g id="Group_3394" data-name="Group 3394" transform="translate(22.893 29.688)">
      <g id="Group_3392" data-name="Group 3392" transform="translate(0 5.572)">
        <path id="Path_1281" data-name="Path 1281" class="cls-2" d="M52.247,180.943a.392.392,0,0,1-.4-.391v-.02a.4.4,0,1,1,.8,0A.409.409,0,0,1,52.247,180.943Z" transform="translate(-51.847 -180.132)"/>
      </g>
      <g id="Group_3393" data-name="Group 3393" transform="translate(5.552)">
        <path id="Path_1282" data-name="Path 1282" class="cls-2" d="M59.2,173.976h-.02a.4.4,0,1,1,0-.8.41.41,0,0,1,.411.4A.391.391,0,0,1,59.2,173.976Z" transform="translate(-58.779 -173.175)"/>
      </g>
    </g>
    <g id="Group_3396" data-name="Group 3396" transform="translate(28.444 14.432)">
      <g id="Group_3395" data-name="Group 3395">
        <path id="Path_1283" data-name="Path 1283" class="cls-2" d="M59.2,154.927h-.02a.4.4,0,1,1,0-.8.41.41,0,0,1,.411.4A.391.391,0,0,1,59.2,154.927Z" transform="translate(-58.779 -154.126)"/>
      </g>
    </g>
    <path id="Path_1284" data-name="Path 1284" class="cls-2" d="M52.521,167.962a15.486,15.486,0,0,0-.018-15.438.425.425,0,0,0-.027-.082.382.382,0,0,0-.054-.06,15.272,15.272,0,0,0-5.615-5.616c-.018-.017-.03-.04-.052-.053a15.716,15.716,0,0,0-7.838-2.1,15.559,15.559,0,0,0-7.788,2.084.381.381,0,0,0-.039.013c-.013.008-.021.021-.033.03a15.492,15.492,0,0,0-5.591,5.581.407.407,0,0,0-.107.12.4.4,0,0,0-.03.089,15.708,15.708,0,0,0-2.043,7.62.4.4,0,0,0-.024.119.39.39,0,0,0,.024.119,15.673,15.673,0,0,0,2.025,7.566.4.4,0,0,0,.048.144.36.36,0,0,0,.077.075,15.736,15.736,0,0,0,5.623,5.627.256.256,0,0,0,.031.028c.009,0,.018,0,.027.007a15.566,15.566,0,0,0,7.8,2.09,15.314,15.314,0,0,0,7.767-2.081.323.323,0,0,0,.061-.016.346.346,0,0,0,.062-.055,15.487,15.487,0,0,0,5.595-5.6.369.369,0,0,0,.074-.072A.415.415,0,0,0,52.521,167.962Zm-13.2-19.934v-2.608A14.667,14.667,0,0,1,46,147.208l-1.3,2.26a.415.415,0,0,0-.028.084l-5.346,9.241Zm7.36,24.883-1.293-2.239a.4.4,0,1,0-.694.4l1.294,2.241a14.485,14.485,0,0,1-6.668,1.8v-2.6a.4.4,0,1,0-.8,0v2.6a14.741,14.741,0,0,1-6.67-1.792l1.3-2.247a.4.4,0,0,0-.694-.4l-1.3,2.245a14.931,14.931,0,0,1-4.868-4.891l2.23-1.288a.4.4,0,1,0-.4-.694l-2.23,1.288a14.872,14.872,0,0,1-1.79-6.662h2.58a.4.4,0,1,0,0-.8h-2.58a14.679,14.679,0,0,1,1.781-6.666l2.239,1.293a.4.4,0,0,0,.2.054.4.4,0,0,0,.2-.748l-2.226-1.285a14.679,14.679,0,0,1,4.864-4.894l1.3,2.245a.4.4,0,0,0,.348.2.391.391,0,0,0,.2-.054.4.4,0,0,0,.147-.547l-1.3-2.247a14.749,14.749,0,0,1,6.671-1.8V160.27a.418.418,0,0,0,.42.4.406.406,0,0,0,.365-.251l7.4-12.789a14.483,14.483,0,0,1,4.86,4.877L49.319,153.8a.4.4,0,1,0,.4.694L51.96,153.2a14.481,14.481,0,0,1,1.8,6.667h-2.6a.4.4,0,1,0,0,.8h2.6a14.678,14.678,0,0,1-1.808,6.662l-2.232-1.289a.4.4,0,1,0-.4.694l2.232,1.289A14.679,14.679,0,0,1,46.678,172.911Z" transform="translate(-23.262 -137.8)"/>
    <path id="Path_1285" data-name="Path 1285" class="cls-2" d="M52.862,141.428a19.937,19.937,0,0,0-8.342-2.664l2.577-2.03-.5-.629-3.777,2.977,3.243,3.551.593-.54-2.321-2.54a19.128,19.128,0,0,1,8.118,2.565.4.4,0,0,0,.2.055.4.4,0,0,0,.2-.746Z" transform="translate(-27.157 -136.105)"/>
    <g id="Group_3397" data-name="Group 3397" transform="translate(8.596 18.2)">
      <path id="Path_1286" data-name="Path 1286" class="cls-2" d="M36.046,167.373a.4.4,0,0,1-.4-.4v-7.341H34.4a.4.4,0,1,1,0-.8h1.65a.4.4,0,0,1,.4.4v7.742A.4.4,0,0,1,36.046,167.373Z" transform="translate(-33.996 -158.83)"/>
    </g>
  </g>
</svg>
