<!-- Generated by IcoMoon.io -->
<svg version="1.1" xmlns="http://www.w3.org/2000/svg" width="32" height="32" viewBox="0 0 32 32">
<path fill="#374775" d="M15.966 4.295c-6.434 0-11.671 5.237-11.671 11.671 0 6.509 5.237 11.746 11.746 11.746 6.434 0 11.671-5.237 11.671-11.746 0-6.434-5.237-11.671-11.746-11.671zM15.966 27.113c-6.135 0-11.147-4.938-11.147-11.072s5.012-11.147 11.147-11.147v0c6.135 0 11.072 5.012 11.072 11.147 0.075 6.135-4.938 11.072-11.072 11.072z"></path>
<path fill="#e3e6f1" d="M27.114 16.041c0 6.135-4.938 11.072-11.072 11.072s-11.147-4.938-11.147-11.072 4.938-11.147 11.072-11.147v0c6.135 0 11.147 5.012 11.147 11.147z"></path>
<path fill="#374775" d="M17.357 8.529l1.945-1.347-0.374-0.524-2.993 2.020 2.244 2.843 0.449-0.374-1.646-2.020c3.816 0.598 6.434 4.19 5.761 8.005-0.599 3.816-4.19 6.434-8.005 5.761-3.816-0.599-6.434-4.19-5.761-8.005 0.374-2.394 1.945-4.414 4.19-5.312 0.15-0.075 0.224-0.224 0.15-0.374s-0.224-0.224-0.374-0.15v0c-3.89 1.646-5.686 6.060-4.040 9.95s6.060 5.686 9.95 4.040c3.89-1.646 5.686-6.060 4.040-9.95-0.898-2.394-2.993-4.115-5.536-4.564v0z"></path>
<path fill="#374775" d="M16.005 2.843c-0.15 0-0.299-0.15-0.299-0.299v-2.244c0-0.15 0.15-0.299 0.299-0.299s0.299 0.15 0.299 0.299v0 2.244c0 0.15-0.15 0.299-0.299 0.299v0z"></path>
<path fill="#374775" d="M9.274 4.648c-0.075 0-0.224-0.075-0.224-0.15l-1.122-1.945c-0.075-0.15 0-0.299 0.075-0.374s0.299 0 0.374 0.075v0l1.122 1.945c0.075 0.15 0 0.299-0.075 0.374 0 0 0 0 0 0 0 0.075-0.075 0.075-0.15 0.075z"></path>
<path fill="#374775" d="M4.349 9.574c-0.075 0-0.075 0-0.15-0.075l-1.945-1.122c-0.15-0.075-0.224-0.224-0.15-0.374s0.299-0.224 0.374-0.075v0l1.945 1.122c0.15 0.075 0.224 0.299 0.15 0.374 0 0.075-0.075 0.15-0.224 0.15v0z"></path>
<path fill="#374775" d="M2.544 16.305h-2.244c-0.15 0-0.299-0.15-0.299-0.299s0.15-0.299 0.299-0.299h2.244c0.15 0 0.299 0.15 0.299 0.299s-0.15 0.299-0.299 0.299z"></path>
<path fill="#374775" d="M2.403 24.152c-0.15 0-0.299-0.15-0.299-0.299 0-0.075 0.075-0.224 0.15-0.299l1.945-1.122c0.15-0.075 0.374 0 0.449 0.15s0 0.299-0.075 0.374l-2.020 1.197c-0.075 0-0.075 0-0.15 0z"></path>
<path fill="#374775" d="M8.152 29.898c-0.075 0-0.075 0-0.15-0.075-0.15-0.075-0.224-0.224-0.075-0.374 0 0 0 0 0 0l1.122-1.945c0.075-0.15 0.224-0.224 0.374-0.075s0.224 0.299 0.075 0.374v0l-1.122 1.945c0 0.075-0.15 0.15-0.224 0.15z"></path>
<path fill="#374775" d="M16.005 32c-0.15 0-0.299-0.15-0.299-0.299v-2.244c0-0.15 0.15-0.299 0.299-0.299s0.299 0.15 0.299 0.299v2.244c0 0.15-0.15 0.299-0.299 0.299z"></path>
<path fill="#374775" d="M23.853 29.898c-0.075 0-0.224-0.075-0.224-0.15l-1.122-1.945c-0.075-0.15 0-0.299 0.075-0.374s0.299 0 0.374 0.075l1.122 1.945c0.075 0.15 0 0.299-0.075 0.374 0 0 0 0 0 0-0.075 0.075-0.075 0.075-0.15 0.075z"></path>
<path fill="#374775" d="M29.599 24.152c-0.075 0-0.075 0-0.15-0.075l-1.945-1.122c-0.15-0.075-0.224-0.224-0.075-0.374s0.299-0.224 0.374-0.075v0l1.945 1.122c0.15 0.075 0.224 0.299 0.15 0.374s-0.15 0.15-0.299 0.15v0z"></path>
<path fill="#374775" d="M31.7 16.305h-2.244c-0.15 0-0.299-0.15-0.299-0.299s0.15-0.299 0.299-0.299v0h2.244c0.15 0 0.299 0.15 0.299 0.299s-0.15 0.299-0.299 0.299v0z"></path>
<path fill="#374775" d="M27.654 9.574c-0.15 0-0.299-0.15-0.299-0.299 0-0.075 0.075-0.224 0.15-0.299l1.945-1.122c0.15-0.075 0.299 0 0.449 0.15s0 0.299-0.075 0.374v0l-2.020 1.197c-0.075 0-0.075 0-0.15 0z"></path>
<path fill="#374775" d="M22.731 4.648c-0.075 0-0.075 0-0.15-0.075-0.15-0.075-0.224-0.224-0.075-0.374 0 0 0 0 0 0l1.122-1.945c0.075-0.15 0.224-0.224 0.374-0.075s0.224 0.299 0.075 0.374v0l-1.122 1.945c0 0.075-0.15 0.15-0.224 0.15z"></path>
<path fill="#374775" d="M14.638 19.352c-0.15 0-0.299-0.15-0.299-0.299 0-0.075 0-0.075 0-0.15l2.618-5.387h-2.394c-0.15 0.075-0.299-0.075-0.299-0.224s0.15-0.299 0.299-0.299v0h2.918c0.15 0 0.299 0.15 0.299 0.299 0 0.075 0 0.075 0 0.15l-2.918 5.761c0 0.15-0.15 0.15-0.224 0.15z"></path>
</svg>
