<?xml version="1.0" encoding="utf-8"?>
<!-- Generator: Adobe Illustrator 21.0.0, SVG Export Plug-In . SVG Version: 6.00 Build 0)  -->
<svg version="1.1" id="Layer_1" xmlns="http://www.w3.org/2000/svg" xmlns:xlink="http://www.w3.org/1999/xlink" x="0px" y="0px"
	 viewBox="0 0 46.7 44.8" style="enable-background:new 0 0 46.7 44.8;" xml:space="preserve">
<style type="text/css">
	.st0{fill:#FFC917;}
	.st1{fill:#959DB8;}
</style>
<g id="PERFORMANCE_icon" transform="translate(-1.25 -3.698)">
	<path class="st0" d="M47.7,14.7l-2.8-9.2l-9.1,0.8c-0.4,0-0.7,0.4-0.7,0.8c0,0.4,0.4,0.7,0.8,0.7l6.9-0.6l-7.7,10.9l-6.4-4.4
		c-0.3-0.2-0.8-0.2-1,0.2l-8.7,11.8l-8.1-5.4c-0.3-0.2-0.7-0.2-1,0.1l-8.4,8.9c-0.1,0.1-0.2,0.3-0.2,0.5c0,0.4,0.3,0.8,0.7,0.8
		c0.2,0,0.4-0.1,0.5-0.2l8-8.4l8.2,5.5c0.3,0.2,0.8,0.1,1-0.2l8.7-11.8l6.4,4.4c0.3,0.2,0.8,0.1,1-0.2L44.1,8l2.2,7.2
		c0.1,0.4,0.5,0.6,0.9,0.5C47.6,15.5,47.8,15.1,47.7,14.7z"/>
	<path id="Line_31" class="st1" d="M2.8,48.5c-0.4,0-0.8-0.3-0.8-0.8V36.2c0-0.4,0.3-0.8,0.8-0.8s0.8,0.3,0.8,0.8v11.6
		C3.6,48.2,3.2,48.5,2.8,48.5z"/>
	<path id="Line_32" class="st1" d="M11.1,48.5c-0.4,0-0.8-0.3-0.8-0.8V29.6c0-0.4,0.3-0.8,0.8-0.8s0.8,0.3,0.8,0.8v18.2
		C11.8,48.2,11.5,48.5,11.1,48.5z"/>
	<path id="Line_33" class="st1" d="M19.3,47.7c-0.4,0-0.8-0.3-0.8-0.8V34.5c0-0.4,0.3-0.8,0.8-0.8s0.8,0.3,0.8,0.8v12.4
		C20.1,47.3,19.7,47.7,19.3,47.7z"/>
	<path id="Line_34" class="st1" d="M27.6,47.7c-0.4,0-0.8-0.3-0.8-0.8V24.6c0-0.4,0.3-0.8,0.8-0.8s0.8,0.3,0.8,0.8v22.3
		C28.3,47.3,28,47.7,27.6,47.7z"/>
	<path id="Line_35" class="st1" d="M35.8,47.7c-0.4,0-0.8-0.3-0.8-0.8V26.3c0-0.4,0.3-0.8,0.8-0.8s0.8,0.3,0.8,0.8v20.6
		C36.6,47.3,36.3,47.7,35.8,47.7z"/>
	<path id="Path_801" class="st1" d="M44.1,47.7c-0.4,0-0.7-0.3-0.7-0.7v-0.1c0-0.4,0.3-0.8,0.7-0.8c0.4,0,0.8,0.3,0.8,0.7v0.1
		C44.8,47.3,44.5,47.7,44.1,47.7C44.1,47.7,44.1,47.7,44.1,47.7L44.1,47.7z M44,44.6c-0.4,0-0.7-0.3-0.8-0.7v-0.1
		c0-0.4,0.3-0.8,0.7-0.8c0.4,0,0.8,0.3,0.8,0.7v0.1C44.8,44.2,44.5,44.6,44,44.6C44.1,44.6,44.1,44.6,44,44.6L44,44.6z M44,41.5
		c-0.4,0-0.7-0.3-0.8-0.7v-0.1c0-0.4,0.3-0.8,0.7-0.8c0.4,0,0.8,0.3,0.8,0.7v0.1C44.8,41.1,44.4,41.5,44,41.5
		C44,41.5,44,41.5,44,41.5L44,41.5z M44,38.4c-0.4,0-0.7-0.3-0.8-0.7v-0.1c0-0.4,0.3-0.8,0.7-0.8c0.4,0,0.8,0.3,0.8,0.7v0.1
		C44.7,38,44.4,38.4,44,38.4C44,38.4,44,38.4,44,38.4L44,38.4z M43.9,35.3c-0.4,0-0.7-0.3-0.8-0.7v-0.1c0-0.4,0.3-0.8,0.7-0.8
		c0,0,0,0,0,0c0.4,0,0.8,0.3,0.8,0.7c0,0,0,0,0,0v0.1C44.7,34.9,44.3,35.3,43.9,35.3C43.9,35.3,43.9,35.3,43.9,35.3L43.9,35.3z
		 M43.9,32.2c-0.4,0-0.7-0.3-0.8-0.7v-0.1c0-0.4,0.3-0.8,0.7-0.8c0,0,0,0,0,0c0.4,0,0.8,0.3,0.8,0.7c0,0,0,0,0,0v0.1
		C44.6,31.8,44.3,32.2,43.9,32.2C43.9,32.2,43.9,32.2,43.9,32.2L43.9,32.2z M43.8,29.1c-0.4,0-0.7-0.3-0.8-0.7v-0.1
		c0-0.4,0.3-0.8,0.7-0.8c0,0,0,0,0,0c0.4,0,0.8,0.3,0.8,0.7c0,0,0,0,0,0v0.1C44.6,28.7,44.2,29.1,43.8,29.1
		C43.8,29.1,43.8,29.1,43.8,29.1L43.8,29.1z M43.8,26c-0.4,0-0.7-0.3-0.8-0.7v-0.1c0-0.4,0.3-0.8,0.7-0.8c0,0,0,0,0,0
		c0.4,0,0.8,0.3,0.8,0.7c0,0,0,0,0,0v0.1C44.5,25.6,44.2,26,43.8,26C43.8,26,43.8,26,43.8,26L43.8,26z M43.7,22.9
		c-0.4,0-0.7-0.3-0.8-0.7V22c0-0.4,0.3-0.8,0.7-0.8c0,0,0,0,0,0c0.4,0,0.8,0.3,0.8,0.7c0,0,0,0,0,0v0.1
		C44.5,22.5,44.2,22.9,43.7,22.9L43.7,22.9z"/>
</g>
</svg>
