<svg id="Component_58_30" data-name="Component 58 – 30" xmlns="http://www.w3.org/2000/svg" width="35.543" height="42.346" viewBox="0 0 35.543 42.346">
  <defs>
    <style>
      .cls-1 {
        fill: #e3e6f1;
      }

      .cls-2 {
        fill: #374775;
      }
    </style>
  </defs>
  <g id="Group_3403" data-name="Group 3403">
    <path id="Path_1287" data-name="Path 1287" class="cls-1" d="M115.47,160.37a15.189,15.189,0,0,1-2.046,7.618,15.361,15.361,0,0,1-5.571,5.592,15.135,15.135,0,0,1-7.618,2.046v-30.51a15.182,15.182,0,0,1,13.169,7.617h.02A15.207,15.207,0,0,1,115.47,160.37Z" transform="translate(-84.579 -137.903)"/>
    <path id="Path_1288" data-name="Path 1288" class="cls-2" d="M101.844,138.758l2.568-2.018-.5-.63-3.78,2.974,3.239,3.554.593-.539-2.327-2.552a19.084,19.084,0,0,1-1.506,38.108.4.4,0,1,0,0,.8,19.886,19.886,0,0,0,1.709-39.7Z" transform="translate(-84.479 -136.11)"/>
    <path id="Path_1289" data-name="Path 1289" class="cls-2" d="M88.542,173.836c.011,0,.023.006.034.01a15.315,15.315,0,0,0,7.766,2.081,15.559,15.559,0,0,0,7.8-2.09c.009,0,.019,0,.028-.007a.389.389,0,0,0,.033-.029,15.74,15.74,0,0,0,5.622-5.627.272.272,0,0,0,.123-.217,15.667,15.667,0,0,0,2.025-7.567.39.39,0,0,0,.024-.119.4.4,0,0,0-.024-.119,15.7,15.7,0,0,0-2.044-7.622.4.4,0,0,0-.029-.087.414.414,0,0,0-.108-.121,15.49,15.49,0,0,0-5.589-5.58.306.306,0,0,0-.034-.03.382.382,0,0,0-.039-.013,15.562,15.562,0,0,0-7.788-2.084,15.718,15.718,0,0,0-7.838,2.1.376.376,0,0,0-.086.07,15.284,15.284,0,0,0-5.556,5.557.408.408,0,0,0-.065.086c0,.006-.01.009-.014.015l0,.01a.38.38,0,0,0-.027.078,15.486,15.486,0,0,0-.015,15.433.466.466,0,0,0,.023.069l.006.017c.007.016.008.034.017.05s.034.031.05.05a.358.358,0,0,0,.029.032,15.5,15.5,0,0,0,5.554,5.572.42.42,0,0,0,.053.038.416.416,0,0,0,.044.039C88.522,173.834,88.533,173.832,88.542,173.836Zm20.428-21.318-2.226,1.285a.4.4,0,1,0,.4.694l2.239-1.293a14.679,14.679,0,0,1,1.781,6.666h-2.58a.4.4,0,1,0,0,.8h2.58a14.866,14.866,0,0,1-1.79,6.662l-2.23-1.288a.4.4,0,1,0-.4.694l2.23,1.288a14.931,14.931,0,0,1-4.868,4.891l-1.3-2.245a.4.4,0,0,0-.694.4l1.3,2.247a14.76,14.76,0,0,1-6.671,1.8v-29.7a14.755,14.755,0,0,1,6.671,1.8l-1.3,2.247a.4.4,0,0,0,.147.547.4.4,0,0,0,.2.054.4.4,0,0,0,.348-.2l1.3-2.245A14.679,14.679,0,0,1,108.969,152.518ZM83.708,168.027l2.232-1.289a.4.4,0,1,0-.4-.694l-2.233,1.289a14.684,14.684,0,0,1-1.807-6.662h2.6a.4.4,0,1,0,0-.8H81.5a14.5,14.5,0,0,1,1.8-6.667L85.54,154.5a.4.4,0,0,0,.4-.694L83.7,152.509a14.469,14.469,0,0,1,4.881-4.881l1.294,2.241a.4.4,0,0,0,.694-.4l-1.3-2.255a14.677,14.677,0,0,1,6.676-1.792v29.7a14.5,14.5,0,0,1-6.668-1.807l1.294-2.242a.4.4,0,1,0-.694-.4l-1.293,2.239A14.692,14.692,0,0,1,83.708,168.027Z" transform="translate(-80.686 -137.804)"/>
    <path id="Path_1290" data-name="Path 1290" class="cls-2" d="M92.427,168.354a3.491,3.491,0,0,0,0-6.983,3.457,3.457,0,0,0-1.3.257l2.34-4.342a.4.4,0,1,0-.7-.38L89.3,163.334a.2.2,0,0,0-.007.023,3.445,3.445,0,0,0-.355,1.506A3.5,3.5,0,0,0,92.427,168.354Zm2.69-3.491a2.69,2.69,0,1,1-2.69-2.691A2.693,2.693,0,0,1,95.117,164.863Z" transform="translate(-82.329 -140.209)"/>
  </g>
</svg>
