<?xml version="1.0" encoding="utf-8"?>
<!-- Generator: Adobe Illustrator 21.0.0, SVG Export Plug-In . SVG Version: 6.00 Build 0)  -->
<svg version="1.1" id="Component_60_18" xmlns="http://www.w3.org/2000/svg" xmlns:xlink="http://www.w3.org/1999/xlink" x="0px"
	 y="0px" viewBox="0 0 42.8 42.8" style="enable-background:new 0 0 42.8 42.8;" xml:space="preserve">
<style type="text/css">
	.st0{fill:#374775;}
	.st1{fill:#E3E6F1;}
</style>
<g id="Group_3517" transform="translate(0 0)">
	<g id="Group_3517-2" transform="translate(5.741 5.741)">
		<path class="st0" d="M15.6,0C7,0,0,7,0,15.6c0,8.7,7,15.7,15.7,15.7c8.6,0,15.6-7,15.6-15.7C31.3,7,24.3,0,15.6,0z M15.6,30.5
			c-8.2,0-14.9-6.6-14.9-14.8S7.4,0.8,15.6,0.8v0c8.2,0,14.8,6.7,14.8,14.9C30.5,23.9,23.8,30.5,15.6,30.5z"/>
		<path class="st1" d="M30.5,15.7c0,8.2-6.6,14.8-14.8,14.8S0.8,23.9,0.8,15.7S7.4,0.8,15.6,0.8v0C23.8,0.8,30.5,7.5,30.5,15.7z"/>
	</g>
	<path id="Path_1313" class="st0" d="M23.2,11.4l2.6-1.8l-0.5-0.7l-4,2.7l3,3.8l0.6-0.5l-2.2-2.7c5.1,0.8,8.6,5.6,7.7,10.7
		c-0.8,5.1-5.6,8.6-10.7,7.7c-5.1-0.8-8.6-5.6-7.7-10.7c0.5-3.2,2.6-5.9,5.6-7.1c0.2-0.1,0.3-0.3,0.2-0.5c-0.1-0.2-0.3-0.3-0.5-0.2
		l0,0c-5.2,2.2-7.6,8.1-5.4,13.3c2.2,5.2,8.1,7.6,13.3,5.4c5.2-2.2,7.6-8.1,5.4-13.3C29.4,14.3,26.6,12,23.2,11.4L23.2,11.4z"/>
	<g id="Group_3578">
		<g id="Group_3522" transform="translate(20.993)">
			<g id="Group_3521">
				<g id="Group_3520">
					<g id="Group_3519">
						<g id="Group_3518">
							<path id="Path_1314" class="st0" d="M0.4,3.8C0.2,3.8,0,3.6,0,3.4v-3C0,0.2,0.2,0,0.4,0c0.2,0,0.4,0.2,0.4,0.4l0,0v3
								C0.8,3.6,0.6,3.8,0.4,3.8L0.4,3.8z"/>
						</g>
					</g>
				</g>
			</g>
		</g>
		<g id="Group_3527" transform="translate(10.496 2.813)">
			<g id="Group_3526">
				<g id="Group_3525">
					<g id="Group_3524">
						<g id="Group_3523">
							<path id="Path_1315" class="st0" d="M1.9,3.4c-0.1,0-0.3-0.1-0.3-0.2L0.1,0.6c-0.1-0.2,0-0.4,0.1-0.5s0.4,0,0.5,0.1l0,0
								l1.5,2.6c0.1,0.2,0,0.4-0.1,0.5c0,0,0,0,0,0C2.1,3.4,2,3.4,1.9,3.4z"/>
						</g>
					</g>
				</g>
			</g>
		</g>
		<g id="Group_3532" transform="translate(2.812 10.497)">
			<g id="Group_3531">
				<g id="Group_3530">
					<g id="Group_3529">
						<g id="Group_3528">
							<path id="Path_1316" class="st0" d="M3,2.3c-0.1,0-0.1,0-0.2-0.1L0.2,0.7C0,0.6-0.1,0.4,0,0.2s0.4-0.3,0.5-0.1l0,0l2.6,1.5
								c0.2,0.1,0.3,0.4,0.2,0.5C3.3,2.2,3.2,2.3,3,2.3L3,2.3z"/>
						</g>
					</g>
				</g>
			</g>
		</g>
		<g id="Group_3537" transform="translate(0 20.994)">
			<g id="Group_3536">
				<g id="Group_3535">
					<g id="Group_3534">
						<g id="Group_3533">
							<path id="Path_1317" class="st0" d="M3.4,0.8h-3C0.2,0.8,0,0.6,0,0.4C0,0.2,0.2,0,0.4,0h3c0.2,0,0.4,0.2,0.4,0.4
								C3.8,0.6,3.6,0.8,3.4,0.8z"/>
						</g>
					</g>
				</g>
			</g>
		</g>
		<g id="Group_3542" transform="translate(2.812 29.983)">
			<g id="Group_3541">
				<g id="Group_3540">
					<g id="Group_3539">
						<g id="Group_3538">
							<path id="Path_1318" class="st0" d="M0.4,2.3C0.2,2.3,0,2.1,0,1.9c0-0.1,0.1-0.3,0.2-0.4l2.6-1.5C3-0.1,3.3,0,3.4,0.2
								s0,0.4-0.1,0.5L0.6,2.3C0.5,2.3,0.5,2.3,0.4,2.3z"/>
						</g>
					</g>
				</g>
			</g>
		</g>
		<g id="Group_3547" transform="translate(10.496 36.564)">
			<g id="Group_3546">
				<g id="Group_3545">
					<g id="Group_3544">
						<g id="Group_3543">
							<path id="Path_1319" class="st0" d="M0.4,3.4c-0.1,0-0.1,0-0.2-0.1C0,3.2-0.1,3,0.1,2.8c0,0,0,0,0,0l1.5-2.6
								C1.7,0,1.9-0.1,2.1,0.1s0.3,0.4,0.1,0.5l0,0L0.7,3.2C0.7,3.3,0.5,3.4,0.4,3.4z"/>
						</g>
					</g>
				</g>
			</g>
		</g>
		<g id="Group_3552" transform="translate(20.993 38.973)">
			<g id="Group_3551">
				<g id="Group_3550">
					<g id="Group_3549">
						<g id="Group_3548">
							<path id="Path_1320" class="st0" d="M0.4,3.8C0.2,3.8,0,3.6,0,3.4v-3C0,0.2,0.2,0,0.4,0c0.2,0,0.4,0.2,0.4,0.4v3
								C0.8,3.6,0.6,3.8,0.4,3.8z"/>
						</g>
					</g>
				</g>
			</g>
		</g>
		<g id="Group_3557" transform="translate(29.983 36.564)">
			<g id="Group_3556">
				<g id="Group_3555">
					<g id="Group_3554">
						<g id="Group_3553">
							<path id="Path_1321" class="st0" d="M1.9,3.4c-0.1,0-0.3-0.1-0.3-0.2L0.1,0.6c-0.1-0.2,0-0.4,0.1-0.5s0.4,0,0.5,0.1l1.5,2.6
								c0.1,0.2,0,0.4-0.1,0.5c0,0,0,0,0,0C2,3.4,2,3.4,1.9,3.4z"/>
						</g>
					</g>
				</g>
			</g>
		</g>
		<g id="Group_3562" transform="translate(36.563 29.983)">
			<g id="Group_3561">
				<g id="Group_3560">
					<g id="Group_3559">
						<g id="Group_3558">
							<path id="Path_1322" class="st0" d="M3,2.3c-0.1,0-0.1,0-0.2-0.1L0.2,0.7C0,0.6-0.1,0.4,0.1,0.2s0.4-0.3,0.5-0.1l0,0l2.6,1.5
								c0.2,0.1,0.3,0.4,0.2,0.5C3.3,2.2,3.2,2.3,3,2.3L3,2.3z"/>
						</g>
					</g>
				</g>
			</g>
		</g>
		<g id="Group_3567" transform="translate(38.972 20.994)">
			<g id="Group_3566">
				<g id="Group_3565">
					<g id="Group_3564">
						<g id="Group_3563">
							<path id="Path_1323" class="st0" d="M3.4,0.8h-3C0.2,0.8,0,0.6,0,0.4C0,0.2,0.2,0,0.4,0l0,0h3c0.2,0,0.4,0.2,0.4,0.4
								C3.8,0.6,3.6,0.8,3.4,0.8L3.4,0.8z"/>
						</g>
					</g>
				</g>
			</g>
		</g>
		<g id="Group_3572" transform="translate(36.563 10.497)">
			<g id="Group_3571">
				<g id="Group_3570">
					<g id="Group_3569">
						<g id="Group_3568">
							<path id="Path_1324" class="st0" d="M0.4,2.3C0.2,2.3,0,2.1,0,1.9c0-0.1,0.1-0.3,0.2-0.4l2.6-1.5C3-0.1,3.2,0,3.4,0.2
								s0,0.4-0.1,0.5l0,0L0.6,2.3C0.5,2.3,0.5,2.3,0.4,2.3z"/>
						</g>
					</g>
				</g>
			</g>
		</g>
		<g id="Group_3577" transform="translate(29.983 2.813)">
			<g id="Group_3576">
				<g id="Group_3575">
					<g id="Group_3574">
						<g id="Group_3573">
							<path id="Path_1325" class="st0" d="M0.4,3.4c-0.1,0-0.1,0-0.2-0.1C0,3.2-0.1,3,0.1,2.8c0,0,0,0,0,0l1.5-2.6
								C1.7,0,1.9-0.1,2.1,0.1s0.3,0.4,0.1,0.5l0,0L0.7,3.2C0.7,3.3,0.5,3.4,0.4,3.4z"/>
						</g>
					</g>
				</g>
			</g>
		</g>
	</g>
	<g id="Group_3579" transform="translate(19.066 17.367)">
		<path id="Path_1326" class="st0" d="M0.5,8.5c-0.2,0-0.4-0.2-0.4-0.4c0-0.1,0-0.1,0-0.2l3.5-7.2H0.4C0.2,0.8,0,0.6,0,0.4
			C0,0.2,0.2,0,0.4,0l0,0h3.9c0.2,0,0.4,0.2,0.4,0.4c0,0.1,0,0.1,0,0.2L0.8,8.3C0.8,8.5,0.6,8.5,0.5,8.5z"/>
	</g>
</g>
</svg>
