<?xml version="1.0" encoding="utf-8"?>
<!-- Generator: Adobe Illustrator 21.0.0, SVG Export Plug-In . SVG Version: 6.00 Build 0)  -->
<svg version="1.1" id="Layer_1" xmlns="http://www.w3.org/2000/svg" xmlns:xlink="http://www.w3.org/1999/xlink" x="0px" y="0px"
	 viewBox="0 0 17.6 17.6" style="enable-background:new 0 0 17.6 17.6;" xml:space="preserve">
<style type="text/css">
	.st0{fill:#FFFFFF;}
</style>
<path class="st0" d="M17.4,3.7l-3.6-3.6C13.8,0.1,13.7,0,13.5,0c-0.1,0-0.3,0.1-0.4,0.1l-2.3,2.3c0,0,0,0,0,0c0,0,0,0,0,0L1.3,12
	c0,0,0,0.1-0.1,0.1c0,0,0,0.1-0.1,0.1c0,0,0,0,0,0L0,17c0,0.1,0,0.2,0,0.2c0.1,0.3,0.3,0.4,0.6,0.4l4.7-1.2c0,0,0,0,0,0
	c0.1,0,0.1-0.1,0.2-0.1c0,0,0,0,0,0l9.5-9.5c0,0,0,0,0,0s0,0,0,0l2.4-2.4C17.6,4.2,17.6,3.9,17.4,3.7z M5.2,15.2l-2.9-2.8l8.8-8.8
	L14,6.4L5.2,15.2z M2,13.3l2.3,2.3l-3.1,0.8L2,13.3z M14.7,5.7l-2.8-2.8l1.7-1.7l2.8,2.8L14.7,5.7z"/>
</svg>
