<!-- Generated by IcoMoon.io -->
<svg version="1.1" xmlns="http://www.w3.org/2000/svg" width="32" height="32" viewBox="0 0 32 32">
<path fill="#e3e6f1" d="M25.908 16.978c0 0.001 0 0.002 0 0.003 0 2.119-0.574 4.104-1.575 5.808l0.029-0.054c-1.030 1.762-2.453 3.19-4.156 4.196l-0.054 0.030c-1.646 0.972-3.627 1.546-5.743 1.546-0.005 0-0.010 0-0.015 0h0.001v-23.056c0.001 0 0.003 0 0.005 0 4.232 0 7.929 2.292 9.918 5.702l0.029 0.055h0.015c0.972 1.651 1.546 3.637 1.546 5.757 0 0.005 0 0.010 0 0.015v-0.001z"></path>
<path fill="#374775" d="M15.687 2.001l1.941-1.525-0.378-0.476-2.857 2.247 2.448 2.686 0.448-0.407-1.758-1.929c7.458 0.611 13.279 6.814 13.279 14.376 0 7.963-6.454 14.419-14.417 14.422v0c-0.167 0-0.302 0.135-0.302 0.302s0.135 0.302 0.302 0.302v0c0.004 0 0.009 0 0.014 0 8.3 0 15.028-6.728 15.028-15.028 0-7.85-6.019-14.294-13.693-14.969l-0.057-0.004z"></path>
<path fill="#374775" d="M8.501 27.229c0.008 0 0.017 0.005 0.026 0.008 1.669 0.989 3.679 1.573 5.825 1.573 0.015 0 0.031 0 0.046 0h-0.002c0.002 0 0.005 0 0.008 0 2.167 0 4.198-0.587 5.941-1.609l-0.055 0.030c0.007 0 0.014 0 0.021-0.005 0.009-0.007 0.017-0.014 0.025-0.022v0c1.767-1.048 3.201-2.484 4.218-4.197l0.030-0.055c0.054-0.036 0.090-0.095 0.093-0.164v0c0.946-1.645 1.511-3.614 1.53-5.713v-0.006c0.010-0.027 0.017-0.057 0.018-0.089v-0.001c-0.002-0.033-0.008-0.063-0.019-0.092l0.001 0.002c-0.017-2.12-0.588-4.104-1.575-5.817l0.031 0.058c-0.005-0.025-0.013-0.047-0.023-0.068l0.001 0.002c-0.021-0.036-0.049-0.067-0.081-0.091l-0.001-0.001c-1.038-1.757-2.465-3.181-4.169-4.187l-0.055-0.030c-0.008-0.008-0.016-0.015-0.025-0.022h-0.001c-0.008-0.003-0.017-0.006-0.027-0.009h-0.002c-1.686-0.99-3.714-1.575-5.879-1.575-0.002 0-0.005 0-0.007 0v0c-2.181 0.002-4.224 0.591-5.979 1.617l0.056-0.030c-0.025 0.015-0.046 0.032-0.065 0.053v0c-1.751 1.028-3.171 2.448-4.169 4.145l-0.029 0.054c-0.019 0.019-0.035 0.040-0.048 0.063l-0.001 0.002c0 0.005-0.008 0.007-0.011 0.011v0.008c-0.008 0.017-0.015 0.036-0.020 0.057v0.002c-0.982 1.676-1.562 3.691-1.562 5.841 0 2.142 0.576 4.15 1.581 5.877l-0.030-0.056c0.005 0.020 0.011 0.038 0.018 0.054l-0.001-0.002 0.005 0.013c0.005 0.012 0.006 0.026 0.013 0.038s0.026 0.023 0.038 0.038c0.007 0.009 0.014 0.017 0.022 0.024v0c1.032 1.752 2.45 3.174 4.143 4.181l0.054 0.030c0.012 0.010 0.025 0.019 0.039 0.028l0.001 0.001c0.010 0.010 0.021 0.020 0.033 0.029l0.001 0.001c0.004 0.002 0.012 0.001 0.019 0.004zM23.938 11.119l-1.682 0.971c-0.091 0.053-0.152 0.151-0.152 0.262 0 0.167 0.136 0.303 0.303 0.303 0.056 0 0.108-0.015 0.153-0.041l-0.001 0.001 1.692-0.977c0.807 1.456 1.3 3.184 1.346 5.024v0.014h-1.95c-0.167 0-0.302 0.135-0.302 0.302s0.135 0.302 0.302 0.302h1.95c-0.054 1.853-0.549 3.579-1.382 5.093l0.029-0.058-1.685-0.973c-0.043-0.025-0.096-0.040-0.151-0.040-0.167 0-0.303 0.136-0.303 0.303 0 0.112 0.060 0.209 0.15 0.261l0.001 0.001 1.685 0.973c-0.937 1.512-2.172 2.753-3.632 3.669l-0.047 0.028-0.982-1.697c-0.053-0.091-0.151-0.152-0.262-0.152-0.167 0-0.303 0.136-0.303 0.303 0 0.056 0.015 0.108 0.041 0.153l-0.001-0.001 0.982 1.698c-1.456 0.81-3.185 1.308-5.026 1.36h-0.016v-22.444c1.856 0.052 3.585 0.55 5.098 1.389l-0.057-0.029-0.982 1.698c-0.026 0.043-0.041 0.096-0.041 0.151 0 0.112 0.060 0.209 0.15 0.261l0.001 0.001c0.043 0.026 0.095 0.041 0.151 0.041v0c0 0 0.001 0 0.001 0 0.111 0 0.209-0.060 0.261-0.15l0.001-0.001 0.982-1.697c1.51 0.939 2.744 2.182 3.647 3.652l0.028 0.048zM4.848 22.839l1.687-0.974c0.091-0.053 0.152-0.151 0.152-0.262 0-0.167-0.136-0.303-0.303-0.303-0.056 0-0.108 0.015-0.153 0.041l0.001-0.001-1.687 0.974c-0.813-1.453-1.313-3.18-1.365-5.019v-0.016h1.965c0.167 0 0.302-0.135 0.302-0.302s-0.135-0.302-0.302-0.302h-1.965c0.044-1.855 0.543-3.585 1.389-5.094l-0.029 0.055 1.693 0.979c0.043 0.025 0.096 0.040 0.151 0.040 0.167 0 0.303-0.136 0.303-0.303 0-0.112-0.060-0.209-0.15-0.261l-0.001-0.001-1.693-0.98c0.93-1.518 2.17-2.759 3.641-3.661l0.048-0.027 0.978 1.694c0.053 0.091 0.151 0.152 0.262 0.152 0.167 0 0.303-0.136 0.303-0.303 0-0.056-0.015-0.108-0.041-0.153l0.001 0.001-0.982-1.704c1.457-0.811 3.188-1.307 5.031-1.354h0.014v22.444c-1.856-0.046-3.586-0.547-5.094-1.394l0.055 0.028 0.978-1.694c0.025-0.043 0.040-0.096 0.040-0.151 0-0.167-0.136-0.303-0.303-0.303-0.112 0-0.209 0.060-0.261 0.15l-0.001 0.001-0.977 1.692c-1.513-0.936-2.751-2.177-3.657-3.644l-0.027-0.048z"></path>
<path fill="#374775" d="M10.195 21.269c1.457 0 2.639-1.181 2.639-2.639s-1.181-2.639-2.639-2.639v0c-0.354 0.001-0.692 0.072-1 0.201l0.017-0.006 1.768-3.281c0.032-0.047 0.051-0.106 0.051-0.168 0-0.167-0.135-0.302-0.302-0.302-0.124 0-0.231 0.075-0.277 0.182l-0.001 0.002-2.62 4.858c-0.002 0.005-0.004 0.010-0.005 0.016v0.001c-0.167 0.332-0.266 0.723-0.268 1.137v0.001c0.004 1.455 1.182 2.633 2.636 2.638v0zM12.228 18.631c0 1.122-0.91 2.032-2.033 2.032s-2.033-0.91-2.033-2.033 0.91-2.033 2.033-2.033v0c1.122 0.001 2.032 0.911 2.033 2.034v0z"></path>
</svg>
