<!-- Generated by IcoMoon.io -->
<svg version="1.1" xmlns="http://www.w3.org/2000/svg" width="32" height="32" viewBox="0 0 32 32">
<path fill="#ababab" d="M1.038 17.18c-0.189 0-0.378-0.094-0.472-0.189-0.283-0.283-0.283-0.755 0-1.038l5.475-5.947c0.189-0.283 0.661-0.283 0.944-0.094l5.192 3.493 5.664-7.646c0.189-0.283 0.661-0.378 0.944-0.189l4.059 2.832 5.569-7.929c0.189-0.283 0.661-0.378 0.944-0.189s0.378 0.661 0.189 0.944l-6.041 8.496c-0.189 0.283-0.661 0.378-0.944 0.189l-4.153-2.832-5.664 7.646c-0.189 0.283-0.661 0.378-0.944 0.189l-5.286-3.493-5.192 5.475c0.094 0.189-0.094 0.283-0.283 0.283z"></path>
<path fill="#ababab" d="M30.961 7.268c-0.283 0-0.566-0.189-0.661-0.472l-1.605-5.286-5.097 0.472c-0.378 0-0.755-0.283-0.755-0.661s0.283-0.755 0.661-0.755l6.23-0.566 1.888 6.324c0.094 0.378-0.094 0.755-0.472 0.85-0.094 0.094-0.094 0.094-0.189 0.094z"></path>
<path fill="#575757" d="M1.51 32c-0.378 0-0.755-0.283-0.755-0.755v-7.646c0-0.378 0.283-0.755 0.755-0.755s0.755 0.283 0.755 0.755v7.646c0 0.378-0.283 0.755-0.755 0.755z"></path>
<path fill="#575757" d="M7.079 32c-0.378 0-0.755-0.283-0.755-0.755v-12.083c0-0.378 0.283-0.661 0.755-0.661s0.755 0.283 0.755 0.755v12.083c-0.094 0.283-0.378 0.661-0.755 0.661z"></path>
<path fill="#575757" d="M12.554 31.434c-0.378 0-0.755-0.283-0.755-0.755v-8.212c0-0.378 0.283-0.755 0.755-0.755s0.755 0.283 0.755 0.755v8.212c-0.094 0.378-0.378 0.755-0.755 0.755z"></path>
<path fill="#575757" d="M18.029 31.434c-0.378 0-0.755-0.283-0.755-0.755v-14.82c0-0.378 0.283-0.755 0.755-0.755s0.755 0.283 0.755 0.755v14.82c0 0.378-0.378 0.755-0.755 0.755z"></path>
<path fill="#575757" d="M23.504 31.434c-0.378 0-0.755-0.283-0.755-0.755v-13.687c0-0.378 0.283-0.755 0.755-0.755s0.755 0.283 0.755 0.755v13.782c0 0.283-0.378 0.661-0.755 0.661z"></path>
<path fill="#575757" d="M28.979 31.339c-0.378 0-0.661-0.283-0.661-0.661v-0.094c0-0.378 0.283-0.755 0.661-0.755s0.755 0.283 0.755 0.661-0.283 0.85-0.755 0.85c0.094 0 0.094 0 0 0zM28.979 28.413c-0.378 0-0.661-0.283-0.661-0.661v-0.094c0-0.378 0.283-0.755 0.661-0.755 0 0 0 0 0 0 0.378 0 0.661 0.283 0.755 0.661 0 0.472-0.378 0.85-0.755 0.85 0 0 0 0 0 0zM28.979 25.581c-0.378 0-0.661-0.283-0.755-0.661v-0.094c0-0.378 0.283-0.755 0.661-0.755s0.755 0.283 0.755 0.661v0.094c0 0.378-0.283 0.755-0.661 0.755 0 0 0 0 0 0zM28.885 22.655c-0.378 0-0.661-0.283-0.755-0.661v-0.094c0-0.378 0.283-0.755 0.661-0.755s0.755 0.283 0.755 0.661v0.094c0.094 0.378-0.283 0.755-0.661 0.755 0 0 0 0 0 0zM28.885 19.729c-0.378 0-0.661-0.283-0.755-0.661v-0.094c0-0.378 0.283-0.755 0.661-0.755 0.472 0 0.755 0.283 0.755 0.661v0.094c0 0.378-0.283 0.755-0.661 0.755 0 0 0 0 0 0zM28.79 16.802c-0.378 0-0.661-0.283-0.755-0.661v-0.094c0-0.378 0.283-0.755 0.661-0.755s0.755 0.283 0.755 0.661v0.094c0.094 0.378-0.283 0.755-0.661 0.755 0 0 0 0 0 0z"></path>
</svg>
