<?xml version="1.0" encoding="utf-8"?>
<!-- Generator: Adobe Illustrator 21.0.0, SVG Export Plug-In . SVG Version: 6.00 Build 0)  -->
<svg version="1.1" id="Layer_1" xmlns="http://www.w3.org/2000/svg" xmlns:xlink="http://www.w3.org/1999/xlink" x="0px" y="0px"
	 viewBox="0 0 16.6 19" style="enable-background:new 0 0 16.6 19;" xml:space="preserve">
<style type="text/css">
	.st0{fill:#58CC87;}
</style>
<path class="st0" d="M14.5,14V9.6c0-0.3-0.2-0.5-0.5-0.5H8.8V5c1.2-0.2,2-1.3,2-2.5C10.8,1.1,9.7,0,8.3,0C6.9,0,5.8,1.1,5.8,2.5
	c0,1.2,0.9,2.2,2,2.5v4.1H2.5C2.2,9.1,2,9.3,2,9.6V14c-1.2,0.2-2,1.3-2,2.5C0,17.9,1.1,19,2.5,19s2.5-1.1,2.5-2.5
	c0-1.2-0.9-2.2-2-2.5v-3.9h10.5V14c-1.2,0.2-2,1.3-2,2.5c0,1.4,1.1,2.5,2.5,2.5s2.5-1.1,2.5-2.5C16.6,15.3,15.7,14.3,14.5,14z
	 M6.8,2.5C6.8,1.7,7.4,1,8.3,1c0.8,0,1.5,0.7,1.5,1.5c0,0.8-0.7,1.5-1.5,1.5C7.4,4.1,6.8,3.4,6.8,2.5z M4.1,16.5
	c0,0.8-0.7,1.5-1.5,1.5C1.7,18,1,17.3,1,16.5C1,15.7,1.7,15,2.5,15c0,0,0,0,0,0s0,0,0,0C3.4,15,4.1,15.7,4.1,16.5z M14,18
	c-0.8,0-1.5-0.7-1.5-1.5c0-0.8,0.7-1.5,1.5-1.5c0,0,0,0,0,0s0,0,0,0c0.8,0,1.5,0.7,1.5,1.5C15.6,17.3,14.9,18,14,18z"/>
</svg>
