<?xml version="1.0" encoding="utf-8"?>
<!-- Generator: Adobe Illustrator 27.0.0, SVG Export Plug-In . SVG Version: 6.00 Build 0)  -->
<svg version="1.1" id="Layer_1" xmlns="http://www.w3.org/2000/svg" xmlns:xlink="http://www.w3.org/1999/xlink" x="0px" y="0px"
	 viewBox="0 0 33.7 35.3" style="enable-background:new 0 0 33.7 35.3;" xml:space="preserve">
<style type="text/css">
	.st0{fill:#ABABAB;}
	.st1{fill:#575757;}
</style>
<g>
	<g>
		<path class="st0" d="M1.1,19.6c-0.2,0-0.4-0.1-0.5-0.2c-0.3-0.3-0.3-0.8,0-1.1L6.4,12c0.2-0.3,0.7-0.3,1-0.1l5.5,3.7l6-8.1
			c0.2-0.3,0.7-0.4,1-0.2l4.3,3l5.9-8.4c0.2-0.3,0.7-0.4,1-0.2c0.3,0.2,0.4,0.7,0.2,1l-6.4,9c-0.2,0.3-0.7,0.4-1,0.2l-4.4-3l-6,8.1
			c-0.2,0.3-0.7,0.4-1,0.2l-5.6-3.7l-5.5,5.8C1.5,19.5,1.3,19.6,1.1,19.6z"/>
	</g>
	<g>
		<path class="st0" d="M32.8,9.1c-0.3,0-0.6-0.2-0.7-0.5L30.4,3L25,3.5c-0.4,0-0.8-0.3-0.8-0.7c0-0.4,0.3-0.8,0.7-0.8l6.6-0.6l2,6.7
			C33.6,8.5,33.4,8.9,33,9C32.9,9.1,32.9,9.1,32.8,9.1z"/>
	</g>
	<g>
		<path class="st1" d="M1.6,35.3c-0.4,0-0.8-0.3-0.8-0.8v-8.1c0-0.4,0.3-0.8,0.8-0.8s0.8,0.3,0.8,0.8v8.1
			C2.4,34.9,2.1,35.3,1.6,35.3z"/>
	</g>
	<g>
		<path class="st1" d="M7.5,35.3c-0.4,0-0.8-0.3-0.8-0.8V21.7C6.7,21.3,7,21,7.5,21s0.8,0.3,0.8,0.8v12.8
			C8.2,34.9,7.9,35.3,7.5,35.3z"/>
	</g>
	<g>
		<path class="st1" d="M13.3,34.7c-0.4,0-0.8-0.3-0.8-0.8v-8.7c0-0.4,0.3-0.8,0.8-0.8s0.8,0.3,0.8,0.8v8.7
			C14,34.3,13.7,34.7,13.3,34.7z"/>
	</g>
	<g>
		<path class="st1" d="M19.1,34.7c-0.4,0-0.8-0.3-0.8-0.8V18.2c0-0.4,0.3-0.8,0.8-0.8s0.8,0.3,0.8,0.8v15.7
			C19.9,34.3,19.5,34.7,19.1,34.7z"/>
	</g>
	<g>
		<path class="st1" d="M24.9,34.7c-0.4,0-0.8-0.3-0.8-0.8V19.4c0-0.4,0.3-0.8,0.8-0.8s0.8,0.3,0.8,0.8v14.6
			C25.7,34.3,25.3,34.7,24.9,34.7z"/>
	</g>
	<g>
		<path class="st1" d="M30.7,34.6c-0.4,0-0.7-0.3-0.7-0.7l0-0.1c0-0.4,0.3-0.8,0.7-0.8c0.4,0,0.8,0.3,0.8,0.7S31.2,34.6,30.7,34.6
			C30.8,34.6,30.8,34.6,30.7,34.6z M30.7,31.5c-0.4,0-0.7-0.3-0.7-0.7l0-0.1c0-0.4,0.3-0.8,0.7-0.8c0,0,0,0,0,0
			c0.4,0,0.7,0.3,0.8,0.7C31.5,31.1,31.1,31.5,30.7,31.5C30.7,31.5,30.7,31.5,30.7,31.5z M30.7,28.5c-0.4,0-0.7-0.3-0.8-0.7l0-0.1
			c0-0.4,0.3-0.8,0.7-0.8c0.4,0,0.8,0.3,0.8,0.7l0,0.1C31.4,28.1,31.1,28.5,30.7,28.5C30.7,28.5,30.7,28.5,30.7,28.5z M30.6,25.4
			c-0.4,0-0.7-0.3-0.8-0.7l0-0.1c0-0.4,0.3-0.8,0.7-0.8c0.4,0,0.8,0.3,0.8,0.7l0,0.1C31.4,25,31,25.4,30.6,25.4
			C30.6,25.4,30.6,25.4,30.6,25.4z M30.6,22.3c-0.4,0-0.7-0.3-0.8-0.7l0-0.1c0-0.4,0.3-0.8,0.7-0.8c0.5,0,0.8,0.3,0.8,0.7l0,0.1
			C31.3,21.9,31,22.3,30.6,22.3C30.6,22.3,30.6,22.3,30.6,22.3z M30.5,19.2c-0.4,0-0.7-0.3-0.8-0.7l0-0.1c0-0.4,0.3-0.8,0.7-0.8
			c0.4,0,0.8,0.3,0.8,0.7l0,0.1C31.3,18.8,30.9,19.2,30.5,19.2C30.5,19.2,30.5,19.2,30.5,19.2z"/>
	</g>
</g>
</svg>
