<!-- Generated by IcoMoon.io -->
<svg version="1.1" xmlns="http://www.w3.org/2000/svg" width="32" height="32" viewBox="0 0 32 32">
<path fill="#e3e6f1" d="M27.406 16c0 6.3-5.107 11.407-11.407 11.407s-11.407-5.107-11.407-11.407c0-6.3 5.107-11.407 11.407-11.407s11.407 5.107 11.407 11.407z"></path>
<path fill="#374775" d="M16 27.706c0 0 0 0-0.001 0-6.465 0-11.706-5.241-11.706-11.706s5.241-11.706 11.706-11.706c6.465 0 11.706 5.241 11.706 11.706v0c-0.007 6.462-5.244 11.699-11.705 11.706h-0.001zM16 4.896c0 0 0 0-0.001 0-6.134 0-11.107 4.973-11.107 11.107s4.973 11.107 11.107 11.107c6.134 0 11.107-4.973 11.107-11.107v0c-0.005-6.133-4.974-11.104-11.106-11.111h-0.001z"></path>
<path fill="#374775" d="M17.329 8.532l1.98-1.352-0.338-0.494-2.971 2.029 2.239 2.815 0.47-0.374-1.635-2.054c3.352 0.546 5.879 3.42 5.879 6.885 0 3.85-3.121 6.971-6.971 6.971s-6.971-3.121-6.971-6.971c0-2.874 1.739-5.342 4.223-6.408l0.045-0.017c0.108-0.047 0.183-0.153 0.183-0.276 0-0.165-0.134-0.3-0.3-0.3-0.042 0-0.082 0.009-0.119 0.024l0.002-0.001c-2.751 1.181-4.643 3.868-4.643 6.996 0 4.193 3.399 7.592 7.592 7.592s7.592-3.399 7.592-7.592c0-3.722-2.678-6.818-6.212-7.467l-0.047-0.007z"></path>
<path fill="#374775" d="M16 2.852c-0.165 0-0.299-0.134-0.299-0.299v0-2.254c0-0.165 0.134-0.299 0.299-0.299s0.299 0.134 0.299 0.299v0 2.254c0 0.165-0.134 0.299-0.299 0.299v0z"></path>
<path fill="#374775" d="M9.278 4.654c0 0-0.001 0-0.001 0-0.11 0-0.206-0.060-0.258-0.148l-0.001-0.001-1.126-1.952c-0.025-0.043-0.040-0.095-0.040-0.15 0-0.165 0.134-0.3 0.3-0.3 0.11 0 0.207 0.060 0.259 0.149l0.001 0.001 1.127 1.952c0.025 0.043 0.040 0.095 0.040 0.15 0 0.165-0.134 0.299-0.299 0.299 0 0 0 0 0 0v0z"></path>
<path fill="#374775" d="M4.355 9.576c0 0-0.001 0-0.001 0-0.055 0-0.106-0.015-0.15-0.041l0.001 0.001-1.952-1.126c-0.090-0.053-0.15-0.149-0.15-0.259 0-0.165 0.134-0.3 0.3-0.3 0.055 0 0.107 0.015 0.151 0.041l-0.001-0.001 1.952 1.126c0.090 0.053 0.15 0.149 0.15 0.259 0 0.165-0.134 0.299-0.299 0.299 0 0-0.001 0-0.001 0v0z"></path>
<path fill="#374775" d="M2.554 16.299h-2.254c-0.165 0-0.299-0.134-0.299-0.299s0.134-0.299 0.299-0.299h2.254c0.165 0 0.299 0.134 0.299 0.299s-0.134 0.299-0.299 0.299v0z"></path>
<path fill="#374775" d="M2.403 24.15c0 0-0.001 0-0.001 0-0.165 0-0.299-0.134-0.299-0.299 0-0.11 0.060-0.207 0.149-0.259l0.001-0.001 1.952-1.126c0.043-0.025 0.095-0.040 0.15-0.040 0.165 0 0.3 0.134 0.3 0.3 0 0.11-0.060 0.207-0.149 0.259l-0.001 0.001-1.952 1.126c-0.043 0.025-0.094 0.040-0.149 0.040 0 0-0.001 0-0.001 0v0z"></path>
<path fill="#374775" d="M8.15 29.896c0 0 0 0 0 0-0.165 0-0.299-0.134-0.299-0.299 0-0.055 0.015-0.107 0.041-0.151l-0.001 0.001 1.126-1.952c0.053-0.090 0.149-0.15 0.259-0.15 0.165 0 0.3 0.134 0.3 0.3 0 0.055-0.015 0.107-0.041 0.151l0.001-0.001-1.127 1.952c-0.053 0.090-0.149 0.149-0.259 0.15v0z"></path>
<path fill="#374775" d="M16 32c-0.165 0-0.299-0.134-0.299-0.299v0-2.254c0-0.165 0.134-0.299 0.299-0.299s0.299 0.134 0.299 0.299v0 2.254c0 0.165-0.134 0.299-0.299 0.299v0z"></path>
<path fill="#374775" d="M23.851 29.896c0 0-0.001 0-0.001 0-0.11 0-0.206-0.060-0.258-0.148l-0.001-0.001-1.126-1.952c-0.025-0.043-0.040-0.095-0.040-0.15 0-0.165 0.134-0.3 0.3-0.3 0.11 0 0.207 0.060 0.259 0.149l0.001 0.001 1.127 1.952c0.025 0.043 0.040 0.095 0.040 0.15 0 0.165-0.134 0.299-0.299 0.299 0 0 0 0 0 0v0z"></path>
<path fill="#374775" d="M29.597 24.149c-0.055 0-0.107-0.015-0.151-0.041l0.001 0.001-1.952-1.126c-0.090-0.053-0.15-0.149-0.15-0.259 0-0.165 0.134-0.3 0.3-0.3 0.055 0 0.107 0.015 0.151 0.041l-0.001-0.001 1.952 1.126c0.090 0.053 0.15 0.149 0.15 0.259 0 0.165-0.134 0.299-0.299 0.299 0 0-0.001 0-0.001 0v0z"></path>
<path fill="#374775" d="M31.7 16.299h-2.254c-0.165 0-0.299-0.134-0.299-0.299s0.134-0.299 0.299-0.299h2.254c0.165 0 0.299 0.134 0.299 0.299s-0.134 0.299-0.299 0.299v0z"></path>
<path fill="#374775" d="M27.645 9.576c0 0 0 0-0.001 0-0.165 0-0.299-0.134-0.299-0.299 0-0.11 0.060-0.207 0.149-0.259l0.001-0.001 1.952-1.126c0.043-0.025 0.095-0.040 0.15-0.040 0.165 0 0.3 0.134 0.3 0.3 0 0.11-0.060 0.207-0.149 0.259l-0.001 0.001-1.952 1.126c-0.042 0.025-0.093 0.040-0.147 0.040-0.001 0-0.002 0-0.003 0v0z"></path>
<path fill="#374775" d="M22.72 4.655c0 0 0 0 0 0-0.165 0-0.299-0.134-0.299-0.299 0-0.055 0.015-0.107 0.041-0.151l-0.001 0.001 1.126-1.952c0.053-0.090 0.149-0.15 0.259-0.15 0.165 0 0.3 0.134 0.3 0.3 0 0.055-0.015 0.107-0.041 0.151l0.001-0.001-1.127 1.952c-0.053 0.090-0.149 0.149-0.259 0.15v0z"></path>
<path fill="#374775" d="M16 19.086c-0.165 0-0.299-0.134-0.299-0.299v-5.49h-0.935c-0.165 0-0.299-0.134-0.299-0.299s0.134-0.299 0.299-0.299h1.235c0.165 0 0.299 0.134 0.299 0.299v0 5.789c0 0 0 0 0 0 0 0.165-0.134 0.299-0.299 0.299 0 0-0.001 0-0.001 0v0z"></path>
</svg>
