<?xml version="1.0" encoding="utf-8"?>
<!-- Generator: Adobe Illustrator 21.0.0, SVG Export Plug-In . SVG Version: 6.00 Build 0)  -->
<svg version="1.1" id="Layer_1" xmlns="http://www.w3.org/2000/svg" xmlns:xlink="http://www.w3.org/1999/xlink" x="0px" y="0px"
	 viewBox="0 0 11.8 11.8" style="enable-background:new 0 0 11.8 11.8;" xml:space="preserve">
<style type="text/css">
	.st0{fill:#ABB6D6;}
</style>
<path class="st0" d="M11.3,10.2L7,5.9l4.3-4.3c0.3-0.3,0.3-0.8,0-1.1s-0.8-0.3-1.1,0L5.9,4.8L1.6,0.5c-0.3-0.3-0.8-0.3-1.1,0
	s-0.3,0.8,0,1.1l4.3,4.3l-4.3,4.3c-0.3,0.3-0.3,0.8,0,1.1s0.8,0.3,1.1,0L5.9,7l4.3,4.3c0.3,0.3,0.8,0.3,1.1,0S11.6,10.5,11.3,10.2z"
	/>
</svg>
