<!-- Generated by IcoMoon.io -->
<svg version="1.1" xmlns="http://www.w3.org/2000/svg" width="32" height="32" viewBox="0 0 32 32">
<path fill="#c2c9db" d="M22.411 7.774v0.017l-6.393 11.053v0.017h-0.018v-12.804c0.005 0 0.011 0 0.016 0 2.355 0 4.561 0.638 6.454 1.75l-0.060-0.033z"></path>
<path fill="#374775" d="M22.411 30.276c-0.002 0-0.004 0-0.007 0-0.181 0-0.329-0.147-0.329-0.328v-0.017c0-0.185 0.15-0.336 0.336-0.336s0.336 0.15 0.336 0.336v0c0 0.001 0 0.001 0 0.002 0 0.187-0.149 0.339-0.335 0.343v0z"></path>
<path fill="#374775" d="M27.088 25.591h-0.017c-0.185 0-0.336-0.15-0.336-0.336s0.15-0.336 0.336-0.336v0c0 0 0.001 0 0.001 0 0.187 0 0.339 0.149 0.344 0.335v0c0 0.002 0 0.005 0 0.008 0 0.181-0.147 0.328-0.328 0.328 0 0 0 0 0 0v0z"></path>
<path fill="#374775" d="M27.087 12.786h-0.017c-0.185 0-0.336-0.15-0.336-0.336s0.15-0.336 0.336-0.336v0c0 0 0.001 0 0.001 0 0.187 0 0.339 0.149 0.344 0.335v0c0 0.002 0 0.005 0 0.008 0 0.181-0.147 0.328-0.328 0.328 0 0 0 0 0 0v0z"></path>
<path fill="#374775" d="M27.418 25.316c1.083-1.856 1.722-4.086 1.722-6.466 0-2.39-0.645-4.629-1.771-6.553l0.033 0.062c-0.006-0.026-0.014-0.049-0.024-0.071l0.001 0.002c-0.014-0.019-0.029-0.035-0.045-0.050v0c-1.148-1.97-2.743-3.565-4.652-4.681l-0.061-0.033c-0.015-0.014-0.025-0.034-0.044-0.044-1.888-1.107-4.157-1.761-6.578-1.763v0c-0.002 0-0.005 0-0.008 0-2.404 0-4.656 0.649-6.591 1.783l0.062-0.033c-0.013 0.004-0.024 0.007-0.035 0.012l0.002-0.001c-0.011 0.007-0.018 0.018-0.028 0.025-1.954 1.15-3.54 2.733-4.66 4.624l-0.033 0.060c-0.036 0.027-0.066 0.061-0.089 0.099l-0.001 0.002c-0.010 0.021-0.019 0.046-0.025 0.072v0.002c-1.061 1.839-1.695 4.041-1.715 6.39v0.006c-0.011 0.029-0.018 0.064-0.020 0.099v0.001c0.002 0.036 0.009 0.070 0.021 0.102l-0.001-0.002c0.022 2.337 0.65 4.524 1.734 6.415l-0.034-0.064c0.006 0.045 0.020 0.086 0.041 0.122l-0.001-0.002c0.018 0.024 0.040 0.045 0.064 0.062l0.001 0.001c1.163 1.964 2.757 3.559 4.659 4.689l0.061 0.033c0.008 0.008 0.016 0.016 0.025 0.023h0.001c0.008 0 0.015 0 0.023 0.006 1.876 1.103 4.131 1.754 6.539 1.754 0.003 0 0.005 0 0.008 0v0c0.015 0 0.032 0 0.050 0 2.384 0 4.616-0.649 6.529-1.779l-0.060 0.033c0.019-0.003 0.037-0.008 0.053-0.014l-0.002 0.001c0.020-0.014 0.037-0.029 0.052-0.046v0c1.957-1.154 3.544-2.742 4.663-4.64l0.033-0.061c0.024-0.017 0.044-0.037 0.062-0.060l0.001-0.001c0.018-0.034 0.032-0.073 0.038-0.115v-0.002zM16.339 8.585v-2.189c2.063 0.050 3.987 0.6 5.669 1.533l-0.063-0.032-1.091 1.897c-0.009 0.020-0.018 0.044-0.023 0.068v0.002l-4.487 7.756zM22.516 29.47l-1.085-1.879c-0.059-0.101-0.167-0.168-0.291-0.168-0.186 0-0.336 0.151-0.336 0.336 0 0.062 0.017 0.12 0.046 0.169l-0.001-0.002 1.086 1.881c-1.615 0.908-3.536 1.462-5.582 1.511h-0.014v-2.182c0-0.185-0.15-0.336-0.336-0.336s-0.336 0.15-0.336 0.336v2.182c-2.061-0.055-3.981-0.606-5.662-1.536l0.063 0.032 1.091-1.886c0.028-0.048 0.045-0.106 0.045-0.168 0-0.186-0.15-0.336-0.336-0.336-0.124 0-0.232 0.067-0.29 0.167l-0.001 0.002-1.091 1.884c-1.673-1.048-3.045-2.426-4.055-4.052l-0.031-0.053 1.872-1.081c0.101-0.059 0.168-0.167 0.168-0.291 0-0.186-0.151-0.336-0.336-0.336-0.062 0-0.12 0.017-0.169 0.046l0.002-0.001-1.872 1.081c-0.893-1.616-1.442-3.534-1.502-5.574v-0.018h2.166c0.185 0 0.336-0.15 0.336-0.336s-0.15-0.336-0.336-0.336h-2.166c0.051-2.059 0.598-3.978 1.527-5.658l-0.032 0.063 1.879 1.085c0.048 0.028 0.106 0.045 0.168 0.045v0c0.001 0 0.002 0 0.002 0 0.185 0 0.336-0.15 0.336-0.336 0-0.125-0.068-0.233-0.169-0.291l-0.002-0.001-1.868-1.079c1.033-1.685 2.405-3.065 4.030-4.077l0.052-0.030 1.091 1.884c0.059 0.101 0.167 0.168 0.291 0.168 0 0 0.001 0 0.001 0v0c0 0 0.001 0 0.001 0 0.061 0 0.119-0.017 0.168-0.046l-0.002 0.001c0.101-0.059 0.168-0.167 0.168-0.291 0-0.062-0.017-0.12-0.046-0.17l0.001 0.002-1.091-1.886c1.617-0.9 3.538-1.453 5.582-1.51h0.017v12.462c0.008 0.187 0.162 0.336 0.351 0.336 0.001 0 0.001 0 0.002 0v0c0.138-0.004 0.255-0.089 0.306-0.208l0.001-0.002 6.211-10.734c1.679 1.034 3.050 2.41 4.049 4.040l0.030 0.053-1.887 1.085c-0.101 0.059-0.168 0.167-0.168 0.291 0 0.186 0.151 0.336 0.336 0.336 0.062 0 0.12-0.017 0.169-0.046l-0.002 0.001 1.881-1.086c0.908 1.614 1.462 3.535 1.511 5.581v0.014h-2.182c-0.185 0-0.336 0.15-0.336 0.336s0.15 0.336 0.336 0.336h2.182c-0.059 2.060-0.614 3.978-1.55 5.654l0.032-0.063-1.873-1.082c-0.048-0.028-0.106-0.045-0.168-0.045-0.186 0-0.336 0.151-0.336 0.336 0 0.124 0.067 0.232 0.167 0.29l0.002 0.001 1.873 1.082c-1.036 1.684-2.411 3.062-4.038 4.072l-0.053 0.030z"></path>
<path fill="#374775" d="M24.435 4.468c-2.011-1.2-4.391-2-6.937-2.231l-0.065-0.005 2.163-1.704-0.42-0.528-3.17 2.499 2.722 2.981 0.498-0.453-1.948-2.132c2.538 0.213 4.857 0.986 6.888 2.194l-0.074-0.041c0.048 0.029 0.106 0.046 0.168 0.046v0c0.185 0 0.335-0.151 0.335-0.336 0-0.123-0.067-0.231-0.166-0.29l-0.002-0.001z"></path>
<path fill="#374775" d="M11.795 22.446c-0.185 0-0.336-0.15-0.336-0.336v0-6.162h-1.046c-0.185 0-0.336-0.15-0.336-0.336s0.15-0.336 0.336-0.336h1.385c0.185 0 0.336 0.15 0.336 0.336v0 6.498c0 0.185-0.151 0.335-0.336 0.335-0.001 0-0.002 0-0.004 0v0z"></path>
</svg>
