<!-- Generated by IcoMoon.io -->
<svg version="1.1" xmlns="http://www.w3.org/2000/svg" width="32" height="32" viewBox="0 0 32 32">
<path fill="#575757" d="M2.588 24.847c-0.376 0-0.753-0.282-0.753-0.753v-11.765c0-0.376 0.282-0.753 0.753-0.753s0.753 0.282 0.753 0.753v11.859c0 0.376-0.376 0.659-0.753 0.659z"></path>
<path fill="#575757" d="M2.588 32c-0.376 0-0.753-0.282-0.753-0.753v-2.918c0-0.376 0.282-0.753 0.753-0.753s0.753 0.282 0.753 0.753v2.918c0 0.376-0.376 0.753-0.753 0.753z"></path>
<path fill="#575757" d="M9.459 24.847c-0.376 0-0.753-0.282-0.753-0.753v-11.765c0-0.376 0.282-0.753 0.753-0.753s0.753 0.282 0.753 0.753v11.859c-0.094 0.376-0.376 0.659-0.753 0.659z"></path>
<path fill="#575757" d="M9.459 32c-0.376 0-0.753-0.282-0.753-0.753v-2.918c0-0.376 0.282-0.753 0.753-0.753s0.753 0.282 0.753 0.753v2.918c-0.094 0.376-0.376 0.753-0.753 0.753z"></path>
<path fill="#575757" d="M16.235 24.847c-0.376 0-0.753-0.282-0.753-0.753v-11.765c0-0.376 0.282-0.753 0.753-0.753s0.753 0.282 0.753 0.753v11.859c0 0.376-0.376 0.659-0.753 0.659z"></path>
<path fill="#575757" d="M16.235 32c-0.376 0-0.753-0.282-0.753-0.753v-2.918c0-0.376 0.282-0.753 0.753-0.753s0.753 0.282 0.753 0.753v2.918c0 0.376-0.376 0.753-0.753 0.753z"></path>
<path fill="#575757" d="M23.106 24.847c-0.376 0-0.753-0.282-0.753-0.753v-11.765c0-0.376 0.282-0.753 0.753-0.753s0.753 0.282 0.753 0.753v11.859c-0.094 0.376-0.376 0.659-0.753 0.659z"></path>
<path fill="#575757" d="M23.106 32c-0.376 0-0.753-0.282-0.753-0.753v-2.918c0-0.376 0.282-0.753 0.753-0.753s0.753 0.282 0.753 0.753v2.918c-0.094 0.376-0.376 0.753-0.753 0.753z"></path>
<path fill="#575757" d="M29.882 24.847c-0.376 0-0.753-0.282-0.753-0.753v-11.765c0-0.376 0.282-0.753 0.753-0.753s0.753 0.282 0.753 0.753v11.859c0 0.376-0.282 0.659-0.753 0.659z"></path>
<path fill="#575757" d="M29.882 32c-0.376 0-0.753-0.282-0.753-0.753v-2.918c0-0.376 0.282-0.753 0.753-0.753s0.753 0.282 0.753 0.753v2.918c0 0.376-0.282 0.753-0.753 0.753z"></path>
<path fill="#ababab" d="M28.659 8.471h-25.412c-1.035 0-1.882-0.847-1.882-1.882v-4.706c0-1.035 0.847-1.882 1.882-1.882h25.412c1.035 0 1.882 0.847 1.882 1.882v4.706c0 1.035-0.847 1.882-1.882 1.882zM3.247 1.412c-0.282 0-0.471 0.188-0.471 0.471v4.706c0 0.282 0.188 0.471 0.471 0.471h25.412c0.282 0 0.471-0.188 0.471-0.471v-4.706c0-0.282-0.188-0.471-0.471-0.471h-25.412z"></path>
</svg>
