<!-- Generated by IcoMoon.io -->
<svg version="1.1" xmlns="http://www.w3.org/2000/svg" width="32" height="32" viewBox="0 0 32 32">
<path fill="#959db8" d="M16 0c-8.8 0-16 7.2-16 16s7.2 16 16 16 16-7.2 16-16-7.2-16-16-16zM16 30.4c-8 0-14.4-6.4-14.4-14.4s6.4-14.4 14.4-14.4c8 0 14.4 6.4 14.4 14.4s-6.4 14.4-14.4 14.4z"></path>
<path fill="#959db8" d="M20.389 16.077c0 0.16 0 0.48-0.16 0.48l-7.2 7.040c-0.32 0.32-0.8 0.32-1.12 0s-0.32-0.8 0-1.12l6.56-6.56-6.56-6.56c-0.32-0.32-0.32-0.8 0-1.12s0.8-0.32 1.12 0l7.2 7.2c0 0.16 0.16 0.32 0.16 0.64z"></path>
</svg>
