<!-- Generated by IcoMoon.io -->
<svg version="1.1" xmlns="http://www.w3.org/2000/svg" width="32" height="32" viewBox="0 0 32 32">
<path fill="#959db8" d="M16 0c-8.8 0-16 7.2-16 16s7.2 16 16 16 16-7.2 16-16-7.2-16-16-16zM16 30.4c-8 0-14.4-6.4-14.4-14.4s6.4-14.4 14.4-14.4 14.4 6.4 14.4 14.4-6.4 14.4-14.4 14.4z"></path>
<path fill="#959db8" d="M22.366 20.991c0.453 0.453 0.453 1.131 0 1.584s-1.244 0.566-1.697 0.113l-4.525-4.525-4.525 4.525c-0.453 0.453-1.131 0.453-1.697-0.113-0.453-0.453-0.453-1.131 0-1.584l4.525-4.525-4.525-4.525c-0.453-0.453-0.453-1.131 0.113-1.697 0.226-0.226 0.566-0.339 0.792-0.339s0.566 0.113 0.792 0.339l4.525 4.525 4.525-4.525c0.453-0.453 1.131-0.453 1.584 0s0.566 1.245 0.113 1.697l-4.525 4.525 4.525 4.525z"></path>
</svg>
