<?xml version="1.0" encoding="utf-8"?>
<!-- Generator: Adobe Illustrator 21.0.0, SVG Export Plug-In . SVG Version: 6.00 Build 0)  -->
<svg version="1.1" id="Layer_1" xmlns="http://www.w3.org/2000/svg" xmlns:xlink="http://www.w3.org/1999/xlink" x="0px" y="0px"
	 viewBox="0 0 20 20" style="enable-background:new 0 0 20 20;" xml:space="preserve">
<style type="text/css">
	.st0{fill:#959DB8;}
</style>
<path class="st0" d="M10,0C4.5,0,0,4.5,0,10s4.5,10,10,10s10-4.5,10-10S15.5,0,10,0z M10,19c-5,0-9-4-9-9s4-9,9-9s9,4,9,9
	S15,19,10,19z"/>
<g id="Group_3044" transform="translate(20831.344 1524.631) rotate(-45)">
	<path class="st0" d="M-13651.3-15788.9c0,0.4-0.3,0.7-0.7,0.7s-0.8-0.3-0.8-0.7v-4h-4c-0.4,0-0.7-0.3-0.7-0.8
		c0-0.4,0.3-0.7,0.7-0.7h4v-4c0-0.4,0.3-0.7,0.8-0.7c0.2,0,0.4,0.1,0.5,0.2c0.1,0.1,0.2,0.3,0.2,0.5v4h4c0.4,0,0.7,0.3,0.7,0.7
		s-0.3,0.8-0.7,0.8h-4V-15788.9z"/>
</g>
</svg>
