<?xml version="1.0" encoding="utf-8"?>
<!-- Generator: Adobe Illustrator 21.0.0, SVG Export Plug-In . SVG Version: 6.00 Build 0)  -->
<svg version="1.1" id="Layer_1" xmlns="http://www.w3.org/2000/svg" xmlns:xlink="http://www.w3.org/1999/xlink" x="0px" y="0px"
	 viewBox="0 0 20 20" style="enable-background:new 0 0 20 20;" xml:space="preserve">
<style type="text/css">
	.st0{fill:#959DB8;}
	.st1{fill:#959DB8;enable-background:new    ;}
</style>
<path class="st0" d="M10,0C4.5,0,0,4.5,0,10s4.5,10,10,10s10-4.5,10-10S15.5,0,10,0z M10,19c-5,0-9-4-9-9s4-9,9-9c5,0,9,4,9,9
	C19,15,15,19,10,19z"/>
<path id="Ellipse_525_-_Outline" class="st0" d="M10,0C4.5,0,0,4.5,0,10s4.5,10,10,10s10-4.5,10-10S15.5,0,10,0z M10,19
	c-5,0-9-4-9-9s4-9,9-9c5,0,9,4,9,9C19,15,15,19,10,19z"/>
<g id="Group_2343" transform="translate(1387.443 1238.048) rotate(90)">
	<path class="st1" d="M-1228,1374.7c0.1,0,0.3,0,0.3,0.1l4.4,4.5c0.2,0.2,0.2,0.5,0,0.7c-0.2,0.2-0.5,0.2-0.7,0l-4.1-4.1l-4.1,4.1
		c-0.2,0.2-0.5,0.2-0.7,0c-0.2-0.2-0.2-0.5,0-0.7l4.5-4.5C-1228.3,1374.8-1228.2,1374.7-1228,1374.7z"/>
</g>
</svg>
