<?xml version="1.0" encoding="utf-8"?>
<!-- Generator: Adobe Illustrator 27.9.0, SVG Export Plug-In . SVG Version: 6.00 Build 0)  -->
<svg version="1.1" id="Layer_1" xmlns="http://www.w3.org/2000/svg" xmlns:xlink="http://www.w3.org/1999/xlink" x="0px" y="0px"
	 viewBox="0 0 12 12" style="enable-background:new 0 0 12 12;" xml:space="preserve">
<style type="text/css">
	.st0{fill:#0094FF;}
</style>
<g>
	<path class="st0" d="M6,1c2.76,0,5,2.24,5,5s-2.24,5-5,5S1,8.76,1,6S3.24,1,6,1 M6,0C2.69,0,0,2.69,0,6s2.69,6,6,6s6-2.69,6-6
		S9.31,0,6,0L6,0z"/>
</g>
<g>
	<path class="st0" d="M3.92,2.48h2.09c1.36,0,2.35,0.49,2.35,1.89c0,1.34-0.99,1.98-2.35,1.98H4.78v2.83H3.92V2.48z M5.89,5.66
		c1.04,0,1.61-0.43,1.61-1.29c0-0.88-0.57-1.19-1.61-1.19h-1.1v2.48H5.89z M6.51,5.67l2.04,3.51H7.58L5.83,6.12L6.51,5.67z"/>
</g>
</svg>
