<!-- Generated by IcoMoon.io -->
<svg version="1.1" xmlns="http://www.w3.org/2000/svg" width="32" height="32" viewBox="0 0 32 32">
<path d="M16 2.667c7.36 0 13.333 5.973 13.333 13.333s-5.973 13.333-13.333 13.333-13.333-5.973-13.333-13.333 5.973-13.333 13.333-13.333zM16 0c-8.827 0-16 7.173-16 16s7.173 16 16 16 16-7.173 16-16-7.173-16-16-16v0z"></path>
<path d="M10.453 6.613h5.573c3.627 0 6.267 1.307 6.267 5.040 0 3.573-2.64 5.28-6.267 5.28h-3.28v7.547h-2.293v-17.867zM15.707 15.093c2.773 0 4.293-1.147 4.293-3.44 0-2.347-1.52-3.173-4.293-3.173h-2.933v6.613h2.933zM17.36 15.12l5.44 9.36h-2.587l-4.667-8.16 1.813-1.2z"></path>
</svg>
