<?xml version="1.0" encoding="utf-8"?>
<!-- Generator: Adobe Illustrator 27.9.0, SVG Export Plug-In . SVG Version: 6.00 Build 0)  -->
<svg version="1.1" id="Layer_1" xmlns="http://www.w3.org/2000/svg" xmlns:xlink="http://www.w3.org/1999/xlink" x="0px" y="0px"
	 viewBox="0 0 12 12" style="enable-background:new 0 0 12 12;" xml:space="preserve">
<style type="text/css">
	.st0{fill:none;stroke:#000000;stroke-miterlimit:10;}
</style>
<g>
	<path d="M4.77,1c2.07,0,3.75,1.68,3.75,3.75S6.83,8.5,4.77,8.5S1.02,6.82,1.02,4.75S2.7,1,4.77,1 M4.77,0
		C2.14,0,0.02,2.13,0.02,4.75S2.14,9.5,4.77,9.5s4.75-2.13,4.75-4.75S7.39,0,4.77,0L4.77,0z"/>
</g>
<path class="st0" d="M2.77,6.51c0.53-0.49,1.22-0.79,2-0.79s1.47,0.3,2,0.79"/>
<circle cx="3.16" cy="3.29" r="0.66"/>
<circle cx="6.1" cy="3.29" r="0.66"/>
<line class="st0" x1="12" y1="12" x2="7.73" y2="7.73"/>
</svg>
