<!-- Generated by IcoMoon.io -->
<svg version="1.1" xmlns="http://www.w3.org/2000/svg" width="32" height="32" viewBox="0 0 32 32">
<path d="M12.693 2.667c5.52 0 10 4.48 10 10s-4.507 10-10 10-10-4.48-10-10 4.48-10 10-10zM12.693 0c-7.013 0-12.667 5.68-12.667 12.667s5.653 12.667 12.667 12.667 12.667-5.68 12.667-12.667-5.68-12.667-12.667-12.667v0z"></path>
<path fill="none" stroke="#000" stroke-linejoin="miter" stroke-linecap="butt" stroke-miterlimit="10" stroke-width="2.6667" d="M7.36 17.36c1.413-1.307 3.253-2.107 5.333-2.107s3.92 0.8 5.333 2.107"></path>
<path d="M10.16 8.773c0 0.972-0.788 1.76-1.76 1.76s-1.76-0.788-1.76-1.76c0-0.972 0.788-1.76 1.76-1.76s1.76 0.788 1.76 1.76z"></path>
<path d="M18 8.773c0 0.972-0.788 1.76-1.76 1.76s-1.76-0.788-1.76-1.76c0-0.972 0.788-1.76 1.76-1.76s1.76 0.788 1.76 1.76z"></path>
<path fill="none" stroke="#000" stroke-linejoin="miter" stroke-linecap="butt" stroke-miterlimit="10" stroke-width="2.6667" d="M31.973 32l-11.387-11.387"></path>
</svg>
