<!-- Generated by IcoMoon.io -->
<svg version="1.1" xmlns="http://www.w3.org/2000/svg" width="32" height="32" viewBox="0 0 32 32">
<path fill="#374775" d="M31.399 13.111l-3.768-0.251c-0.251-0.754-0.502-1.758-1.005-2.512l2.512-2.763c0.251-0.502 0.251-1.005 0-1.256l-3.014-3.014c-0.251-0.251-1.005-0.251-1.256 0l-2.763 2.512c-0.754-0.502-1.507-0.754-2.512-1.005l-0.502-4.019c0-0.251-0.502-0.754-1.005-0.754h-4.019c-0.502 0-1.005 0.502-1.005 0.754l-0.251 3.768c-0.754 0.251-1.758 0.502-2.512 1.005l-2.763-2.261c-0.251-0.251-1.005-0.251-1.256 0l-3.014 3.014c-0.251 0.251-0.251 0.754 0 1.256l2.512 2.763c-0.502 0.754-0.754 1.507-1.005 2.512l-4.019 0.251c-0.251 0-0.754 0.502-0.754 1.005v4.019c0 0.502 0.502 1.005 0.754 1.005l3.768 0.251c0.251 0.754 0.502 1.758 1.005 2.512l-2.512 2.763c-0.251 0.251-0.251 1.005 0 1.256l3.014 3.014c0.251 0.251 1.005 0.251 1.256 0l2.763-2.512c0.754 0.502 1.507 0.754 2.512 1.005l0.251 3.768c0 0.502 0.502 0.754 1.005 0.754h4.019c0.502 0 1.005-0.502 1.005-0.754l0.502-3.517c0.754-0.251 1.758-0.502 2.512-1.005l2.763 2.512c0.502 0.251 1.005 0.251 1.256 0l3.014-3.014c0.251-0.251 0.251-1.005 0-1.256l-2.512-2.763c0.502-0.754 0.754-1.507 1.005-2.512l3.768-0.251c0.502 0 0.754-0.502 0.754-1.005v-4.27c0.251-0.502 0-1.005-0.502-1.005zM30.394 17.382l-3.517 0.251c-0.502 0-0.754 0.251-0.754 0.754-0.251 1.256-0.754 2.261-1.256 3.265-0.502 0.251-0.502 0.754-0.251 1.005l2.261 2.763-1.758 1.758-2.512-2.512c-0.251-0.251-0.754-0.251-1.005 0-1.005 0.502-2.010 1.005-3.265 1.256-0.502 0-0.754 0.502-0.754 0.754l-0.251 3.517h-2.512l-0.251-3.517c0-0.502-0.251-0.754-0.754-0.754-1.005-0.251-2.010-0.754-3.014-1.256-0.502-0.251-0.754-0.251-1.256 0l-2.763 2.261-1.758-1.758 2.512-2.512c0.251-0.251 0.251-0.754 0-1.005-0.502-1.005-1.005-2.261-1.256-3.265 0-0.502-0.502-0.754-0.754-0.754l-3.517-0.251v-2.512l3.517-0.251c0.502 0 0.754-0.251 0.754-0.754 0.251-1.005 0.754-2.010 1.256-3.014 0.251-0.502 0.251-0.754 0-1.256l-2.261-2.763 1.758-1.758 2.512 2.512c0.502 0.251 0.754 0.251 1.256 0 1.005-0.502 2.010-1.005 3.265-1.256 0.502 0 0.754-0.502 0.754-0.754l0.251-3.517h2.512v3.517c0 0.502 0.251 0.754 0.754 0.754 1.256 0.251 2.261 0.754 3.014 1.256 0.502 0.251 1.005 0.251 1.256 0l2.763-2.261 1.758 1.758-2.512 2.512c-0.251 0.502-0.251 0.754 0 1.256 0.502 1.005 1.005 2.010 1.256 3.265 0 0.502 0.502 0.754 0.754 0.754l3.517 0.251v2.261z"></path>
<path fill="#374775" d="M16.076 9.846c-3.517 0-6.28 2.763-6.28 6.28s2.763 6.28 6.28 6.28c3.517 0 6.28-2.763 6.28-6.28s-2.763-6.28-6.28-6.28zM16.076 20.396c-2.512 0-4.521-2.010-4.521-4.27 0-2.512 2.010-4.521 4.521-4.521s4.521 2.010 4.521 4.521c-0.251 2.261-2.261 4.27-4.521 4.27z"></path>
</svg>
