<!-- Generated by IcoMoon.io -->
<svg version="1.1" xmlns="http://www.w3.org/2000/svg" width="32" height="32" viewBox="0 0 32 32">
<path fill="#fff" d="M9.739 4.174h12.522c3.061 0 5.565 2.504 5.565 5.565v12.522c0 3.061-2.504 5.565-5.565 5.565h-12.522c-3.061 0-5.565-2.504-5.565-5.565v-12.522c0-3.061 2.504-5.565 5.565-5.565z"></path>
<path fill="#ebedf2" d="M9.739 4.174c-3.061 0-5.565 2.504-5.565 5.565v12.522c0 3.061 2.504 5.565 5.565 5.565h12.522c3.061 0 5.565-2.504 5.565-5.565v-12.522c0-3.061-2.504-5.565-5.565-5.565h-12.522zM9.739 0h12.522c5.426 0 9.739 4.313 9.739 9.739v12.522c0 5.426-4.313 9.739-9.739 9.739h-12.522c-5.426 0-9.739-4.313-9.739-9.739v-12.522c0-5.426 4.313-9.739 9.739-9.739z"></path>
<path fill="#c2c9db" d="M21.983 14.609h-4.73v-4.73c0-0.835-0.557-1.391-1.391-1.391s-1.391 0.557-1.391 1.391v4.73h-4.73c-0.835 0-1.391 0.557-1.391 1.391s0.557 1.391 1.391 1.391h4.73v4.73c0 0.835 0.557 1.391 1.391 1.391s1.391-0.557 1.391-1.391v-4.73h4.73c0.835 0 1.391-0.557 1.391-1.391s-0.557-1.391-1.391-1.391z"></path>
</svg>
