<!-- Generated by IcoMoon.io -->
<svg version="1.1" xmlns="http://www.w3.org/2000/svg" width="32" height="32" viewBox="0 0 32 32">
<path fill="#58cc87" d="M23.539 1.877c-0.897-0.448-1.793-0.224-2.242 0.673s0 2.018 0.673 2.466c2.242 1.121 4.035 2.914 5.156 5.156 3.363 6.053 1.121 13.899-5.156 17.262s-13.899 1.121-17.262-5.156-0.897-14.123 5.38-17.262c0.673-0.448 1.121-1.569 0.673-2.466s-1.569-1.121-2.242-0.673c-5.38 2.914-8.519 8.295-8.519 14.123 0 8.743 7.174 15.917 15.917 15.917 5.829 0 11.209-3.139 14.123-8.295 4.259-7.846 1.345-17.486-6.501-21.745z"></path>
<path fill="#58cc87" d="M15.917 18.466c0.897 0 1.569-0.673 1.793-1.569v-15.244c0-0.897-0.673-1.569-1.793-1.569s-1.569 0.673-1.569 1.569v15.244c0 0.897 0.673 1.569 1.569 1.569z"></path>
</svg>
