<?xml version="1.0" encoding="utf-8"?>
<!-- Generator: Adobe Illustrator 21.0.0, SVG Export Plug-In . SVG Version: 6.00 Build 0)  -->
<svg version="1.1" id="Layer_1" xmlns="http://www.w3.org/2000/svg" xmlns:xlink="http://www.w3.org/1999/xlink" x="0px" y="0px"
	 viewBox="0 0 14.3 14.3" style="enable-background:new 0 0 14.3 14.3;" xml:space="preserve">
<style type="text/css">
	.st0{fill:#58CC87;}
</style>
<g>
	<polygon class="st0" points="7.1,14.3 7.1,14.3 7.1,14.3 	"/>
	<path class="st0" d="M10.5,0.8c-0.4-0.2-0.8-0.1-1,0.3S9.5,2,9.8,2.2c1,0.5,1.8,1.3,2.3,2.3c1.5,2.7,0.5,6.2-2.3,7.7
		s-6.2,0.5-7.7-2.3S1.7,3.6,4.5,2.2C4.8,2,5,1.5,4.8,1.1s-0.7-0.5-1-0.3C1.4,2.1,0,4.5,0,7.1c0,3.9,3.2,7.1,7.1,7.1
		c2.6,0,5-1.4,6.3-3.7C15.3,7,14,2.7,10.5,0.8z"/>
	<path class="st0" d="M7.1,8.2c0.4,0,0.7-0.3,0.8-0.7V0.7C7.9,0.3,7.6,0,7.1,0S6.4,0.3,6.4,0.7v6.8C6.4,7.9,6.7,8.2,7.1,8.2z"/>
</g>
</svg>
