<?xml version="1.0" encoding="utf-8"?>
<!-- Generator: Adobe Illustrator 21.0.0, SVG Export Plug-In . SVG Version: 6.00 Build 0)  -->
<svg version="1.1" id="Layer_1" xmlns="http://www.w3.org/2000/svg" xmlns:xlink="http://www.w3.org/1999/xlink" x="0px" y="0px"
	 viewBox="0 0 12.8 12.8" style="enable-background:new 0 0 12.8 12.8;" xml:space="preserve">
<style type="text/css">
	.st0{fill:#374775;}
</style>
<g>
	<path class="st0" d="M12.5,5.2L11,5.1c-0.1-0.3-0.2-0.7-0.4-1l1-1.1c0.1-0.2,0.1-0.4,0-0.5l-1.2-1.2c-0.1-0.1-0.4-0.1-0.5,0l-1.1,1
		c-0.3-0.2-0.6-0.3-1-0.4L7.6,0.3C7.6,0.2,7.4,0,7.2,0H5.6C5.4,0,5.2,0.2,5.2,0.3L5.1,1.8c-0.3,0.1-0.7,0.2-1,0.4L3,1.3
		c-0.1-0.1-0.4-0.1-0.5,0L1.3,2.5C1.2,2.6,1.2,2.8,1.3,3l1,1.1c-0.2,0.3-0.3,0.6-0.4,1L0.3,5.2C0.2,5.2,0,5.4,0,5.6v1.6
		c0,0.2,0.2,0.4,0.3,0.4l1.5,0.1c0.1,0.3,0.2,0.7,0.4,1l-1,1.1c-0.1,0.1-0.1,0.4,0,0.5l1.2,1.2c0.1,0.1,0.4,0.1,0.5,0l1.1-1
		c0.3,0.2,0.6,0.3,1,0.4l0.1,1.5c0,0.2,0.2,0.3,0.4,0.3h1.6c0.2,0,0.4-0.2,0.4-0.3L7.7,11c0.3-0.1,0.7-0.2,1-0.4l1.1,1
		c0.2,0.1,0.4,0.1,0.5,0l1.2-1.2c0.1-0.1,0.1-0.4,0-0.5l-1-1.1c0.2-0.3,0.3-0.6,0.4-1l1.5-0.1c0.2,0,0.3-0.2,0.3-0.4V5.6
		C12.8,5.4,12.7,5.2,12.5,5.2z M12.1,6.9L10.7,7c-0.2,0-0.3,0.1-0.3,0.3c-0.1,0.5-0.3,0.9-0.5,1.3C9.7,8.7,9.7,8.9,9.8,9l0.9,1.1
		l-0.7,0.7L9,9.8c-0.1-0.1-0.3-0.1-0.4,0c-0.4,0.2-0.8,0.4-1.3,0.5c-0.2,0-0.3,0.2-0.3,0.3l-0.1,1.4h-1l-0.1-1.4
		c0-0.2-0.1-0.3-0.3-0.3C5.1,10.2,4.7,10,4.3,9.8C4.1,9.7,4,9.7,3.8,9.8l-1.1,0.9l-0.7-0.7L3,9c0.1-0.1,0.1-0.3,0-0.4
		C2.8,8.2,2.6,7.7,2.5,7.3C2.5,7.1,2.3,7,2.2,7L0.8,6.9v-1l1.4-0.1c0.2,0,0.3-0.1,0.3-0.3C2.6,5.1,2.8,4.7,3,4.3
		C3.1,4.1,3.1,4,3,3.8L2.1,2.7l0.7-0.7L3.8,3C4,3.1,4.1,3.1,4.3,3c0.4-0.2,0.8-0.4,1.3-0.5c0.2,0,0.3-0.2,0.3-0.3l0.1-1.4h1L7,2.2
		c0,0.2,0.1,0.3,0.3,0.3C7.8,2.6,8.2,2.8,8.5,3C8.7,3.1,8.9,3.1,9,3l1.1-0.9l0.7,0.7L9.8,3.8C9.7,4,9.7,4.1,9.8,4.3
		c0.2,0.4,0.4,0.8,0.5,1.3c0,0.2,0.2,0.3,0.3,0.3l1.4,0.1V6.9z"/>
	<path class="st0" d="M6.4,3.9C5,3.9,3.9,5,3.9,6.4c0,1.4,1.1,2.5,2.5,2.5c1.4,0,2.5-1.1,2.5-2.5C8.9,5,7.8,3.9,6.4,3.9z M6.4,8.1
		c-1,0-1.8-0.8-1.8-1.7c0-1,0.8-1.8,1.8-1.8c1,0,1.8,0.8,1.8,1.8C8.1,7.3,7.3,8.1,6.4,8.1z"/>
</g>
</svg>
