<?xml version="1.0" encoding="utf-8"?>
<!-- Generator: Adobe Illustrator 21.0.0, SVG Export Plug-In . SVG Version: 6.00 Build 0)  -->
<svg version="1.1" id="Layer_1" xmlns="http://www.w3.org/2000/svg" xmlns:xlink="http://www.w3.org/1999/xlink" x="0px" y="0px"
	 viewBox="0 0 23 23" style="enable-background:new 0 0 23 23;" xml:space="preserve">
<style type="text/css">
	.st0{fill:#FFFFFF;}
	.st1{fill:#EBEDF2;}
	.st2{fill:#C2C9DB;}
</style>
<g id="Group_8329" transform="translate(-660 -593)">
	<path id="Rectangle_1261" class="st0" d="M667,596h9c2.2,0,4,1.8,4,4v9c0,2.2-1.8,4-4,4h-9c-2.2,0-4-1.8-4-4v-9
		C663,597.8,664.8,596,667,596z"/>
	<path id="Rectangle_1261_-_Outline" class="st1" d="M667,596c-2.2,0-4,1.8-4,4v9c0,2.2,1.8,4,4,4h9c2.2,0,4-1.8,4-4v-9
		c0-2.2-1.8-4-4-4H667L667,596z M667,593h9c3.9,0,7,3.1,7,7v9c0,3.9-3.1,7-7,7h-9c-3.9,0-7-3.1-7-7v-9C660,596.1,663.1,593,667,593z
		"/>
	<path class="st2" d="M675.8,603.5h-3.4v-3.4c0-0.6-0.4-1-1-1s-1,0.4-1,1v3.4H667c-0.6,0-1,0.4-1,1s0.4,1,1,1h3.4v3.4
		c0,0.6,0.4,1,1,1s1-0.4,1-1v-3.4h3.4c0.6,0,1-0.4,1-1S676.4,603.5,675.8,603.5z"/>
</g>
</svg>
