<?xml version="1.0" encoding="utf-8"?>
<!-- Generator: Adobe Illustrator 21.0.0, SVG Export Plug-In . SVG Version: 6.00 Build 0)  -->
<svg version="1.1" id="Layer_1" xmlns="http://www.w3.org/2000/svg" xmlns:xlink="http://www.w3.org/1999/xlink" x="0px" y="0px"
	 viewBox="0 0 91.5 107.1" style="enable-background:new 0 0 91.5 107.1;" xml:space="preserve">
<style type="text/css">
	.st0{fill:#FF8946;}
</style>
<path class="st0" d="M91,80.2c-0.4-0.7-0.9-1.3-1.6-1.7l-18-10.3L50.7,3.7c-0.9-2.8-3.9-4.3-6.6-3.4c-1.6,0.5-2.9,1.8-3.4,3.4
	L20.1,68.2l-18,10.3c-1,0.6-1.7,1.5-2,2.6c-0.3,1.1-0.1,2.2,0.4,3.2C1,85,1.6,85.6,2.3,86L21,95.9c0.1,0.1,0.3,0.1,0.5,0.1
	c0.4,0,0.7-0.2,0.9-0.5c0.3-0.5,0.1-1.1-0.4-1.4L3.2,84.2c-0.4-0.2-0.7-0.5-0.9-0.9c-0.3-0.5-0.4-1.1-0.2-1.7s0.5-1.1,1.1-1.4
	L19.3,71c-1,5.4,2.1,10.9,7.5,12.6c0.5,0.1,0.9,0.3,1.4,0.4l1.6,0.3c5.3,0.9,10.6,1.4,15.9,1.4c5.3,0,10.6-0.5,15.9-1.4l1.6-0.3
	c2.9-0.5,5.5-2.2,7.2-4.6c1.7-2.4,2.3-5.4,1.8-8.3c0,0,0,0,0-0.1l16.2,9.3c0.4,0.2,0.7,0.5,0.9,0.9c0.6,1.1,0.2,2.5-0.9,3.1
	l-36,19.1c-4.1,2.2-8.9,2.2-13,0l-6-3.2c-0.5-0.3-1.1-0.1-1.4,0.4c-0.3,0.5-0.1,1.1,0.4,1.4l6,3.2c2.3,1.2,4.9,1.9,7.4,1.9
	c2.6,0,5.1-0.6,7.4-1.9l36-19.1c1-0.5,1.7-1.4,2.1-2.5C91.6,82.4,91.5,81.2,91,80.2z M34.2,30.7c4,0.9,8.1,1.4,12.2,1.4
	c3.7,0,7.4-0.4,11-1.1l7.1,22.2l0,0c-12.2,3-25.1,2.8-37.2-0.4l0,0L34.2,30.7z M42.6,4.3c0.3-1,1.1-1.8,2.1-2.1
	c0.3-0.1,0.7-0.2,1-0.2c1.4,0,2.7,0.9,3.1,2.3L56.8,29c-7.2,1.4-14.8,1.3-21.9-0.3L42.6,4.3z M68.7,78.2c-1.4,2-3.5,3.3-5.9,3.8
	l-1.6,0.3c-10.3,1.9-20.7,1.9-31,0L28.6,82c-0.4-0.1-0.8-0.2-1.2-0.3c-4.8-1.5-7.4-6.7-5.9-11.5l5-15.6l0.1,0
	c6.5,1.7,13.2,2.6,20,2.6c6.1,0,12.2-0.7,18.2-2.2l0.2,0l4.9,15.2c0.1,0.4,0.2,0.8,0.3,1.2C70.6,73.8,70.1,76.2,68.7,78.2z"/>
</svg>
