<?xml version="1.0" encoding="utf-8"?>
<!-- Generator: Adobe Illustrator 27.0.0, SVG Export Plug-In . SVG Version: 6.00 Build 0)  -->
<svg version="1.1" id="Layer_1" xmlns="http://www.w3.org/2000/svg" xmlns:xlink="http://www.w3.org/1999/xlink" x="0px" y="0px"
	 viewBox="0 0 18.7 29.9" style="enable-background:new 0 0 18.7 29.9;" xml:space="preserve">
<style type="text/css">
	.st0{fill:#9F9F9F;}
</style>
<g id="Group_8405" transform="translate(0 0)">
	<g>
		<g id="Group_8404" transform="translate(0 0)">
			<path id="Path_6303" class="st0" d="M16.7,16.2H2c-0.4,0-0.8-0.3-0.8-0.8l0,0V8.1C1.3,3.6,4.9,0,9.4,0s8.1,3.6,8.1,8.1v7.4
				C17.5,15.9,17.1,16.2,16.7,16.2C16.7,16.2,16.7,16.2,16.7,16.2z M2.8,14.7H16V8.1c0-3.6-3-6.6-6.6-6.6s-6.6,3-6.6,6.6L2.8,14.7z"
				/>
			<path id="Rectangle_1215" class="st0" d="M0.7,17.9H18c0.4,0,0.8,0.3,0.8,0.8v3.4c0,0.4-0.3,0.8-0.8,0.8l0,0H0.7
				c-0.4,0-0.8-0.3-0.8-0.8v-3.4C0,18.2,0.3,17.9,0.7,17.9z M17.2,19.4H1.5v1.9h15.7V19.4z"/>
			<path id="Line_64" class="st0" d="M4.6,29.9c-0.4,0-0.7-0.3-0.8-0.7v-4c0-0.4,0.3-0.8,0.8-0.8s0.8,0.3,0.8,0.8v4
				C5.4,29.5,5,29.9,4.6,29.9z"/>
			<path id="Line_65" class="st0" d="M14.1,29.9c-0.4,0-0.7-0.3-0.8-0.7v-4c0-0.4,0.3-0.8,0.8-0.8s0.8,0.3,0.8,0.8v4
				C14.8,29.5,14.5,29.9,14.1,29.9z"/>
			<path id="Path_6304" class="st0" d="M5.7,8.8c-0.4,0-0.8-0.3-0.8-0.8c0-2.4,2-4.4,4.4-4.4c0.4,0,0.8,0.3,0.8,0.8S9.8,5.2,9.4,5.2
				c-1.6,0-2.9,1.3-2.9,2.9C6.4,8.5,6.1,8.8,5.7,8.8z"/>
		</g>
	</g>
</g>
</svg>
