<?xml version="1.0" encoding="utf-8"?>
<!-- Generator: Adobe Illustrator 21.0.0, SVG Export Plug-In . SVG Version: 6.00 Build 0)  -->
<svg version="1.1" id="Group_3994" xmlns="http://www.w3.org/2000/svg" xmlns:xlink="http://www.w3.org/1999/xlink" x="0px" y="0px"
	 viewBox="0 0 9.6 8.1" style="enable-background:new 0 0 9.6 8.1;" xml:space="preserve">
<style type="text/css">
	.st0{fill:#FFFFFF;}
</style>
<g>
	<path class="st0" d="M6,0H5.3v1.5H4.3V0H3.6C1.7,0.2,0.2,1.7,0,3.6c-0.2,2.2,1.4,4.3,3.6,4.5h0.7V6.6h0.9v1.5H6v0
		c1.9-0.2,3.4-1.7,3.6-3.6C9.8,2.3,8.2,0.2,6,0z M6,7.6H5.8V6.1H3.9v1.5H3.7C2,7.4,0.7,6.1,0.5,4.5c-0.2-2,1.2-3.8,3.1-4h0.2V2h1.9
		V0.5H6C7.6,0.7,8.9,2,9.1,3.6C9.3,5.6,7.9,7.4,6,7.6z"/>
	<polygon class="st0" points="6.5,2.7 7.6,3.8 2,3.8 3.2,2.7 2.9,2.4 1.1,4.1 2.9,5.7 3.2,5.4 2,4.3 7.6,4.3 6.5,5.4 6.7,5.7 
		8.5,4.1 6.7,2.4 	"/>
</g>
</svg>
