<!-- Generated by IcoMoon.io -->
<svg version="1.1" xmlns="http://www.w3.org/2000/svg" width="32" height="32" viewBox="0 0 32 32">
<path d="M12.58 24.393l3.148 2.885c-3.934 0-7.344-2.098-9.443-5.508-3.148-5.246-1.574-12.328 3.934-15.475 0.262-0.262 0.262-0.525 0.262-0.787-0.262-0.262-0.787-0.525-1.049-0.262-3.672 2.361-6.033 6.295-6.033 10.754 0 6.82 5.508 12.328 12.066 12.59l-2.885 2.623 0.787 0.787 4.721-4.197-4.721-4.197-0.787 0.787z"></path>
<path d="M16.515 3.41l2.885-2.623-0.525-0.787-4.721 4.197 4.459 4.197 0.787-0.525-3.148-3.148c3.934 0 7.344 2.098 9.443 5.508 3.148 5.246 1.574 12.328-3.934 15.475 0 0.262-0.262 0.262-0.262 0.525s0.262 0.525 0.787 0.525c0 0 0.262 0 0.262 0 3.934-2.361 6.295-6.82 6.033-11.541-0.262-6.557-5.77-11.541-12.066-11.803z"></path>
</svg>
