<!-- Generated by IcoMoon.io -->
<svg version="1.1" xmlns="http://www.w3.org/2000/svg" width="32" height="32" viewBox="0 0 32 32">
<path fill="#abb6d6" d="M20.407 16.052l10.492-10.492c1.259-1.259 1.259-3.357 0-4.616s-3.357-1.259-4.616 0l-10.072 10.492-10.492-10.492c-1.259-1.259-3.357-1.259-4.616 0s-1.259 3.357 0 4.616l10.492 10.492-10.492 10.492c-1.259 1.259-1.259 3.357 0 4.616 0.42 0.42 1.259 0.839 2.098 0.839s1.679-0.42 2.098-0.839l10.492-10.492 10.492 10.492c0.42 0.42 1.259 0.839 2.098 0.839s1.679-0.42 2.098-0.839c1.259-1.259 1.259-3.357 0-4.616l-10.072-10.492z"></path>
</svg>
