<?xml version="1.0" encoding="utf-8"?>
<!-- Generator: Adobe Illustrator 21.0.0, SVG Export Plug-In . SVG Version: 6.00 Build 0)  -->
<svg version="1.1" id="Group_988" xmlns="http://www.w3.org/2000/svg" xmlns:xlink="http://www.w3.org/1999/xlink" x="0px" y="0px"
	 viewBox="0 0 28.9 44.3" style="enable-background:new 0 0 28.9 44.3;" xml:space="preserve">
<style type="text/css">
	.st0{fill:#333333;}
	.st1{fill:#85C455;}
</style>
<g id="Rectangle_576">
	<path class="st0" d="M1.8,0h25.3c1,0,1.8,0.8,1.8,1.8v40.8c0,1-0.8,1.8-1.8,1.8H1.8c-1,0-1.8-0.8-1.8-1.8V1.8C0,0.8,0.8,0,1.8,0z"
		/>
</g>
<g id="Rectangle_577">
	<path class="st1" d="M22.3,39.9H6.6c-1,0-1.8-0.8-1.8-1.8V6.3c0-1,0.8-1.8,1.8-1.8h15.7c1,0,1.8,0.8,1.8,1.8v31.8
		C24.1,39.1,23.3,39.9,22.3,39.9z M6.6,5.9c-0.2,0-0.3,0.2-0.3,0.3V38c0,0.2,0.2,0.3,0.3,0.3h15.7c0.2,0,0.3-0.2,0.3-0.3V6.3
		c0-0.2-0.2-0.3-0.3-0.3L6.6,5.9L6.6,5.9z"/>
</g>
</svg>
