<?xml version="1.0" encoding="utf-8"?>
<!-- Generator: Adobe Illustrator 21.0.0, SVG Export Plug-In . SVG Version: 6.00 Build 0)  -->
<svg version="1.1" id="Group_1105" xmlns="http://www.w3.org/2000/svg" xmlns:xlink="http://www.w3.org/1999/xlink" x="0px" y="0px"
	 viewBox="0 0 31.8 91.1" style="enable-background:new 0 0 31.8 91.1;" xml:space="preserve">
<style type="text/css">
	.st0{fill:#333333;}
	.st1{fill:#85C455;}
</style>
<g id="Rectangle_613">
	<path class="st0" d="M1.8,0h28.3c1,0,1.8,0.8,1.8,1.8v87.5c0,1-0.8,1.8-1.8,1.8H1.8c-1,0-1.8-0.8-1.8-1.8V1.8C0,0.8,0.8,0,1.8,0z"
		/>
</g>
<g id="Rectangle_614">
	<path class="st1" d="M24.7,85.3H7.2c-1,0-1.8-0.8-1.8-1.8V7.6c0-1,0.8-1.8,1.8-1.8h17.5c1,0,1.8,0.8,1.8,1.8v75.8
		C26.5,84.5,25.7,85.3,24.7,85.3z M7.2,7.3C7,7.3,6.8,7.5,6.8,7.6v75.8c0,0.2,0.2,0.3,0.3,0.3h17.5c0.2,0,0.3-0.2,0.3-0.3V7.6
		c0-0.2-0.2-0.3-0.3-0.3C24.6,7.3,7.2,7.3,7.2,7.3z"/>
</g>
</svg>
