<!-- Generated by IcoMoon.io -->
<svg version="1.1" xmlns="http://www.w3.org/2000/svg" width="32" height="32" viewBox="0 0 32 32">
<path fill="#ff8946" d="M29.536 23.96c-0.12-0.209-0.269-0.389-0.478-0.508l-5.38-3.079-6.187-19.279c-0.269-0.837-1.166-1.285-1.973-1.016-0.478 0.149-0.867 0.538-1.016 1.016l-6.157 19.279-5.38 3.079c-0.299 0.179-0.508 0.448-0.598 0.777s-0.030 0.658 0.12 0.956c0.149 0.209 0.329 0.389 0.538 0.508l5.589 2.959c0.030 0.030 0.090 0.030 0.149 0.030 0.12 0 0.209-0.060 0.269-0.149 0.090-0.149 0.030-0.329-0.12-0.418l-5.619-2.959c-0.12-0.060-0.209-0.149-0.269-0.269-0.090-0.149-0.12-0.329-0.060-0.508s0.149-0.329 0.329-0.418l4.812-2.75c-0.299 1.614 0.628 3.258 2.242 3.766 0.149 0.030 0.269 0.090 0.418 0.12l0.478 0.090c1.584 0.269 3.168 0.418 4.752 0.418s3.168-0.149 4.752-0.418l0.478-0.090c0.867-0.149 1.644-0.658 2.152-1.375s0.687-1.614 0.538-2.481c0 0 0 0 0-0.030l4.842 2.78c0.12 0.060 0.209 0.149 0.269 0.269 0.179 0.329 0.060 0.747-0.269 0.927l-10.76 5.709c-1.225 0.658-2.66 0.658-3.886 0l-1.793-0.956c-0.149-0.090-0.329-0.030-0.418 0.12s-0.030 0.329 0.12 0.418l1.793 0.956c0.687 0.359 1.465 0.568 2.212 0.568 0.777 0 1.524-0.179 2.212-0.568l10.76-5.709c0.299-0.149 0.508-0.418 0.628-0.747 0.090-0.359 0.060-0.717-0.090-1.016zM12.559 9.164c1.196 0.269 2.421 0.418 3.647 0.418 1.106 0 2.212-0.12 3.288-0.329l2.122 6.635c-3.647 0.897-7.502 0.837-11.119-0.12v0l2.062-6.606zM15.069 1.274c0.090-0.299 0.329-0.538 0.628-0.628 0.090-0.030 0.209-0.060 0.299-0.060 0.418 0 0.807 0.269 0.927 0.687l2.391 7.383c-2.152 0.418-4.424 0.389-6.546-0.090l2.302-7.293zM22.87 23.362c-0.418 0.598-1.046 0.986-1.764 1.136l-0.478 0.090c-3.079 0.568-6.187 0.568-9.266 0l-0.478-0.090c-0.12-0.030-0.239-0.060-0.359-0.090-1.435-0.448-2.212-2.003-1.764-3.437l1.494-4.663h0.030c1.943 0.508 3.945 0.777 5.978 0.777 1.823 0 3.647-0.209 5.44-0.658h0.060l1.465 4.543c0.030 0.12 0.060 0.239 0.090 0.359 0.12 0.717-0.030 1.435-0.448 2.032z"></path>
</svg>
