<!-- Generated by IcoMoon.io -->
<svg version="1.1" xmlns="http://www.w3.org/2000/svg" width="32" height="32" viewBox="0 0 32 32">
<path fill="#333" d="M9.769 0h12.462c0.769 0 1.385 0.615 1.385 1.385v29.231c0 0.769-0.615 1.385-1.385 1.385h-12.462c-0.769 0-1.385-0.615-1.385-1.385v-29.231c0-0.769 0.615-1.385 1.385-1.385z"></path>
<path fill="#ffc917" d="M12.615 2.538h6.769c0.769 0 1.385 0.615 1.385 1.385 0 0 0 0 0 0v24.154c0 0.769-0.615 1.385-1.385 1.385h-6.769c-0.769 0-1.385-0.615-1.385-1.385v-24.077c-0.077-0.769 0.615-1.462 1.385-1.462 0 0 0 0 0 0zM19.385 28.462c0.154 0 0.231-0.154 0.231-0.231v-24.231c0-0.154-0.154-0.231-0.231-0.231 0 0 0 0 0 0h-6.769c-0.154 0-0.231 0.154-0.231 0.231 0 0 0 0 0 0v24.154c0 0.154 0.154 0.231 0.231 0.231h6.769z"></path>
<path fill="#9f9f9f" d="M18.308 8.462c0 1.274-1.033 2.308-2.308 2.308s-2.308-1.033-2.308-2.308c0-1.274 1.033-2.308 2.308-2.308s2.308 1.033 2.308 2.308z"></path>
<path fill="#9f9f9f" d="M18.308 16.154c0 1.274-1.033 2.308-2.308 2.308s-2.308-1.033-2.308-2.308c0-1.274 1.033-2.308 2.308-2.308s2.308 1.033 2.308 2.308z"></path>
<path fill="#9f9f9f" d="M18.308 23.846c0 1.274-1.033 2.308-2.308 2.308s-2.308-1.033-2.308-2.308c0-1.274 1.033-2.308 2.308-2.308s2.308 1.033 2.308 2.308z"></path>
</svg>
