<!-- Generated by IcoMoon.io -->
<svg version="1.1" xmlns="http://www.w3.org/2000/svg" width="32" height="32" viewBox="0 0 32 32">
<path fill="#959db8" d="M26.842 4.546c-2.973-2.973-6.82-4.546-10.842-4.546 0 0 0 0 0 0-4.022 0-7.869 1.574-10.667 4.546-2.973 2.798-4.546 6.645-4.546 10.667 0 0.699 0.525 1.399 1.399 1.399s1.399-0.525 1.399-1.399c0-3.322 1.399-6.47 3.672-8.918 2.273-2.273 5.421-3.672 8.743-3.672 0 0 0 0 0 0 3.322 0 6.47 1.399 8.918 3.672s3.672 5.596 3.672 8.918c0 6.995-5.596 12.59-12.59 12.59-2.973 0-5.771-1.049-7.869-2.798l4.197-1.924c0.699-0.35 0.874-1.049 0.699-1.749s-1.049-0.874-1.749-0.699l-5.596 2.448c-0.525 0.175-0.699 0.699-0.699 1.049l-0.699 6.47c0 0.699 0.525 1.399 1.224 1.399 0 0 0 0 0.175 0 0.699 0 1.224-0.525 1.224-1.224l0.175-3.322c2.623 1.924 5.596 2.798 8.918 2.798 8.393 0 15.213-6.82 15.213-15.213 0-3.847-1.574-7.694-4.372-10.492z"></path>
</svg>
