<?xml version="1.0" encoding="utf-8"?>
<!-- Generator: Adobe Illustrator 27.0.0, SVG Export Plug-In . SVG Version: 6.00 Build 0)  -->
<svg version="1.1" id="Layer_1" xmlns="http://www.w3.org/2000/svg" xmlns:xlink="http://www.w3.org/1999/xlink" x="0px" y="0px"
	 viewBox="0 0 19.8 41.6" style="enable-background:new 0 0 19.8 41.6;" xml:space="preserve">
<style type="text/css">
	.st0{fill:#333333;}
	.st1{fill:#FFC917;}
	.st2{fill:#9F9F9F;}
</style>
<g id="Group_8414" transform="translate(0 0.064)">
	<path id="Rectangle_609" class="st0" d="M1.8-0.1H18c1,0,1.8,0.8,1.8,1.8v38c0,1-0.8,1.8-1.8,1.8H1.8c-1,0-1.8-0.8-1.8-1.8v-38
		C0,0.7,0.8-0.1,1.8-0.1z"/>
	<path id="Rectangle_610" class="st1" d="M5.5,3.2h8.8c1,0,1.8,0.8,1.8,1.8c0,0,0,0,0,0v31.4c0,1-0.8,1.8-1.8,1.8H5.5
		c-1,0-1.8-0.8-1.8-1.8V5.1C3.6,4.1,4.5,3.2,5.5,3.2C5.5,3.2,5.5,3.2,5.5,3.2z M14.3,36.9c0.2,0,0.3-0.2,0.3-0.3V5.1
		c0-0.2-0.2-0.3-0.3-0.3c0,0,0,0,0,0H5.5c-0.2,0-0.3,0.2-0.3,0.3c0,0,0,0,0,0v31.4c0,0.2,0.2,0.3,0.3,0.3H14.3z"/>
	<g id="Group_8415" transform="translate(0 0)">
		<circle id="Ellipse_1208" class="st2" cx="9.9" cy="10.9" r="3"/>
		<circle id="Ellipse_1209" class="st2" cx="9.9" cy="20.9" r="3"/>
		<circle id="Ellipse_1210" class="st2" cx="9.9" cy="30.9" r="3"/>
	</g>
</g>
</svg>
