<?xml version="1.0" encoding="utf-8"?>
<!-- Generator: Adobe Illustrator 27.0.0, SVG Export Plug-In . SVG Version: 6.00 Build 0)  -->
<svg version="1.1" id="Layer_1" xmlns="http://www.w3.org/2000/svg" xmlns:xlink="http://www.w3.org/1999/xlink" x="0px" y="0px"
	 viewBox="0 0 19 19.9" style="enable-background:new 0 0 19 19.9;" xml:space="preserve">
<style type="text/css">
	.st0{fill:#9F9F9F;}
</style>
<path class="st0" d="M15.4,0H3.6C1.6,0,0,1.7,0,3.8v9.6c0,2,1.6,3.7,3.6,3.8h4.7l-1.5,1.5c-0.1,0.1-0.2,0.3-0.2,0.5
	c0,0.4,0.3,0.8,0.7,0.8c0.2,0,0.4-0.1,0.5-0.2l2.7-2.7c0,0,0,0,0,0c0.3-0.3,0.3-0.8,0-1.1l-2.7-2.7c0,0,0,0,0,0
	c-0.3-0.3-0.8-0.3-1.1,0.1c-0.3,0.3-0.3,0.8,0.1,1.1l1.5,1.5H3.6c-1.2,0-2.2-1-2.1-2.3V3.8c0-1.2,0.9-2.2,2.1-2.3h11.8
	c1.2,0,2.2,1,2.1,2.3v9.6c0,1.2-0.9,2.2-2.1,2.3c-0.4,0-0.8,0.3-0.8,0.8c0,0.4,0.3,0.8,0.8,0.8c2,0,3.7-1.7,3.6-3.8V3.8
	C19,1.7,17.4,0,15.4,0z"/>
</svg>
