<!-- Generated by IcoMoon.io -->
<svg version="1.1" xmlns="http://www.w3.org/2000/svg" width="32" height="32" viewBox="0 0 32 32">
<path d="M19.986 2.547h-2.325v4.982h-3.322v-4.982h-2.325c-6.311 0.664-11.294 5.647-11.958 11.958-0.664 7.308 4.65 14.283 11.958 14.947h2.325v-4.982h2.989v4.982h2.657c6.311-0.664 11.294-5.647 11.958-11.958 0.664-7.308-4.65-14.283-11.958-14.947zM19.986 27.792h-0.664v-4.982h-6.311v4.982h-0.664c-5.647-0.664-9.965-4.982-10.629-10.297-0.664-6.643 3.986-12.622 10.297-13.287h0.664v4.982h6.311v-4.982h0.997c5.315 0.664 9.633 4.982 10.297 10.297 0.664 6.643-3.986 12.622-10.297 13.287z"></path>
<path d="M21.647 11.516l3.654 3.654h-18.601l3.986-3.654-0.996-0.996-5.979 5.647 5.979 5.315 0.996-0.997-3.986-3.654h18.601l-3.654 3.654 0.664 0.997 5.979-5.315-5.979-5.647z"></path>
</svg>
