<?xml version="1.0" encoding="utf-8"?>
<!-- Generator: Adobe Illustrator 21.0.0, SVG Export Plug-In . SVG Version: 6.00 Build 0)  -->
<svg version="1.1" id="Component_27_2" xmlns="http://www.w3.org/2000/svg" xmlns:xlink="http://www.w3.org/1999/xlink" x="0px"
	 y="0px" viewBox="0 0 81.7 81.7" style="enable-background:new 0 0 81.7 81.7;" xml:space="preserve">
<style type="text/css">
	.st0{fill:#C1C0C0;}
	.st1{fill:#E9E9E9;}
	.st2{fill:#C65161;}
	.st3{fill:#9F9F9F;}
</style>
<g>
	<path class="st0" d="M44.3,20.9c-0.7-0.1-1.4-0.2-2.1-0.2c-11-9.9-18.3-14.9-21.8-14.9C15,5.8,5.8,15,5.8,20.4c0,0.5,0.1,1,0.3,1.4
		c-2.5-1.2-4.8-2.8-4.8-4.9C1.3,11.5,11.5,1.3,17,1.3C20.8,1.3,30.7,8.4,44.3,20.9z"/>
	<path class="st0" d="M21.8,75.7c-1.2,2.4-2.8,4.7-4.9,4.7c-5.4,0-15.7-10.3-15.7-15.7c0-3.8,7.1-13.7,19.6-27.3
		c-0.1,0.7-0.2,1.4-0.2,2.1c-9.9,11-14.9,18.3-14.9,21.8C5.8,66.7,15,76,20.4,76C20.9,76,21.4,75.9,21.8,75.7z"/>
	<path class="st0" d="M80.5,64.7c-0.1,5.5-10.3,15.7-15.7,15.7c-3.8,0-13.7-7.1-27.3-19.6c0.7,0.1,1.4,0.2,2.1,0.3
		C50.6,70.9,57.9,76,61.3,76C66.7,76,76,66.7,76,61.3c0-0.5-0.1-0.9-0.3-1.4C78.1,61.1,80.5,62.7,80.5,64.7z"/>
	<path class="st0" d="M61,42.2c9.9-11.1,15-18.4,15-21.8C76,15,66.7,5.8,61.3,5.8c-0.5,0-1,0.1-1.4,0.3c1.2-2.5,2.9-4.8,4.9-4.8
		c5.4,0,15.6,10.2,15.6,15.7c0,3.8-7.1,13.7-19.6,27.3C60.9,43.6,61,42.9,61,42.2z"/>
</g>
<g>
	<path class="st1" d="M40.9,21.6c-10.7,0-19.3,8.7-19.3,19.3s8.6,19.2,19.3,19.2c5.3,0,10.1-2.1,13.6-5.6s5.7-8.3,5.7-13.6
		C60.2,30.2,51.5,21.6,40.9,21.6z M40.9,48c-4,0-7.2-3.2-7.2-7.2s3.2-7.2,7.2-7.2c3.9,0,7.2,3.3,7.2,7.2C48.1,44.8,44.9,48,40.9,48z
		"/>
	<path class="st1" d="M26.7,55.3c-0.6,4.6-1.8,12.2-4,18c-0.5,0.8-1.4,1.3-2.3,1.3C15.8,74.7,7,66,7,61.3c0-2.9,4.8-9.9,13.6-19.8
		C20.8,46.9,23.1,51.8,26.7,55.3z"/>
	<path class="st1" d="M40.2,20.6c-5.4,0.2-10.3,2.5-13.8,6.1c-4.6-0.6-12.2-1.8-18-4c-0.8-0.5-1.3-1.4-1.3-2.3C7,15.8,15.8,7,20.4,7
		C23.3,7,30.3,11.8,40.2,20.6z"/>
	<path class="st1" d="M74.7,20.4c0,2.9-4.8,9.9-13.6,19.8c-0.2-5.4-2.5-10.3-6.1-13.8c0.6-4.6,1.8-12.3,4-18
		c0.5-0.8,1.4-1.3,2.4-1.3C66,7.1,74.7,15.8,74.7,20.4z"/>
	<path class="st1" d="M74.6,61.3c0,4.6-8.7,13.3-13.3,13.3c-2.9,0-9.9-4.8-19.8-13.6c5.4-0.2,10.3-2.5,13.8-6.1
		c4.6,0.7,12.2,1.9,18,4.1C74.1,59.5,74.6,60.4,74.6,61.3z"/>
	<path class="st1" d="M46.7,40.9c0,3.2-2.6,5.8-5.8,5.8s-5.8-2.6-5.8-5.8s2.6-5.8,5.8-5.8C44.1,35,46.7,37.6,46.7,40.9z"/>
</g>
<path class="st2" d="M48.2,33.5c-0.3-0.3-0.8-0.3-1.1,0l-1.7,1.7c-1.2-1-2.8-1.6-4.5-1.6c-4,0-7.2,3.2-7.2,7.2
	c0,1.7,0.6,3.3,1.6,4.5l-1.9,1.9c-0.3,0.3-0.3,0.8,0,1.1c0.1,0.1,0.3,0.2,0.5,0.2s0.4-0.1,0.5-0.2l1.9-1.9c1.2,1,2.8,1.6,4.5,1.6
	l0,0c4,0,7.2-3.2,7.2-7.2c0-1.7-0.6-3.3-1.6-4.5l1.7-1.7C48.5,34.3,48.5,33.8,48.2,33.5z M35,40.9c0-3.2,2.6-5.8,5.8-5.8
	c1.3,0,2.6,0.5,3.6,1.2l-8.2,8.2C35.5,43.4,35,42.2,35,40.9z M46.7,40.9c0,3.2-2.6,5.8-5.8,5.8c-1.3,0-2.6-0.5-3.6-1.2l8.2-8.2
	C46.2,38.3,46.7,39.5,46.7,40.9z"/>
<path class="st3" d="M74.5,58.1h-0.3L74.1,58c-0.1,0-0.1-0.1-0.2-0.1c-5.5-2.1-12.8-3.3-17.5-4c1.7-2.1,3-4.5,3.8-7.1
	c10-10.7,21.5-24.3,21.5-29.8c0-6.2-10.8-16.9-17-16.9C62.2,0,60,2.4,58,7.2v0.3l-0.1,0.1c0,0.1-0.1,0.1-0.1,0.2
	c-2.1,5.5-3.3,12.8-4,17.5c-2-1.7-4.5-3-7.1-3.8C36.1,11.5,22.5,0,17,0C10.8,0,0,10.8,0,17c0,2.5,2.4,4.8,7.2,6.7c0.1,0,0.2,0,0.2,0
	s0,0,0.1,0l0.1,0.1c0,0.1,0.1,0.1,0.2,0.1c5.5,2.1,12.8,3.3,17.5,4c-1.7,2-3,4.5-3.8,7.1C11.5,45.6,0,59.2,0,64.8
	C0,71,10.8,81.7,16.9,81.7c2.6,0,4.8-2.4,6.7-7.2v-0.3l0.1-0.1c0-0.1,0.1-0.1,0.1-0.2c2.1-5.5,3.3-12.8,4-17.5
	c2.1,1.7,4.5,3,7.1,3.8c10.7,10,24.3,21.5,29.8,21.5c6.2,0,16.9-10.8,16.9-16.9C81.7,62.2,79.3,60,74.5,58.1z M73.3,59
	c0.8,0.5,1.3,1.4,1.3,2.3c0,4.6-8.7,13.3-13.3,13.3c-2.9,0-9.9-4.8-19.8-13.6c5.4-0.2,10.3-2.5,13.8-6.1
	C59.9,55.6,67.5,56.8,73.3,59z M64.8,1.3c5.4,0,15.6,10.2,15.6,15.7c0,3.8-7.1,13.7-19.6,27.3c0.1-0.7,0.2-1.4,0.2-2.1
	c9.9-11.1,15-18.4,15-21.8C76,15,66.7,5.8,61.3,5.8c-0.5,0-1,0.1-1.4,0.3C61.1,3.6,62.8,1.3,64.8,1.3z M59,8.4
	c0.5-0.8,1.4-1.3,2.4-1.3c4.6,0,13.3,8.7,13.3,13.3c0,2.9-4.8,9.9-13.6,19.8c-0.2-5.4-2.5-10.3-6.1-13.8C55.6,21.8,56.8,14.1,59,8.4
	z M1.3,16.9C1.3,11.5,11.5,1.3,17,1.3c3.8,0,13.7,7.1,27.3,19.6c-0.7-0.1-1.4-0.2-2.1-0.2c-11-9.9-18.3-14.9-21.8-14.9
	C15,5.8,5.8,15,5.8,20.4c0,0.5,0.1,1,0.3,1.4C3.6,20.6,1.3,19,1.3,16.9z M8.4,22.7c-0.8-0.5-1.3-1.4-1.3-2.3C7,15.8,15.8,7,20.4,7
	c2.9,0,9.9,4.8,19.8,13.6c-5.4,0.2-10.3,2.5-13.8,6.1C21.8,26.1,14.2,24.9,8.4,22.7z M16.9,80.4c-5.4,0-15.7-10.3-15.7-15.7
	c0-3.8,7.1-13.7,19.6-27.3c-0.1,0.7-0.2,1.4-0.2,2.1c-9.9,11-14.9,18.3-14.9,21.8C5.8,66.7,15,76,20.4,76c0.5,0,1-0.1,1.4-0.3
	C20.6,78.1,19,80.4,16.9,80.4z M22.7,73.3c-0.5,0.8-1.4,1.3-2.3,1.3C15.8,74.7,7,66,7,61.3c0-2.9,4.8-9.9,13.6-19.8
	c0.2,5.4,2.5,10.3,6.1,13.8C26.1,59.9,24.9,67.5,22.7,73.3z M21.6,40.9c0-10.6,8.6-19.3,19.3-19.3c10.6,0,19.3,8.6,19.3,19.3
	c0,5.3-2.2,10.1-5.7,13.6s-8.3,5.6-13.6,5.6C30.2,60.1,21.6,51.5,21.6,40.9z M64.8,80.4c-3.8,0-13.7-7.1-27.3-19.6
	c0.7,0.1,1.4,0.2,2.1,0.3C50.6,70.9,57.9,76,61.3,76C66.7,76,76,66.7,76,61.3c0-0.5-0.1-0.9-0.3-1.4c2.4,1.2,4.8,2.8,4.8,4.8
	C80.4,70.2,70.2,80.4,64.8,80.4z"/>
</svg>
