<?xml version="1.0" encoding="utf-8"?>
<!-- Generator: Adobe Illustrator 21.0.0, SVG Export Plug-In . SVG Version: 6.00 Build 0)  -->
<svg version="1.1" id="Group_3993" xmlns="http://www.w3.org/2000/svg" xmlns:xlink="http://www.w3.org/1999/xlink" x="0px" y="0px"
	 viewBox="0 0 9.6 12.2" style="enable-background:new 0 0 9.6 12.2;" xml:space="preserve">
<style type="text/css">
	.st0{fill:#FFFFFF;}
</style>
<g>
	<path class="st0" d="M3.5,9.3l1.2,1.1c-1.5,0-2.8-0.8-3.6-2.1c-1.2-2-0.6-4.7,1.5-5.9c0.1-0.1,0.1-0.2,0.1-0.3C2.6,2,2.4,1.9,2.3,2
		C0.9,2.9,0,4.4,0,6.1c0,2.6,2.1,4.7,4.6,4.8l-1.1,1l0.3,0.3l1.8-1.6L3.8,9L3.5,9.3z"/>
	<path class="st0" d="M5,1.3l1.1-1L5.9,0L4.1,1.6l1.7,1.6L6.1,3L4.9,1.8c1.5,0,2.8,0.8,3.6,2.1c1.2,2,0.6,4.7-1.5,5.9
		C7,9.9,6.9,9.9,6.9,10c0,0.1,0.1,0.2,0.3,0.2c0,0,0.1,0,0.1,0c1.5-0.9,2.4-2.6,2.3-4.4C9.5,3.3,7.4,1.4,5,1.3z"/>
</g>
</svg>
