<!-- Generated by IcoMoon.io -->
<svg version="1.1" xmlns="http://www.w3.org/2000/svg" width="32" height="32" viewBox="0 0 32 32">
<path fill="#c1c0c0" d="M17.351 8.186c-0.274-0.039-0.548-0.078-0.823-0.078-4.308-3.878-7.168-5.836-8.539-5.836-2.115 0-5.718 3.603-5.718 5.718 0 0.196 0.039 0.392 0.118 0.548-0.979-0.47-1.88-1.097-1.88-1.919 0-2.115 3.995-6.11 6.149-6.11 1.488 0 5.366 2.781 10.693 7.677z"></path>
<path fill="#c1c0c0" d="M8.539 29.65c-0.47 0.94-1.097 1.841-1.919 1.841-2.115 0-6.149-4.034-6.149-6.149 0-1.488 2.781-5.366 7.677-10.693-0.039 0.274-0.078 0.548-0.078 0.823-3.878 4.308-5.836 7.168-5.836 8.539 0.039 2.115 3.643 5.758 5.758 5.758 0.196 0 0.392-0.039 0.548-0.117z"></path>
<path fill="#c1c0c0" d="M31.53 25.341c-0.039 2.154-4.034 6.149-6.149 6.149-1.488 0-5.366-2.781-10.693-7.677 0.274 0.039 0.548 0.078 0.823 0.117 4.308 3.838 7.168 5.836 8.499 5.836 2.115 0 5.758-3.643 5.758-5.758 0-0.196-0.039-0.352-0.117-0.548 0.94 0.47 1.88 1.097 1.88 1.88z"></path>
<path fill="#c1c0c0" d="M23.892 16.529c3.878-4.348 5.875-7.207 5.875-8.539 0-2.115-3.643-5.718-5.758-5.718-0.196 0-0.392 0.039-0.548 0.118 0.47-0.979 1.136-1.88 1.919-1.88 2.115 0 6.11 3.995 6.11 6.149 0 1.488-2.781 5.366-7.677 10.693 0.039-0.274 0.078-0.548 0.078-0.823z"></path>
<path fill="#e9e9e9" d="M16.020 8.46c-4.191 0-7.559 3.408-7.559 7.559s3.368 7.52 7.559 7.52c2.076 0 3.956-0.823 5.327-2.193s2.233-3.251 2.233-5.327c0-4.191-3.408-7.559-7.559-7.559zM16.020 18.8c-1.567 0-2.82-1.253-2.82-2.82s1.253-2.82 2.82-2.82c1.528 0 2.82 1.293 2.82 2.82 0 1.567-1.253 2.82-2.82 2.82z"></path>
<path fill="#e9e9e9" d="M10.458 21.66c-0.235 1.802-0.705 4.778-1.567 7.050-0.196 0.313-0.548 0.509-0.901 0.509-1.802 0.039-5.248-3.368-5.248-5.209 0-1.136 1.88-3.878 5.327-7.755 0.078 2.115 0.979 4.034 2.389 5.405z"></path>
<path fill="#e9e9e9" d="M15.745 8.069c-2.115 0.078-4.034 0.979-5.405 2.389-1.802-0.235-4.778-0.705-7.050-1.567-0.313-0.196-0.509-0.548-0.509-0.901-0.039-1.802 3.408-5.248 5.209-5.248 1.136 0 3.878 1.88 7.755 5.327z"></path>
<path fill="#e9e9e9" d="M29.258 7.99c0 1.136-1.88 3.878-5.327 7.755-0.078-2.115-0.979-4.034-2.389-5.405 0.235-1.802 0.705-4.818 1.567-7.050 0.196-0.313 0.548-0.509 0.94-0.509 1.802 0 5.209 3.408 5.209 5.209z"></path>
<path fill="#e9e9e9" d="M29.219 24.010c0 1.802-3.408 5.209-5.209 5.209-1.136 0-3.878-1.88-7.755-5.327 2.115-0.078 4.034-0.979 5.405-2.389 1.802 0.274 4.778 0.744 7.050 1.606 0.313 0.196 0.509 0.548 0.509 0.901z"></path>
<path fill="#e9e9e9" d="M18.291 16.020c0 1.253-1.018 2.272-2.272 2.272s-2.272-1.018-2.272-2.272 1.018-2.272 2.272-2.272c1.253-0.039 2.272 0.979 2.272 2.272z"></path>
<path fill="#c65161" d="M18.879 13.121c-0.117-0.117-0.313-0.117-0.431 0l-0.666 0.666c-0.47-0.392-1.097-0.627-1.763-0.627-1.567 0-2.82 1.253-2.82 2.82 0 0.666 0.235 1.293 0.627 1.763l-0.744 0.744c-0.117 0.117-0.117 0.313 0 0.431 0.039 0.039 0.117 0.078 0.196 0.078s0.157-0.039 0.196-0.078l0.744-0.744c0.47 0.392 1.097 0.627 1.763 0.627v0c1.567 0 2.82-1.253 2.82-2.82 0-0.666-0.235-1.293-0.627-1.763l0.666-0.666c0.157-0.117 0.157-0.313 0.039-0.431zM13.709 16.020c0-1.253 1.018-2.272 2.272-2.272 0.509 0 1.018 0.196 1.41 0.47l-3.212 3.212c-0.274-0.431-0.47-0.901-0.47-1.41zM18.291 16.020c0 1.253-1.018 2.272-2.272 2.272-0.509 0-1.018-0.196-1.41-0.47l3.212-3.212c0.274 0.392 0.47 0.862 0.47 1.41z"></path>
<path fill="#9f9f9f" d="M29.18 22.756h-0.117l-0.039-0.039c-0.039 0-0.039-0.039-0.078-0.039-2.154-0.823-5.013-1.293-6.854-1.567 0.666-0.823 1.175-1.763 1.488-2.781 3.917-4.191 8.421-9.518 8.421-11.672 0-2.428-4.23-6.619-6.659-6.619-0.979-0.039-1.841 0.901-2.624 2.781v0.118l-0.039 0.039c0 0.039-0.039 0.039-0.039 0.078-0.823 2.154-1.293 5.013-1.567 6.854-0.783-0.666-1.763-1.175-2.781-1.488-4.152-3.917-9.479-8.421-11.633-8.421-2.428 0-6.659 4.23-6.659 6.659 0 0.979 0.94 1.88 2.82 2.624 0.039 0 0.078 0 0.078 0s0 0 0.039 0l0.039 0.039c0 0.039 0.039 0.039 0.078 0.039 2.154 0.823 5.013 1.293 6.854 1.567-0.666 0.783-1.175 1.763-1.488 2.781-3.917 4.152-8.421 9.479-8.421 11.672 0 2.428 4.23 6.619 6.619 6.619 1.018 0 1.88-0.94 2.624-2.82v-0.117l0.039-0.039c0-0.039 0.039-0.039 0.039-0.078 0.823-2.154 1.293-5.013 1.567-6.854 0.823 0.666 1.763 1.175 2.781 1.488 4.191 3.917 9.518 8.421 11.672 8.421 2.428 0 6.619-4.23 6.619-6.619 0.039-1.018-0.901-1.88-2.781-2.624zM28.71 23.109c0.313 0.196 0.509 0.548 0.509 0.901 0 1.802-3.408 5.209-5.209 5.209-1.136 0-3.878-1.88-7.755-5.327 2.115-0.078 4.034-0.979 5.405-2.389 1.802 0.274 4.778 0.744 7.050 1.606zM25.381 0.509c2.115 0 6.11 3.995 6.11 6.149 0 1.488-2.781 5.366-7.677 10.693 0.039-0.274 0.078-0.548 0.078-0.823 3.878-4.348 5.875-7.207 5.875-8.539 0-2.115-3.643-5.718-5.758-5.718-0.196 0-0.392 0.039-0.548 0.118 0.47-0.979 1.136-1.88 1.919-1.88zM23.109 3.29c0.196-0.313 0.548-0.509 0.94-0.509 1.802 0 5.209 3.408 5.209 5.209 0 1.136-1.88 3.878-5.327 7.755-0.078-2.115-0.979-4.034-2.389-5.405 0.235-1.802 0.705-4.818 1.567-7.050zM0.509 6.619c0-2.115 3.995-6.11 6.149-6.11 1.488 0 5.366 2.781 10.693 7.677-0.274-0.039-0.548-0.078-0.823-0.078-4.308-3.878-7.168-5.836-8.539-5.836-2.115 0-5.718 3.603-5.718 5.718 0 0.196 0.039 0.392 0.118 0.548-0.979-0.47-1.88-1.097-1.88-1.919zM3.29 8.891c-0.313-0.196-0.509-0.548-0.509-0.901-0.039-1.802 3.408-5.248 5.209-5.248 1.136 0 3.878 1.88 7.755 5.327-2.115 0.078-4.034 0.979-5.405 2.389-1.802-0.235-4.778-0.705-7.050-1.567zM6.619 31.491c-2.115 0-6.149-4.034-6.149-6.149 0-1.488 2.781-5.366 7.677-10.693-0.039 0.274-0.078 0.548-0.078 0.823-3.878 4.308-5.836 7.168-5.836 8.539 0.039 2.115 3.643 5.758 5.758 5.758 0.196 0 0.392-0.039 0.548-0.117-0.47 0.94-1.097 1.841-1.919 1.841zM8.891 28.71c-0.196 0.313-0.548 0.509-0.901 0.509-1.802 0.039-5.248-3.368-5.248-5.209 0-1.136 1.88-3.878 5.327-7.755 0.078 2.115 0.979 4.034 2.389 5.405-0.235 1.802-0.705 4.778-1.567 7.050zM8.46 16.020c0-4.152 3.368-7.559 7.559-7.559 4.152 0 7.559 3.368 7.559 7.559 0 2.076-0.862 3.956-2.233 5.327s-3.251 2.193-5.327 2.193c-4.191 0-7.559-3.368-7.559-7.52zM25.381 31.491c-1.488 0-5.366-2.781-10.693-7.677 0.274 0.039 0.548 0.078 0.823 0.117 4.308 3.838 7.168 5.836 8.499 5.836 2.115 0 5.758-3.643 5.758-5.758 0-0.196-0.039-0.352-0.117-0.548 0.94 0.47 1.88 1.097 1.88 1.88-0.039 2.154-4.034 6.149-6.149 6.149z"></path>
</svg>
