<!-- Generated by IcoMoon.io -->
<svg version="1.1" xmlns="http://www.w3.org/2000/svg" width="32" height="32" viewBox="0 0 32 32">
<path fill="#333" d="M6.883 0h18.234c0.721 0 1.297 0.577 1.297 1.297v29.405c0 0.721-0.577 1.297-1.297 1.297h-18.234c-0.721 0-1.297-0.577-1.297-1.297v-29.405c0-0.721 0.577-1.297 1.297-1.297z"></path>
<path fill="#85c455" d="M21.658 28.757h-11.315c-0.721 0-1.297-0.577-1.297-1.297v-22.919c0-0.721 0.577-1.297 1.297-1.297h11.315c0.721 0 1.297 0.577 1.297 1.297v22.919c0 0.721-0.577 1.297-1.297 1.297zM10.342 4.252c-0.144 0-0.216 0.144-0.216 0.216v22.919c0 0.144 0.144 0.216 0.216 0.216h11.315c0.144 0 0.216-0.144 0.216-0.216v-22.847c0-0.144-0.144-0.216-0.216-0.216l-11.315-0.072z"></path>
</svg>
