<!-- Generated by IcoMoon.io -->
<svg version="1.1" xmlns="http://www.w3.org/2000/svg" width="32" height="32" viewBox="0 0 32 32">
<path fill="#9f9f9f" d="M25.437 0h-18.88c-3.2 0-5.76 2.72-5.76 6.080v15.36c0 3.2 2.56 5.92 5.76 6.080h7.52l-2.4 2.4c-0.16 0.16-0.32 0.48-0.32 0.8 0 0.64 0.48 1.28 1.12 1.28 0.32 0 0.64-0.16 0.8-0.32l4.32-4.32c0 0 0 0 0 0 0.48-0.48 0.48-1.28 0-1.76l-4.32-4.32c0 0 0 0 0 0-0.48-0.48-1.28-0.48-1.76 0.16-0.48 0.48-0.48 1.28 0.16 1.76l2.4 2.4h-7.52c-1.92 0-3.52-1.6-3.36-3.68v-15.84c0-1.92 1.44-3.52 3.36-3.68h18.88c1.92 0 3.52 1.6 3.36 3.68v15.36c0 1.92-1.44 3.52-3.36 3.68-0.64 0-1.28 0.48-1.28 1.28 0 0.64 0.48 1.28 1.28 1.28 3.2 0 5.92-2.72 5.76-6.080v-15.52c0-3.36-2.56-6.080-5.76-6.080z"></path>
</svg>
