<?xml version="1.0" encoding="utf-8"?>
<!-- Generator: Adobe Illustrator 21.0.0, SVG Export Plug-In . SVG Version: 6.00 Build 0)  -->
<svg version="1.1" id="Layer_1" xmlns="http://www.w3.org/2000/svg" xmlns:xlink="http://www.w3.org/1999/xlink" x="0px" y="0px"
	 viewBox="0 0 17.4 18.4" style="enable-background:new 0 0 17.4 18.4;" xml:space="preserve">
<style type="text/css">
	.st0{fill:#959DB8;}
</style>
<path class="st0" d="M14.9,2.6C13.2,0.9,11,0,8.7,0c0,0,0,0,0,0C6.4,0,4.2,0.9,2.6,2.6C0.9,4.2,0,6.4,0,8.7c0,0.4,0.3,0.8,0.8,0.8
	s0.8-0.3,0.8-0.8c0-1.9,0.8-3.7,2.1-5.1C5,2.3,6.8,1.5,8.7,1.5c0,0,0,0,0,0c1.9,0,3.7,0.8,5.1,2.1s2.1,3.2,2.1,5.1
	c0,4-3.2,7.2-7.2,7.2c-1.7,0-3.3-0.6-4.5-1.6l2.4-1.1c0.4-0.2,0.5-0.6,0.4-1s-0.6-0.5-1-0.4l-3.2,1.4c-0.3,0.1-0.4,0.4-0.4,0.6
	L2,17.5c0,0.4,0.3,0.8,0.7,0.8c0,0,0,0,0.1,0c0.4,0,0.7-0.3,0.7-0.7l0.1-1.9c1.5,1.1,3.2,1.6,5.1,1.6c4.8,0,8.7-3.9,8.7-8.7
	C17.4,6.4,16.5,4.2,14.9,2.6z"/>
</svg>
