<?xml version="1.0" encoding="utf-8"?>
<!-- Generator: Adobe Illustrator 21.0.0, SVG Export Plug-In . SVG Version: 6.00 Build 0)  -->
<svg version="1.1" id="Layer_1" xmlns="http://www.w3.org/2000/svg" xmlns:xlink="http://www.w3.org/1999/xlink" x="0px" y="0px"
	 viewBox="0 0 7.5 7.5" style="enable-background:new 0 0 7.5 7.5;" xml:space="preserve">
<style type="text/css">
	.st0{fill:#ABB6D6;}
</style>
<path class="st0" d="M4.8,3.8l2.5-2.5c0.3-0.3,0.3-0.8,0-1.1s-0.8-0.3-1.1,0L3.8,2.7L1.3,0.2C1-0.1,0.5-0.1,0.2,0.2s-0.3,0.8,0,1.1
	l2.5,2.5L0.2,6.3c-0.3,0.3-0.3,0.8,0,1.1c0.1,0.1,0.3,0.2,0.5,0.2s0.4-0.1,0.5-0.2l2.5-2.5l2.5,2.5c0.1,0.1,0.3,0.2,0.5,0.2
	s0.4-0.1,0.5-0.2c0.3-0.3,0.3-0.8,0-1.1L4.8,3.8z"/>
</svg>
