<?xml version="1.0" encoding="utf-8"?>
<!-- Generator: Adobe Illustrator 27.0.0, SVG Export Plug-In . SVG Version: 6.00 Build 0)  -->
<svg version="1.1" id="Layer_1" xmlns="http://www.w3.org/2000/svg" xmlns:xlink="http://www.w3.org/1999/xlink" x="0px" y="0px"
	 viewBox="0 0 21.5 17.4" style="enable-background:new 0 0 21.5 17.4;" xml:space="preserve">
<style type="text/css">
	.st0{fill:#9F9F9F;}
</style>
<g>
	<path class="st0" d="M10.9,0.1L5.5,3.7H0.7C0.3,3.7,0,4.1,0,4.5V13c0,0.4,0.3,0.8,0.8,0.8h4.8l5.3,3.6c0.1,0.1,0.3,0.1,0.4,0.1
		c0.4,0,0.8-0.3,0.8-0.8V0.7c0-0.1,0-0.3-0.1-0.4C11.7,0,11.2-0.1,10.9,0.1z M10.5,15.3l-4.4-2.9c-0.1-0.1-0.3-0.1-0.4-0.1H1.5v-7
		h4.3c0.1,0,0.3,0,0.4-0.1l4.4-2.9V15.3z"/>
	<path class="st0" d="M18.9,8.7l2.4-2.4c0,0,0,0,0,0c0.3-0.3,0.3-0.8,0-1.1c0,0,0,0,0,0C21,5,20.5,5,20.2,5.3l-2.4,2.4l-2.4-2.4
		c-0.3-0.3-0.8-0.3-1.1,0c-0.3,0.3-0.3,0.8,0,1.1l2.4,2.4l-2.4,2.4c0,0,0,0,0,0c-0.3,0.3-0.3,0.8,0,1.1c0.1,0.1,0.3,0.2,0.5,0.2
		c0.2,0,0.4-0.1,0.5-0.2l2.4-2.4l2.4,2.4c0.1,0.1,0.3,0.2,0.5,0.2c0.2,0,0.4-0.1,0.5-0.2c0.3-0.3,0.3-0.8,0-1.1L18.9,8.7z"/>
</g>
</svg>
