<!-- Generated by IcoMoon.io -->
<svg version="1.1" xmlns="http://www.w3.org/2000/svg" width="32" height="32" viewBox="0 0 32 32">
<path fill="#abb6d6" d="M16 0c-8.744 0-16 7.256-16 16 0 8.93 7.256 16 16 16s16-7.256 16-16c0-8.744-7.070-16-16-16zM16 30.14c-7.814 0-14.14-6.326-14.14-14.14s6.326-14.14 14.14-14.14 14.14 6.326 14.14 14.14c0 7.814-6.326 14.14-14.14 14.14z"></path>
<path fill="#abb6d6" d="M17.302 23.442c0 0.719-0.583 1.302-1.302 1.302s-1.302-0.583-1.302-1.302c0-0.719 0.583-1.302 1.302-1.302s1.302 0.583 1.302 1.302z"></path>
<path fill="#abb6d6" d="M16 20.279c0.558 0 0.93-0.372 0.93-0.93v-11.721c0-0.558-0.372-0.93-0.93-0.93s-0.93 0.372-0.93 0.93v11.721c0 0.558 0.372 0.93 0.93 0.93z"></path>
</svg>
