<?xml version="1.0" encoding="utf-8"?>
<!-- Generator: Adobe Illustrator 21.0.0, SVG Export Plug-In . SVG Version: 6.00 Build 0)  -->
<svg version="1.1" id="Group_1103" xmlns="http://www.w3.org/2000/svg" xmlns:xlink="http://www.w3.org/1999/xlink" x="0px" y="0px"
	 viewBox="0 0 23.1 34" style="enable-background:new 0 0 23.1 34;" xml:space="preserve">
<style type="text/css">
	.st0{fill:#333333;}
	.st1{fill:#85C455;}
</style>
<path id="Rectangle_609" class="st0" d="M1.8,0h19.5c1,0,1.8,0.8,1.8,1.8v30.5c0,1-0.8,1.8-1.8,1.8H1.8c-1,0-1.8-0.8-1.8-1.8V1.8
	C0,0.8,0.8,0,1.8,0z"/>
<g id="Rectangle_610">
	<path class="st1" d="M17.6,30.8H5.5c-1,0-1.8-0.8-1.8-1.8V5.1c0-1,0.8-1.8,1.8-1.8h12.1c1,0,1.8,0.8,1.8,1.8V29
		C19.4,30,18.6,30.8,17.6,30.8z M5.5,4.7C5.3,4.7,5.2,4.9,5.2,5v23.9c0,0.2,0.2,0.3,0.3,0.3h12.1c0.2,0,0.3-0.2,0.3-0.3V5.1
		c0-0.2-0.2-0.3-0.3-0.3L5.5,4.7L5.5,4.7z"/>
</g>
</svg>
