<!-- Generated by IcoMoon.io -->
<svg version="1.1" xmlns="http://www.w3.org/2000/svg" width="32" height="32" viewBox="0 0 32 32">
<path fill="#333" d="M11.030 0h9.941c0.351 0 0.632 0.281 0.632 0.632v30.735c0 0.351-0.281 0.632-0.632 0.632h-9.941c-0.351 0-0.632-0.281-0.632-0.632v-30.735c0-0.351 0.281-0.632 0.632-0.632z"></path>
<path fill="#85c455" d="M19.074 29.963h-6.147c-0.351 0-0.632-0.281-0.632-0.632v-26.661c0-0.351 0.281-0.632 0.632-0.632h6.147c0.351 0 0.632 0.281 0.632 0.632v26.626c0 0.386-0.281 0.667-0.632 0.667zM12.926 2.564c-0.070 0-0.14 0.070-0.14 0.105v26.626c0 0.070 0.070 0.105 0.105 0.105h6.147c0.070 0 0.105-0.070 0.105-0.105v-26.626c0-0.070-0.070-0.105-0.105-0.105 0 0-6.112 0-6.112 0z"></path>
</svg>
