<?xml version="1.0" encoding="utf-8"?>
<!-- Generator: Adobe Illustrator 21.0.0, SVG Export Plug-In . SVG Version: 6.00 Build 0)  -->
<svg version="1.1" id="Layer_1" xmlns="http://www.w3.org/2000/svg" xmlns:xlink="http://www.w3.org/1999/xlink" x="0px" y="0px"
	 viewBox="0 0 17.6 17.6" style="enable-background:new 0 0 17.6 17.6;" xml:space="preserve">
<style type="text/css">
	.st0{fill:#ABB6D6;}
</style>
<path class="st0" d="M16.2,9.8c2-2.2,1.8-5.6-0.3-7.6c-0.1-0.1-0.1-0.1-0.2-0.2c-0.2-0.2-0.5-0.2-0.7,0l-3.7,3.7
	c0.2-1.5-0.3-3.1-1.4-4.2c0,0,0,0,0,0c-2.2-2-5.6-1.8-7.6,0.3C2.1,1.8,2,1.9,1.9,2C1.8,2.2,1.8,2.5,2,2.7l3.7,3.7
	C4.2,6.2,2.6,6.7,1.4,7.8c-2,2.2-1.8,5.6,0.4,7.7c0.1,0.1,0.1,0.1,0.2,0.2c0.1,0.1,0.2,0.1,0.3,0.1c0.1,0,0.3,0,0.4-0.1l3.7-3.7
	c-0.2,1.5,0.3,3.1,1.4,4.3c1,0.9,2.3,1.4,3.6,1.4c1.5,0,2.9-0.6,4-1.7c0.1-0.1,0.1-0.1,0.2-0.2c0.2-0.2,0.2-0.5,0-0.7l-3.7-3.7
	c0.2,0,0.4,0,0.6,0C13.8,11.2,15.1,10.7,16.2,9.8z M15.3,3c1.7,1.7,1.7,4.4,0.2,6.1c-1.3,1.2-3.1,1.5-4.7,0.8c0,0,0-0.1,0-0.1
	c0.1-0.1,0.1-0.2,0.1-0.3c0-0.1,0-0.1,0-0.2c0-0.2,0-0.3,0-0.5c0,0,0-0.1,0-0.1c0-0.1,0-0.3-0.1-0.4c0,0,0-0.1,0-0.1
	c-0.1-0.2-0.1-0.3-0.2-0.5c0,0,0,0,0,0L15.3,3z M9.1,10c-0.1,0-0.2,0.1-0.3,0.1c-0.1,0-0.1,0-0.2,0c-0.1,0-0.2,0-0.3-0.1
	c-0.1,0-0.1-0.1-0.2-0.1C8.1,9.8,8,9.8,7.9,9.7c0,0,0,0-0.1-0.1C7.8,9.6,7.7,9.5,7.7,9.4c0-0.1-0.1-0.1-0.1-0.2c0-0.1,0-0.2-0.1-0.3
	c0-0.1,0-0.1,0-0.2c0-0.1,0-0.2,0-0.2c0-0.1,0-0.2,0.1-0.2c0-0.1,0.1-0.2,0.2-0.2c0-0.1,0.1-0.1,0.1-0.2l0,0c0.5-0.5,1.3-0.5,1.8,0
	l0,0c0,0,0,0,0,0C9.7,8,9.8,8.1,9.8,8.2c0.3,0.5,0.2,1.1-0.2,1.5h0C9.5,9.8,9.4,9.9,9.3,10C9.2,10,9.2,10,9.1,10z M9.1,2.1
	c1.2,1.3,1.5,3.1,0.8,4.7c0,0-0.1,0-0.1,0C9.6,6.7,9.5,6.7,9.4,6.6c0,0-0.1,0-0.1,0c-0.2,0-0.3-0.1-0.5-0.1c-0.1,0-0.1,0-0.2,0
	c-0.1,0-0.2,0-0.3,0.1c-0.1,0-0.2,0-0.2,0.1c-0.1,0-0.2,0.1-0.3,0.1c0,0-0.1,0-0.2,0.1L3,2.3C4.7,0.6,7.3,0.6,9.1,2.1z M2.3,14.6
	c-1.7-1.7-1.7-4.4-0.2-6.1C2.9,7.7,4,7.3,5,7.3c0.6,0,1.2,0.1,1.7,0.4c0,0,0,0.1,0,0.1C6.7,7.9,6.6,8,6.6,8.2c0,0,0,0.1,0,0.1
	c0,0.2-0.1,0.4-0.1,0.5c0,0,0,0.1,0,0.1c0,0.2,0,0.3,0.1,0.5c0,0,0,0.1,0,0.1C6.7,9.7,6.7,9.8,6.8,10c0,0,0,0,0,0.1L2.3,14.6z
	 M8.5,15.4c-1.2-1.3-1.5-3.1-0.8-4.6c0,0,0.1,0,0.1,0C7.9,10.9,8,10.9,8.2,11c0,0,0.1,0,0.1,0c0.2,0,0.3,0.1,0.5,0.1c0,0,0,0,0.1,0
	c0.1,0,0.1,0,0.2,0c0.1,0,0.3,0,0.4-0.1c0.1,0,0.1,0,0.2-0.1c0.1,0,0.3-0.1,0.4-0.2c0,0,0.1,0,0.1,0l4.6,4.6
	C12.9,16.9,10.2,17,8.5,15.4z"/>
</svg>
