<!-- Generated by IcoMoon.io -->
<svg version="1.1" xmlns="http://www.w3.org/2000/svg" width="32" height="32" viewBox="0 0 32 32">
<path fill="#abb6d6" d="M29.45 17.631c3.638-4.002 3.274-10.186-0.546-13.823-0.182-0.182-0.182-0.182-0.364-0.364-0.364-0.364-0.909-0.364-1.273 0l-6.73 6.73c0.364-2.728-0.546-5.639-2.546-7.639 0 0 0 0 0 0-4.002-3.638-10.186-3.274-13.823 0.546-0.364 0-0.546 0.182-0.728 0.364-0.182 0.364-0.182 0.909 0.182 1.273l6.73 6.73c-2.728-0.364-5.639 0.546-7.821 2.546-3.638 4.002-3.274 10.186 0.728 14.005 0.182 0.182 0.182 0.182 0.364 0.364s0.364 0.182 0.546 0.182c0.182 0 0.546 0 0.728-0.182l6.73-6.73c-0.364 2.728 0.546 5.639 2.546 7.821 1.819 1.637 4.183 2.546 6.548 2.546 2.728 0 5.275-1.091 7.276-3.092 0.182-0.182 0.182-0.182 0.364-0.364 0.364-0.364 0.364-0.909 0-1.273l-6.73-6.73c0.364 0 0.728 0 1.091 0 2.365-0.364 4.729-1.273 6.73-2.91zM27.814 5.262c3.092 3.092 3.092 8.003 0.364 11.095-2.365 2.183-5.639 2.728-8.549 1.455 0 0 0-0.182 0-0.182 0.182-0.182 0.182-0.364 0.182-0.546s0-0.182 0-0.364c0-0.364 0-0.546 0-0.909 0 0 0-0.182 0-0.182 0-0.182 0-0.546-0.182-0.728 0 0 0-0.182 0-0.182-0.182-0.364-0.182-0.546-0.364-0.909 0 0 0 0 0 0l8.549-8.549zM16.536 17.995c-0.182 0-0.364 0.182-0.546 0.182s-0.182 0-0.364 0-0.364 0-0.546-0.182c-0.182 0-0.182-0.182-0.364-0.182 0-0.182-0.182-0.182-0.364-0.364 0 0 0 0-0.182-0.182 0 0-0.182-0.182-0.182-0.364s-0.182-0.182-0.182-0.364c0-0.182 0-0.364-0.182-0.546 0-0.182 0-0.182 0-0.364s0-0.364 0-0.364 0-0.364 0.182-0.364c0-0.182 0.182-0.364 0.364-0.364 0-0.182 0.182-0.182 0.182-0.364v0c0.909-0.909 2.365-0.909 3.274 0v0c0 0 0 0 0 0 0 0.182 0.182 0.364 0.182 0.546 0.546 0.909 0.364 2.001-0.364 2.728v0c-0.182 0.182-0.364 0.364-0.546 0.546-0.182 0-0.182 0-0.364 0zM16.536 3.625c2.183 2.365 2.728 5.639 1.455 8.549 0 0-0.182 0-0.182 0-0.364-0.182-0.546-0.182-0.728-0.364 0 0-0.182 0-0.182 0-0.364 0-0.546-0.182-0.909-0.182-0.182 0-0.182 0-0.364 0s-0.364 0-0.546 0.182c-0.182 0-0.364 0-0.364 0.182-0.182 0-0.364 0.182-0.546 0.182 0 0-0.182 0-0.364 0.182l-8.367-8.367c3.092-3.092 7.821-3.092 11.095-0.364zM4.168 26.361c-3.092-3.092-3.092-8.003-0.364-11.095 1.455-1.455 3.456-2.183 5.275-2.183 1.091 0 2.183 0.182 3.092 0.728 0 0 0 0.182 0 0.182 0 0.182-0.182 0.364-0.182 0.728 0 0 0 0.182 0 0.182 0 0.364-0.182 0.728-0.182 0.909 0 0 0 0.182 0 0.182 0 0.364 0 0.546 0.182 0.909 0 0 0 0.182 0 0.182 0.182 0.364 0.182 0.546 0.364 0.909 0 0 0 0 0 0.182l-8.185 8.185zM15.445 27.817c-2.183-2.365-2.728-5.639-1.455-8.367 0 0 0.182 0 0.182 0 0.182 0.182 0.364 0.182 0.728 0.364 0 0 0.182 0 0.182 0 0.364 0 0.546 0.182 0.909 0.182 0 0 0 0 0.182 0s0.182 0 0.364 0 0.546 0 0.728-0.182c0.182 0 0.182 0 0.364-0.182 0.182 0 0.546-0.182 0.728-0.364 0 0 0.182 0 0.182 0l8.367 8.367c-3.456 2.91-8.367 3.092-11.459 0.182z"></path>
</svg>
