<?xml version="1.0" encoding="utf-8"?>
<!-- Generator: Adobe Illustrator 21.0.0, SVG Export Plug-In . SVG Version: 6.00 Build 0)  -->
<svg version="1.1" id="Layer_1" xmlns="http://www.w3.org/2000/svg" xmlns:xlink="http://www.w3.org/1999/xlink" x="0px" y="0px"
	 viewBox="0 0 17.2 17.2" style="enable-background:new 0 0 17.2 17.2;" xml:space="preserve">
<style type="text/css">
	.st0{fill:#ABB6D6;}
</style>
<g>
	<path class="st0" d="M8.6,0C3.9,0,0,3.9,0,8.6c0,4.8,3.9,8.6,8.6,8.6s8.6-3.9,8.6-8.6C17.2,3.9,13.4,0,8.6,0z M8.6,16.2
		C4.4,16.2,1,12.8,1,8.6C1,4.4,4.4,1,8.6,1s7.6,3.4,7.6,7.6C16.2,12.8,12.8,16.2,8.6,16.2z"/>
	<circle class="st0" cx="8.6" cy="12.6" r="0.7"/>
	<path class="st0" d="M8.6,10.9c0.3,0,0.5-0.2,0.5-0.5V4.1c0-0.3-0.2-0.5-0.5-0.5S8.1,3.8,8.1,4.1v6.3C8.1,10.7,8.3,10.9,8.6,10.9z"
		/>
</g>
</svg>
