<!-- Generated by IcoMoon.io -->
<svg version="1.1" xmlns="http://www.w3.org/2000/svg" width="32" height="32" viewBox="0 0 32 32">
<path fill="#9f9f9f" d="M16.204 3.143l-8.028 5.352h-7.136c-0.595 0-1.041 0.595-1.041 1.189v12.636c0 0.595 0.446 1.189 1.189 1.189h7.136l7.879 5.352c0.149 0.149 0.446 0.149 0.595 0.149 0.595 0 1.189-0.446 1.189-1.189v-23.786c0-0.149 0-0.446-0.149-0.595-0.446-0.446-1.189-0.595-1.635-0.297zM15.61 25.74l-6.541-4.311c-0.149-0.149-0.446-0.149-0.595-0.149h-6.244v-10.406h6.393c0.149 0 0.446 0 0.595-0.149l6.541-4.311v19.326z"></path>
<path fill="#9f9f9f" d="M28.098 15.929l3.568-3.568c0 0 0 0 0 0 0.446-0.446 0.446-1.189 0-1.635 0 0 0 0 0 0-0.446-0.297-1.189-0.297-1.635 0.149l-3.568 3.568-3.568-3.568c-0.446-0.446-1.189-0.446-1.635 0s-0.446 1.189 0 1.635l3.568 3.568-3.568 3.568c0 0 0 0 0 0-0.446 0.446-0.446 1.189 0 1.635 0.149 0.149 0.446 0.297 0.743 0.297s0.595-0.149 0.743-0.297l3.568-3.568 3.568 3.568c0.149 0.149 0.446 0.297 0.743 0.297s0.595-0.149 0.743-0.297c0.446-0.446 0.446-1.189 0-1.635l-3.271-3.717z"></path>
</svg>
