<!-- Generated by IcoMoon.io -->
<svg version="1.1" xmlns="http://www.w3.org/2000/svg" width="32" height="32" viewBox="0 0 32 32">
<path fill="#333" d="M6.85 0h18.299c0.938 0 1.689 0.751 1.689 1.689v28.622c0 0.938-0.751 1.689-1.689 1.689h-18.299c-0.938 0-1.689-0.751-1.689-1.689v-28.622c0-0.938 0.751-1.689 1.689-1.689z"></path>
<path fill="#85c455" d="M21.677 28.903h-11.355c-0.938 0-1.689-0.751-1.689-1.689v-22.428c0-0.938 0.751-1.689 1.689-1.689h11.355c0.938 0 1.689 0.751 1.689 1.689v22.428c0 0.938-0.751 1.689-1.689 1.689zM10.323 4.411c-0.188 0-0.282 0.188-0.282 0.282v22.428c0 0.188 0.188 0.282 0.282 0.282h11.355c0.188 0 0.282-0.188 0.282-0.282v-22.334c0-0.188-0.188-0.282-0.282-0.282l-11.355-0.094z"></path>
</svg>
