<!-- Generated by IcoMoon.io -->
<svg version="1.1" xmlns="http://www.w3.org/2000/svg" width="32" height="32" viewBox="0 0 32 32">
<path fill="#85c455" d="M14.545 0h2.909c0.402 0 0.727 0.326 0.727 0.727v30.545c0 0.402-0.326 0.727-0.727 0.727h-2.909c-0.402 0-0.727-0.326-0.727-0.727v-30.545c0-0.402 0.326-0.727 0.727-0.727z"></path>
<path fill="#333" d="M14.909 0.727h2.182c0.201 0 0.364 0.163 0.364 0.364v29.818c0 0.201-0.163 0.364-0.364 0.364h-2.182c-0.201 0-0.364-0.163-0.364-0.364v-29.818c0-0.201 0.163-0.364 0.364-0.364z"></path>
</svg>
