<!-- Generated by IcoMoon.io -->
<svg version="1.1" xmlns="http://www.w3.org/2000/svg" width="32" height="32" viewBox="0 0 32 32">
<path fill="#58cc87" d="M16.032 32c-8.844-0.018-16.007-7.192-16.007-16.038 0-6.051 3.351-11.319 8.298-14.050l0.083-0.042c0.202-0.112 0.443-0.177 0.699-0.177 0.81 0 1.467 0.657 1.467 1.467 0 0.554-0.307 1.036-0.76 1.286l-0.008 0.004c-4.126 2.261-6.877 6.574-6.877 11.53 0 7.237 5.867 13.104 13.104 13.104s13.104-5.867 13.104-13.104c0-4.956-2.751-9.269-6.809-11.496l-0.068-0.034c-0.471-0.25-0.787-0.738-0.787-1.3 0-0.81 0.657-1.467 1.467-1.467 0.263 0 0.51 0.069 0.724 0.191l-0.007-0.004c5.030 2.773 8.381 8.041 8.381 14.092 0 8.847-7.164 16.021-16.007 16.038h-0.002z"></path>
<path fill="#58cc87" d="M16.032 18.313c-0.81 0-1.467-0.657-1.467-1.467v0-15.379c0-0.81 0.657-1.467 1.467-1.467v0c0.81 0 1.467 0.657 1.467 1.467v0 15.379c0 0.81-0.657 1.467-1.467 1.467v0z"></path>
</svg>
