<?xml version="1.0" encoding="utf-8"?>
<!-- Generator: Adobe Illustrator 27.0.0, SVG Export Plug-In . SVG Version: 6.00 Build 0)  -->
<svg version="1.1" id="Layer_1" xmlns="http://www.w3.org/2000/svg" xmlns:xlink="http://www.w3.org/1999/xlink" x="0px" y="0px"
	 viewBox="0 0 24 24" style="enable-background:new 0 0 24 24;" xml:space="preserve">
<style type="text/css">
	.st0{fill:none;}
	.st1{fill:#575757;}
</style>
<g>
	<g>
		<path class="st0" d="M0,0h24v24H0V0z"/>
	</g>
	<g>
		<path class="st1" d="M23,24H1c-0.6,0-1-0.4-1-1V1c0-0.6,0.4-1,1-1h22c0.6,0,1,0.4,1,1v22C24,23.6,23.6,24,23,24z M2,22h20V2H2V22z
			"/>
	</g>
</g>
<g>
	<path class="st1" d="M16.2,17.2c-0.3,0-0.5-0.1-0.7-0.3c-0.4-0.4-0.4-1,0-1.4l3.5-3.5l-3.5-3.5c-0.4-0.4-0.4-1,0-1.4s1-0.4,1.4,0
		l4.2,4.2c0.4,0.4,0.4,1,0,1.4L17,16.9C16.8,17.1,16.5,17.2,16.2,17.2z"/>
</g>
<g>
	<path class="st1" d="M7.8,17.2c-0.3,0-0.5-0.1-0.7-0.3l-4.2-4.2c-0.4-0.4-0.4-1,0-1.4L7,7.1c0.4-0.4,1-0.4,1.4,0s0.4,1,0,1.4
		L4.9,12l3.5,3.5c0.4,0.4,0.4,1,0,1.4C8.3,17.1,8,17.2,7.8,17.2z"/>
</g>
</svg>
