<!-- Generated by IcoMoon.io -->
<svg version="1.1" xmlns="http://www.w3.org/2000/svg" width="32" height="32" viewBox="0 0 32 32">
<path fill="#575757" d="M30.667 32h-29.333c-0.8 0-1.333-0.533-1.333-1.333v-29.333c0-0.8 0.533-1.333 1.333-1.333h29.333c0.8 0 1.333 0.533 1.333 1.333v29.333c0 0.8-0.533 1.333-1.333 1.333zM2.667 29.333h26.667v-26.667h-26.667v26.667z"></path>
<path fill="#575757" d="M21.6 22.933c-0.4 0-0.667-0.133-0.933-0.4-0.533-0.533-0.533-1.333 0-1.867l4.667-4.667-4.667-4.667c-0.533-0.533-0.533-1.333 0-1.867s1.333-0.533 1.867 0l5.6 5.6c0.533 0.533 0.533 1.333 0 1.867l-5.467 5.6c-0.267 0.267-0.667 0.4-1.067 0.4z"></path>
<path fill="#575757" d="M10.4 22.933c-0.4 0-0.667-0.133-0.933-0.4l-5.6-5.6c-0.533-0.533-0.533-1.333 0-1.867l5.467-5.6c0.533-0.533 1.333-0.533 1.867 0s0.533 1.333 0 1.867l-4.667 4.667 4.667 4.667c0.533 0.533 0.533 1.333 0 1.867-0.133 0.267-0.533 0.4-0.8 0.4z"></path>
</svg>
