<!-- Generated by IcoMoon.io -->
<svg version="1.1" xmlns="http://www.w3.org/2000/svg" width="32" height="32" viewBox="0 0 32 32">
<path fill="#48e580" d="M29.571 3.183h-5.194v-2.346c0-0.503-0.335-0.838-0.838-0.838s-0.838 0.335-0.838 0.838v2.346h-13.403v-2.346c0-0.503-0.335-0.838-0.838-0.838s-0.838 0.335-0.838 0.838v2.346h-5.194c-0.503 0-0.838 0.335-0.838 0.838v27.141c0 0.503 0.335 0.838 0.838 0.838h27.141c0.503 0 0.838-0.335 0.838-0.838v-27.141c0-0.503-0.335-0.838-0.838-0.838zM3.267 4.859h4.356v2.346c0 0.503 0.335 0.838 0.838 0.838s0.838-0.335 0.838-0.838v-2.346h13.403v2.178c0 0.503 0.335 0.838 0.838 0.838s0.838-0.335 0.838-0.838v-2.178h4.356v4.356h-25.466v-4.356zM3.267 30.325v-19.435h25.466v19.435h-25.466z"></path>
<path fill="#48e580" d="M8.461 13.906c-0.503 0-0.838 0.335-0.838 0.838v3.016c0 0.503 0.335 0.838 0.838 0.838s0.838-0.335 0.838-0.838v-3.016c0-0.503-0.335-0.838-0.838-0.838z"></path>
<path fill="#48e580" d="M23.539 13.906c-0.503 0-0.838 0.335-0.838 0.838v3.016c0 0.503 0.335 0.838 0.838 0.838s0.838-0.335 0.838-0.838v-3.016c0-0.503-0.335-0.838-0.838-0.838z"></path>
<path fill="#48e580" d="M16 13.906c-0.503 0-0.838 0.335-0.838 0.838v3.016c0 0.503 0.335 0.838 0.838 0.838s0.838-0.335 0.838-0.838v-3.016c0-0.503-0.335-0.838-0.838-0.838z"></path>
<path fill="#48e580" d="M8.461 22.953c-0.503 0-0.838 0.335-0.838 0.838v3.016c0 0.503 0.335 0.838 0.838 0.838s0.838-0.335 0.838-0.838v-3.016c0-0.503-0.335-0.838-0.838-0.838z"></path>
<path fill="#48e580" d="M23.539 22.953c-0.503 0-0.838 0.335-0.838 0.838v3.016c0 0.503 0.335 0.838 0.838 0.838s0.838-0.335 0.838-0.838v-3.016c0-0.503-0.335-0.838-0.838-0.838z"></path>
<path fill="#48e580" d="M16 22.953c-0.503 0-0.838 0.335-0.838 0.838v3.016c0 0.503 0.335 0.838 0.838 0.838s0.838-0.335 0.838-0.838v-3.016c0-0.503-0.335-0.838-0.838-0.838z"></path>
</svg>
