<!-- Generated by IcoMoon.io -->
<svg version="1.1" xmlns="http://www.w3.org/2000/svg" width="32" height="32" viewBox="0 0 32 32">
<path fill="#48e580" d="M16 2c-7.732 0-14 6.268-14 14s6.268 14 14 14c7.732 0 14-6.268 14-14v0c-0.009-7.728-6.272-13.991-13.999-14h-0.001zM16 0c8.837 0 16 7.163 16 16s-7.163 16-16 16c-8.837 0-16-7.163-16-16v0c0-8.837 7.163-16 16-16v0z"></path>
<path fill="#48e580" d="M20.6 23.736c0 0 0 0 0 0-0.297 0-0.564-0.129-0.747-0.335l-0.001-0.001-4.852-5.452v-11.326c0-0.552 0.448-1 1-1s1 0.448 1 1v0 10.564l4.346 4.884c0.157 0.176 0.252 0.409 0.252 0.664 0 0.552-0.447 0.999-0.998 1v0z"></path>
</svg>
