<?xml version="1.0" encoding="utf-8"?>
<!-- Generator: Adobe Illustrator 21.0.0, SVG Export Plug-In . SVG Version: 6.00 Build 0)  -->
<svg version="1.1" id="Layer_1" xmlns="http://www.w3.org/2000/svg" xmlns:xlink="http://www.w3.org/1999/xlink" x="0px" y="0px"
	 viewBox="0 0 17.1 17.9" style="enable-background:new 0 0 17.1 17.9;" xml:space="preserve">
<style type="text/css">
	.st0{fill:#C2C9DB;}
</style>
<g>
	<path class="st0" d="M16.3,13.2h-5.8l6.3-6.3c0,0,0,0,0,0c0.3-0.3,0.3-0.8,0-1.1l-5.6-5.6c0,0,0,0,0,0c-0.3-0.3-0.8-0.3-1.1,0l-6,6
		c0,0,0,0,0,0s0,0,0,0L2.7,7.7c0,0,0,0,0,0c-1.2,1.2-1.2,3.2,0,4.4l2.4,2.4c0.1,0.1,0.3,0.2,0.5,0.2h10.7v0c0.4,0,0.8-0.3,0.8-0.8
		C17.1,13.5,16.7,13.2,16.3,13.2z M10.7,1.8l4.6,4.6l-4.9,4.9L5.8,6.7L10.7,1.8z M5.9,13.2l-2.1-2.1c0,0,0,0,0,0
		c-0.6-0.6-0.6-1.7,0-2.3l1-1l4.6,4.6l-0.8,0.8H5.9z"/>
	<path class="st0" d="M4.2,15.6c-0.3-0.3-0.8-0.3-1.1,0l-1,1c-0.3,0.3-0.3,0.8,0,1.1c0.1,0.1,0.3,0.2,0.5,0.2c0.2,0,0.4-0.1,0.5-0.2
		l1-1c0,0,0,0,0,0C4.5,16.4,4.5,15.9,4.2,15.6C4.2,15.6,4.2,15.6,4.2,15.6z"/>
	<path class="st0" d="M2.9,14c0-0.4-0.3-0.8-0.8-0.8H0.8C0.3,13.2,0,13.5,0,14c0,0.4,0.3,0.8,0.8,0.8h1.4C2.6,14.7,2.9,14.4,2.9,14z
		"/>
</g>
</svg>
