<!-- Generated by IcoMoon.io -->
<svg version="1.1" xmlns="http://www.w3.org/2000/svg" width="32" height="32" viewBox="0 0 32 32">
<path fill="#ad92c2" d="M16 25.178c-0.001 0-0.002 0-0.004 0-0.655 0-1.248-0.265-1.678-0.695v0l-13.621-13.596c-0.431-0.431-0.697-1.026-0.697-1.683s0.267-1.252 0.697-1.683v0c0.431-0.431 1.026-0.697 1.683-0.697s1.252 0.266 1.683 0.697v0l11.937 11.918 11.937-11.921c0.431-0.431 1.026-0.697 1.683-0.697s1.252 0.266 1.683 0.697v0c0.431 0.431 0.697 1.026 0.697 1.683s-0.267 1.252-0.697 1.683l-13.621 13.599c-0.429 0.429-1.022 0.695-1.678 0.695-0.001 0-0.003 0-0.004 0v0z"></path>
</svg>
