<!-- Generated by IcoMoon.io -->
<svg version="1.1" xmlns="http://www.w3.org/2000/svg" width="32" height="32" viewBox="0 0 32 32">
<path fill="#ad92c2" d="M19.902 0.176c-4.128 0-7.666 1.966-9.829 5.111-0.197 0.393-0.197 0.59-0.393 0.786-0.393 0.786-0.786 1.573-0.983 2.359-0.393 1.179-0.59 2.359-0.59 3.538s0.197 2.359 0.59 3.538c0.197 0.786 0.59 1.573 0.983 2.359 0.197 0.197 0.393 0.59 0.393 0.786 0.197 0.197 0.393 0.393 0.393 0.59l-10.025 10.025c-0.59 0.59-0.59 1.573 0 2.162 0.197 0.393 0.59 0.393 0.983 0.393s0.786-0.197 0.983-0.393l10.025-10.025c1.966 1.573 4.521 2.555 7.273 2.555 6.487 0 11.794-5.307 11.794-11.794s-5.111-11.991-11.598-11.991zM19.902 20.816c-4.914 0-8.846-3.931-8.846-8.846s3.931-8.846 8.846-8.846c4.914 0 8.846 3.931 8.846 8.846s-3.931 8.846-8.846 8.846z"></path>
</svg>
