<?xml version="1.0" encoding="utf-8"?>
<!-- Generator: Adobe Illustrator 21.0.0, SVG Export Plug-In . SVG Version: 6.00 Build 0)  -->
<svg version="1.1" id="Layer_1" xmlns="http://www.w3.org/2000/svg" xmlns:xlink="http://www.w3.org/1999/xlink" x="0px" y="0px"
	 viewBox="0 0 10.1 20.8" style="enable-background:new 0 0 10.1 20.8;" xml:space="preserve">
<style type="text/css">
	.st0{fill:#40EBFF;}
</style>
<path class="st0" d="M9.9,15.2C9.9,15.2,9.9,15.2,9.9,15.2c-0.3-0.3-0.8-0.3-1.1,0l-3,3V0.8C5.8,0.3,5.5,0,5,0
	C4.6,0,4.3,0.3,4.3,0.8v17.5l-3-3c0,0,0,0,0,0c-0.3-0.3-0.8-0.3-1.1,0c0,0,0,0,0,0c-0.3,0.3-0.3,0.8,0,1.1l4.3,4.3
	c0.1,0.1,0.3,0.2,0.5,0.2c0.2,0,0.4-0.1,0.5-0.2l4.3-4.3c0,0,0,0,0,0C10.2,16,10.2,15.5,9.9,15.2z"/>
</svg>
