<?xml version="1.0" encoding="utf-8"?>
<!-- Generator: Adobe Illustrator 21.0.0, SVG Export Plug-In . SVG Version: 6.00 Build 0)  -->
<svg version="1.1" id="Layer_1" xmlns="http://www.w3.org/2000/svg" xmlns:xlink="http://www.w3.org/1999/xlink" x="0px" y="0px"
	 viewBox="0 0 10.7 10.7" style="enable-background:new 0 0 10.7 10.7;" xml:space="preserve">
<style type="text/css">
	.st0{fill:#AD92C2;}
</style>
<path class="st0" d="M6.4,5.4l4.1-4.1c0.1-0.1,0.2-0.3,0.2-0.5c0-0.2-0.1-0.4-0.2-0.5c-0.3-0.3-0.8-0.3-1.1,0L5.4,4.3L1.3,0.2
	C1-0.1,0.5-0.1,0.2,0.2c-0.3,0.3-0.3,0.8,0,1.1l4.1,4.1L0.2,9.4c-0.3,0.3-0.3,0.8,0,1.1c0.3,0.3,0.8,0.3,1.1,0l4.1-4.1l4.1,4.1
	c0.1,0.1,0.3,0.2,0.5,0.2c0.2,0,0.4-0.1,0.5-0.2c0.3-0.3,0.3-0.8,0-1.1L6.4,5.4z"/>
</svg>
