<!-- Generated by IcoMoon.io -->
<svg version="1.1" xmlns="http://www.w3.org/2000/svg" width="32" height="32" viewBox="0 0 32 32">
<path fill="#40ebff" d="M23.434 23.273c0 0 0 0 0 0-0.459-0.459-1.225-0.459-1.684 0l-4.593 4.593v-26.641c0-0.766-0.459-1.225-1.225-1.225-0.612 0-1.072 0.459-1.072 1.225v26.794l-4.593-4.593c0 0 0 0 0 0-0.459-0.459-1.225-0.459-1.684 0 0 0 0 0 0 0-0.459 0.459-0.459 1.225 0 1.684l6.584 6.584c0.153 0.153 0.459 0.306 0.766 0.306s0.612-0.153 0.766-0.306l6.584-6.584c0 0 0 0 0 0 0.612-0.612 0.612-1.378 0.153-1.837z"></path>
</svg>
