<?xml version="1.0" encoding="utf-8"?>
<!-- Generator: Adobe Illustrator 21.0.0, SVG Export Plug-In . SVG Version: 6.00 Build 0)  -->
<svg version="1.1" id="Layer_1" xmlns="http://www.w3.org/2000/svg" xmlns:xlink="http://www.w3.org/1999/xlink" x="0px" y="0px"
	 viewBox="0 0 17.2 19.1" style="enable-background:new 0 0 17.2 19.1;" xml:space="preserve">
<style type="text/css">
	.st0{fill:#48E580;}
</style>
<g>
	<path class="st0" d="M16.7,1.9h-3.1V0.5c0-0.3-0.2-0.5-0.5-0.5s-0.5,0.2-0.5,0.5v1.4h-8V0.5C4.6,0.2,4.4,0,4.1,0
		C3.8,0,3.6,0.2,3.6,0.5v1.4H0.5C0.2,1.9,0,2.1,0,2.4V6v12.6c0,0.3,0.2,0.5,0.5,0.5h16.2c0.3,0,0.5-0.2,0.5-0.5V6V2.4
		C17.2,2.1,17,1.9,16.7,1.9z M1,2.9h2.6v1.4c0,0.3,0.2,0.5,0.5,0.5c0.3,0,0.5-0.2,0.5-0.5V2.9h8v1.3c0,0.3,0.2,0.5,0.5,0.5
		s0.5-0.2,0.5-0.5V2.9h2.6v2.6H1V2.9z M1,18.1V6.5h15.2v11.6H1z"/>
	<path class="st0" d="M4.1,8.3c-0.3,0-0.5,0.2-0.5,0.5v1.8c0,0.3,0.2,0.5,0.5,0.5c0.3,0,0.5-0.2,0.5-0.5V8.8
		C4.6,8.5,4.4,8.3,4.1,8.3z"/>
	<path class="st0" d="M13.1,8.3c-0.3,0-0.5,0.2-0.5,0.5v1.8c0,0.3,0.2,0.5,0.5,0.5s0.5-0.2,0.5-0.5V8.8C13.6,8.5,13.4,8.3,13.1,8.3z
		"/>
	<path class="st0" d="M8.6,8.3c-0.3,0-0.5,0.2-0.5,0.5v1.8c0,0.3,0.2,0.5,0.5,0.5c0.3,0,0.5-0.2,0.5-0.5V8.8
		C9.1,8.5,8.9,8.3,8.6,8.3z"/>
	<path class="st0" d="M4.1,13.7c-0.3,0-0.5,0.2-0.5,0.5V16c0,0.3,0.2,0.5,0.5,0.5c0.3,0,0.5-0.2,0.5-0.5v-1.8
		C4.6,13.9,4.4,13.7,4.1,13.7z"/>
	<path class="st0" d="M13.1,13.7c-0.3,0-0.5,0.2-0.5,0.5v1.8c0,0.3,0.2,0.5,0.5,0.5s0.5-0.2,0.5-0.5v-1.8
		C13.6,13.9,13.4,13.7,13.1,13.7z"/>
	<path class="st0" d="M8.6,13.7c-0.3,0-0.5,0.2-0.5,0.5v1.8c0,0.3,0.2,0.5,0.5,0.5c0.3,0,0.5-0.2,0.5-0.5v-1.8
		C9.1,13.9,8.9,13.7,8.6,13.7z"/>
</g>
</svg>
