<!-- Generated by IcoMoon.io -->
<svg version="1.1" xmlns="http://www.w3.org/2000/svg" width="32" height="32" viewBox="0 0 32 32">
<path fill="#48e580" d="M2.112 0h27.779c0.846 0.001 1.532 0.687 1.532 1.533 0 0.365-0.128 0.7-0.341 0.963l0.002-0.003-9.17 11.401v12.108c0 0.593-0.337 1.106-0.829 1.361l-0.009 0.004-8.763 4.465c-0.202 0.105-0.441 0.167-0.695 0.167-0.846 0-1.532-0.686-1.533-1.532v-16.574l-9.17-11.401c-0.211-0.26-0.338-0.596-0.338-0.961 0-0.846 0.686-1.532 1.532-1.533v0zM26.69 3.065h-21.378l7.502 9.329c0.211 0.26 0.339 0.595 0.339 0.96v14.612l5.698-2.902v-11.71c0-0.365 0.128-0.7 0.341-0.963l-0.002 0.003z"></path>
</svg>
