<?xml version="1.0" encoding="utf-8"?>
<!-- Generator: Adobe Illustrator 21.0.0, SVG Export Plug-In . SVG Version: 6.00 Build 0)  -->
<svg version="1.1" id="Layer_1" xmlns="http://www.w3.org/2000/svg" xmlns:xlink="http://www.w3.org/1999/xlink" x="0px" y="0px"
	 viewBox="0 0 11.2 14.9" style="enable-background:new 0 0 11.2 14.9;" xml:space="preserve">
<style type="text/css">
	.st0{fill:#374775;}
</style>
<path class="st0" d="M11,4L7.2,0.2c-0.3-0.3-0.8-0.3-1.1,0S5.9,1,6.2,1.3l2.5,2.5H4.7C2.1,3.7,0,5.8,0,8.4v5.7
	c0,0.4,0.3,0.8,0.8,0.8c0.4,0,0.8-0.3,0.8-0.8V8.4c0-1.8,1.4-3.2,3.2-3.2h3.9L6.2,7.7C6,7.8,6,8,6,8.2C6,8.6,6.3,9,6.7,9
	c0.2,0,0.4-0.1,0.5-0.2L11,5c0,0,0,0,0,0C11.3,4.7,11.3,4.3,11,4z"/>
</svg>
