<!-- Generated by IcoMoon.io -->
<svg version="1.1" xmlns="http://www.w3.org/2000/svg" width="32" height="32" viewBox="0 0 32 32">
<path fill="#c2c9db" d="M29.835 23.609h-10.354l11.247-11.247c0 0 0 0 0 0 0.536-0.536 0.536-1.428 0-1.964l-9.997-9.997c0 0 0 0 0 0-0.536-0.536-1.428-0.536-1.964 0l-10.711 10.711c0 0 0 0 0 0s0 0 0 0l-2.499 2.678c0 0 0 0 0 0-2.142 2.142-2.142 5.713 0 7.855l4.285 4.285c0.179 0.179 0.536 0.357 0.893 0.357h19.102c0.714 0 1.428-0.536 1.428-1.428 0-0.714-0.714-1.25-1.428-1.25zM19.838 3.258l8.212 8.212-8.748 8.748-8.212-8.212 8.748-8.748zM11.269 23.609l-3.749-3.749c0 0 0 0 0 0-1.071-1.071-1.071-3.035 0-4.106l1.785-1.785 8.212 8.212-1.428 1.428h-4.82z"></path>
<path fill="#c2c9db" d="M8.234 27.894c-0.536-0.536-1.428-0.536-1.964 0l-1.785 1.785c-0.536 0.536-0.536 1.428 0 1.964 0.179 0.179 0.536 0.357 0.893 0.357s0.714-0.179 0.893-0.357l1.785-1.785c0 0 0 0 0 0 0.714-0.536 0.714-1.428 0.179-1.964 0 0 0 0 0 0z"></path>
<path fill="#c2c9db" d="M5.914 25.038c0-0.714-0.536-1.428-1.428-1.428h-2.321c-0.893 0-1.428 0.536-1.428 1.428 0 0.714 0.536 1.428 1.428 1.428h2.499c0.714-0.179 1.25-0.714 1.25-1.428z"></path>
</svg>
