<svg xmlns="http://www.w3.org/2000/svg" width="16" height="16" viewBox="0 0 16 16">
  <defs>
    <style>
      .cls-1 {
        fill: #48e580;
      }
    </style>
  </defs>
  <g id="Group_3997" data-name="Group 3997" transform="translate(-401 -25.37)">
    <g id="Group_3023" data-name="Group 3023">
      <path id="Ellipse_527" data-name="Ellipse 527" class="cls-1" d="M8,1a7,7,0,1,0,7,7A7.008,7.008,0,0,0,8,1M8,0A8,8,0,1,1,0,8,8,8,0,0,1,8,0Z" transform="translate(401 25.37)"/>
      <path id="Path_1250" data-name="Path 1250" class="cls-1" d="M411.3,37.88a.5.5,0,0,1-.374-.168L408.5,34.986V29.323a.5.5,0,1,1,1,0v5.282l2.173,2.442a.5.5,0,0,1-.373.832Z" transform="translate(0 -0.642)"/>
    </g>
  </g>
</svg>
