<!-- Generated by IcoMoon.io -->
<svg version="1.1" xmlns="http://www.w3.org/2000/svg" width="32" height="32" viewBox="0 0 32 32">
<path fill="#40ebff" d="M23.175 6.667l-6.37-6.37c-0.296-0.148-0.593-0.296-0.889-0.296s-0.444 0.148-0.741 0.296l-6.37 6.37c0 0 0 0 0 0-0.444 0.444-0.444 1.185 0 1.63 0 0 0 0 0 0 0.444 0.444 1.185 0.444 1.63 0l4.444-4.444v26.963c0 0.593 0.444 1.185 1.185 1.185 0.593 0 1.185-0.444 1.185-1.185v-26.963l4.444 4.444c0 0 0 0 0 0 0.444 0.444 1.185 0.444 1.63 0 0 0 0 0 0 0 0.296-0.444 0.296-1.185-0.148-1.63z"></path>
</svg>
