<?xml version="1.0" encoding="utf-8"?>
<!-- Generator: Adobe Illustrator 21.0.0, SVG Export Plug-In . SVG Version: 6.00 Build 0)  -->
<svg version="1.1" id="Layer_1" xmlns="http://www.w3.org/2000/svg" xmlns:xlink="http://www.w3.org/1999/xlink" x="0px" y="0px"
	 viewBox="0 0 16.4 16.4" style="enable-background:new 0 0 16.4 16.4;" xml:space="preserve">
<style type="text/css">
	.st0{fill:#AD92C2;}
</style>
<path class="st0" d="M10.4,0c-2.1,0-3.9,1-5,2.6C5.3,2.8,5.3,2.9,5.2,3C5,3.4,4.8,3.8,4.7,4.2C4.5,4.8,4.4,5.4,4.4,6
	s0.1,1.2,0.3,1.8C4.8,8.2,5,8.6,5.2,9c0.1,0.1,0.2,0.3,0.2,0.4c0.1,0.1,0.2,0.2,0.2,0.3l-5.1,5.1c-0.3,0.3-0.3,0.8,0,1.1
	c0.1,0.2,0.3,0.2,0.5,0.2s0.4-0.1,0.5-0.2l5.1-5.1c1,0.8,2.3,1.3,3.7,1.3c3.3,0,6-2.7,6-6S13.7,0,10.4,0z M10.4,10.5
	c-2.5,0-4.5-2-4.5-4.5c0-2.5,2-4.5,4.5-4.5c2.5,0,4.5,2,4.5,4.5C14.9,8.5,12.9,10.5,10.4,10.5z"/>
</svg>
