<?xml version="1.0" encoding="utf-8"?>
<!-- Generator: Adobe Illustrator 21.0.0, SVG Export Plug-In . SVG Version: 6.00 Build 0)  -->
<svg version="1.1" id="Layer_1" xmlns="http://www.w3.org/2000/svg" xmlns:xlink="http://www.w3.org/1999/xlink" x="0px" y="0px"
	 viewBox="0 0 10.1 21.8" style="enable-background:new 0 0 10.1 21.8;" xml:space="preserve">
<style type="text/css">
	.st0{fill:#AD92C2;}
</style>
<path class="st0" d="M9.9,16.2C9.9,16.2,9.9,16.2,9.9,16.2c-0.3-0.3-0.8-0.3-1.1,0l-3,3V2.6l3,3c0,0,0,0,0,0c0.3,0.3,0.8,0.3,1.1,0
	c0,0,0,0,0,0c0.3-0.3,0.3-0.8,0-1.1L5.6,0.2C5.4,0.1,5.2,0,5,0C4.8,0,4.7,0.1,4.5,0.2L0.2,4.5c0,0,0,0,0,0c-0.3,0.3-0.3,0.8,0,1.1
	c0,0,0,0,0,0c0.3,0.3,0.8,0.3,1.1,0l3-3v16.7l-3-3c0,0,0,0,0,0c-0.3-0.3-0.8-0.3-1.1,0c0,0,0,0,0,0c-0.3,0.3-0.3,0.8,0,1.1l4.3,4.3
	c0.1,0.1,0.3,0.2,0.5,0.2c0.2,0,0.4-0.1,0.5-0.2l4.3-4.3c0,0,0,0,0,0C10.2,17,10.2,16.5,9.9,16.2z"/>
</svg>
