<!-- Generated by IcoMoon.io -->
<svg version="1.1" xmlns="http://www.w3.org/2000/svg" width="32" height="32" viewBox="0 0 32 32">
<path d="M16 0c-9 0-16 7-16 16 0 8.667 7 16 16 16 8.667 0 16-7 16-16s-7.333-16-16-16zM16 29c-7.333 0-13.333-5.667-13.333-13s6-13 13-13c7.333 0 13 6 13 13 0.333 7.333-5.333 13-12.667 13z"></path>
<path d="M16 10.667c-0.667 0-1.333 0.667-1.333 1.333v13c0 1 0.333 1.667 1.333 1.667s1.333-0.667 1.333-1.333v-13.333c0 0 0 0 0 0 0-0.667-0.667-1.333-1.333-1.333z"></path>
<path d="M17.667 6.667c0 0.92-0.746 1.667-1.667 1.667s-1.667-0.746-1.667-1.667c0-0.92 0.746-1.667 1.667-1.667s1.667 0.746 1.667 1.667z"></path>
</svg>
