<!-- Generated by IcoMoon.io -->
<svg version="1.1" xmlns="http://www.w3.org/2000/svg" width="32" height="32" viewBox="0 0 32 32">
<path fill="#ad92c2" d="M23.087 23.671c0 0 0 0 0 0-0.438-0.438-1.169-0.438-1.607 0l-4.384 4.384v-24.256l4.384 4.384c0 0 0 0 0 0 0.438 0.438 1.169 0.438 1.607 0 0 0 0 0 0 0 0.438-0.438 0.438-1.169 0-1.607l-6.283-6.283c-0.292-0.146-0.584-0.292-0.877-0.292s-0.438 0.146-0.731 0.292l-6.283 6.283c0 0 0 0 0 0-0.438 0.438-0.438 1.169 0 1.607 0 0 0 0 0 0 0.438 0.438 1.169 0.438 1.607 0l4.384-4.384v24.402l-4.384-4.384c0 0 0 0 0 0-0.438-0.438-1.169-0.438-1.607 0 0 0 0 0 0 0-0.438 0.438-0.438 1.169 0 1.607l6.283 6.283c0.146 0.146 0.438 0.292 0.731 0.292s0.584-0.146 0.731-0.292l6.283-6.283c0 0 0 0 0 0 0.584-0.584 0.584-1.315 0.146-1.753z"></path>
</svg>
