<?xml version="1.0" encoding="utf-8"?>
<!-- Generator: Adobe Illustrator 21.0.0, SVG Export Plug-In . SVG Version: 6.00 Build 0)  -->
<svg version="1.1" id="Layer_1" xmlns="http://www.w3.org/2000/svg" xmlns:xlink="http://www.w3.org/1999/xlink" x="0px" y="0px"
	 viewBox="0 0 10.9 10.9" style="enable-background:new 0 0 10.9 10.9;" xml:space="preserve">
<style type="text/css">
	.st0{fill:#FF8888;}
</style>
<path class="st0" d="M6.5,5.4l4.2-4.2c0,0,0,0,0,0C11,1,11,0.5,10.7,0.2c0,0,0,0,0,0c-0.3-0.3-0.8-0.3-1.1,0L5.4,4.4L1.3,0.2
	C1-0.1,0.5-0.1,0.2,0.2c-0.3,0.3-0.3,0.8,0,1.1l4.2,4.2L0.2,9.6c0,0,0,0,0,0c-0.3,0.3-0.3,0.8,0,1.1c0.1,0.1,0.3,0.2,0.5,0.2
	c0.2,0,0.4-0.1,0.5-0.2l4.2-4.2l4.2,4.2c0.1,0.1,0.3,0.2,0.5,0.2c0.2,0,0.4-0.1,0.5-0.2c0.3-0.3,0.3-0.8,0-1.1L6.5,5.4z"/>
</svg>
