<?xml version="1.0" encoding="utf-8"?>
<!-- Generator: Adobe Illustrator 21.0.0, SVG Export Plug-In . SVG Version: 6.00 Build 0)  -->
<svg version="1.1" id="Layer_1" xmlns="http://www.w3.org/2000/svg" xmlns:xlink="http://www.w3.org/1999/xlink" x="0px" y="0px"
	 viewBox="0 0 9.6 9.6" style="enable-background:new 0 0 9.6 9.6;" xml:space="preserve">
<style type="text/css">
	.st0{fill:#FFFFFF;}
</style>
<g>
	<path class="st0" d="M4.8,0C2.1,0,0,2.1,0,4.8c0,2.6,2.1,4.8,4.8,4.8c2.6,0,4.8-2.1,4.8-4.8C9.6,2.1,7.4,0,4.8,0z M4.8,8.7
		C2.6,8.7,0.8,7,0.8,4.8c0-2.2,1.8-3.9,3.9-3.9c2.2,0,3.9,1.8,3.9,3.9C8.7,7,7,8.7,4.8,8.7z"/>
	<path class="st0" d="M4.8,3.2c-0.2,0-0.4,0.2-0.4,0.4v3.9C4.4,7.8,4.5,8,4.8,8s0.4-0.2,0.4-0.4V3.6c0,0,0,0,0,0
		C5.2,3.4,5,3.2,4.8,3.2z"/>
	<circle class="st0" cx="4.8" cy="2" r="0.5"/>
</g>
</svg>
