<?xml version="1.0" encoding="utf-8"?>
<!-- Generator: Adobe Illustrator 21.0.0, SVG Export Plug-In . SVG Version: 6.00 Build 0)  -->
<svg version="1.1" id="Layer_1" xmlns="http://www.w3.org/2000/svg" xmlns:xlink="http://www.w3.org/1999/xlink" x="0px" y="0px"
	 viewBox="0 0 10.1 21.5" style="enable-background:new 0 0 10.1 21.5;" xml:space="preserve">
<style type="text/css">
	.st0{fill:#40EBFF;}
</style>
<path class="st0" d="M9.9,4.5L5.6,0.2C5.4,0.1,5.2,0,5,0C4.8,0,4.7,0.1,4.5,0.2L0.2,4.5c0,0,0,0,0,0c-0.3,0.3-0.3,0.8,0,1.1
	c0,0,0,0,0,0c0.3,0.3,0.8,0.3,1.1,0l3-3v18.2c0,0.4,0.3,0.8,0.8,0.8c0.4,0,0.8-0.3,0.8-0.8V2.6l3,3c0,0,0,0,0,0
	c0.3,0.3,0.8,0.3,1.1,0c0,0,0,0,0,0C10.2,5.3,10.2,4.8,9.9,4.5z"/>
</svg>
