<?xml version="1.0" encoding="utf-8"?>
<!-- Generator: Adobe Illustrator 21.0.0, SVG Export Plug-In . SVG Version: 6.00 Build 0)  -->
<svg version="1.1" id="Layer_1" xmlns="http://www.w3.org/2000/svg" xmlns:xlink="http://www.w3.org/1999/xlink" x="0px" y="0px"
	 viewBox="0 0 29.6 29.6" style="enable-background:new 0 0 29.6 29.6;" xml:space="preserve">
<style type="text/css">
	.st0{fill:#684A80;}
</style>
<g>
	<path class="st0" d="M11,8.4c0.4-0.2,0.5-0.7,0.3-1c-0.2-0.4-0.7-0.5-1-0.3C5.7,9.6,4,15.3,6.5,19.9c1.7,3.2,5,5,8.4,5
		c1.5,0,3.1-0.4,4.5-1.1c4.6-2.5,6.3-8.3,3.8-12.9c-0.9-1.6-2.2-3-3.8-3.8c-0.4-0.2-0.8-0.1-1,0.3c-0.2,0.4-0.1,0.8,0.3,1
		c1.4,0.7,2.5,1.9,3.2,3.2c2.1,3.9,0.6,8.8-3.2,10.9c-3.9,2.1-8.8,0.6-10.9-3.2c-1-1.9-1.2-4-0.6-6.1C7.8,11.1,9.1,9.4,11,8.4z"/>
	<path class="st0" d="M15.6,15.9V6.7c0-0.4-0.3-0.8-0.8-0.8s-0.8,0.3-0.8,0.8v9.2c0,0.4,0.3,0.8,0.8,0.8S15.6,16.4,15.6,15.9z"/>
	<path class="st0" d="M28.4,4.2c-0.4,0-0.8,0.3-0.8,0.8v20.9c0,1.2-1,2.3-2.3,2.3H3.8c-1.2,0-2.3-1-2.3-2.3V4.2C1.5,3,2.5,2,3.8,2
		h20.9c0.4,0,0.8-0.3,0.8-0.8S25,0.5,24.6,0.5H3.8C1.7,0.5,0,2.2,0,4.2v21.6c0,2.1,1.7,3.8,3.8,3.8h21.6c2.1,0,3.8-1.7,3.8-3.8V5
		C29.1,4.5,28.8,4.2,28.4,4.2z"/>
	<circle class="st0" cx="28.4" cy="1.2" r="1.3"/>
</g>
</svg>
