<svg xmlns="http://www.w3.org/2000/svg" width="29.444" height="29.936" viewBox="0 0 29.444 29.936">
    <g data-name="Title Bar Icon _ Message">
        <text data-name="3" transform="translate(10.327 20.75)" style="font-size:20px;font-family:FiraGO-Regular,FiraGO;fill:#575757"><tspan x="0" y="0">3</tspan></text>
        <g data-name="Group 8328">
            <path data-name="Path 6237" d="M14.8 0z" style="fill:#575757" transform="translate(.044)"/>
            <path data-name="Path 6238" d="M14.8 0A15.038 15.038 0 0 0 7 2.2a14.75 14.75 0 0 0-4.8 20.3L0 29c-.1.2 0 .4 0 .5a.819.819 0 0 0 1 .4l5.9-2.7a14.5 14.5 0 0 0 7.8 2.3 14.745 14.745 0 0 0 14.7-14.8A14.575 14.575 0 0 0 14.8 0zm0 28a13.918 13.918 0 0 1-7.4-2.2.878.878 0 0 0-.7-.1L2 27.9l1.7-5.3a.614.614 0 0 0-.1-.6A13.4 13.4 0 0 1 14.8 1.4a13.3 13.3 0 0 1 0 26.6z" style="fill:#575757" transform="translate(.044)"/>
        </g>
    </g>
</svg>
