<!-- Generated by IcoMoon.io -->
<svg version="1.1" xmlns="http://www.w3.org/2000/svg" width="32" height="32" viewBox="0 0 32 32">
<path fill="#575757" d="M30.156 9.312c-1.153-2.123-2.668-3.903-4.482-5.321l-0.037-0.028c-0.104-0.079-0.236-0.126-0.379-0.126-0.23 0-0.432 0.123-0.542 0.308l-0.002 0.003c-0.079 0.104-0.126 0.236-0.126 0.379 0 0.23 0.123 0.432 0.308 0.542l0.003 0.002c0.885 0.683 1.669 1.409 2.384 2.198l0.014 0.015c2.057 2.419 3.308 5.579 3.308 9.032 0 4.235-1.883 8.031-4.858 10.595l-0.018 0.015c-0.168 0.122-0.276 0.318-0.276 0.539 0 0.367 0.297 0.664 0.664 0.664 0.026 0 0.051-0.001 0.076-0.004h-0.003c0.178-0.004 0.34-0.073 0.462-0.185h-0.001c3.275-2.828 5.338-6.982 5.349-11.617v-0.002c-0.047-2.576-0.724-4.983-1.884-7.087l0.040 0.079z"></path>
<path fill="#575757" d="M26.651 16.597c-0.021-3.466-1.753-6.522-4.393-8.37l-0.033-0.022c-0.102-0.060-0.225-0.095-0.356-0.095-0.23 0-0.435 0.109-0.565 0.277l-0.001 0.002c-0.060 0.102-0.095 0.225-0.095 0.356 0 0.23 0.109 0.435 0.277 0.565l0.002 0.001c2.323 1.586 3.838 4.209 3.873 7.188v0.005c0 0.015 0 0.033 0 0.050 0 2.512-1.102 4.766-2.85 6.305l-0.009 0.008c-0.184 0.092-0.184 0.277-0.184 0.461 0 0.008-0.001 0.018-0.001 0.028 0 0.37 0.282 0.674 0.643 0.709h0.003c0.178-0.004 0.34-0.073 0.462-0.185h-0.001c1.010-0.907 1.82-2.013 2.373-3.259l0.024-0.061c0.531-1.030 0.842-2.247 0.842-3.537 0-0.151-0.004-0.3-0.013-0.449l0.001 0.021z"></path>
<path fill="#575757" d="M17.337 2.488l-8.761 5.902h-7.931c-0.364 0.035-0.646 0.34-0.646 0.71 0 0.010 0 0.020 0.001 0.029v-0.001 13.74c0 0.008-0.001 0.018-0.001 0.028 0 0.37 0.282 0.674 0.643 0.709h7.934l8.761 5.902c0.087 0.060 0.195 0.095 0.31 0.095 0.021 0 0.041-0.001 0.061-0.003h-0.002c0.008 0 0.018 0.001 0.028 0.001 0.37 0 0.674-0.282 0.709-0.643v-25.824c0.002-0.018 0.003-0.038 0.003-0.058 0-0.116-0.036-0.223-0.097-0.312l0.001 0.002c-0.136-0.222-0.378-0.367-0.653-0.367-0.132 0-0.257 0.034-0.365 0.093l0.004-0.002zM17.061 27.571l-7.838-5.256c-0.087-0.060-0.195-0.095-0.31-0.095-0.021 0-0.041 0.001-0.061 0.003h-7.375v-12.449h7.377c0.007 0 0.014 0 0.022 0 0.128 0 0.247-0.034 0.35-0.094l-0.003 0.002 7.839-5.256z"></path>
</svg>
