<?xml version="1.0" encoding="utf-8"?>
<!-- Generator: Adobe Illustrator 21.0.0, SVG Export Plug-In . SVG Version: 6.00 Build 0)  -->
<svg version="1.1" id="Layer_1" xmlns="http://www.w3.org/2000/svg" xmlns:xlink="http://www.w3.org/1999/xlink" x="0px" y="0px"
	 viewBox="0 0 29.6 29.6" style="enable-background:new 0 0 29.6 29.6;" xml:space="preserve">
<style type="text/css">
	.st0{fill:#684A80;}
	.st1{fill:none;}
</style>
<g>
	<path class="st0" d="M28.4,4.2c-0.4,0-0.8,0.3-0.8,0.8v20.9c0,1.2-1,2.3-2.3,2.3H3.8c-1.2,0-2.3-1-2.3-2.3V4.2C1.5,3,2.5,2,3.8,2
		h20.9c0.4,0,0.8-0.3,0.8-0.8S25,0.5,24.6,0.5H3.8C1.7,0.5,0,2.2,0,4.2v21.6c0,2.1,1.7,3.8,3.8,3.8h21.6c2.1,0,3.8-1.7,3.8-3.8V5
		C29.1,4.5,28.8,4.2,28.4,4.2z"/>
	<circle class="st0" cx="28.4" cy="1.2" r="1.3"/>
	<line class="st1" x1="15" y1="7.5" x2="15" y2="6"/>
	<line class="st1" x1="15" y1="17.2" x2="15" y2="15.7"/>
	<path class="st0" d="M18,16.3c1.5-1,2.5-2.7,2.5-4.7C20.6,8.5,18.1,6,15,6s-5.6,2.5-5.6,5.6c0,2,1,3.7,2.5,4.7
		c-3.1,1.2-5.3,4.3-5.3,7.8c0,0.4,0.3,0.8,0.8,0.8c0.4,0,0.8-0.3,0.8-0.8c0-3.8,3-6.8,6.8-6.9c0,0,0.1,0,0.1,0s0.1,0,0.1,0
		c3.7,0.1,6.8,3.1,6.8,6.9c0,0.4,0.3,0.8,0.8,0.8c0.4,0,0.8-0.3,0.8-0.8C23.3,20.6,21.1,17.5,18,16.3z M15,15.7L15,15.7
		C15,15.7,15,15.7,15,15.7C15,15.7,15,15.7,15,15.7h-0.2c-2.2,0-4-1.9-4-4.1c0-2.3,1.8-4.1,4.1-4.1s4.1,1.8,4.1,4.1
		C19.1,13.9,17.3,15.7,15,15.7z"/>
</g>
</svg>
