<!-- Generated by IcoMoon.io -->
<svg version="1.1" xmlns="http://www.w3.org/2000/svg" width="32" height="32" viewBox="0 0 32 32">
<path fill="#abb6d6" d="M17.999 1.975l-9.095 6.127h-8.233c-0.383 0-0.67 0.383-0.67 0.766v14.265c0 0.383 0.287 0.766 0.67 0.766h8.233l9.095 6.127c0.096 0.096 0.287 0.096 0.383 0.096 0.383 0 0.766-0.287 0.766-0.67v-26.806c0-0.096 0-0.287-0.096-0.383-0.287-0.383-0.67-0.479-1.053-0.287zM17.711 28.015l-8.138-5.457c-0.096-0.096-0.287-0.096-0.383-0.096h-7.659v-12.924h7.659c0.096 0 0.191 0 0.383-0.096l8.138-5.457v24.030z"></path>
<path fill="#abb6d6" d="M28.242 16.048l3.447-3.447c0.287-0.287 0.287-0.766 0-1.053s-0.766-0.287-1.053 0l-3.447 3.447-3.542-3.542c-0.287-0.287-0.766-0.287-1.053 0s-0.287 0.766 0 1.053l3.447 3.447-3.447 3.447c-0.287 0.287-0.287 0.766 0 1.053 0.191 0.191 0.383 0.191 0.574 0.191s0.383-0.096 0.574-0.191l3.447-3.447 3.447 3.447c0.191 0.191 0.383 0.191 0.574 0.191s0.383-0.096 0.574-0.191c0.287-0.287 0.287-0.766 0-1.053l-3.542-3.351z"></path>
</svg>
