<!-- Generated by IcoMoon.io -->
<svg version="1.1" xmlns="http://www.w3.org/2000/svg" width="32" height="32" viewBox="0 0 32 32">
<path fill="#575757" d="M26.86 11.741h-3.133c-3.043-0.008 0.271-0.008-1.462 0h-17.23c-0.003 0-0.008 0-0.012 0-0.455 0-0.824 0.369-0.824 0.824 0 0.004 0 0.008 0 0.012v-0.001 18.587c0 0.003 0 0.008 0 0.012 0 0.455 0.369 0.824 0.824 0.824 0.004 0 0.008 0 0.012 0h21.928c0.003 0 0.008 0 0.012 0 0.455 0 0.824-0.369 0.824-0.824 0-0.004 0-0.008 0-0.012v0.001-18.692c-0.12-0.417-0.493-0.719-0.938-0.731h-0.001zM26.129 30.329h-20.363v-17.021h20.258v17.021z"></path>
<path fill="none" stroke="#575757" stroke-linejoin="miter" stroke-linecap="butt" stroke-miterlimit="4" stroke-width="1.6552" d="M16.243 16.12c2.419 0 4.381 1.961 4.381 4.381s-1.961 4.381-4.381 4.381c-2.419 0-4.381-1.961-4.381-4.381s1.961-4.381 4.381-4.381z"></path>
<path fill="none" stroke="#575757" stroke-linejoin="miter" stroke-linecap="butt" stroke-miterlimit="4" stroke-width="1.6552" d="M16.243 16.903c1.987 0 3.597 1.611 3.597 3.597s-1.611 3.597-3.597 3.597c-1.987 0-3.597-1.611-3.597-3.597s1.611-3.597 3.597-3.597z"></path>
<path fill="none" stroke="#575757" stroke-linejoin="miter" stroke-linecap="round" stroke-miterlimit="4" stroke-width="1.6552" d="M11.375 25.42l1.912-1.964"></path>
<path fill="none" stroke="#575757" stroke-linejoin="round" stroke-linecap="round" stroke-miterlimit="10" stroke-width="1.6552" d="M10.151 7.792c0-3.199 2.593-5.792 5.792-5.792s5.792 2.593 5.792 5.792v0 3.759"></path>
</svg>
