<svg xmlns="http://www.w3.org/2000/svg" width="29.55" height="29.55" viewBox="0 0 29.55 29.55">
    <g data-name="Group 9732">
        <g data-name="Title Bar Icon _ Log Out">
            <path data-name="Path 6234" d="M14.8 0A14.75 14.75 0 0 0 4.3 25.2a14.727 14.727 0 0 0 20.9 0A14.779 14.779 0 0 0 14.8 0zm0 28A13.25 13.25 0 1 1 28 14.8 13.209 13.209 0 0 1 14.8 28z" style="fill:#575757" transform="translate(.05)"/>
            <path data-name="Path 6235" d="M19.2 6.4a.693.693 0 0 0-1 .3.693.693 0 0 0 .3 1 7.6 7.6 0 0 1 3.2 3.2 8.033 8.033 0 0 1-14.1 7.7 8.138 8.138 0 0 1 3.3-10.9.738.738 0 0 0-.7-1.3 9.521 9.521 0 0 0 4.5 17.9 9.558 9.558 0 0 0 8.4-5 9.453 9.453 0 0 0-3.9-12.9z" style="fill:#575757" transform="translate(.05)"/>
            <path data-name="Path 6236" d="M14.7 16a.789.789 0 0 0 .8-.8V6a.789.789 0 0 0-.8-.8.849.849 0 0 0-.7.8v9.3a.684.684 0 0 0 .7.7z" style="fill:#575757" transform="translate(.05)"/>
        </g>
    </g>
</svg>
