<!-- Generated by IcoMoon.io -->
<svg version="1.1" xmlns="http://www.w3.org/2000/svg" width="31" height="32" viewBox="0 0 31 32">
<path fill="#abb6d6" d="M15.865 0.003c-2.993 0-5.878 0.855-8.336 2.351-7.374 4.596-9.726 14.214-5.13 21.696l-2.351 6.947c-0.107 0.214 0 0.427 0 0.534 0.214 0.427 0.641 0.534 1.069 0.427l6.306-2.886c2.458 1.603 5.451 2.458 8.336 2.458 8.657 0 15.711-7.054 15.711-15.818s-6.947-15.711-15.604-15.711zM15.865 29.928v0c-2.779 0-5.558-0.855-7.909-2.351-0.214-0.107-0.534-0.214-0.748-0.107l-5.023 2.351 1.817-5.664c0.107-0.214 0-0.534-0.107-0.641-1.496-2.351-2.244-5.023-2.244-7.802 0-7.802 6.413-14.214 14.214-14.214s14.214 6.413 14.214 14.214c-0.107 7.909-6.413 14.215-14.214 14.215z"></path>
</svg>
