<!-- Generated by IcoMoon.io -->
<svg version="1.1" xmlns="http://www.w3.org/2000/svg" width="32" height="32" viewBox="0 0 32 32">
<path fill="#575757" d="M16.081 0c-0.029 0-0.064 0-0.098 0-8.822 0-15.973 7.151-15.973 15.973 0 4.422 1.797 8.424 4.7 11.316v0c2.89 2.91 6.893 4.711 11.316 4.711s8.427-1.801 11.316-4.71l0.001-0.001c2.877-2.893 4.656-6.881 4.656-11.285 0-8.809-7.116-15.955-15.914-16.004h-0.005zM16.081 30.322c-0.016 0-0.035 0-0.054 0-7.925 0-14.349-6.424-14.349-14.349s6.424-14.349 14.349-14.349c7.924 0 14.349 6.424 14.349 14.349 0 0.019 0 0.038 0 0.057v-0.003c-0.006 7.892-6.402 14.289-14.294 14.294h-0.001z"></path>
<path fill="#575757" d="M14.782 7.905c0-0.718 0.582-1.3 1.299-1.3s1.3 0.582 1.3 1.3c0 0.718-0.582 1.3-1.3 1.3s-1.3-0.582-1.3-1.3z"></path>
<path fill="#575757" d="M16.081 11.154c-0.004 0-0.008 0-0.012 0-0.472 0-0.854 0.383-0.854 0.854 0 0.004 0 0.008 0 0.013v-0.001 11.804c0 0.478 0.388 0.866 0.866 0.866s0.866-0.388 0.866-0.866v0-11.804c0-0.004 0-0.008 0-0.012 0-0.472-0.383-0.854-0.854-0.854-0.004 0-0.008 0-0.013 0h0.001z"></path>
</svg>
