<!-- Generated by IcoMoon.io -->
<svg version="1.1" xmlns="http://www.w3.org/2000/svg" width="32" height="32" viewBox="0 0 32 32">
<path fill="#abb6d6" d="M27.242 11.029h-3.243v-3.351c-0.108-4.216-3.459-7.567-7.675-7.675-4.432-0.108-8.107 3.351-8.216 7.675 0 0.432 0.324 0.865 0.865 0.865s0.865-0.324 0.865-0.865c0.108-3.243 2.811-5.945 6.054-6.054 3.459-0.108 6.486 2.594 6.594 6.054v3.351h-17.836c-0.432 0-0.865 0.324-0.865 0.865v19.242c0 0.432 0.324 0.865 0.865 0.865h22.701c0.432 0 0.865-0.324 0.865-0.865v-19.35c-0.108-0.432-0.541-0.757-0.973-0.757zM26.486 30.27h-21.079v-17.62h17.728c0 0 0 0 0 0s0 0 0 0h3.243v17.62z"></path>
<path fill="#abb6d6" d="M15.892 15.569c-2.27 0-4.216 1.838-4.216 4.216 0 0.649 0.108 1.297 0.432 1.838l-2.486 1.946c0 0 0 0 0 0-0.324 0.216-0.432 0.757-0.108 1.081 0.108 0.216 0.432 0.324 0.649 0.324s0.324-0.108 0.54-0.216l2.486-1.946c0.757 0.649 1.73 1.081 2.811 1.081 2.378 0 4.216-1.838 4.216-4.216s-1.946-4.108-4.324-4.108zM15.892 22.379c-1.405 0-2.594-1.189-2.594-2.594s1.189-2.594 2.594-2.594c1.405 0 2.594 1.189 2.594 2.594s-1.081 2.594-2.594 2.594z"></path>
</svg>
