<svg xmlns="http://www.w3.org/2000/svg" width="29.55" height="29.55" viewBox="0 0 29.55 29.55">
    <g data-name="Title Bar Icon _ About" transform="translate(.05)">
        <path data-name="Path 6226" d="M14.8 0A14.75 14.75 0 0 0 4.3 25.2a14.727 14.727 0 0 0 20.9 0A14.779 14.779 0 0 0 14.8 0zm0 28A13.25 13.25 0 1 1 28 14.8 13.209 13.209 0 0 1 14.8 28z" style="fill:#575757"/>
        <circle data-name="Ellipse 1204" cx="1.2" cy="1.2" r="1.2" transform="rotate(180 8 4.25)" style="fill:#575757"/>
        <path data-name="Path 6227" d="M14.8 18.6a.789.789 0 0 0 .8-.8V6.9a.8.8 0 0 0-1.6 0v10.9a.789.789 0 0 0 .8.8z" transform="rotate(180 14.8 14.45)" style="fill:#575757"/>
    </g>
</svg>
