<!-- Generated by IcoMoon.io -->
<svg version="1.1" xmlns="http://www.w3.org/2000/svg" width="32" height="32" viewBox="0 0 32 32">
<path fill="none" stroke="#575757" stroke-linejoin="miter" stroke-linecap="butt" stroke-miterlimit="4" stroke-width="0.8" d="M31.25 16c0 8.422-6.828 15.25-15.25 15.25s-15.25-6.828-15.25-15.25c0-8.422 6.828-15.25 15.25-15.25s15.25 6.828 15.25 15.25z"></path>
<path fill="none" stroke="#575757" stroke-linejoin="miter" stroke-linecap="butt" stroke-miterlimit="4" stroke-width="0.8" d="M30.869 16c0 8.212-6.657 14.869-14.869 14.869s-14.869-6.657-14.869-14.869c0-8.212 6.657-14.869 14.869-14.869s14.869 6.657 14.869 14.869z"></path>
<path fill="none" stroke="#575757" stroke-linejoin="miter" stroke-linecap="butt" stroke-miterlimit="10" stroke-width="0.8" d="M20.341 12.597c0 2.397-1.943 4.341-4.341 4.341s-4.341-1.943-4.341-4.341c0-2.397 1.943-4.341 4.341-4.341s4.341 1.943 4.341 4.341z"></path>
<path fill="none" stroke="#575757" stroke-linejoin="miter" stroke-linecap="round" stroke-miterlimit="10" stroke-width="0.8" d="M9.193 23.744c0-0.015 0-0.033 0-0.051 0-3.76 3.048-6.808 6.808-6.808s6.808 3.048 6.808 6.808c0 0.018 0 0.036 0 0.054v-0.003"></path>
</svg>
