<!-- Generated by IcoMoon.io -->
<svg version="1.1" xmlns="http://www.w3.org/2000/svg" width="32" height="32" viewBox="0 0 32 32">
<path fill="#abb6d6" d="M15.83 0.25c-4.264 0-8.208 1.599-11.193 4.584-6.183 6.183-6.183 16.097 0 22.279s16.097 6.183 22.279 0c2.985-2.985 4.584-6.929 4.584-11.086 0-8.741-7.036-15.777-15.67-15.777zM15.83 30.098v0c-7.888 0-14.178-6.289-14.178-14.071s6.289-14.178 14.178-14.178 14.071 6.289 14.071 14.178c0 7.782-6.289 14.071-14.071 14.071z"></path>
<path fill="#abb6d6" d="M17.109 23.275c0 0.706-0.573 1.279-1.279 1.279s-1.279-0.573-1.279-1.279c0-0.706 0.573-1.279 1.279-1.279s1.279 0.573 1.279 1.279z"></path>
<path fill="#abb6d6" d="M15.83 6.646c-1.279-0.107-2.558 0.426-3.518 1.386-0.853 1.173-1.279 2.665-1.066 4.157 0.107 0.426 0.426 0.746 0.853 0.64 0.426 0 0.746-0.426 0.746-0.853-0.107-0.959 0.107-2.025 0.746-2.878 0.64-0.64 1.386-0.959 2.239-0.853 0.853-0.107 1.599 0.213 2.239 0.853 0.533 0.853 0.746 1.812 0.533 2.878-0.32 0.853-0.853 1.599-1.599 2.239-1.599 1.386-2.345 3.411-2.132 5.437 0 0.426 0.32 0.746 0.746 0.746v0c0 0 0 0 0 0 0.426 0 0.746-0.426 0.746-0.853-0.213-1.599 0.426-3.198 1.599-4.264 0.959-0.853 1.599-1.812 2.025-2.985v0c0.32-1.492 0-2.985-0.853-4.157-0.64-1.066-1.919-1.599-3.305-1.492z"></path>
</svg>
