<?xml version="1.0" encoding="utf-8"?>
<!-- Generator: Adobe Illustrator 21.0.0, SVG Export Plug-In . SVG Version: 6.00 Build 0)  -->
<svg version="1.1" id="Layer_1" xmlns="http://www.w3.org/2000/svg" xmlns:xlink="http://www.w3.org/1999/xlink" x="0px" y="0px"
	 viewBox="0 0 29.5 30" style="enable-background:new 0 0 29.5 30;" xml:space="preserve">
<style type="text/css">
	.st0{fill:#ABB6D6;}
	.st1{font-family:'FiraGO-Regular';}
	.st2{font-size:20px;}
</style>
<text transform="matrix(1 0 0 1 10.283 20.75)" class="st0 st1 st2">3</text>
<g>
	<polygon class="st0" points="14.8,0 14.8,0 14.8,0 	"/>
	<path class="st0" d="M14.8,0C12,0,9.3,0.8,7,2.2C0.1,6.5-2.1,15.5,2.2,22.5L0,29c-0.1,0.2,0,0.4,0,0.5c0.2,0.4,0.6,0.5,1,0.4
		l5.9-2.7c2.3,1.5,5.1,2.3,7.8,2.3c8.1,0,14.7-6.6,14.7-14.8S22.9,0,14.8,0z M14.8,28L14.8,28c-2.6,0-5.2-0.8-7.4-2.2
		c-0.2-0.1-0.5-0.2-0.7-0.1L2,27.9l1.7-5.3c0.1-0.2,0-0.5-0.1-0.6c-1.4-2.2-2.1-4.7-2.1-7.3c0-7.3,6-13.3,13.3-13.3
		s13.3,6,13.3,13.3C28,22.1,22.1,28,14.8,28z"/>
</g>
</svg>
