<?xml version="1.0" encoding="utf-8"?>
<!-- Generator: Adobe Illustrator 21.0.0, SVG Export Plug-In . SVG Version: 6.00 Build 0)  -->
<svg version="1.1" id="Layer_1" xmlns="http://www.w3.org/2000/svg" xmlns:xlink="http://www.w3.org/1999/xlink" x="0px" y="0px"
	 viewBox="0 0 29.5 29.5" style="enable-background:new 0 0 29.5 29.5;" xml:space="preserve">
<style type="text/css">
	.st0{fill:#ABB6D6;}
</style>
<g>
	<path class="st0" d="M14.8,0C10.8,0,7.1,1.5,4.3,4.3c-5.8,5.8-5.8,15.1,0,20.9s15.1,5.8,20.9,0c2.8-2.8,4.3-6.5,4.3-10.4
		C29.5,6.6,22.9,0,14.8,0z M14.8,28L14.8,28C7.4,28,1.5,22.1,1.5,14.8c0-7.3,5.9-13.3,13.3-13.3S28,7.4,28,14.8
		C28,22.1,22.1,28,14.8,28z"/>
	<circle class="st0" cx="14.8" cy="21.6" r="1.2"/>
	<path class="st0" d="M14.8,6c-1.2-0.1-2.4,0.4-3.3,1.3c-0.8,1.1-1.2,2.5-1,3.9c0.1,0.4,0.4,0.7,0.8,0.6c0.4,0,0.7-0.4,0.7-0.8
		c-0.1-0.9,0.1-1.9,0.7-2.7c0.6-0.6,1.3-0.9,2.1-0.8c0.8-0.1,1.5,0.2,2.1,0.8c0.5,0.8,0.7,1.7,0.5,2.7c-0.3,0.8-0.8,1.5-1.5,2.1
		c-1.5,1.3-2.2,3.2-2,5.1c0,0.4,0.3,0.7,0.7,0.7l0,0c0,0,0,0,0,0c0.4,0,0.7-0.4,0.7-0.8c-0.2-1.5,0.4-3,1.5-4
		c0.9-0.8,1.5-1.7,1.9-2.8l0,0c0.3-1.4,0-2.8-0.8-3.9C17.3,6.4,16.1,5.9,14.8,6z"/>
</g>
</svg>
