<!-- Generated by IcoMoon.io -->
<svg version="1.1" xmlns="http://www.w3.org/2000/svg" width="32" height="32" viewBox="0 0 32 32">
<path fill="#684a80" d="M11.852 9.158c0.431-0.216 0.539-0.754 0.323-1.077-0.216-0.431-0.754-0.539-1.077-0.323-4.956 2.694-6.788 8.835-4.094 13.791 1.832 3.448 5.387 5.387 9.050 5.387 1.616 0 3.34-0.431 4.848-1.185 4.956-2.694 6.788-8.943 4.094-13.899-0.97-1.724-2.37-3.232-4.094-4.094-0.431-0.215-0.862-0.108-1.077 0.323s-0.108 0.862 0.323 1.077c1.508 0.754 2.694 2.047 3.448 3.448 2.263 4.202 0.646 9.481-3.448 11.744-4.202 2.263-9.481 0.646-11.744-3.448-1.077-2.047-1.293-4.31-0.646-6.572s2.047-4.094 4.094-5.172z"></path>
<path fill="#684a80" d="M16.808 17.239v-9.912c0-0.431-0.323-0.862-0.862-0.862s-0.862 0.323-0.862 0.862v9.912c0 0.431 0.323 0.862 0.862 0.862s0.862-0.323 0.862-0.862z"></path>
<path fill="#684a80" d="M30.599 4.633c-0.431 0-0.862 0.323-0.862 0.862v22.518c0 1.293-1.077 2.478-2.478 2.478h-23.165c-1.293 0-2.478-1.077-2.478-2.478v-23.38c0-1.293 1.077-2.37 2.478-2.37h22.518c0.431 0 0.862-0.323 0.862-0.862s-0.539-0.754-0.97-0.754h-22.411c-2.263 0-4.094 1.832-4.094 3.987v23.273c0 2.263 1.832 4.094 4.094 4.094h23.273c2.263 0 4.094-1.832 4.094-4.094v-22.411c-0.108-0.539-0.431-0.862-0.862-0.862z"></path>
<path fill="#684a80" d="M32 1.401c0 0.774-0.627 1.401-1.401 1.401s-1.401-0.627-1.401-1.401c0-0.774 0.627-1.401 1.401-1.401s1.401 0.627 1.401 1.401z"></path>
</svg>
