<!-- Generated by IcoMoon.io -->
<svg version="1.1" xmlns="http://www.w3.org/2000/svg" width="32" height="32" viewBox="0 0 32 32">
<path fill="#575757" d="M16.13 0c-3.083 0.007-5.961 0.881-8.404 2.391l0.069-0.040c-4.519 2.824-7.48 7.772-7.48 13.411 0 3.066 0.875 5.927 2.39 8.348l-0.039-0.066-2.351 6.946c-0.107 0.214 0 0.427 0 0.534 0.148 0.285 0.441 0.477 0.779 0.477 0.104 0 0.203-0.018 0.296-0.051l-0.006 0.002 6.305-2.885c2.356 1.534 5.238 2.45 8.333 2.458h0.002c8.681-0.027 15.708-7.071 15.708-15.756 0-0.021 0-0.041 0-0.062v0.003c0-0.040 0.001-0.087 0.001-0.134 0-8.602-6.973-15.575-15.575-15.575-0.010 0-0.019 0-0.029 0h0.002zM16.13 29.921c-2.94-0.024-5.671-0.897-7.965-2.386l0.058 0.035c-0.141-0.089-0.312-0.142-0.495-0.142-0.090 0-0.177 0.013-0.259 0.036l0.007-0.002-5.022 2.351 1.817-5.664c0.026-0.067 0.040-0.145 0.040-0.227 0-0.158-0.056-0.302-0.148-0.415l0.001 0.001c-1.407-2.178-2.243-4.838-2.243-7.694 0-7.87 6.349-14.257 14.205-14.319h0.006c7.849 0 14.212 6.363 14.212 14.212s-6.363 14.212-14.212 14.212v0z"></path>
</svg>
