<?xml version="1.0" encoding="utf-8"?>
<!-- Generator: Adobe Illustrator 21.0.0, SVG Export Plug-In . SVG Version: 6.00 Build 0)  -->
<svg version="1.1" id="Layer_1" xmlns="http://www.w3.org/2000/svg" xmlns:xlink="http://www.w3.org/1999/xlink" x="0px" y="0px"
	 viewBox="0 0 22.5 29.5" style="enable-background:new 0 0 22.5 29.5;" xml:space="preserve">
<style type="text/css">
	.st0{fill:#ABB6D6;}
</style>
<g>
	<path class="st0" d="M21.7,10.2h-3V7.1c-0.1-3.9-3.2-7-7.1-7.1C7.5-0.1,4.1,3.1,4,7.1c0,0.4,0.3,0.8,0.8,0.8s0.8-0.3,0.8-0.8
		c0.1-3,2.6-5.5,5.6-5.6c3.2-0.1,6,2.4,6.1,5.6v3.1H0.8c-0.4,0-0.8,0.3-0.8,0.8v17.8c0,0.4,0.3,0.8,0.8,0.8h21
		c0.4,0,0.8-0.3,0.8-0.8V10.9C22.5,10.5,22.1,10.2,21.7,10.2z M21,28H1.5V11.7h16.4c0,0,0,0,0,0s0,0,0,0h3V28z"/>
	<path class="st0" d="M11.2,14.4c-2.1,0-3.9,1.7-3.9,3.9c0,0.6,0.1,1.2,0.4,1.7l-2.3,1.8c0,0,0,0,0,0C5.1,22,5,22.5,5.3,22.8
		c0.1,0.2,0.4,0.3,0.6,0.3c0.2,0,0.3-0.1,0.5-0.2l2.3-1.8c0.7,0.6,1.6,1,2.6,1c2.2,0,3.9-1.7,3.9-3.9S13.4,14.4,11.2,14.4z
		 M11.2,20.7c-1.3,0-2.4-1.1-2.4-2.4c0-1.3,1.1-2.4,2.4-2.4c1.3,0,2.4,1.1,2.4,2.4C13.6,19.6,12.6,20.7,11.2,20.7z"/>
</g>
</svg>
