<!-- Generated by IcoMoon.io -->
<svg version="1.1" xmlns="http://www.w3.org/2000/svg" width="34" height="32" viewBox="0 0 34 32">
<path fill="#575757" d="M18.113 1.883l-9.152 6.166h-8.285c-0.38 0.037-0.675 0.355-0.675 0.742 0 0.010 0 0.021 0.001 0.031v-0.001 14.355c0 0.009-0.001 0.019-0.001 0.029 0 0.387 0.295 0.705 0.672 0.741h8.288l9.152 6.166c0.091 0.062 0.203 0.1 0.324 0.1 0.021 0 0.043-0.001 0.064-0.003h-0.003c0.009 0 0.019 0.001 0.029 0.001 0.387 0 0.705-0.295 0.741-0.672v-26.979c0.002-0.018 0.003-0.040 0.003-0.061 0-0.121-0.037-0.234-0.101-0.326l0.001 0.002c-0.143-0.232-0.395-0.384-0.682-0.384-0.138 0-0.268 0.035-0.381 0.097l0.004-0.002zM17.823 28.088l-8.189-5.491c-0.091-0.062-0.203-0.1-0.324-0.1-0.021 0-0.043 0.001-0.064 0.003h-7.704v-13.006h7.707c0.007 0 0.015 0 0.023 0 0.133 0 0.258-0.036 0.366-0.099l-0.003 0.002 8.189-5.492z"></path>
<path fill="none" stroke="#575757" stroke-linejoin="miter" stroke-linecap="round" stroke-miterlimit="4" stroke-width="1.6842" d="M24.189 11.774l8.311 8.311"></path>
<path fill="none" stroke="#575757" stroke-linejoin="miter" stroke-linecap="round" stroke-miterlimit="4" stroke-width="1.6842" d="M24.054 20.086l8.311-8.311"></path>
</svg>
