<?xml version="1.0" encoding="utf-8"?>
<!-- Generator: Adobe Illustrator 21.0.0, SVG Export Plug-In . SVG Version: 6.00 Build 0)  -->
<svg version="1.1" id="Layer_1" xmlns="http://www.w3.org/2000/svg" xmlns:xlink="http://www.w3.org/1999/xlink" x="0px" y="0px"
	 viewBox="0 0 33.3 29.5" style="enable-background:new 0 0 33.3 29.5;" xml:space="preserve">
<style type="text/css">
	.st0{fill:#ABB6D6;}
</style>
<g>
	<path class="st0" d="M18.8,0.1L9.3,6.5H0.7C0.3,6.5,0,6.9,0,7.3v14.9C0,22.6,0.3,23,0.7,23h8.6l9.5,6.4c0.1,0.1,0.3,0.1,0.4,0.1
		c0.4,0,0.8-0.3,0.8-0.7v-28c0-0.1,0-0.3-0.1-0.4C19.6,0,19.2-0.1,18.8,0.1z M18.5,27.3L10,21.6c-0.1-0.1-0.3-0.1-0.4-0.1h-8V8h8
		C9.7,8,9.8,8,10,7.9l8.5-5.7V27.3z"/>
	<path class="st0" d="M29.5,14.8l3.6-3.6c0.3-0.3,0.3-0.8,0-1.1c-0.3-0.3-0.8-0.3-1.1,0l-3.6,3.6L24.7,10c-0.3-0.3-0.8-0.3-1.1,0
		c-0.3,0.3-0.3,0.8,0,1.1l3.6,3.6l-3.6,3.6c-0.3,0.3-0.3,0.8,0,1.1c0.2,0.2,0.4,0.2,0.6,0.2s0.4-0.1,0.6-0.2l3.6-3.6l3.6,3.6
		c0.2,0.2,0.4,0.2,0.6,0.2s0.4-0.1,0.6-0.2c0.3-0.3,0.3-0.8,0-1.1L29.5,14.8z"/>
</g>
</svg>
