<!-- Generated by IcoMoon.io -->
<svg version="1.1" xmlns="http://www.w3.org/2000/svg" width="32" height="32" viewBox="0 0 32 32">
<path fill="#684a80" d="M30.599 4.633c-0.431 0-0.862 0.323-0.862 0.862v22.518c0 1.293-1.077 2.478-2.478 2.478h-23.165c-1.293 0-2.478-1.077-2.478-2.478v-23.38c0-1.293 1.077-2.37 2.478-2.37h22.518c0.431 0 0.862-0.323 0.862-0.862s-0.539-0.754-0.97-0.754h-22.411c-2.263 0-4.094 1.832-4.094 3.987v23.273c0 2.263 1.832 4.094 4.094 4.094h23.273c2.263 0 4.094-1.832 4.094-4.094v-22.411c-0.108-0.539-0.431-0.862-0.862-0.862z"></path>
<path fill="#684a80" d="M23.704 8.404c-0.323-0.323-0.862-0.323-1.185 0l-6.788 6.788-6.896-6.788c-0.323-0.323-0.862-0.323-1.185 0s-0.323 0.862 0 1.185l6.788 6.788-6.788 6.788c-0.323 0.323-0.323 0.862 0 1.185 0.108 0.108 0.323 0.215 0.539 0.215s0.431-0.108 0.539-0.215l6.788-6.788 6.788 6.788c0.108 0.108 0.323 0.215 0.539 0.215s0.431-0.108 0.539-0.215c0.323-0.323 0.323-0.862 0-1.185l-6.788-6.788 7.111-6.896c0.323-0.323 0.323-0.754 0-1.077z"></path>
<path fill="#684a80" d="M32 1.401c0 0.774-0.627 1.401-1.401 1.401s-1.401-0.627-1.401-1.401c0-0.774 0.627-1.401 1.401-1.401s1.401 0.627 1.401 1.401z"></path>
</svg>
