<svg data-name="Title Bar Icon _ Sound" xmlns="http://www.w3.org/2000/svg" width="37.976" height="29.5" viewBox="0 0 37.976 29.5">
    <path data-name="Path 6243" d="M18.8.1 9.3 6.5H.7a.773.773 0 0 0-.7.8v14.9a.773.773 0 0 0 .7.8h8.6l9.5 6.4a.6.6 0 0 0 .4.1.773.773 0 0 0 .8-.7V.8a.6.6 0 0 0-.1-.4.829.829 0 0 0-1.1-.3zm-.3 27.2L10 21.6a.6.6 0 0 0-.4-.1h-8V8h8a.756.756 0 0 0 .4-.1l8.5-5.7z" style="fill:#575757"/>
    <g data-name="Component 99 – 56">
        <g data-name="Group 8486">
            <path data-name="Path 1144" d="M0 0v12.2" transform="rotate(-45 25.067 -25.124)" style="fill:none;stroke:#575757;stroke-linecap:round;stroke-width:2px"/>
            <path data-name="Path 1145" d="M0 0v12.2" transform="rotate(-135 16.417 4.326)" style="fill:none;stroke:#575757;stroke-linecap:round;stroke-width:2px"/>
        </g>
    </g>
</svg>
