<!-- Generated by IcoMoon.io -->
<svg version="1.1" xmlns="http://www.w3.org/2000/svg" width="32" height="32" viewBox="0 0 32 32">
<path fill="#684a80" d="M30.599 4.633c-0.431 0-0.862 0.323-0.862 0.862v22.518c0 1.293-1.077 2.478-2.478 2.478h-23.165c-1.293 0-2.478-1.077-2.478-2.478v-23.38c0-1.293 1.077-2.37 2.478-2.37h22.518c0.431 0 0.862-0.323 0.862-0.862s-0.539-0.754-0.97-0.754h-22.411c-2.263 0-4.094 1.832-4.094 3.987v23.273c0 2.263 1.832 4.094 4.094 4.094h23.273c2.263 0 4.094-1.832 4.094-4.094v-22.411c-0.108-0.539-0.431-0.862-0.862-0.862z"></path>
<path fill="#684a80" d="M32 1.401c0 0.774-0.627 1.401-1.401 1.401s-1.401-0.627-1.401-1.401c0-0.774 0.627-1.401 1.401-1.401s1.401 0.627 1.401 1.401z"></path>
<path fill="#684a80" d="M19.394 17.67c1.616-1.077 2.694-2.909 2.694-5.064 0.108-3.34-2.586-6.034-5.926-6.034s-6.034 2.694-6.034 6.034c0 2.155 1.077 3.987 2.694 5.064-3.34 1.293-5.71 4.633-5.71 8.404 0 0.431 0.323 0.862 0.862 0.862 0.431 0 0.862-0.323 0.862-0.862 0-4.094 3.232-7.327 7.327-7.434 0 0 0.108 0 0.108 0s0.108 0 0.108 0c3.987 0.108 7.327 3.34 7.327 7.434 0 0.431 0.323 0.862 0.862 0.862 0.431 0 0.862-0.323 0.862-0.862-0.323-3.771-2.694-7.111-6.034-8.404zM16.162 17.024v0c0 0 0 0 0 0s0 0 0 0h-0.216c-2.37 0-4.31-2.047-4.31-4.418 0-2.478 1.939-4.418 4.418-4.418s4.418 1.939 4.418 4.418c0.108 2.478-1.832 4.418-4.31 4.418z"></path>
</svg>
