<!-- Generated by IcoMoon.io -->
<svg version="1.1" xmlns="http://www.w3.org/2000/svg" width="32" height="32" viewBox="0 0 32 32">
<path fill="#575757" d="M27.255 11.122h-3.31c-3.215-0.009 0.287-0.009-1.545 0h-18.207c-0.004 0-0.008 0-0.012 0-0.481 0-0.871 0.39-0.871 0.871 0 0.004 0 0.009 0 0.013v-0.001 19.641c0 0.004 0 0.008 0 0.012 0 0.481 0.39 0.871 0.871 0.871 0.004 0 0.009 0 0.013 0h23.172c0.004 0 0.008 0 0.012 0 0.481 0 0.871-0.39 0.871-0.871 0-0.004 0-0.009 0-0.013v0.001-19.752c-0.127-0.441-0.521-0.76-0.992-0.772h-0.001zM26.483 30.763h-21.517v-17.986h21.407v17.986z"></path>
<path fill="none" stroke="#575757" stroke-linejoin="miter" stroke-linecap="butt" stroke-miterlimit="4" stroke-width="1.6552" d="M12.408 17.005c1.808-1.808 4.739-1.808 6.546 0s1.808 4.739 0 6.546c-1.808 1.808-4.739 1.808-6.546 0s-1.808-4.739 0-6.546z"></path>
<path fill="none" stroke="#575757" stroke-linejoin="miter" stroke-linecap="butt" stroke-miterlimit="4" stroke-width="1.6552" d="M12.993 17.59c1.485-1.485 3.891-1.485 5.376 0s1.485 3.891 0 5.376c-1.485 1.485-3.891 1.485-5.376 0s-1.485-3.891 0-5.376z"></path>
<path fill="none" stroke="#575757" stroke-linejoin="miter" stroke-linecap="round" stroke-miterlimit="4" stroke-width="1.6552" d="M15.719 27.591l-0.039-2.896"></path>
<path fill="none" stroke="#575757" stroke-linejoin="round" stroke-linecap="round" stroke-miterlimit="10" stroke-width="1.6552" d="M9.599 10.918v-3.972c0-3.38 2.74-6.121 6.121-6.121s6.121 2.74 6.121 6.121v0 3.972"></path>
</svg>
