<!-- Generated by IcoMoon.io -->
<svg version="1.1" xmlns="http://www.w3.org/2000/svg" width="32" height="32" viewBox="0 0 32 32">
<path fill="#abb6d6" d="M16.081-0.027c-4.339 0-8.353 1.627-11.39 4.664-6.292 6.292-6.292 16.38 0 22.671s16.38 6.292 22.671 0c3.037-3.037 4.664-7.051 4.664-11.281 0-8.895-7.159-16.054-15.946-16.054zM16.081 30.346v0c-8.027 0-14.427-6.4-14.427-14.319s6.4-14.427 14.427-14.427 14.319 6.4 14.319 14.427c0 7.919-6.4 14.319-14.319 14.319z"></path>
<path fill="#abb6d6" d="M17.166 15.919l6.508-6.508c0.325-0.325 0.325-0.868 0-1.193s-0.868-0.325-1.193 0l-6.508 6.508-6.508-6.508c-0.217-0.217-0.759-0.217-1.085 0.108s-0.325 0.868 0 1.193l6.508 6.508-6.508 6.508c-0.325 0.325-0.325 0.868 0 1.193s0.868 0.325 1.193 0l6.508-6.508 6.508 6.508c0.325 0.325 0.868 0.325 1.193 0s0.325-0.868 0-1.193l-6.617-6.617z"></path>
</svg>
