<!-- Generated by IcoMoon.io -->
<svg version="1.1" xmlns="http://www.w3.org/2000/svg" width="32" height="32" viewBox="0 0 32 32">
<path fill="#abb6d6" d="M30.156 9.314c-1.107-2.121-2.674-3.873-4.519-5.349-0.277-0.184-0.738-0.184-0.922 0.184-0.184 0.277-0.184 0.738 0.184 0.922 0.83 0.646 1.66 1.383 2.398 2.213 4.98 5.902 4.242 14.663-1.568 19.643-0.184 0.092-0.277 0.369-0.277 0.553 0 0.369 0.277 0.646 0.738 0.646 0.184 0 0.369-0.092 0.461-0.184 3.412-2.951 5.349-7.193 5.349-11.62-0.092-2.49-0.646-4.888-1.844-7.009z"></path>
<path fill="#abb6d6" d="M26.651 16.599c0-3.32-1.66-6.455-4.427-8.392-0.277-0.184-0.738-0.092-0.922 0.184s-0.092 0.738 0.184 0.922c2.398 1.66 3.873 4.334 3.873 7.193 0 2.398-1.014 4.795-2.859 6.363-0.184 0.092-0.184 0.277-0.184 0.461 0 0.369 0.277 0.738 0.646 0.738 0.184 0 0.369-0.092 0.461-0.184 1.014-0.922 1.844-2.029 2.398-3.32 0.553-1.107 0.922-2.49 0.83-3.965z"></path>
<path fill="#abb6d6" d="M17.337 2.49l-8.761 5.902h-7.931c-0.369 0-0.646 0.369-0.646 0.738v13.741c0 0.369 0.277 0.738 0.646 0.738h7.931l8.761 5.902c0.092 0.092 0.277 0.092 0.369 0.092v0c0.369 0 0.738-0.277 0.738-0.646v-25.821c0-0.092 0-0.277-0.092-0.369-0.277-0.369-0.646-0.461-1.014-0.277zM17.061 27.573l-7.839-5.256c-0.092-0.092-0.277-0.092-0.369-0.092h-7.378v-12.45h7.378c0.092 0 0.184 0 0.369-0.092l7.839-5.256v23.147z"></path>
</svg>
