<?xml version="1.0" encoding="utf-8"?>
<!-- Generator: Adobe Illustrator 21.0.0, SVG Export Plug-In . SVG Version: 6.00 Build 0)  -->
<svg version="1.1" id="Layer_1" xmlns="http://www.w3.org/2000/svg" xmlns:xlink="http://www.w3.org/1999/xlink" x="0px" y="0px"
	 viewBox="0 0 29.5 29.5" style="enable-background:new 0 0 29.5 29.5;" xml:space="preserve">
<style type="text/css">
	.st0{fill:#ABB6D6;}
</style>
<g>
	<path class="st0" d="M14.8,0C10.8,0,7.1,1.5,4.3,4.3c-5.8,5.8-5.8,15.1,0,20.9s15.1,5.8,20.9,0c2.8-2.8,4.3-6.5,4.3-10.4
		C29.5,6.6,22.9,0,14.8,0z M14.8,28L14.8,28C7.4,28,1.5,22.1,1.5,14.8c0-7.3,5.9-13.3,13.3-13.3S28,7.4,28,14.8
		C28,22.1,22.1,28,14.8,28z"/>
	<path class="st0" d="M15.8,14.7l6-6c0.3-0.3,0.3-0.8,0-1.1s-0.8-0.3-1.1,0l-6,6l-6-6C8.5,7.4,8,7.4,7.7,7.7s-0.3,0.8,0,1.1l6,6
		l-6,6c-0.3,0.3-0.3,0.8,0,1.1c0.3,0.3,0.8,0.3,1.1,0l6-6l6,6c0.3,0.3,0.8,0.3,1.1,0c0.3-0.3,0.3-0.8,0-1.1L15.8,14.7z"/>
</g>
</svg>
