<?xml version="1.0" encoding="utf-8"?>
<!-- Generator: Adobe Illustrator 21.0.0, SVG Export Plug-In . SVG Version: 6.00 Build 0)  -->
<svg version="1.1" id="Layer_1" xmlns="http://www.w3.org/2000/svg" xmlns:xlink="http://www.w3.org/1999/xlink" x="0px" y="0px"
	 viewBox="0 0 29.6 29.6" style="enable-background:new 0 0 29.6 29.6;" xml:space="preserve">
<style type="text/css">
	.st0{fill:#684A80;}
</style>
<g>
	<path class="st0" d="M28.4,4.2c-0.4,0-0.8,0.3-0.8,0.8v20.9c0,1.2-1,2.3-2.3,2.3H3.8c-1.2,0-2.3-1-2.3-2.3V4.2C1.5,3,2.5,2,3.8,2
		h20.9c0.4,0,0.8-0.3,0.8-0.8S25,0.5,24.6,0.5H3.8C1.7,0.5,0,2.2,0,4.2v21.6c0,2.1,1.7,3.8,3.8,3.8h21.6c2.1,0,3.8-1.7,3.8-3.8V5
		C29.1,4.5,28.8,4.2,28.4,4.2z"/>
	<path class="st0" d="M22,7.7c-0.3-0.3-0.8-0.3-1.1,0L14.6,14L8.2,7.7c-0.3-0.3-0.8-0.3-1.1,0s-0.3,0.8,0,1.1l6.3,6.3l-6.3,6.3
		c-0.3,0.3-0.3,0.8,0,1.1c0.1,0.1,0.3,0.2,0.5,0.2s0.4-0.1,0.5-0.2l6.3-6.3l6.3,6.3c0.1,0.1,0.3,0.2,0.5,0.2s0.4-0.1,0.5-0.2
		c0.3-0.3,0.3-0.8,0-1.1l-6.3-6.3L22,8.7C22.3,8.4,22.3,8,22,7.7z"/>
	<circle class="st0" cx="28.4" cy="1.2" r="1.3"/>
</g>
</svg>
