<!-- Generated by IcoMoon.io -->
<svg version="1.1" xmlns="http://www.w3.org/2000/svg" width="32" height="32" viewBox="0 0 32 32">
<path fill="#575757" d="M16.076 0c-0.029 0-0.064 0-0.098 0-8.822 0-15.973 7.151-15.973 15.973 0 4.422 1.797 8.424 4.7 11.316v0c2.89 2.91 6.893 4.711 11.316 4.711s8.426-1.801 11.315-4.71l0.001-0.001c2.877-2.893 4.656-6.881 4.656-11.285 0-8.809-7.116-15.955-15.914-16.004h-0.005zM16.076 30.322c-0.016 0-0.035 0-0.054 0-7.924 0-14.348-6.424-14.348-14.348s6.424-14.348 14.348-14.348c7.924 0 14.348 6.424 14.348 14.348 0 0.019 0 0.038 0 0.057v-0.003c-0.006 7.892-6.402 14.289-14.294 14.294h-0.001z"></path>
<path fill="#575757" d="M20.841 6.931c-0.113-0.072-0.251-0.115-0.4-0.115-0.302 0-0.562 0.178-0.681 0.435l-0.002 0.005c-0.072 0.113-0.115 0.251-0.115 0.4 0 0.302 0.178 0.562 0.435 0.681l0.005 0.002c1.487 0.791 2.674 1.978 3.444 3.421l0.022 0.044c0.649 1.189 1.031 2.604 1.031 4.108 0 4.804-3.895 8.699-8.699 8.699-3.251 0-6.086-1.784-7.579-4.426l-0.023-0.043c-0.63-1.183-1-2.587-1-4.077 0-3.312 1.827-6.198 4.529-7.703l0.045-0.023c0.252-0.138 0.42-0.401 0.42-0.704 0-0.442-0.358-0.799-0.799-0.799-0.139 0-0.269 0.035-0.383 0.098l0.004-0.002c-3.248 1.779-5.414 5.173-5.414 9.074 0 5.686 4.603 10.297 10.286 10.31h0.001c3.907 0 7.308-2.165 9.069-5.361l0.027-0.053c0.789-1.417 1.253-3.108 1.253-4.907 0-3.913-2.195-7.313-5.421-9.036l-0.055-0.027z"></path>
<path fill="#575757" d="M15.968 17.327c0.004 0 0.008 0 0.012 0 0.472 0 0.854-0.383 0.854-0.854 0-0.004 0-0.008 0-0.013v0.001-9.963c0-0.004 0-0.008 0-0.012 0-0.472-0.383-0.854-0.854-0.854-0.004 0-0.008 0-0.013 0h0.001c-0.421 0.077-0.739 0.432-0.758 0.864v10.073c0 0.005 0 0.011 0 0.018 0 0.409 0.332 0.741 0.741 0.741 0.006 0 0.012 0 0.018 0h-0.001z"></path>
</svg>
