<svg id="tool-kit" xmlns="http://www.w3.org/2000/svg" width="19" height="19" viewBox="0 0 19 19">
  <path id="Path_6250" data-name="Path 6250" d="M6.685,31.959,9.474,29.17l-.926-.926L5.759,31.033l-.52-.52a.655.655,0,0,0-.926,0L1.692,33.134a.655.655,0,0,0,0,.926l1.966,1.966a.655.655,0,0,0,.926,0L7.2,33.4a.655.655,0,0,0,0-.926ZM4.121,34.636,3.082,33.6,4.776,31.9l1.039,1.039Z" transform="translate(-1.5 -17.217)"/>
  <path id="Path_6251" data-name="Path 6251" d="M17.414,21.345a3.936,3.936,0,0,1-3.931-3.931A3.826,3.826,0,0,1,13.62,16.4L7.945,10.725a3.831,3.831,0,0,1-1.014.138A3.915,3.915,0,0,1,3.277,5.5l.366-.931,2.17,2.17a.67.67,0,0,0,.926,0,.655.655,0,0,0,0-.926L4.569,3.642,5.5,3.277a3.916,3.916,0,0,1,5.361,3.655,3.826,3.826,0,0,1-.138,1.014L16.4,13.621a3.836,3.836,0,0,1,1.014-.138,3.915,3.915,0,0,1,3.654,5.362l-.365.931-2.171-2.17a.67.67,0,0,0-.926,0,.655.655,0,0,0,0,.926L19.776,20.7l-.932.366a3.9,3.9,0,0,1-1.431.276ZM8.282,9.209l6.854,6.854-.157.4A2.6,2.6,0,0,0,17.25,20.03l-.571-.57a1.966,1.966,0,0,1,0-2.78,2.013,2.013,0,0,1,2.78,0l.57.571a2.6,2.6,0,0,0-3.568-2.271l-.4.157L9.209,8.283l.157-.4A2.6,2.6,0,0,0,7.095,4.316l.57.57a1.966,1.966,0,0,1,0,2.78,2.013,2.013,0,0,1-2.78,0L4.315,7.1A2.6,2.6,0,0,0,7.882,9.366Z" transform="translate(-2.345 -3)"/>
  <path id="Path_6252" data-name="Path 6252" d="M33.781,3.557a2.013,2.013,0,0,0-2.78,0l-4.9,4.9.926.926,4.9-4.9a.671.671,0,0,1,.926,0,.656.656,0,0,1,0,.926l-4.9,4.9.926.927,4.9-4.9a1.967,1.967,0,0,0,0-2.78Z" transform="translate(-15.355 -3)"/>
</svg>
