<!-- Generated by IcoMoon.io -->
<svg version="1.1" xmlns="http://www.w3.org/2000/svg" width="32" height="32" viewBox="0 0 32 32">
<path d="M8.732 24.828l4.697-4.697-1.56-1.56-4.697 4.697-0.876-0.876c-0.2-0.199-0.475-0.323-0.78-0.323s-0.58 0.123-0.78 0.323l-4.414 4.414c-0.199 0.2-0.323 0.475-0.323 0.78s0.123 0.58 0.323 0.78l3.311 3.311c0.2 0.199 0.475 0.323 0.78 0.323s0.58-0.123 0.78-0.323v0l4.406-4.423c0.199-0.2 0.323-0.475 0.323-0.78s-0.123-0.58-0.323-0.78v0zM4.414 29.336l-1.75-1.745 2.853-2.863 1.75 1.75z"></path>
<path d="M25.379 30.896c-3.654-0.005-6.616-2.966-6.62-6.62v0c0-0.608 0.084-1.196 0.242-1.753l-0.011 0.045-9.558-9.558c-0.512 0.147-1.1 0.232-1.707 0.232v0c-0.008 0-0.018 0-0.028 0-3.641 0-6.593-2.952-6.593-6.593 0-0.878 0.172-1.716 0.483-2.483l-0.016 0.044 0.616-1.568 3.655 3.655c0.202 0.194 0.477 0.313 0.78 0.313s0.578-0.119 0.78-0.313v0c0.199-0.2 0.323-0.475 0.323-0.78s-0.123-0.58-0.323-0.78l-3.655-3.656 1.568-0.615c0.721-0.294 1.557-0.465 2.434-0.465 3.642 0 6.595 2.953 6.595 6.595 0 0.009 0 0.018 0 0.027v-0.001c-0.001 0.608-0.086 1.196-0.243 1.753l0.011-0.045 9.561 9.558c0.512-0.147 1.1-0.232 1.707-0.232v0c0.008 0 0.018 0 0.027 0 3.641 0 6.593 2.952 6.593 6.593 0 0.878-0.172 1.715-0.483 2.481l0.016-0.044-0.615 1.568-3.656-3.655c-0.202-0.194-0.477-0.313-0.78-0.313s-0.578 0.119-0.78 0.313v0c-0.199 0.2-0.323 0.475-0.323 0.78s0.123 0.58 0.323 0.78v0l3.655 3.651-1.57 0.616c-0.714 0.292-1.542 0.463-2.409 0.465h-0.001zM9.999 10.457l11.543 11.543-0.264 0.674c-0.2 0.484-0.317 1.046-0.317 1.635 0 2.335 1.827 4.243 4.13 4.372h0.011l-0.962-0.96c-0.599-0.599-0.97-1.427-0.97-2.341s0.37-1.742 0.97-2.341v0c0.607-0.581 1.432-0.938 2.341-0.938s1.734 0.357 2.342 0.939l-0.001-0.001 0.96 0.962c-0.129-2.314-2.037-4.142-4.372-4.142-0.59 0-1.152 0.117-1.666 0.328l0.029-0.011-0.674 0.264-11.54-11.543 0.264-0.674c0.2-0.484 0.317-1.046 0.317-1.635 0-2.335-1.827-4.243-4.13-4.372l-0.011-0.001 0.96 0.96c0.599 0.599 0.97 1.427 0.97 2.341s-0.37 1.742-0.97 2.341v0c-0.607 0.581-1.432 0.938-2.341 0.938s-1.734-0.357-2.342-0.939l0.001 0.001-0.96-0.953c0.134 2.31 2.040 4.133 4.372 4.133 0.589 0 1.151-0.116 1.665-0.328l-0.029 0.011z"></path>
<path d="M31.032 0.938c-0.607-0.581-1.432-0.938-2.341-0.938s-1.734 0.357-2.342 0.939l-8.251 8.251 1.56 1.56 8.252-8.252c0.202-0.193 0.477-0.312 0.78-0.312s0.577 0.119 0.78 0.313v0c0.199 0.2 0.322 0.475 0.322 0.78s-0.123 0.58-0.322 0.78l-8.252 8.252 1.56 1.561 8.252-8.252c0.599-0.599 0.969-1.427 0.969-2.341s-0.37-1.742-0.969-2.341v0z"></path>
</svg>
