<?xml version="1.0" encoding="utf-8"?>
<!-- Generator: Adobe Illustrator 21.0.0, SVG Export Plug-In . SVG Version: 6.00 Build 0)  -->
<svg version="1.1" id="Layer_1" xmlns="http://www.w3.org/2000/svg" xmlns:xlink="http://www.w3.org/1999/xlink" x="0px" y="0px"
	 viewBox="0 0 9.3 17.1" style="enable-background:new 0 0 9.3 17.1;" xml:space="preserve">
<style type="text/css">
	.st0{fill:#FFFFFF;}
</style>
<path class="st0" d="M9.1,8L1.3,0.2c0,0,0,0,0,0C1-0.1,0.5-0.1,0.2,0.2c0,0,0,0,0,0c-0.3,0.3-0.3,0.8,0,1.1l7.3,7.3l-7.3,7.3
	c0,0,0,0,0,0c-0.3,0.3-0.3,0.8,0,1.1c0,0,0,0,0,0c0.3,0.3,0.8,0.3,1.1,0l7.8-7.8c0.1-0.1,0.2-0.3,0.2-0.5C9.3,8.3,9.2,8.2,9.1,8z"/>
</svg>
