<?xml version="1.0" encoding="utf-8"?>
<!-- Generator: Adobe Illustrator 21.0.0, SVG Export Plug-In . SVG Version: 6.00 Build 0)  -->
<svg version="1.1" id="Layer_1" xmlns="http://www.w3.org/2000/svg" xmlns:xlink="http://www.w3.org/1999/xlink" x="0px" y="0px"
	 viewBox="0 0 17.1 9.3" style="enable-background:new 0 0 17.1 9.3;" xml:space="preserve">
<style type="text/css">
	.st0{fill:#FFFFFF;}
</style>
<path class="st0" d="M16.9,0.2C16.9,0.2,16.9,0.2,16.9,0.2c-0.3-0.3-0.8-0.3-1.1,0L8.5,7.5L1.3,0.2c0,0,0,0,0,0
	C1-0.1,0.5-0.1,0.2,0.2c0,0,0,0,0,0c-0.3,0.3-0.3,0.8,0,1.1L8,9.1c0.1,0.1,0.3,0.2,0.5,0.2c0.2,0,0.4-0.1,0.5-0.2l7.8-7.8
	c0,0,0,0,0,0C17.2,1,17.2,0.5,16.9,0.2z"/>
</svg>
