<?xml version="1.0" encoding="utf-8"?>
<!-- Generator: Adobe Illustrator 21.0.0, SVG Export Plug-In . SVG Version: 6.00 Build 0)  -->
<svg version="1.1" id="Layer_1" xmlns="http://www.w3.org/2000/svg" xmlns:xlink="http://www.w3.org/1999/xlink" x="0px" y="0px"
	 viewBox="0 0 16.1 16.1" style="enable-background:new 0 0 16.1 16.1;" xml:space="preserve">
<style type="text/css">
	.st0{fill:#ABB6D6;}
</style>
<path class="st0" d="M10.1,0c-3.3,0-6,2.7-6,6c0,1.4,0.5,2.7,1.3,3.7l-5.1,5.1c0,0,0,0,0,0c-0.3,0.3-0.3,0.8,0,1.1
	c0.1,0.1,0.3,0.2,0.5,0.2c0.2,0,0.4-0.1,0.5-0.2l5.1-5.1c1,0.8,2.3,1.3,3.7,1.3c3.3,0,6-2.7,6-6S13.4,0,10.1,0z M10.1,10.5
	c-2.5,0-4.5-2-4.5-4.5s2-4.5,4.5-4.5c2.5,0,4.5,2,4.5,4.5C14.6,8.5,12.6,10.5,10.1,10.5z"/>
</svg>
