<!-- Generated by IcoMoon.io -->
<svg version="1.1" xmlns="http://www.w3.org/2000/svg" width="32" height="32" viewBox="0 0 32 32">
<path fill="#58cc87" d="M16.078 0c-0.028 0-0.060 0-0.093 0-8.824 0-15.977 7.153-15.977 15.977 0 4.419 1.794 8.419 4.694 11.312v0c2.89 2.909 6.893 4.71 11.316 4.71s8.426-1.801 11.316-4.709l0.001-0.001c2.878-2.893 4.657-6.882 4.657-11.286 0-8.807-7.114-15.952-15.909-16.004h-0.005zM26.583 6.281c-0.541 0.202-1.196 0.386-1.87 0.519l-0.083 0.014c-0.176 0.003-0.331 0.087-0.432 0.215l-0.001 0.001c-0.65 0.65-1.516 1.408-1.841 1.3-0.564-0.148-1.044-0.452-1.405-0.863l-0.003-0.003v-0.749c0-0.866-0.108-1.624-0.758-1.841-0.114-0.046-0.246-0.073-0.384-0.073-0.22 0-0.425 0.068-0.594 0.183l0.004-0.002c-0.108 0-0.325 0.108-0.433 0.108v-0.758c0.022-0.068 0.035-0.147 0.035-0.229 0-0.354-0.237-0.652-0.562-0.745l-0.005-0.001c-0.217-0.108-0.533-0.217-0.758-0.325 0.094-0.153 0.169-0.331 0.214-0.52l0.003-0.012c0.108-0.217 0.217-0.325 0.217-0.533v0-0.234c3.446 0.514 6.437 2.16 8.65 4.539l0.008 0.009zM1.684 16.027c0-0.012 0-0.026 0-0.041 0-4.364 1.965-8.27 5.060-10.879l0.021-0.018c0.544 0.597 0.956 1.324 1.182 2.128l0.009 0.037c0 0.108 0.108 0.217 0.217 0.325 0.302 0.209 0.53 0.506 0.646 0.854l0.003 0.012c0.052 0.195 0.081 0.419 0.081 0.65s-0.030 0.455-0.085 0.668l0.004-0.018v0.433c0.202 0.623 0.318 1.34 0.318 2.084 0 0.029 0 0.058-0.001 0.086v-0.004c-0.281 0.206-0.602 0.385-0.945 0.522l-0.030 0.010c-0.224 0.086-0.407 0.236-0.53 0.429l-0.003 0.004c-0.183 0.417-0.533 0.732-0.964 0.863l-0.011 0.003c-1.176 0.165-2.071 1.164-2.071 2.373 0 0.083 0.004 0.165 0.012 0.245l-0.001-0.010c0.141 1.252 0.525 2.389 1.105 3.4l-0.023-0.043 0.325 0.325c0.305 0.161 0.558 0.38 0.754 0.644l0.004 0.006c0.072 0.299 0.113 0.641 0.113 0.994 0 0.069-0.002 0.139-0.005 0.207v-0.010c-0.002 0.015-0.003 0.032-0.003 0.049 0 0.107 0.042 0.205 0.111 0.276v0c0.363 0.478 0.582 1.084 0.582 1.741 0 0.189-0.018 0.373-0.053 0.552l0.003-0.018c-0.14 0.129-0.326 0.21-0.531 0.217h-0.001c-0.194 0.087-0.346 0.239-0.431 0.428l-0.002 0.005-0.433 0.758c-2.731-2.582-4.431-6.231-4.431-10.276 0-0.004 0-0.008 0-0.012v0.001zM16.078 30.322c-3.22-0.004-6.193-1.060-8.594-2.843l0.039 0.028 0.433-0.866c0.46-0.209 0.831-0.545 1.077-0.963l0.006-0.011c0.134-0.429 0.211-0.922 0.211-1.434 0-0.82-0.198-1.594-0.549-2.276l0.013 0.028c-0.021-0.548-0.099-1.068-0.228-1.567l0.011 0.051c-0.324-0.538-0.762-0.976-1.283-1.29l-0.017-0.009c-0.394-0.719-0.663-1.562-0.756-2.457l-0.002-0.029c0-0.866 0.433-0.975 0.65-0.975h0.108c0.823-0.216 1.505-0.72 1.945-1.395l0.008-0.013c0.651-0.249 1.177-0.704 1.509-1.285l0.008-0.014c0.103-0.307 0.162-0.661 0.162-1.029s-0.059-0.722-0.169-1.052l0.007 0.024c0-0.006 0-0.013 0-0.020 0-0.384-0.080-0.75-0.223-1.081l0.007 0.018c0.052-0.277 0.081-0.595 0.081-0.92s-0.030-0.644-0.086-0.953l0.005 0.032c-0.202-0.622-0.58-1.14-1.075-1.51l-0.008-0.006c-0.275-0.921-0.721-1.717-1.306-2.39l0.007 0.008c2.248-1.534 5.018-2.462 8.002-2.496h0.334c-0.108 0.108-0.108 0.108-0.108 0.217-0.284 0.426-0.453 0.95-0.453 1.513 0 0.116 0.007 0.23 0.021 0.342l-0.001-0.013c0.234 0.481 0.662 0.838 1.179 0.972l0.013 0.003c-0.019 0.098-0.030 0.21-0.030 0.326 0 0.568 0.264 1.075 0.676 1.404l0.004 0.003c0.281 0.205 0.633 0.328 1.013 0.328 0.22 0 0.43-0.041 0.623-0.116l-0.012 0.004v1.3c0.007 0.206 0.088 0.392 0.217 0.533l-0.001-0.001c0.654 0.767 1.551 1.311 2.57 1.511l0.029 0.005h0.217c0.079 0.009 0.171 0.014 0.264 0.014 0.706 0 1.343-0.296 1.793-0.771l0.001-0.001c0.228-0.282 0.477-0.53 0.749-0.751l0.009-0.007c0.999-0.242 1.829-0.502 2.635-0.808l-0.15 0.050c1.691 2.282 2.708 5.154 2.708 8.262 0 0.029 0 0.057 0 0.086v-0.004c0 0.005 0 0.012 0 0.018 0 7.887-6.393 14.28-14.28 14.28-0.003 0-0.006 0-0.009 0v0z"></path>
<path fill="#58cc87" d="M28.207 17.11c-0.394-0.721-1.041-1.263-1.819-1.51l-0.022-0.006c-0.243-0.149-0.528-0.294-0.824-0.418l-0.042-0.016-0.217-0.108-0.866-0.758c-0.057-0.057-0.131-0.096-0.215-0.108h-0.002c-0.788-0.309-1.704-0.538-2.657-0.645l-0.050-0.005c-0.437-0.298-0.937-0.554-1.47-0.744l-0.046-0.014h-0.433c-0.813 0.092-1.548 0.244-2.256 0.456l0.090-0.023c-0.108 0-0.325 0.108-0.325 0.217 0 0-0.533 0.65-1.083 1.408-0.975 1.516-1.191 2.058-1.191 2.485 0 0.65 0.533 1.191 1.191 1.733l0.65 0.65c0 0.217 0.108 0.433 0.108 0.65 0.108 0.433 0.108 0.758 0.217 1.191 0.003 0.032 0.004 0.068 0.004 0.106 0 0.197-0.041 0.384-0.116 0.553l0.003-0.009c-0.437 0.789-0.694 1.73-0.694 2.731 0 0.61 0.095 1.197 0.272 1.748l-0.011-0.041c0.194 0.624 0.676 1.105 1.286 1.296l0.014 0.004c0.143 0.040 0.323 0.078 0.507 0.105l0.026 0.003c1.286-0.25 2.419-0.782 3.374-1.529l-0.017 0.013c0.325-0.217 0.758-0.533 1.083-0.758 1.083-0.433 1.516-1.733 1.841-2.599 0.108-0.217 0.108-0.433 0.217-0.533 0.447-0.573 1.031-1.019 1.705-1.29l0.027-0.010c0.666-0.456 1.187-1.081 1.506-1.814l0.011-0.027c0.213-0.44 0.338-0.957 0.338-1.503 0-0.313-0.041-0.617-0.118-0.906l0.006 0.024zM26.366 18.951c-0.129 0.415-0.398 0.754-0.75 0.97l-0.008 0.004c-0.971 0.445-1.774 1.111-2.37 1.935l-0.012 0.017c-0.108 0.217-0.217 0.533-0.325 0.758-0.217 0.433-0.533 1.516-0.866 1.624-0.585 0.276-1.082 0.565-1.552 0.89l0.036-0.024c-0.687 0.509-1.473 0.947-2.313 1.276l-0.069 0.024h-0.108c-0.085-0.094-0.157-0.201-0.213-0.317l-0.003-0.008c-0.117-0.333-0.184-0.716-0.184-1.115 0-0.669 0.189-1.294 0.518-1.824l-0.009 0.015c0.215-0.488 0.341-1.057 0.341-1.656 0-0.493-0.085-0.966-0.241-1.406l0.009 0.029c-0.030-0.209-0.068-0.389-0.116-0.565l0.008 0.033c0-0.65-0.533-1.083-1.191-1.624l-0.65-0.65c0.472-0.991 1.014-1.844 1.644-2.624l-0.019 0.025c0.433-0.108 0.975-0.217 1.516-0.325v0c0.456 0.162 0.85 0.382 1.2 0.657l-0.009-0.007c0.071 0.069 0.169 0.111 0.276 0.111 0.017 0 0.034-0.001 0.051-0.003h-0.002c0.813 0.092 1.548 0.244 2.256 0.456l-0.090-0.023 0.866 0.758c0.108 0.108 0.217 0.108 0.325 0.217 0.879 0.235 1.642 0.647 2.282 1.198l-0.008-0.006c0.021 0.097 0.033 0.209 0.033 0.324 0 0.317-0.093 0.613-0.254 0.861l0.004-0.006z"></path>
</svg>
