<!-- Generated by IcoMoon.io -->
<svg version="1.1" xmlns="http://www.w3.org/2000/svg" width="32" height="32" viewBox="0 0 32 32">
<path fill="#374775" d="M27.429 0h-16c-2.514 0-4.571 2.057-4.571 4.571v2.286h-2.286c-1.371 0-2.514 0.457-3.2 1.371-0.914 0.686-1.371 1.829-1.371 3.2v16c0 2.514 2.057 4.571 4.571 4.571h16c1.371 0 2.514-0.457 3.2-1.371 0.914-0.914 1.371-2.057 1.371-3.2v-2.286h2.286c2.514 0 4.571-2.057 4.571-4.571v-16c0-2.514-2.057-4.571-4.571-4.571zM23.543 23.543v3.886c0 0.229 0 0.457-0.229 0.686 0 0.229 0 0.457 0 0.457 0 0.229-0.229 0.229-0.229 0.457s-0.229 0.229-0.229 0.457c-0.457 0-0.686 0.229-0.686 0.229-0.229 0-0.229 0.229-0.457 0.229s-0.457 0-0.686 0.229c-0.229 0-0.229 0-0.457 0h-16c-0.229 0-0.457 0-0.686-0.229-0.229 0-0.229 0-0.457 0-0.686-0.229-1.143-0.686-1.6-1.371 0 0 0-0.229 0-0.457s-0.229-0.457-0.229-0.686v-16c0-1.6 1.371-2.743 2.743-2.971h16.229c1.6 0 2.743 1.371 2.971 2.971v12.114zM30.4 20.571c0 1.6-1.371 2.743-2.971 2.971h-2.286v-12.114c0-2.514-2.057-4.571-4.571-4.571h-11.886v-2.286c0-1.6 1.371-2.971 2.743-2.971h16c1.6 0 2.971 1.371 2.971 2.971v16z"></path>
</svg>
