<svg xmlns="http://www.w3.org/2000/svg" width="15.848" height="18.103" viewBox="0 0 15.848 18.103">
  <defs>
    <style>
      .cls-1 {
        fill: #58cc87;
      }
    </style>
  </defs>
  <path id="Menu_Icon___Faults" data-name="Menu Icon _ Faults" class="cls-1" d="M15.738,14.893s-2.2-2.806-2.2-5.612V5.743a5.724,5.724,0,0,0-1.647-4.026l-.183-.183a5.487,5.487,0,0,0-7.747.183A5.575,5.575,0,0,0,2.318,5.743V9.281c0,2.806-2.2,5.551-2.2,5.612A.466.466,0,0,0,0,15.2a.435.435,0,0,0,.488.427h4.7a2.776,2.776,0,0,0,2.745,2.5,2.732,2.732,0,0,0,2.745-2.5h4.7c.122,0,.183-.061.3-.122A.408.408,0,0,0,15.738,14.893ZM8.357,17.21A1.853,1.853,0,0,1,6.1,15.868H9.76A2.066,2.066,0,0,1,8.357,17.21Zm-7.015-2.5A10.556,10.556,0,0,0,3.233,9.281V5.743A4.8,4.8,0,0,1,7.93.924a4.8,4.8,0,0,1,4.7,4.819V9.281a10.556,10.556,0,0,0,1.891,5.429H1.342Z" transform="translate(0 -0.023)"/>
</svg>
