<svg id="Menu_Icon___Performance" data-name="Menu Icon _ Performance" xmlns="http://www.w3.org/2000/svg" width="17.546" height="16.348" viewBox="0 0 17.546 16.348">
  <defs>
    <style>
      .cls-1 {
        fill: #58cc87;
      }
    </style>
  </defs>
  <path id="Path_6253" data-name="Path 6253" class="cls-1" d="M17.507,4.638,16.47,1.1l-3.538.3a.471.471,0,0,0-.427.488.471.471,0,0,0,.488.427l2.135-.183-2.5,3.6L10.37,4.211a.425.425,0,0,0-.61.122L6.649,8.542,3.782,6.651a.392.392,0,0,0-.549.061L.122,10.006a.466.466,0,0,0-.122.3.471.471,0,0,0,.427.488.466.466,0,0,0,.3-.122L3.66,7.627,6.527,9.579a.473.473,0,0,0,.61-.122l3.111-4.209L12.5,6.773a.473.473,0,0,0,.61-.122l2.806-3.965L16.653,5a.436.436,0,0,0,.549.3h0A.543.543,0,0,0,17.507,4.638Z" transform="translate(0 -1.1)"/>
  <path id="Path_6254" data-name="Path 6254" class="cls-1" d="M.988,19.3a.481.481,0,0,0-.488.488v4.27a.481.481,0,0,0,.488.488.432.432,0,0,0,.427-.488v-4.27A.435.435,0,0,0,.988,19.3Z" transform="translate(-0.195 -8.198)"/>
  <path id="Path_6255" data-name="Path 6255" class="cls-1" d="M5.988,15.3a.481.481,0,0,0-.488.488V22.5a.481.481,0,0,0,.488.488.432.432,0,0,0,.427-.488v-6.71A.435.435,0,0,0,5.988,15.3Z" transform="translate(-2.145 -6.638)"/>
  <path id="Path_6256" data-name="Path 6256" class="cls-1" d="M10.988,18.3a.481.481,0,0,0-.488.488v4.575a.481.481,0,0,0,.488.488.432.432,0,0,0,.427-.488V18.788A.435.435,0,0,0,10.988,18.3Z" transform="translate(-4.095 -7.808)"/>
  <path id="Path_6257" data-name="Path 6257" class="cls-1" d="M15.988,12.3a.481.481,0,0,0-.488.488v8.235a.481.481,0,0,0,.488.488.432.432,0,0,0,.427-.488V12.788A.435.435,0,0,0,15.988,12.3Z" transform="translate(-6.045 -5.468)"/>
  <path id="Path_6258" data-name="Path 6258" class="cls-1" d="M20.988,13.3a.481.481,0,0,0-.488.488v7.625a.481.481,0,0,0,.488.488.432.432,0,0,0,.427-.488V13.788A.435.435,0,0,0,20.988,13.3Z" transform="translate(-7.995 -5.858)"/>
  <path id="Path_6259" data-name="Path 6259" class="cls-1" d="M25.827,17.376h0a.481.481,0,0,0,.488-.488v-.061h0a.435.435,0,0,0-.488-.427h0a.435.435,0,0,0-.427.488v.061A.417.417,0,0,0,25.827,17.376Z" transform="translate(-9.906 -7.067)"/>
  <path id="Path_6260" data-name="Path 6260" class="cls-1" d="M25.927,23.576h0a.481.481,0,0,0,.488-.488v-.061h0a.435.435,0,0,0-.488-.427h0a.435.435,0,0,0-.427.488v.061A.417.417,0,0,0,25.927,23.576Z" transform="translate(-9.945 -9.485)"/>
  <path id="Path_6261" data-name="Path 6261" class="cls-1" d="M25.927,25.7h0a.435.435,0,0,0-.427.488v.061a.435.435,0,0,0,.488.427h0a.435.435,0,0,0,.427-.488v-.061h0A.435.435,0,0,0,25.927,25.7Z" transform="translate(-9.945 -10.694)"/>
  <path id="Path_6262" data-name="Path 6262" class="cls-1" d="M25.92,20.476h0a.481.481,0,0,0,.488-.488v-.061h0a.435.435,0,0,0-.488-.427h0a.435.435,0,0,0-.427.488v.061C25.432,20.293,25.615,20.476,25.92,20.476Z" transform="translate(-9.938 -8.276)"/>
  <path id="Path_6263" data-name="Path 6263" class="cls-1" d="M25.727,11.215h0a.481.481,0,0,0,.488-.488h0a.459.459,0,0,0-.915.061v.061A.408.408,0,0,0,25.727,11.215Z" transform="translate(-9.867 -4.688)"/>
  <path id="Path_6264" data-name="Path 6264" class="cls-1" d="M25.821,14.276h0a.481.481,0,0,0,.488-.488v-.061h0a.435.435,0,0,0-.488-.427h0a.435.435,0,0,0-.427.488v.061C25.333,14.093,25.577,14.276,25.821,14.276Z" transform="translate(-9.9 -5.858)"/>
</svg>
