<?xml version="1.0" encoding="utf-8"?>
<!-- Generator: Adobe Illustrator 21.0.0, SVG Export Plug-In . SVG Version: 6.00 Build 0)  -->
<svg version="1.1" id="Layer_1" xmlns="http://www.w3.org/2000/svg" xmlns:xlink="http://www.w3.org/1999/xlink" x="0px" y="0px"
	 viewBox="0 0 15.8 16.6" style="enable-background:new 0 0 15.8 16.6;" xml:space="preserve">
<style type="text/css">
	.st0{fill:#374775;}
</style>
<g>
	<path class="st0" d="M2.8,4.5c0.8,0,1.4-0.6,1.4-1.4c0-0.8-0.6-1.4-1.4-1.4C2,1.8,1.4,2.4,1.4,3.2C1.4,3.9,2,4.5,2.8,4.5z"/>
	<path class="st0" d="M3.7,11.4V7.9c0-0.5,0.2-0.9,0.4-1.3C4,6.6,3.9,6.6,3.8,6.6H1.7c-0.5,0-1,0.4-1,1v2.8l0.8,0.3
		c0.1,0.1,0.2,0.2,0.3,0.3l0.3,3.4h1.7c0,0,0,0,0,0l0.4-2.4C3.9,12,3.7,11.7,3.7,11.4z"/>
	<path class="st0" d="M13,4.5c0.8,0,1.4-0.6,1.4-1.4c0-0.8-0.6-1.4-1.4-1.4c-0.8,0-1.4,0.6-1.4,1.4C11.7,3.9,12.3,4.5,13,4.5z"/>
	<path class="st0" d="M14.1,6.6h-2c-0.1,0-0.3,0-0.4,0.1c0.3,0.4,0.4,0.8,0.4,1.3v3.4c0,0.3-0.2,0.6-0.5,0.7l0.3,2.4c0,0,0,0,0.1,0
		h1.7L14,11c0-0.1,0.1-0.3,0.3-0.3l0.8-0.3V7.6C15.1,7,14.6,6.6,14.1,6.6z"/>
	<path class="st0" d="M7.9,4.9C9,4.9,10,3.9,10,2.8c0-1.1-0.9-2-2.1-2c-1.1,0-2.1,0.9-2.1,2C5.8,3.9,6.8,4.9,7.9,4.9z"/>
	<path class="st0" d="M10.8,6.9c-0.1-0.1-0.2-0.2-0.3-0.2c-0.2-0.1-0.4-0.1-0.6-0.1c0,0,0,0,0,0H5.9c-0.2,0-0.4,0-0.6,0.1
		c0,0,0,0-0.1,0c0,0-0.1,0.1-0.1,0.1C5,6.8,5,6.9,5,6.9C4.9,7,4.8,7.1,4.7,7.2C4.6,7.4,4.5,7.7,4.5,7.9v2.2v1.2l1.4,0.3v0l0.3,4.1
		h3.4l0.3-4.1h0l1.4-0.4v-1.2V7.9c0-0.3-0.1-0.5-0.3-0.8C11,7.1,11,7,10.8,6.9z"/>
</g>
</svg>
