<!-- Generated by IcoMoon.io -->
<svg version="1.1" xmlns="http://www.w3.org/2000/svg" width="32" height="32" viewBox="0 0 32 32">
<path fill="#374775" d="M16 9.924c2.633 0 4.861-2.228 4.861-4.861 0-2.835-2.228-5.063-4.861-5.063s-4.861 2.228-4.861 4.861 2.228 5.063 4.861 5.063zM16 1.418c1.823 0 3.443 1.62 3.443 3.443s-1.62 3.443-3.443 3.443c-1.823 0-3.443-1.62-3.443-3.443s1.62-3.443 3.443-3.443z"></path>
<path fill="#374775" d="M20.253 11.747h-8.506c-1.823 0-3.443 1.62-3.443 3.646v6.886c0 0.405 0.203 0.608 0.608 0.81l2.228 0.608 0.608 7.696c0 0.405 0.405 0.608 0.81 0.608h6.886c0.405 0 0.81-0.203 0.81-0.608l0.608-7.696 2.228-0.608c0.405 0 0.608-0.405 0.608-0.81v-6.886c0-2.025-1.62-3.646-3.443-3.646zM22.279 21.671l-2.228 0.608c-0.405 0-0.608 0.405-0.608 0.608l-0.608 7.696h-5.671l-0.608-7.696c0-0.405-0.203-0.608-0.608-0.608l-2.228-0.608v-6.278c0-1.215 0.81-2.025 2.025-2.025h8.304c1.215 0 2.025 0.81 2.025 2.025v6.278z"></path>
</svg>
