<svg id="Menu_Icon___Inventory" data-name="Menu Icon _ Inventory" xmlns="http://www.w3.org/2000/svg" width="14.335" height="17.69" viewBox="0 0 14.335 17.69">
  <defs>
    <style>
      .cls-1 {
        fill: #58cc87;
      }
    </style>
  </defs>
  <path id="Path_6248" data-name="Path 6248" class="cls-1" d="M14.213,4.758a.131.131,0,0,0-.122-.122L9.638.183C9.577.122,9.516.122,9.516.061A.224.224,0,0,0,9.333,0H.488A.449.449,0,0,0,0,.488V17.2a.481.481,0,0,0,.488.488H13.847a.481.481,0,0,0,.488-.488V4.88C14.274,4.88,14.274,4.819,14.213,4.758ZM9.821,1.586l2.867,2.867H9.821V1.586ZM.915,16.714V.915H8.906V4.88a.481.481,0,0,0,.488.488H13.42V16.714Z"/>
  <path id="Path_6249" data-name="Path 6249" class="cls-1" d="M12.2,21.4H5.488a.488.488,0,1,0,0,.976H12.2a.481.481,0,0,0,.488-.488C12.625,21.583,12.442,21.4,12.2,21.4Z" transform="translate(-1.95 -8.346)"/>
  <path id="Path_6250" data-name="Path 6250" class="cls-1" d="M12.2,16.4H5.488a.488.488,0,1,0,0,.976H12.2a.481.481,0,0,0,.488-.488C12.625,16.583,12.442,16.4,12.2,16.4Z" transform="translate(-1.95 -6.396)"/>
  <path id="Path_6251" data-name="Path 6251" class="cls-1" d="M12.2,11.4H5.488a.488.488,0,1,0,0,.976H12.2a.481.481,0,0,0,.488-.488C12.625,11.583,12.442,11.4,12.2,11.4Z" transform="translate(-1.95 -4.446)"/>
  <path id="Path_6252" data-name="Path 6252" class="cls-1" d="M5.488,8.276h2.44a.488.488,0,1,0,0-.976H5.488c-.3.061-.488.244-.488.488A.481.481,0,0,0,5.488,8.276Z" transform="translate(-1.95 -2.847)"/>
</svg>
