<?xml version="1.0" encoding="utf-8"?>
<!-- Generator: Adobe Illustrator 21.0.0, SVG Export Plug-In . SVG Version: 6.00 Build 0)  -->
<svg version="1.1" id="Layer_1" xmlns="http://www.w3.org/2000/svg" xmlns:xlink="http://www.w3.org/1999/xlink" x="0px" y="0px"
	 viewBox="0 0 7.6 15.8" style="enable-background:new 0 0 7.6 15.8;" xml:space="preserve">
<style type="text/css">
	.st0{fill:#374775;}
</style>
<g>
	<path class="st0" d="M3.8,4.9c1.3,0,2.4-1.1,2.4-2.4C6.2,1.1,5.1,0,3.8,0C2.5,0,1.4,1.1,1.4,2.4S2.5,4.9,3.8,4.9z M3.8,0.7
		c0.9,0,1.7,0.8,1.7,1.7c0,0.9-0.8,1.7-1.7,1.7c-0.9,0-1.7-0.8-1.7-1.7C2.1,1.5,2.9,0.7,3.8,0.7z"/>
	<path class="st0" d="M5.9,5.8H1.7C0.8,5.8,0,6.6,0,7.6V11c0,0.2,0.1,0.3,0.3,0.4l1.1,0.3l0.3,3.8c0,0.2,0.2,0.3,0.4,0.3h3.4
		c0.2,0,0.4-0.1,0.4-0.3l0.3-3.8l1.1-0.3c0.2,0,0.3-0.2,0.3-0.4V7.6C7.6,6.6,6.8,5.8,5.9,5.8z M6.9,10.7L5.8,11
		c-0.2,0-0.3,0.2-0.3,0.3l-0.3,3.8H2.4l-0.3-3.8C2.1,11.1,2,11,1.8,11l-1.1-0.3V7.6c0-0.6,0.4-1,1-1h4.1c0.6,0,1,0.4,1,1V10.7z"/>
</g>
</svg>
