<?xml version="1.0" encoding="utf-8"?>
<!-- Generator: Adobe Illustrator 21.0.0, SVG Export Plug-In . SVG Version: 6.00 Build 0)  -->
<svg version="1.1" id="Layer_1" xmlns="http://www.w3.org/2000/svg" xmlns:xlink="http://www.w3.org/1999/xlink" x="0px" y="0px"
	 viewBox="0 0 12.4 13.2" style="enable-background:new 0 0 12.4 13.2;" xml:space="preserve">
<style type="text/css">
	.st0{fill:#C65161;}
</style>
<g id="trash-simple" transform="translate(0.375 0.375)">
	<g>
		<path class="st0" d="M10.8,4.6c-0.2,0-0.4,0.2-0.4,0.4v5.8c0,0.7-0.6,1.3-1.3,1.3H2.5c-0.7,0-1.3-0.6-1.3-1.3V5
			c0-0.2-0.2-0.4-0.4-0.4C0.6,4.6,0.5,4.8,0.5,5v5.8c0,1.1,0.9,2,2,2h6.6c1.1,0,2-0.9,2-2V5C11.2,4.8,11,4.6,10.8,4.6z"/>
		<path class="st0" d="M11.6,2.1H7.9V0c0,0,0,0,0,0c0-0.2-0.2-0.4-0.4-0.4H4.2C3.9-0.4,3.8-0.2,3.8,0v2.1H0c-0.2,0-0.4,0.2-0.4,0.4
			c0,0.2,0.2,0.4,0.4,0.4h7.5h0h4.1c0.2,0,0.4-0.2,0.4-0.4C12,2.3,11.8,2.1,11.6,2.1z M4.5,0.4h2.6v1.7H4.5V0.4z"/>
		<path class="st0" d="M6.2,10V5.8c0-0.2-0.2-0.4-0.4-0.4c-0.2,0-0.4,0.2-0.4,0.4V10c0,0.2,0.2,0.4,0.4,0.4C6,10.3,6.2,10.2,6.2,10z
			"/>
		<path class="st0" d="M3.7,10V8.8v-3v0c0-0.2-0.2-0.4-0.4-0.4c-0.2,0-0.4,0.2-0.4,0.4v0v3V10c0,0.2,0.2,0.4,0.4,0.4
			C3.5,10.3,3.7,10.2,3.7,10z"/>
		<path class="st0" d="M8.7,10V5.8c0-0.2-0.2-0.4-0.4-0.4S7.9,5.6,7.9,5.8V10c0,0.2,0.2,0.4,0.4,0.4S8.7,10.2,8.7,10z"/>
	</g>
</g>
</svg>
