<svg id="Menu_Icon___User_Management" data-name="Menu Icon _ User Management" xmlns="http://www.w3.org/2000/svg" width="17.995" height="18.056" viewBox="0 0 17.995 18.056">
  <defs>
    <style>
      .cls-1 {
        fill: #58cc87;
      }
    </style>
  </defs>
  <path id="Path_6268" data-name="Path 6268" class="cls-1" d="M3.913,5.926A2.013,2.013,0,1,0,1.9,3.913,2.031,2.031,0,0,0,3.913,5.926Zm0-3.111a1.1,1.1,0,1,1-1.1,1.1A1.093,1.093,0,0,1,3.913,2.815Z" transform="translate(-0.741 -0.68)"/>
  <path id="Path_6269" data-name="Path 6269" class="cls-1" d="M23.013,5.926A2.013,2.013,0,1,0,21,3.913,2.031,2.031,0,0,0,23.013,5.926Zm0-3.111a1.1,1.1,0,1,1-1.1,1.1A1.093,1.093,0,0,1,23.013,2.815Z" transform="translate(-8.19 -0.68)"/>
  <path id="Path_6270" data-name="Path 6270" class="cls-1" d="M15.982,10.2H13.664a1.986,1.986,0,0,0-1.4.61,2.021,2.021,0,0,0-.915-.244H6.71a1.721,1.721,0,0,0-.915.244,1.986,1.986,0,0,0-1.4-.61H2.013A2.031,2.031,0,0,0,0,12.213V15.69a.459.459,0,0,0,.3.427l.915.3.366,3.965a.458.458,0,0,0,.427.427H4.331a.488.488,0,1,0,0-.976H2.44l-.366-3.843a.387.387,0,0,0-.3-.366l-.854-.3V12.152a1.093,1.093,0,0,1,1.1-1.1H4.331a1.125,1.125,0,0,1,.732.3,2.108,2.108,0,0,0-.427,1.22v3.9A.446.446,0,0,0,5,16.91l1.22.3.366,4.331a.458.458,0,0,0,.427.427h3.9a.518.518,0,0,0,.488-.427l.366-4.331,1.22-.3a.523.523,0,0,0,.366-.427v-3.9a2.27,2.27,0,0,0-.427-1.22,1.01,1.01,0,0,1,.732-.3h2.318a1.093,1.093,0,0,1,1.1,1.1v3.172l-.854.3a.387.387,0,0,0-.3.366l-.366,3.843H13.664a.488.488,0,1,0,0,.976h2.318a.518.518,0,0,0,.488-.427l.366-3.965.854-.3a.459.459,0,0,0,.3-.427V12.213A1.992,1.992,0,0,0,15.982,10.2Zm-3.538,5.917-1.22.3a.535.535,0,0,0-.366.427l-.366,4.209H7.442l-.366-4.27a.523.523,0,0,0-.366-.427l-1.22-.3V12.518a1.093,1.093,0,0,1,1.1-1.1h4.636a1.093,1.093,0,0,1,1.1,1.1v3.6Z" transform="translate(0 -3.917)"/>
  <path id="Path_6271" data-name="Path 6271" class="cls-1" d="M13.006,5.512a2.806,2.806,0,1,0,0-5.612A2.761,2.761,0,0,0,10.2,2.706,2.761,2.761,0,0,0,13.006,5.512Zm0-4.636a1.891,1.891,0,1,1-1.891,1.891A1.9,1.9,0,0,1,13.006.876Z" transform="translate(-3.978 0.1)"/>
</svg>
