<!-- Generated by IcoMoon.io -->
<svg version="1.1" xmlns="http://www.w3.org/2000/svg" width="32" height="32" viewBox="0 0 32 32">
<path fill="#374775" d="M5.047 7.946c1.718 0 3.007-1.289 3.007-3.007s-1.289-3.007-3.007-3.007c-1.718 0.215-3.007 1.503-3.007 3.221 0 1.503 1.289 2.792 3.007 2.792z"></path>
<path fill="#374775" d="M6.98 22.765v-7.517c0-1.074 0.429-1.933 0.859-2.792-0.215 0-0.429 0-0.644 0h-4.51c-1.074 0-2.148 0.859-2.148 2.148v6.013l1.718 0.644c0.215 0.215 0.429 0.429 0.644 0.644l0.644 7.302h3.651c0 0 0 0 0 0l0.859-5.154c-0.644 0-1.074-0.644-1.074-1.289z"></path>
<path fill="#374775" d="M26.953 7.946c1.718 0 3.007-1.289 3.007-3.007s-1.289-3.007-3.007-3.007c-1.718 0-3.007 1.289-3.007 3.007 0.215 1.718 1.503 3.007 3.007 3.007z"></path>
<path fill="#374775" d="M29.315 12.456h-4.295c-0.215 0-0.644 0-0.859 0.215 0.644 0.859 0.859 1.718 0.859 2.792v7.302c0 0.644-0.429 1.289-1.074 1.503l0.644 5.154c0 0 0 0 0.215 0h3.651l0.644-7.517c0-0.215 0.215-0.644 0.644-0.644l1.718-0.644v-6.013c0-1.289-1.074-2.148-2.148-2.148z"></path>
<path fill="#374775" d="M16 8.805c2.362 0 4.51-2.148 4.51-4.51s-1.933-4.295-4.51-4.295c-2.362 0-4.51 1.933-4.51 4.295s2.148 4.51 4.51 4.51z"></path>
<path fill="#374775" d="M22.228 13.101c-0.215-0.215-0.429-0.429-0.644-0.429-0.429-0.215-0.859-0.215-1.289-0.215 0 0 0 0 0 0h-8.591c-0.429 0-0.859 0-1.289 0.215 0 0 0 0-0.215 0 0 0-0.215 0.215-0.215 0.215-0.215 0-0.215 0.215-0.215 0.215-0.215 0.215-0.429 0.429-0.644 0.644-0.215 0.429-0.429 1.074-0.429 1.503v7.302l3.007 0.644 0.644 8.805h7.302l0.644-8.805 3.007-0.859v-7.087c0-0.644-0.215-1.074-0.644-1.718 0 0 0-0.215-0.429-0.429z"></path>
</svg>
