<svg id="Menu_Icon___Discovery" data-name="Menu Icon _ Discovery" xmlns="http://www.w3.org/2000/svg" width="19.168" height="19.214" viewBox="0 0 19.168 19.214">
  <defs>
    <style>
      .cls-1 {
        fill: #58cc87;
      }
    </style>
  </defs>
  <path id="Path_6246" data-name="Path 6246" class="cls-1" d="M18.918,9.15l-.427-.183a8.872,8.872,0,0,0-8.3-8.3L10.012.244A.514.514,0,0,0,9.585,0a.459.459,0,0,0-.427.3L8.975.671a8.792,8.792,0,0,0-8.3,8.3L.313,9.15a.476.476,0,0,0-.244.244A.446.446,0,0,0,.313,10l.427.183a8.792,8.792,0,0,0,8.3,8.3l.122.427a.459.459,0,0,0,.427.3h0a.459.459,0,0,0,.427-.3l.183-.366a8.792,8.792,0,0,0,8.3-8.3l.366-.183a.476.476,0,0,0,.244-.244A.436.436,0,0,0,18.918,9.15ZM9.585,17.629A8.052,8.052,0,1,1,17.7,9.577,8.031,8.031,0,0,1,9.585,17.629Z" transform="translate(-0.022)"/>
  <path id="Path_6247" data-name="Path 6247" class="cls-1" d="M16.872,8.3a.224.224,0,0,0-.183.061L11.2,10.923a.476.476,0,0,0-.244.244L8.271,16.779a.389.389,0,0,0,0,.366.5.5,0,0,0,.61.244l5.551-2.623a.476.476,0,0,0,.244-.244L17.3,8.971c0-.061.061-.122.061-.183A.449.449,0,0,0,16.872,8.3Zm-5.124,3.355,2.135,2.318L9.674,15.925Z" transform="translate(-3.221 -3.237)"/>
</svg>
