<?xml version="1.0" encoding="utf-8"?>
<!-- Generator: Adobe Illustrator 27.9.0, SVG Export Plug-In . SVG Version: 6.00 Build 0)  -->
<svg version="1.1" id="Layer_1" xmlns="http://www.w3.org/2000/svg" xmlns:xlink="http://www.w3.org/1999/xlink" x="0px" y="0px"
	 viewBox="0 0 12 12" style="enable-background:new 0 0 12 12;" xml:space="preserve">
<style type="text/css">
	.st0{fill:#1B65BD;}
	.st1{fill:#85C2FF;}
	.st2{fill:none;stroke:#1B65BD;stroke-miterlimit:10;}
</style>
<g>
	<g>
		<path class="st0" d="M10,7.37c0.36-0.35,0.8-0.78,0.81-2.04h0.41V4.5H6.64v0.83h0.42c0,0.08,0,0.16,0.01,0.23
			c0.03,0.67,0.2,1.07,0.4,1.36c0.13,0.19,0.27,0.32,0.4,0.45c0.25,0.25,0.44,0.42,0.44,0.88S8.12,8.88,7.87,9.13
			C7.51,9.47,7.06,9.9,7.06,11.17H6.64V12h4.58v-0.83h-0.41c0-1.27-0.45-1.7-0.81-2.04C9.74,8.88,9.56,8.71,9.56,8.25
			S9.74,7.62,10,7.37z M9.14,8.25c0,0.63,0.29,0.91,0.57,1.18c0.34,0.32,0.68,0.65,0.68,1.74H7.47c0-1.09,0.35-1.42,0.68-1.74
			c0.28-0.27,0.57-0.55,0.57-1.18S8.44,7.34,8.16,7.07c-0.15-0.14-0.3-0.28-0.42-0.49C7.59,6.32,7.48,5.94,7.47,5.33h2.92
			c0,1.09-0.35,1.42-0.68,1.74C9.43,7.34,9.14,7.62,9.14,8.25z"/>
		<path class="st1" d="M9.97,10.75H7.89c0-0.45,0.52-0.88,1.04-1.25C9.45,9.87,9.97,10.29,9.97,10.75z"/>
		<path class="st1" d="M9.97,5.92c0,0.46-0.52,0.88-1.04,1.25C8.52,6.87,8.11,6.55,7.96,6.2C7.91,6.11,7.89,6.01,7.89,5.92
			C7.95,5.95,8.01,5.98,8.06,6C8.74,6.32,9.32,6.28,9.97,5.92z"/>
	</g>
</g>
<g>
	<path class="st0" d="M8.44,4.5c0.01-0.09,0.01-0.18,0.01-0.27C8.45,1.89,6.56,0,4.23,0C1.89,0,0,1.89,0,4.23
		c0,2.33,1.89,4.22,4.23,4.22c1.31,0,2.47-0.59,3.24-1.53c-0.2-0.29-0.37-0.69-0.4-1.36c0,0.01-0.01,0.01-0.01,0.01
		c-0.05,0.11-0.1,0.22-0.17,0.32C6.7,6.21,6.45,6.48,6.16,6.7C6.05,6.8,5.93,6.88,5.8,6.95C5.57,7.09,5.31,7.19,5.04,7.26
		C4.96,7.29,4.87,7.31,4.78,7.32C4.71,7.33,4.64,7.34,4.56,7.35C4.45,7.36,4.34,7.37,4.23,7.37c-1.73,0-3.15-1.4-3.15-3.14
		c0-1.73,1.42-3.15,3.15-3.15c1.74,0,3.14,1.42,3.14,3.15c0,0.09,0,0.18-0.02,0.27H8.44z"/>
	<path class="st1" d="M6.64,4.5v0.83h0.42c0,0.08,0,0.16,0.01,0.23c0,0.01-0.01,0.01-0.01,0.01c-0.05,0.11-0.1,0.22-0.17,0.32
		C6.7,6.21,6.45,6.48,6.16,6.7C6.05,6.8,5.93,6.88,5.8,6.95C5.57,7.09,5.31,7.19,5.04,7.26C4.96,7.29,4.87,7.31,4.78,7.32
		C4.71,7.33,4.64,7.34,4.56,7.35C4.45,7.36,4.34,7.37,4.23,7.37c-1.73,0-3.15-1.4-3.15-3.14c0-1.73,1.42-3.15,3.15-3.15
		c1.74,0,3.14,1.42,3.14,3.15c0,0.09,0,0.18-0.02,0.27H6.64z"/>
	<polyline class="st2" points="4.23,1.6 4.23,4.57 5.52,5.86 	"/>
</g>
</svg>
