<!-- Generated by IcoMoon.io -->
<svg version="1.1" xmlns="http://www.w3.org/2000/svg" width="32" height="32" viewBox="0 0 32 32">
<path fill="#1b65bd" d="M26.667 19.653c0.96-0.933 2.133-2.080 2.16-5.44h1.093v-2.213h-12.213v2.213h1.12c0 0.213 0 0.427 0.027 0.613 0.080 1.787 0.533 2.853 1.067 3.627 0.347 0.507 0.72 0.853 1.067 1.2 0.667 0.667 1.173 1.12 1.173 2.347s-0.507 1.68-1.173 2.347c-0.96 0.907-2.16 2.053-2.16 5.44h-1.12v2.213h12.213v-2.213h-1.093c0-3.387-1.2-4.533-2.16-5.44-0.693-0.667-1.173-1.12-1.173-2.347s0.48-1.68 1.173-2.347zM24.373 22c0 1.68 0.773 2.427 1.52 3.147 0.907 0.853 1.813 1.733 1.813 4.64h-7.787c0-2.907 0.933-3.787 1.813-4.64 0.747-0.72 1.52-1.467 1.52-3.147s-0.747-2.427-1.493-3.147c-0.4-0.373-0.8-0.747-1.12-1.307-0.4-0.693-0.693-1.707-0.72-3.333h7.787c0 2.907-0.933 3.787-1.813 4.64-0.747 0.72-1.52 1.467-1.52 3.147z"></path>
<path fill="#85c2ff" d="M26.587 28.667h-5.547c0-1.2 1.387-2.347 2.773-3.333 1.387 0.987 2.773 2.107 2.773 3.333z"></path>
<path fill="#85c2ff" d="M26.587 15.787c0 1.227-1.387 2.347-2.773 3.333-1.093-0.8-2.187-1.653-2.587-2.587-0.133-0.24-0.187-0.507-0.187-0.747 0.16 0.080 0.32 0.16 0.453 0.213 1.813 0.853 3.36 0.747 5.093-0.213z"></path>
<path fill="#1b65bd" d="M22.507 12c0.027-0.24 0.027-0.48 0.027-0.72 0-6.24-5.040-11.28-11.253-11.28-6.24 0-11.28 5.040-11.28 11.28 0 6.213 5.040 11.253 11.28 11.253 3.493 0 6.587-1.573 8.64-4.080-0.533-0.773-0.987-1.84-1.067-3.627 0 0.027-0.027 0.027-0.027 0.027-0.133 0.293-0.267 0.587-0.453 0.853-0.507 0.853-1.173 1.573-1.947 2.16-0.293 0.267-0.613 0.48-0.96 0.667-0.613 0.373-1.307 0.64-2.027 0.827-0.213 0.080-0.453 0.133-0.693 0.16-0.187 0.027-0.373 0.053-0.587 0.080-0.293 0.027-0.587 0.053-0.88 0.053-4.613 0-8.4-3.733-8.4-8.373 0-4.613 3.787-8.4 8.4-8.4 4.64 0 8.373 3.787 8.373 8.4 0 0.24 0 0.48-0.053 0.72h2.907z"></path>
<path fill="#85c2ff" d="M17.707 12v2.213h1.12c0 0.213 0 0.427 0.027 0.613 0 0.027-0.027 0.027-0.027 0.027-0.133 0.293-0.267 0.587-0.453 0.853-0.507 0.853-1.173 1.573-1.947 2.16-0.293 0.267-0.613 0.48-0.96 0.667-0.613 0.373-1.307 0.64-2.027 0.827-0.213 0.080-0.453 0.133-0.693 0.16-0.187 0.027-0.373 0.053-0.587 0.080-0.293 0.027-0.587 0.053-0.88 0.053-4.613 0-8.4-3.733-8.4-8.373 0-4.613 3.787-8.4 8.4-8.4 4.64 0 8.373 3.787 8.373 8.4 0 0.24 0 0.48-0.053 0.72h-1.893z"></path>
<path fill="none" stroke="#1b65bd" stroke-linejoin="miter" stroke-linecap="butt" stroke-miterlimit="10" stroke-width="2.6667" d="M11.28 4.267v7.92l3.44 3.44"></path>
</svg>
